G04 #@! TF.GenerationSoftware,KiCad,Pcbnew,(6.0.6-0)*
G04 #@! TF.CreationDate,2022-11-15T04:41:16+09:00*
G04 #@! TF.ProjectId,MahJamma,4d61684a-616d-46d6-912e-6b696361645f,rev?*
G04 #@! TF.SameCoordinates,Original*
G04 #@! TF.FileFunction,Copper,L2,Bot*
G04 #@! TF.FilePolarity,Positive*
%FSLAX46Y46*%
G04 Gerber Fmt 4.6, Leading zero omitted, Abs format (unit mm)*
G04 Created by KiCad (PCBNEW (6.0.6-0)) date 2022-11-15 04:41:16*
%MOMM*%
%LPD*%
G01*
G04 APERTURE LIST*
G04 #@! TA.AperFunction,SMDPad,CuDef*
%ADD10R,1.980000X9.900000*%
G04 #@! TD*
G04 #@! TA.AperFunction,ComponentPad*
%ADD11R,1.700000X1.700000*%
G04 #@! TD*
G04 #@! TA.AperFunction,ComponentPad*
%ADD12O,1.700000X1.700000*%
G04 #@! TD*
G04 #@! TA.AperFunction,ComponentPad*
%ADD13C,1.900000*%
G04 #@! TD*
G04 #@! TA.AperFunction,ComponentPad*
%ADD14C,3.300000*%
G04 #@! TD*
G04 #@! TA.AperFunction,ViaPad*
%ADD15C,0.400000*%
G04 #@! TD*
G04 #@! TA.AperFunction,Conductor*
%ADD16C,0.250000*%
G04 #@! TD*
G04 #@! TA.AperFunction,Conductor*
%ADD17C,1.500000*%
G04 #@! TD*
G04 #@! TA.AperFunction,Conductor*
%ADD18C,0.500000*%
G04 #@! TD*
G04 #@! TA.AperFunction,Conductor*
%ADD19C,0.750000*%
G04 #@! TD*
G04 #@! TA.AperFunction,Conductor*
%ADD20C,0.400000*%
G04 #@! TD*
G04 #@! TA.AperFunction,Conductor*
%ADD21C,0.300000*%
G04 #@! TD*
G04 APERTURE END LIST*
D10*
X101480000Y-51435000D03*
X105440000Y-51435000D03*
X109400000Y-51435000D03*
X113360000Y-51435000D03*
X117320000Y-51435000D03*
X121280000Y-51435000D03*
X125240000Y-51435000D03*
X129200000Y-51435000D03*
X133160000Y-51435000D03*
X137120000Y-51435000D03*
X141080000Y-51435000D03*
X145040000Y-51435000D03*
X149000000Y-51435000D03*
X152960000Y-51435000D03*
X156920000Y-51435000D03*
X160880000Y-51435000D03*
X164840000Y-51435000D03*
X168800000Y-51435000D03*
X172760000Y-51435000D03*
X176720000Y-51435000D03*
X180680000Y-51435000D03*
X184640000Y-51435000D03*
X188600000Y-51435000D03*
X192560000Y-51435000D03*
X196520000Y-51435000D03*
X200480000Y-51435000D03*
X204440000Y-51435000D03*
X208400000Y-51435000D03*
D11*
X185415000Y-73655000D03*
D12*
X185415000Y-76195000D03*
X182875000Y-73655000D03*
X182875000Y-76195000D03*
X180335000Y-73655000D03*
X180335000Y-76195000D03*
X177795000Y-73655000D03*
X177795000Y-76195000D03*
X175255000Y-73655000D03*
X175255000Y-76195000D03*
D11*
X105410000Y-77470000D03*
D12*
X105410000Y-80010000D03*
D11*
X109220000Y-77470000D03*
D12*
X109220000Y-80010000D03*
D13*
X108120000Y-63810000D03*
X108120000Y-66310000D03*
X108120000Y-68310000D03*
X108120000Y-70810000D03*
D14*
X105410000Y-60740000D03*
X105410000Y-73880000D03*
D10*
X208400000Y-86360000D03*
X204440000Y-86360000D03*
X200480000Y-86360000D03*
X196520000Y-86360000D03*
X192560000Y-86360000D03*
X188600000Y-86360000D03*
X184640000Y-86360000D03*
X180680000Y-86360000D03*
X176720000Y-86360000D03*
X172760000Y-86360000D03*
X168800000Y-86360000D03*
X164840000Y-86360000D03*
X160880000Y-86360000D03*
X156920000Y-86360000D03*
X152960000Y-86360000D03*
X149000000Y-86360000D03*
X145040000Y-86360000D03*
X141080000Y-86360000D03*
X137120000Y-86360000D03*
X133160000Y-86360000D03*
X129200000Y-86360000D03*
X125240000Y-86360000D03*
X121280000Y-86360000D03*
X117320000Y-86360000D03*
X113360000Y-86360000D03*
X109400000Y-86360000D03*
X105440000Y-86360000D03*
X101480000Y-86360000D03*
D15*
X124206000Y-72898000D03*
X124587000Y-72517000D03*
X129032000Y-77851000D03*
X128397000Y-78486000D03*
X131699000Y-69977000D03*
X126603265Y-66842741D03*
X125295034Y-67321991D03*
X132578223Y-68335777D03*
X132504601Y-67520399D03*
X103541000Y-75819000D03*
X112899060Y-78235940D03*
X112475000Y-77470000D03*
X116903500Y-58737500D03*
X118173500Y-58737500D03*
X151511000Y-75438000D03*
X160972500Y-72961500D03*
X147574000Y-73152000D03*
X151124200Y-79254500D03*
X156972000Y-80264000D03*
X155194000Y-75565000D03*
X116713000Y-62002500D03*
X117983000Y-62002500D03*
X142240000Y-64516000D03*
X172847000Y-62865000D03*
X138422187Y-68206813D03*
X144034110Y-60947500D03*
X142252865Y-60954703D03*
X143853000Y-70015000D03*
X143002000Y-69977000D03*
X140029155Y-68856313D03*
X134099000Y-66815000D03*
X113284000Y-61087000D03*
X126270983Y-66343750D03*
X130223695Y-66430199D03*
X122609700Y-67071900D03*
X124243500Y-67108800D03*
X133200872Y-68944500D03*
X114133400Y-68897000D03*
X140152218Y-71136500D03*
X114706824Y-70212180D03*
X134583300Y-71713001D03*
X114175700Y-75543200D03*
X142699534Y-75329934D03*
X115095700Y-75398300D03*
X142493300Y-74762500D03*
X140970000Y-74930000D03*
X116851100Y-75240500D03*
X130119918Y-72939500D03*
X138871300Y-76114200D03*
X110478000Y-63922400D03*
X113143800Y-64861700D03*
X137793800Y-64737200D03*
X102526200Y-57400100D03*
X113877000Y-70317800D03*
X110019000Y-56826000D03*
X112372600Y-59415000D03*
X128291800Y-59176600D03*
X140249018Y-64592450D03*
X108390400Y-61054000D03*
X121546171Y-59844414D03*
X135028100Y-62369500D03*
X110547000Y-62251000D03*
X138460670Y-64755500D03*
X142165600Y-59286500D03*
X144648938Y-64723120D03*
X114285500Y-66854769D03*
X122674154Y-59281600D03*
X141621500Y-60102556D03*
X148930800Y-64314200D03*
X115343988Y-64290044D03*
X138916078Y-66077520D03*
X115962299Y-64413489D03*
X138571500Y-66568100D03*
X148791800Y-65044900D03*
X140208218Y-67549500D03*
X116239488Y-66933956D03*
X150685600Y-63949501D03*
X117498851Y-67581053D03*
X158457569Y-63949502D03*
X140466100Y-72521200D03*
X147460859Y-74429042D03*
X134582000Y-65044800D03*
X147394872Y-72317628D03*
X111529600Y-70605200D03*
X117945858Y-76131900D03*
X110910300Y-69061700D03*
X110408900Y-66477600D03*
X114618259Y-70865372D03*
X160036352Y-79635500D03*
X161855400Y-58371500D03*
X163346600Y-84627500D03*
X163830900Y-64353200D03*
X144278171Y-63514073D03*
X135658100Y-55002500D03*
X192405000Y-83185000D03*
X188600000Y-85720000D03*
X188600000Y-84450000D03*
X188600000Y-83180000D03*
X190500000Y-54610000D03*
X190500000Y-53340000D03*
X188600000Y-55240000D03*
X188600000Y-53970000D03*
X164091277Y-60497999D03*
X135044400Y-58756600D03*
X158401100Y-56594500D03*
X134668100Y-56291000D03*
X118259235Y-67562426D03*
X117423563Y-69415346D03*
X114238000Y-72321800D03*
X154940000Y-82550000D03*
X153992000Y-79254500D03*
X135943000Y-59388300D03*
X112706900Y-66518100D03*
X151130000Y-82550000D03*
X162356600Y-56634200D03*
X118683147Y-67138513D03*
X169243902Y-63278212D03*
X144382500Y-62881500D03*
X167048953Y-79635500D03*
X167738800Y-60497999D03*
X140417200Y-57478500D03*
X139419500Y-56291000D03*
X117320000Y-51435000D03*
X101822000Y-82137500D03*
X101480000Y-86360000D03*
X117320000Y-54130000D03*
X204470000Y-86360000D03*
X208400000Y-86360000D03*
X208280000Y-51435000D03*
X204470000Y-51435000D03*
X176530000Y-51435000D03*
X172760000Y-51435000D03*
X196520000Y-86360000D03*
X200480000Y-86360000D03*
X200480000Y-51435000D03*
X196850000Y-51435000D03*
X184640000Y-51435000D03*
X180680000Y-51435000D03*
D16*
X138871300Y-76114200D02*
X132946300Y-76114200D01*
X130001900Y-73169800D02*
X130001900Y-73057518D01*
X130001900Y-73057518D02*
X130119918Y-72939500D01*
X132946300Y-76114200D02*
X130001900Y-73169800D01*
X128280159Y-70543497D02*
X129902662Y-72166000D01*
X118041497Y-70810549D02*
X119197549Y-69654497D01*
X129902662Y-72166000D02*
X130337174Y-72166000D01*
X138365499Y-72325499D02*
X140970000Y-74930000D01*
X116851100Y-75240500D02*
X116851100Y-72508946D01*
X119197549Y-69654497D02*
X120832451Y-69654497D01*
X130337174Y-72166000D02*
X130496673Y-72325499D01*
X121721451Y-70543497D02*
X128280159Y-70543497D01*
X116851100Y-72508946D02*
X118041497Y-71318549D01*
X120832451Y-69654497D02*
X121721451Y-70543497D01*
X130496673Y-72325499D02*
X138365499Y-72325499D01*
X118041497Y-71318549D02*
X118041497Y-70810549D01*
D17*
X128397000Y-78486000D02*
X129159000Y-77724000D01*
X129159000Y-77724000D02*
X129159000Y-77089000D01*
X129159000Y-77089000D02*
X124587000Y-72517000D01*
D16*
X128884018Y-69194994D02*
X122280018Y-69194994D01*
X125370033Y-67396990D02*
X125295034Y-67321991D01*
X132334000Y-69469000D02*
X133477000Y-69469000D01*
X129573587Y-67977493D02*
X131478183Y-67977493D01*
X130130645Y-71713001D02*
X128511640Y-70093996D01*
X130189834Y-71136500D02*
X128697829Y-69644495D01*
X133477000Y-69469000D02*
X134089687Y-68856313D01*
X121204829Y-68755495D02*
X118825171Y-68755495D01*
X117737358Y-70478998D02*
X114973642Y-70478998D01*
X129256396Y-68295992D02*
X129387398Y-68426994D01*
X131646646Y-67404200D02*
X129635984Y-67404200D01*
X131981874Y-77122300D02*
X140907168Y-77122300D01*
X140907168Y-77122300D02*
X142699534Y-75329934D01*
X129070207Y-68745493D02*
X130301714Y-69977000D01*
X147574000Y-73152000D02*
X143637000Y-73152000D01*
X118825171Y-68755495D02*
X117551169Y-70029497D01*
X120223537Y-67138513D02*
X118683147Y-67138513D01*
X122280018Y-69194994D02*
X120223537Y-67138513D01*
X122093829Y-69644495D02*
X121204829Y-68755495D01*
X129814963Y-66947489D02*
X129822173Y-66954699D01*
X128697829Y-69644495D02*
X122093829Y-69644495D01*
X115265897Y-70029497D02*
X114133400Y-68897000D01*
X117551169Y-70029497D02*
X115265897Y-70029497D01*
X140152218Y-71136500D02*
X130189834Y-71136500D01*
X129635984Y-67404200D02*
X129628774Y-67396990D01*
X122823701Y-66487501D02*
X124632192Y-68295992D01*
X130214714Y-70525690D02*
X128884018Y-69194994D01*
X118592403Y-66487501D02*
X122823701Y-66487501D01*
X131478183Y-67977493D02*
X132445190Y-68944500D01*
X130301714Y-69977000D02*
X131699000Y-69977000D01*
X132578223Y-68335777D02*
X131646646Y-67404200D01*
X124283293Y-68745493D02*
X129070207Y-68745493D01*
X122609700Y-67071900D02*
X124283293Y-68745493D01*
X124981191Y-67846491D02*
X129442585Y-67846491D01*
X134089687Y-68856313D02*
X140029155Y-68856313D01*
X124632192Y-68295992D02*
X129256396Y-68295992D01*
X132445190Y-68944500D02*
X133200872Y-68944500D01*
X129442585Y-67846491D02*
X129573587Y-67977493D01*
X121018640Y-69204996D02*
X119011360Y-69204996D01*
X119011360Y-69204996D02*
X117737358Y-70478998D01*
X124243500Y-67108800D02*
X124981191Y-67846491D01*
X131291994Y-68426994D02*
X132334000Y-69469000D01*
X129822173Y-66954699D02*
X131938901Y-66954699D01*
X117498851Y-67581053D02*
X118592403Y-66487501D01*
X141010690Y-70525690D02*
X130214714Y-70525690D01*
X129387398Y-68426994D02*
X131291994Y-68426994D01*
X114973642Y-70478998D02*
X114706824Y-70212180D01*
X128511640Y-70093996D02*
X121907640Y-70093996D01*
X143637000Y-73152000D02*
X141010690Y-70525690D01*
X126742262Y-71119998D02*
X126615262Y-70992998D01*
X121349073Y-71442499D02*
X126302073Y-71442499D01*
X114175700Y-75543200D02*
X115754800Y-77122300D01*
X118490998Y-76584738D02*
X118419336Y-76656400D01*
X118589126Y-77122300D02*
X119194499Y-76516927D01*
D17*
X127185000Y-80460000D02*
X123767000Y-80460000D01*
D16*
X121907640Y-70093996D02*
X121018640Y-69204996D01*
X119194499Y-76516927D02*
X119194499Y-72327073D01*
X119194499Y-72327073D02*
X118940499Y-72073073D01*
X118940499Y-72073073D02*
X118940499Y-71182927D01*
X134583300Y-71713001D02*
X130130645Y-71713001D01*
X118940499Y-71182927D02*
X119569927Y-70553499D01*
X126302073Y-71442499D02*
X131981874Y-77122300D01*
X119569927Y-70553499D02*
X120460073Y-70553499D01*
X131938901Y-66954699D02*
X132504601Y-67520399D01*
X142493300Y-74762500D02*
X140602062Y-76653738D01*
X129628774Y-67396990D02*
X125370033Y-67396990D01*
X140602062Y-76653738D02*
X132657002Y-76653738D01*
X132657002Y-76653738D02*
X127123262Y-71119998D01*
X119383738Y-70103998D02*
X118490998Y-70996738D01*
X120646262Y-70103998D02*
X119383738Y-70103998D01*
X121535262Y-70992998D02*
X120646262Y-70103998D01*
X126603265Y-66842741D02*
X126708013Y-66947489D01*
X116353800Y-76656400D02*
X115095700Y-75398300D01*
X115754800Y-77122300D02*
X118589126Y-77122300D01*
X126615262Y-70992998D02*
X121535262Y-70992998D01*
D17*
X154900000Y-80460000D02*
X127185000Y-80460000D01*
D16*
X120460073Y-70553499D02*
X121349073Y-71442499D01*
X126708013Y-66947489D02*
X129814963Y-66947489D01*
X127123262Y-71119998D02*
X126742262Y-71119998D01*
X118419336Y-76656400D02*
X116353800Y-76656400D01*
X118490998Y-70996738D02*
X118490998Y-76584738D01*
X112654200Y-71729800D02*
X114406400Y-71729800D01*
X115817998Y-73141398D02*
X115817998Y-75010598D01*
D17*
X123767000Y-80460000D02*
X103500000Y-80460000D01*
D16*
X111529600Y-70605200D02*
X112654200Y-71729800D01*
X114406400Y-71729800D02*
X115817998Y-73141398D01*
X115817998Y-75010598D02*
X116939300Y-76131900D01*
X116939300Y-76131900D02*
X117945858Y-76131900D01*
X118259235Y-68579674D02*
X117423563Y-69415346D01*
X118259235Y-67562426D02*
X118259235Y-68579674D01*
X108120000Y-68310000D02*
X109742000Y-69932000D01*
X114599087Y-70846200D02*
X114618259Y-70865372D01*
X113366400Y-70846200D02*
X114599087Y-70846200D01*
X109742000Y-69932000D02*
X112452200Y-69932000D01*
X112452200Y-69932000D02*
X113366400Y-70846200D01*
X126386009Y-66318241D02*
X126820521Y-66318241D01*
D18*
X134099000Y-66815000D02*
X132978250Y-65694250D01*
D16*
X126981272Y-66478992D02*
X130174902Y-66478992D01*
D18*
X116408533Y-67691000D02*
X116078000Y-67691000D01*
X114681000Y-66294000D02*
X114681000Y-64034500D01*
X114681000Y-64034500D02*
X116713000Y-62002500D01*
X116078000Y-67691000D02*
X114681000Y-66294000D01*
X118405283Y-65694250D02*
X116408533Y-67691000D01*
D16*
X126317305Y-66343750D02*
X126338902Y-66365347D01*
X126338902Y-66365347D02*
X126386009Y-66318241D01*
D18*
X132978250Y-65694250D02*
X118405283Y-65694250D01*
D16*
X130174902Y-66478992D02*
X130223695Y-66430199D01*
X126820521Y-66318241D02*
X126981272Y-66478992D01*
X126270983Y-66343750D02*
X126317305Y-66343750D01*
X108390400Y-61054000D02*
X108390400Y-60887300D01*
X108390400Y-60887300D02*
X104213400Y-56710300D01*
X109050300Y-62494700D02*
X106796300Y-62494700D01*
X102526200Y-74840200D02*
X102526200Y-63283200D01*
X106007800Y-63283200D02*
X102526200Y-63283200D01*
X102526200Y-63283200D02*
X102526200Y-62827800D01*
X106796300Y-62494700D02*
X106007800Y-63283200D01*
X102526200Y-62827800D02*
X102526200Y-60489200D01*
X103541000Y-75855000D02*
X102526200Y-74840200D01*
X102526200Y-60489200D02*
X102526200Y-57400100D01*
X109220000Y-77470000D02*
X110744000Y-78994000D01*
X113601500Y-78549500D02*
X113601500Y-77660500D01*
X110744000Y-78994000D02*
X113157000Y-78994000D01*
X113601500Y-77660500D02*
X113284000Y-77343000D01*
X113157000Y-78994000D02*
X113601500Y-78549500D01*
D19*
X112475000Y-77470000D02*
X112475000Y-77811880D01*
X112475000Y-77811880D02*
X112899060Y-78235940D01*
D16*
X114238000Y-72321800D02*
X113284000Y-73275800D01*
X113284000Y-73275800D02*
X113284000Y-77343000D01*
D19*
X108120000Y-63810000D02*
X106426000Y-65504000D01*
X106426000Y-71749374D02*
X112146626Y-77470000D01*
X106426000Y-65504000D02*
X106426000Y-71749374D01*
X112146626Y-77470000D02*
X112475000Y-77470000D01*
D16*
X116033788Y-64342000D02*
X115962299Y-64413489D01*
X136018800Y-64342000D02*
X116033788Y-64342000D01*
X138571500Y-66568100D02*
X138244900Y-66568100D01*
X138244900Y-66568100D02*
X136018800Y-64342000D01*
X137576200Y-65262500D02*
X135945761Y-63632061D01*
X135945761Y-63632061D02*
X116001971Y-63632061D01*
X116001971Y-63632061D02*
X115343988Y-64290044D01*
X138916078Y-66077520D02*
X138101058Y-65262500D01*
X138101058Y-65262500D02*
X137576200Y-65262500D01*
D18*
X118173500Y-58737500D02*
X118364000Y-58928000D01*
X118364000Y-58928000D02*
X118364000Y-61621500D01*
X118364000Y-61621500D02*
X117983000Y-62002500D01*
X117221000Y-60198000D02*
X117221000Y-59182000D01*
X116903500Y-58737500D02*
X116903500Y-59880500D01*
X116903500Y-59880500D02*
X117221000Y-60198000D01*
X117411500Y-58737500D02*
X117665500Y-58737500D01*
X117411500Y-58737500D02*
X117411500Y-60007500D01*
X116903500Y-58737500D02*
X117411500Y-58737500D01*
X117411500Y-60007500D02*
X117221000Y-60198000D01*
X117983000Y-62002500D02*
X117983000Y-60198000D01*
X116903500Y-58737500D02*
X116903500Y-59499500D01*
X117284500Y-59499500D02*
X116903500Y-59499500D01*
X116903500Y-59499500D02*
X116903500Y-61404500D01*
X117983000Y-60198000D02*
X117284500Y-59499500D01*
X116713000Y-62002500D02*
X116713000Y-59690000D01*
X116903500Y-61404500D02*
X117221000Y-61722000D01*
X117221000Y-61722000D02*
X117501500Y-62002500D01*
X116713000Y-59690000D02*
X117221000Y-60198000D01*
X117221000Y-60198000D02*
X117221000Y-61722000D01*
X117665500Y-58737500D02*
X118173500Y-58737500D01*
X116713000Y-62002500D02*
X117501500Y-62002500D01*
X117501500Y-62002500D02*
X117983000Y-62002500D01*
X117665500Y-61838500D02*
X117501500Y-62002500D01*
X117665500Y-58737500D02*
X117665500Y-61838500D01*
D16*
X116211162Y-56710300D02*
X121210600Y-56710300D01*
X138460670Y-64590570D02*
X138460670Y-64755500D01*
X116138499Y-59699401D02*
X113860300Y-61977600D01*
X126478900Y-61708900D02*
X135579000Y-61708900D01*
X113143800Y-62057200D02*
X115688998Y-59512002D01*
X123057500Y-59806100D02*
X122249613Y-59806100D01*
X135579000Y-61708900D02*
X138460670Y-64590570D01*
X121210600Y-56710300D02*
X121280000Y-56640900D01*
X116356655Y-57200497D02*
X121970497Y-57200497D01*
X116542844Y-57649998D02*
X121784308Y-57649998D01*
X112706900Y-66518100D02*
X112580499Y-66391699D01*
X113284000Y-60273152D02*
X116356655Y-57200497D01*
X136165400Y-63108800D02*
X137793800Y-64737200D01*
X120752708Y-59333292D02*
X120752708Y-59792708D01*
X113284000Y-61087000D02*
X113284000Y-60273152D01*
X113860300Y-66429569D02*
X114285500Y-66854769D01*
X120766086Y-59319914D02*
X120752708Y-59333292D01*
X121763427Y-59319914D02*
X120766086Y-59319914D01*
X122249613Y-59806100D02*
X121763427Y-59319914D01*
X115688999Y-58503845D02*
X116542844Y-57649998D01*
X112580499Y-66391699D02*
X112580499Y-60340963D01*
X116138499Y-58690034D02*
X116138499Y-59699401D01*
X123404900Y-59270590D02*
X123404900Y-59458700D01*
X121970497Y-57200497D02*
X126478900Y-61708900D01*
X120752708Y-59792708D02*
X124068800Y-63108800D01*
X116729033Y-58099499D02*
X116138499Y-58690034D01*
X113860300Y-61977600D02*
X113860300Y-66429569D01*
X121492053Y-58099499D02*
X116729033Y-58099499D01*
X115688998Y-59512002D02*
X115688999Y-58503845D01*
X121784308Y-57649998D02*
X123404900Y-59270590D01*
D18*
X116713000Y-62002500D02*
X116713000Y-58928000D01*
D16*
X122674154Y-59281600D02*
X121492053Y-58099499D01*
X112580499Y-60340963D02*
X116211162Y-56710300D01*
X123404900Y-59458700D02*
X123057500Y-59806100D01*
X113143800Y-64861700D02*
X113143800Y-62057200D01*
X124068800Y-63108800D02*
X136165400Y-63108800D01*
D18*
X116713000Y-58928000D02*
X116903500Y-58737500D01*
X117983000Y-58928000D02*
X118173500Y-58737500D01*
X117983000Y-62002500D02*
X117983000Y-58928000D01*
D16*
X149096789Y-71245099D02*
X153992000Y-76140310D01*
X142047689Y-65338999D02*
X147953789Y-71245099D01*
X141747665Y-65338999D02*
X142047689Y-65338999D01*
X153992000Y-76140310D02*
X153992000Y-79254500D01*
X135943000Y-59388300D02*
X135943000Y-59534334D01*
X139887601Y-67128361D02*
X139990962Y-67025000D01*
X147953789Y-71245099D02*
X149096789Y-71245099D01*
X141827310Y-67025000D02*
X147006811Y-72204501D01*
X139990962Y-67025000D02*
X141827310Y-67025000D01*
X136665561Y-67128361D02*
X139887601Y-67128361D01*
X147281745Y-72204501D02*
X147394872Y-72317628D01*
X140295500Y-65788500D02*
X141861500Y-65788500D01*
X134582000Y-65044800D02*
X136665561Y-67128361D01*
X135943000Y-59534334D02*
X141747665Y-65338999D01*
X147006811Y-72204501D02*
X147281745Y-72204501D01*
X141861500Y-65788500D02*
X151511000Y-75438000D01*
X147574000Y-73152000D02*
X151124200Y-76702200D01*
X151124200Y-76702200D02*
X151124200Y-79254500D01*
X141587100Y-73642200D02*
X146674017Y-73642200D01*
X146674017Y-73642200D02*
X147460859Y-74429042D01*
X140466100Y-72521200D02*
X141587100Y-73642200D01*
X127694800Y-60487600D02*
X134994600Y-60487600D01*
X134994600Y-60487600D02*
X140295500Y-65788500D01*
X123848100Y-56640900D02*
X127694800Y-60487600D01*
X121280000Y-56640900D02*
X123848100Y-56640900D01*
X162356600Y-56634200D02*
X161247900Y-57742900D01*
X161247900Y-72686100D02*
X160972500Y-72961500D01*
X161247900Y-57742900D02*
X161247900Y-72686100D01*
X155194000Y-75565000D02*
X156972000Y-77343000D01*
X156972000Y-77343000D02*
X156972000Y-80264000D01*
D20*
X167738800Y-60497999D02*
X167738800Y-78945653D01*
X157788424Y-74911410D02*
X157788424Y-75408054D01*
X160880000Y-82400000D02*
X160880000Y-86360000D01*
X157813865Y-75462167D02*
X157850053Y-75498355D01*
X157850053Y-75498355D02*
X157850053Y-79370053D01*
X158401100Y-56594500D02*
X157850053Y-57145547D01*
X157813865Y-75433495D02*
X157813865Y-75462167D01*
X157850053Y-79370053D02*
X160880000Y-82400000D01*
X157850053Y-57145547D02*
X157850053Y-74849781D01*
X167738800Y-78945653D02*
X167048953Y-79635500D01*
X157788424Y-75408054D02*
X157813865Y-75433495D01*
X157850053Y-74849781D02*
X157788424Y-74911410D01*
X161855400Y-58371500D02*
X161855400Y-77816452D01*
X161855400Y-77816452D02*
X160036352Y-79635500D01*
D16*
X140208218Y-67549500D02*
X140133219Y-67624499D01*
X135948099Y-67624499D02*
X133408099Y-65084499D01*
X140133219Y-67624499D02*
X135948099Y-67624499D01*
X117491034Y-65084499D02*
X116239488Y-66336045D01*
X116239488Y-66336045D02*
X116239488Y-66933956D01*
X133408099Y-65084499D02*
X117491034Y-65084499D01*
X135010900Y-62352300D02*
X124027301Y-62352300D01*
X135028100Y-62369500D02*
X135010900Y-62352300D01*
X124027301Y-62352300D02*
X121546171Y-59871170D01*
X121546171Y-59871170D02*
X121546171Y-59844414D01*
D20*
X140250424Y-62846002D02*
X140996222Y-63591800D01*
X138194999Y-60917577D02*
X140123423Y-62846001D01*
X138194999Y-60282577D02*
X138194999Y-60917577D01*
X135658100Y-57745678D02*
X138194999Y-60282577D01*
X135658100Y-55002500D02*
X135658100Y-57745678D01*
X140123423Y-62846001D02*
X140250424Y-62846002D01*
D16*
X142165600Y-59286500D02*
X141807100Y-58928000D01*
X144907000Y-63627000D02*
X144018000Y-64516000D01*
X141807100Y-58928000D02*
X141097000Y-58928000D01*
X145040000Y-59811000D02*
X145356501Y-60127501D01*
X142260068Y-60947500D02*
X142252865Y-60954703D01*
X144018000Y-64516000D02*
X142240000Y-64516000D01*
X144907000Y-62611000D02*
X144907000Y-63627000D01*
X145040000Y-59811000D02*
X141913056Y-59811000D01*
D20*
X141641744Y-62881500D02*
X144382500Y-62881500D01*
D16*
X141913056Y-59811000D02*
X141621500Y-60102556D01*
X144034110Y-60947500D02*
X142260068Y-60947500D01*
D20*
X144200444Y-63591800D02*
X144278171Y-63514073D01*
X140996222Y-63591800D02*
X144200444Y-63591800D01*
D16*
X145356501Y-60127501D02*
X145356501Y-64015557D01*
X141732000Y-62230000D02*
X144526000Y-62230000D01*
D20*
X137120000Y-51435000D02*
X137120000Y-58359756D01*
X137120000Y-58359756D02*
X141641744Y-62881500D01*
D16*
X145356501Y-64015557D02*
X144648938Y-64723120D01*
X141097000Y-58928000D02*
X141097000Y-61595000D01*
X141097000Y-61595000D02*
X141732000Y-62230000D01*
X144526000Y-62230000D02*
X144907000Y-62611000D01*
X156920000Y-51435000D02*
X156920000Y-57715101D01*
X156920000Y-57715101D02*
X150685600Y-63949501D01*
D20*
X164840000Y-61246722D02*
X164091277Y-60497999D01*
D16*
X160880000Y-55395000D02*
X158457569Y-57817431D01*
X158457569Y-57817431D02*
X158457569Y-63949502D01*
D20*
X172760000Y-86360000D02*
X172760000Y-80297300D01*
X169243902Y-76781202D02*
X169243902Y-63278212D01*
X164840000Y-86360000D02*
X164840000Y-61246722D01*
D16*
X160880000Y-51435000D02*
X160880000Y-55395000D01*
D20*
X172760000Y-80297300D02*
X169243902Y-76781202D01*
D17*
X172760000Y-62190000D02*
X172760000Y-51435000D01*
D16*
X128291800Y-59176600D02*
X134320500Y-59176600D01*
X134320500Y-59176600D02*
X139736350Y-64592450D01*
X139736350Y-64592450D02*
X140249018Y-64592450D01*
D18*
X138422187Y-68206813D02*
X140298187Y-68206813D01*
X140298187Y-68206813D02*
X142068374Y-69977000D01*
X134099000Y-66815000D02*
X135490813Y-68206813D01*
X135490813Y-68206813D02*
X138422187Y-68206813D01*
X142068374Y-69977000D02*
X143002000Y-69977000D01*
D16*
X145040000Y-51435000D02*
X145040000Y-59811000D01*
X141080000Y-58200900D02*
X142165600Y-59286500D01*
X141080000Y-51435000D02*
X141080000Y-58200900D01*
D18*
X143002000Y-69977000D02*
X143815000Y-69977000D01*
X143815000Y-69977000D02*
X143853000Y-70015000D01*
D17*
X175255000Y-76195000D02*
X174052919Y-76195000D01*
X172760000Y-74902081D02*
X172760000Y-62190000D01*
X174052919Y-76195000D02*
X172760000Y-74902081D01*
X185415000Y-76195000D02*
X185415000Y-77397081D01*
X175255000Y-76957000D02*
X175255000Y-76195000D01*
X185415000Y-77397081D02*
X184580081Y-78232000D01*
X184580081Y-78232000D02*
X176530000Y-78232000D01*
X176530000Y-78232000D02*
X175255000Y-76957000D01*
X208400000Y-51435000D02*
X208400000Y-53982000D01*
X179451000Y-62484000D02*
X172760000Y-55793000D01*
X208400000Y-53982000D02*
X199898000Y-62484000D01*
X199898000Y-62484000D02*
X179451000Y-62484000D01*
X172760000Y-55793000D02*
X172760000Y-51435000D01*
X176720000Y-51435000D02*
X176720000Y-56451000D01*
X176720000Y-56451000D02*
X181102000Y-60833000D01*
X181102000Y-60833000D02*
X199002000Y-60833000D01*
X199002000Y-60833000D02*
X204440000Y-55395000D01*
X200480000Y-51435000D02*
X200480000Y-54282000D01*
X200480000Y-54282000D02*
X195707000Y-59055000D01*
X195707000Y-59055000D02*
X185801000Y-59055000D01*
X185801000Y-59055000D02*
X180680000Y-53934000D01*
X180680000Y-53934000D02*
X180680000Y-51435000D01*
X176720000Y-55395000D02*
X176720000Y-51435000D01*
X204440000Y-51435000D02*
X204440000Y-55395000D01*
X186580000Y-57335000D02*
X195014000Y-57335000D01*
X184640000Y-51435000D02*
X184640000Y-55395000D01*
X184640000Y-55395000D02*
X186580000Y-57335000D01*
X195014000Y-57335000D02*
X196520000Y-55829000D01*
X196520000Y-55829000D02*
X196520000Y-51435000D01*
D16*
X109050300Y-62494700D02*
X110478000Y-63922400D01*
X112164300Y-59415000D02*
X112372600Y-59415000D01*
X112164300Y-58971300D02*
X112164300Y-59415000D01*
X110019000Y-56826000D02*
X112164300Y-58971300D01*
X112033800Y-68474600D02*
X113877000Y-70317800D01*
X112033800Y-59545500D02*
X112033800Y-68474600D01*
X112164300Y-59415000D02*
X112033800Y-59545500D01*
X104213400Y-56710300D02*
X101480000Y-56710300D01*
X101480000Y-51435000D02*
X101480000Y-56710300D01*
X110547000Y-61817300D02*
X105440000Y-56710300D01*
X110547000Y-62251000D02*
X110547000Y-61817300D01*
X105440000Y-51435000D02*
X105440000Y-56710300D01*
X149000000Y-51435000D02*
X149000000Y-56710300D01*
X148930800Y-56779500D02*
X148930800Y-64314200D01*
X149000000Y-56710300D02*
X148930800Y-56779500D01*
X152960000Y-60657100D02*
X152960000Y-51435000D01*
X149648900Y-63968200D02*
X152960000Y-60657100D01*
X149648900Y-64339200D02*
X149648900Y-63968200D01*
X148943200Y-65044900D02*
X149648900Y-64339200D01*
X148791800Y-65044900D02*
X148943200Y-65044900D01*
X109400000Y-51435000D02*
X109400000Y-56710300D01*
X109400000Y-56949900D02*
X109400000Y-56710300D01*
X111072300Y-58622200D02*
X109400000Y-56949900D01*
X111072300Y-68899700D02*
X111072300Y-58622200D01*
X110910300Y-69061700D02*
X111072300Y-68899700D01*
X108287600Y-66477600D02*
X108120000Y-66310000D01*
X110408900Y-66477600D02*
X108287600Y-66477600D01*
D20*
X163830900Y-76740500D02*
X163830900Y-64353200D01*
X163346600Y-77224800D02*
X163830900Y-76740500D01*
X163346600Y-84627500D02*
X163346600Y-77224800D01*
D21*
X192560000Y-83340000D02*
X192560000Y-86360000D01*
X192405000Y-83185000D02*
X192560000Y-83340000D01*
D17*
X190500000Y-53340000D02*
X190500000Y-54610000D01*
X188600000Y-51440000D02*
X190500000Y-53340000D01*
X188600000Y-51435000D02*
X188600000Y-51440000D01*
D21*
X188600000Y-85720000D02*
X188600000Y-86360000D01*
D20*
X129200000Y-51435000D02*
X129200000Y-56785300D01*
X133073100Y-56785300D02*
X129200000Y-56785300D01*
X135044400Y-58756600D02*
X133073100Y-56785300D01*
X133160000Y-54782900D02*
X133160000Y-51435000D01*
X134668100Y-56291000D02*
X133160000Y-54782900D01*
D16*
X152960000Y-84530000D02*
X154940000Y-82550000D01*
X152960000Y-86360000D02*
X152960000Y-84530000D01*
X121280000Y-51435000D02*
X121280000Y-56640900D01*
X149000000Y-84680000D02*
X151130000Y-82550000D01*
X149000000Y-86360000D02*
X149000000Y-84680000D01*
D20*
X139419500Y-56480800D02*
X139419500Y-56291000D01*
X140417200Y-57478500D02*
X139419500Y-56480800D01*
D17*
X103500000Y-80460000D02*
X101822000Y-82137500D01*
X156920000Y-82480000D02*
X154900000Y-80460000D01*
X101480000Y-82480000D02*
X101480000Y-86360000D01*
X101822000Y-82137500D02*
X101480000Y-82480000D01*
X208400000Y-86360000D02*
X204440000Y-86360000D01*
X208400000Y-51435000D02*
X204440000Y-51435000D01*
X204440000Y-86360000D02*
X204440000Y-59720000D01*
X208400000Y-51435000D02*
X208400000Y-55760000D01*
X172760000Y-51435000D02*
X176720000Y-51435000D01*
X208400000Y-51435000D02*
X208400000Y-55760000D01*
X208400000Y-55760000D02*
X208400000Y-86360000D01*
X204440000Y-59720000D02*
X204440000Y-51435000D01*
X200480000Y-86360000D02*
X196520000Y-86360000D01*
X184640000Y-51435000D02*
X180680000Y-51435000D01*
X200480000Y-51435000D02*
X196520000Y-51435000D01*
G04 #@! TA.AperFunction,Conductor*
G36*
X187043621Y-50693502D02*
G01*
X187090114Y-50747158D01*
X187101500Y-50799500D01*
X187101500Y-56433134D01*
X187108255Y-56495316D01*
X187159385Y-56631705D01*
X187246739Y-56748261D01*
X187363295Y-56835615D01*
X187499684Y-56886745D01*
X187561866Y-56893500D01*
X189638134Y-56893500D01*
X189700316Y-56886745D01*
X189836705Y-56835615D01*
X189953261Y-56748261D01*
X190040615Y-56631705D01*
X190091745Y-56495316D01*
X190098500Y-56433134D01*
X190098500Y-55967787D01*
X190118502Y-55899666D01*
X190172158Y-55853173D01*
X190242432Y-55843069D01*
X190253914Y-55845268D01*
X190309954Y-55858722D01*
X190315411Y-55860032D01*
X190399475Y-55864879D01*
X190534083Y-55872640D01*
X190534086Y-55872640D01*
X190539690Y-55872963D01*
X190762715Y-55845975D01*
X190886297Y-55807956D01*
X190898451Y-55804217D01*
X190969442Y-55803305D01*
X191029656Y-55840917D01*
X191059977Y-55905114D01*
X191061500Y-55924647D01*
X191061500Y-56433134D01*
X191068255Y-56495316D01*
X191119385Y-56631705D01*
X191206739Y-56748261D01*
X191323295Y-56835615D01*
X191459684Y-56886745D01*
X191521866Y-56893500D01*
X193598134Y-56893500D01*
X193660316Y-56886745D01*
X193796705Y-56835615D01*
X193913261Y-56748261D01*
X194000615Y-56631705D01*
X194051745Y-56495316D01*
X194058500Y-56433134D01*
X194058500Y-50799500D01*
X194078502Y-50731379D01*
X194132158Y-50684886D01*
X194184500Y-50673500D01*
X194945000Y-50673500D01*
X194945000Y-59574500D01*
X182816690Y-59574500D01*
X182748569Y-59554498D01*
X182727595Y-59537595D01*
X179106905Y-55916905D01*
X179072879Y-55854593D01*
X179070000Y-55827810D01*
X179070000Y-50799500D01*
X179090002Y-50731379D01*
X179143658Y-50684886D01*
X179196000Y-50673500D01*
X186975500Y-50673500D01*
X187043621Y-50693502D01*
G37*
G04 #@! TD.AperFunction*
G04 #@! TA.AperFunction,Conductor*
G36*
X209618621Y-50693502D02*
G01*
X209665114Y-50747158D01*
X209676500Y-50799500D01*
X209676500Y-56506377D01*
X209676498Y-56507147D01*
X209676024Y-56584721D01*
X209678491Y-56593352D01*
X209684150Y-56613153D01*
X209687728Y-56629915D01*
X209691920Y-56659187D01*
X209695634Y-56667355D01*
X209695634Y-56667356D01*
X209702548Y-56682562D01*
X209708996Y-56700086D01*
X209716051Y-56724771D01*
X209720843Y-56732365D01*
X209720844Y-56732368D01*
X209731830Y-56749780D01*
X209739969Y-56764863D01*
X209752208Y-56791782D01*
X209758069Y-56798584D01*
X209768970Y-56811235D01*
X209780073Y-56826239D01*
X209793776Y-56847958D01*
X209800501Y-56853897D01*
X209800504Y-56853901D01*
X209815938Y-56867532D01*
X209827982Y-56879724D01*
X209841427Y-56895327D01*
X209841430Y-56895329D01*
X209847287Y-56902127D01*
X209854816Y-56907007D01*
X209854817Y-56907008D01*
X209868835Y-56916094D01*
X209883709Y-56927385D01*
X209896217Y-56938431D01*
X209902951Y-56944378D01*
X209929711Y-56956942D01*
X209944691Y-56965263D01*
X209961983Y-56976471D01*
X209961988Y-56976473D01*
X209969515Y-56981352D01*
X209978108Y-56983922D01*
X209978113Y-56983924D01*
X209994120Y-56988711D01*
X210011564Y-56995372D01*
X210026676Y-57002467D01*
X210026678Y-57002468D01*
X210034800Y-57006281D01*
X210043667Y-57007662D01*
X210043668Y-57007662D01*
X210053310Y-57009163D01*
X210064017Y-57010830D01*
X210080732Y-57014613D01*
X210100466Y-57020515D01*
X210100472Y-57020516D01*
X210109066Y-57023086D01*
X210118037Y-57023141D01*
X210118038Y-57023141D01*
X210128097Y-57023202D01*
X210143506Y-57023296D01*
X210144289Y-57023329D01*
X210145386Y-57023500D01*
X210176377Y-57023500D01*
X210177147Y-57023502D01*
X210250785Y-57023952D01*
X210250786Y-57023952D01*
X210254721Y-57023976D01*
X210256065Y-57023592D01*
X210257410Y-57023500D01*
X211405633Y-57023500D01*
X211425018Y-57025000D01*
X211439851Y-57027310D01*
X211439855Y-57027310D01*
X211448724Y-57028691D01*
X211465329Y-57026520D01*
X211489679Y-57025712D01*
X211719241Y-57040355D01*
X211735138Y-57042391D01*
X211987205Y-57091156D01*
X212002727Y-57095198D01*
X212124642Y-57135398D01*
X212246555Y-57175596D01*
X212261438Y-57181579D01*
X212493074Y-57292302D01*
X212507066Y-57300121D01*
X212722767Y-57439385D01*
X212735652Y-57448919D01*
X212931897Y-57614450D01*
X212943476Y-57625552D01*
X213117105Y-57814682D01*
X213127179Y-57827166D01*
X213275363Y-58036812D01*
X213283770Y-58050475D01*
X213404119Y-58277257D01*
X213410721Y-58291876D01*
X213501281Y-58532110D01*
X213505969Y-58547436D01*
X213565276Y-58797245D01*
X213567978Y-58813046D01*
X213590041Y-59021005D01*
X213591478Y-59034554D01*
X213591393Y-59059317D01*
X213591454Y-59061377D01*
X213590447Y-59070294D01*
X213593362Y-59087069D01*
X213593589Y-59088377D01*
X213595449Y-59109946D01*
X213595449Y-78681916D01*
X213592998Y-78706649D01*
X213543236Y-78955224D01*
X213539317Y-78970047D01*
X213450637Y-79238245D01*
X213444946Y-79252483D01*
X213326620Y-79503107D01*
X213324350Y-79507914D01*
X213316973Y-79521355D01*
X213166237Y-79760257D01*
X213157281Y-79772703D01*
X212978645Y-79991527D01*
X212968244Y-80002792D01*
X212764358Y-80198291D01*
X212752666Y-80208210D01*
X212526531Y-80377506D01*
X212513736Y-80385922D01*
X212268710Y-80526497D01*
X212254971Y-80533304D01*
X211994689Y-80643075D01*
X211980224Y-80648162D01*
X211708539Y-80725505D01*
X211693574Y-80728796D01*
X211448447Y-80767242D01*
X211422368Y-80768493D01*
X211421640Y-80768553D01*
X211412677Y-80768017D01*
X211403926Y-80770017D01*
X211399068Y-80770419D01*
X211394252Y-80771079D01*
X211385279Y-80771024D01*
X211331642Y-80786353D01*
X211325107Y-80788033D01*
X211279435Y-80798473D01*
X211279434Y-80798473D01*
X211270682Y-80800474D01*
X211262838Y-80804853D01*
X211258290Y-80806602D01*
X211253855Y-80808586D01*
X211245229Y-80811051D01*
X211237644Y-80815837D01*
X211237637Y-80815840D01*
X211198039Y-80840825D01*
X211192226Y-80844278D01*
X211151345Y-80867103D01*
X211143504Y-80871481D01*
X211137209Y-80877881D01*
X211133330Y-80880839D01*
X211129629Y-80883989D01*
X211122042Y-80888776D01*
X211116103Y-80895501D01*
X211116098Y-80895505D01*
X211085108Y-80930595D01*
X211080499Y-80935541D01*
X211047661Y-80968928D01*
X211047659Y-80968930D01*
X211041367Y-80975328D01*
X211037121Y-80983240D01*
X211034236Y-80987157D01*
X211031567Y-80991220D01*
X211025622Y-80997951D01*
X211003448Y-81045181D01*
X211001909Y-81048459D01*
X210998872Y-81054500D01*
X210976728Y-81095755D01*
X210976726Y-81095760D01*
X210972482Y-81103667D01*
X210970627Y-81112449D01*
X210968954Y-81117027D01*
X210967532Y-81121678D01*
X210963719Y-81129800D01*
X210962339Y-81138664D01*
X210955133Y-81184940D01*
X210953914Y-81191587D01*
X210942385Y-81246181D01*
X210943070Y-81255133D01*
X210946133Y-81295163D01*
X210946500Y-81304776D01*
X210946500Y-89535000D01*
X203200000Y-89535000D01*
X203200000Y-50673500D01*
X209550500Y-50673500D01*
X209618621Y-50693502D01*
G37*
G04 #@! TD.AperFunction*
G04 #@! TA.AperFunction,Conductor*
G36*
X178435000Y-56515000D02*
G01*
X184150000Y-62230000D01*
X201205589Y-62230000D01*
X200436353Y-62999236D01*
X200433639Y-63001970D01*
X200432250Y-63003380D01*
X200429305Y-63006393D01*
X200429152Y-63006551D01*
X200429072Y-63006633D01*
X200385499Y-63051597D01*
X200364192Y-63069223D01*
X200336619Y-63087336D01*
X200331310Y-63090823D01*
X200322406Y-63096806D01*
X200318055Y-63099796D01*
X200312902Y-63103418D01*
X200309600Y-63105738D01*
X200309551Y-63105773D01*
X200309232Y-63105997D01*
X200308955Y-63106196D01*
X200308910Y-63106228D01*
X200279178Y-63127593D01*
X200267494Y-63135050D01*
X200263452Y-63137327D01*
X200251043Y-63143446D01*
X200217190Y-63157885D01*
X200217148Y-63157903D01*
X200217010Y-63157962D01*
X200216908Y-63158007D01*
X200216838Y-63158037D01*
X200208703Y-63161608D01*
X200207191Y-63162272D01*
X200206939Y-63162386D01*
X200206898Y-63162404D01*
X200202760Y-63164272D01*
X200202709Y-63164296D01*
X200202382Y-63164443D01*
X200192601Y-63168983D01*
X200159175Y-63184926D01*
X200146378Y-63190187D01*
X200141995Y-63191714D01*
X200141985Y-63191717D01*
X200128687Y-63195542D01*
X200108625Y-63200137D01*
X200092610Y-63203805D01*
X200082114Y-63206325D01*
X200076996Y-63207611D01*
X200066634Y-63210330D01*
X200030934Y-63220097D01*
X200017388Y-63223012D01*
X200012808Y-63223737D01*
X199999046Y-63225147D01*
X199988229Y-63225657D01*
X199962056Y-63226892D01*
X199961890Y-63226902D01*
X199961842Y-63226904D01*
X199951638Y-63227493D01*
X199951619Y-63227494D01*
X199951276Y-63227514D01*
X199950830Y-63227544D01*
X199950837Y-63227544D01*
X199946410Y-63227846D01*
X199946377Y-63227848D01*
X199946017Y-63227873D01*
X199935763Y-63228681D01*
X199927369Y-63229060D01*
X199925533Y-63229081D01*
X199920779Y-63229137D01*
X199920694Y-63229139D01*
X199920314Y-63229143D01*
X199919912Y-63229152D01*
X199919883Y-63229153D01*
X199914702Y-63229275D01*
X199914639Y-63229277D01*
X199914379Y-63229283D01*
X199914109Y-63229293D01*
X199914026Y-63229295D01*
X199902778Y-63229693D01*
X199902766Y-63229693D01*
X199902299Y-63229710D01*
X199901871Y-63229730D01*
X199901851Y-63229731D01*
X199892650Y-63230165D01*
X199869812Y-63231242D01*
X199855645Y-63231112D01*
X199840189Y-63230099D01*
X199839217Y-63230067D01*
X199839193Y-63230066D01*
X199807594Y-63229032D01*
X199807570Y-63229032D01*
X199806604Y-63229000D01*
X195071000Y-63229000D01*
X195067654Y-63229360D01*
X195067649Y-63229360D01*
X194965215Y-63240372D01*
X194965208Y-63240373D01*
X194961851Y-63240734D01*
X194958551Y-63241452D01*
X194958550Y-63241452D01*
X194912790Y-63251406D01*
X194912785Y-63251407D01*
X194909509Y-63252120D01*
X194805343Y-63286790D01*
X194682388Y-63365808D01*
X194628732Y-63412301D01*
X194625792Y-63415694D01*
X194538919Y-63515950D01*
X194538917Y-63515953D01*
X194533018Y-63522761D01*
X194472302Y-63655710D01*
X194452300Y-63723831D01*
X194431500Y-63868500D01*
X194431500Y-78740000D01*
X172204670Y-78740000D01*
X170180000Y-76715330D01*
X170180000Y-73621695D01*
X173892251Y-73621695D01*
X173905110Y-73844715D01*
X173906247Y-73849761D01*
X173906248Y-73849767D01*
X173930304Y-73956508D01*
X173954222Y-74062639D01*
X174038266Y-74269616D01*
X174075685Y-74330678D01*
X174152291Y-74455688D01*
X174154987Y-74460088D01*
X174301250Y-74628938D01*
X174473126Y-74771632D01*
X174666000Y-74884338D01*
X174874692Y-74964030D01*
X174879760Y-74965061D01*
X174879763Y-74965062D01*
X174984466Y-74986364D01*
X175093597Y-75008567D01*
X175098772Y-75008757D01*
X175098774Y-75008757D01*
X175311673Y-75016564D01*
X175311677Y-75016564D01*
X175316837Y-75016753D01*
X175321957Y-75016097D01*
X175321959Y-75016097D01*
X175533288Y-74989025D01*
X175533289Y-74989025D01*
X175538416Y-74988368D01*
X175545096Y-74986364D01*
X175747429Y-74925661D01*
X175747434Y-74925659D01*
X175752384Y-74924174D01*
X175952994Y-74825896D01*
X176134860Y-74696173D01*
X176293096Y-74538489D01*
X176352594Y-74455689D01*
X176423453Y-74357077D01*
X176424776Y-74358028D01*
X176471645Y-74314857D01*
X176541580Y-74302625D01*
X176607026Y-74330144D01*
X176634875Y-74361994D01*
X176694987Y-74460088D01*
X176841250Y-74628938D01*
X177013126Y-74771632D01*
X177083595Y-74812811D01*
X177086445Y-74814476D01*
X177135169Y-74866114D01*
X177148240Y-74935897D01*
X177121509Y-75001669D01*
X177081055Y-75035027D01*
X177068607Y-75041507D01*
X177064474Y-75044610D01*
X177064471Y-75044612D01*
X177040247Y-75062800D01*
X176889965Y-75175635D01*
X176735629Y-75337138D01*
X176609743Y-75521680D01*
X176515688Y-75724305D01*
X176455989Y-75939570D01*
X176432251Y-76161695D01*
X176432548Y-76166848D01*
X176432548Y-76166851D01*
X176438011Y-76261590D01*
X176445110Y-76384715D01*
X176446247Y-76389761D01*
X176446248Y-76389767D01*
X176466119Y-76477939D01*
X176494222Y-76602639D01*
X176578266Y-76809616D01*
X176629019Y-76892438D01*
X176692291Y-76995688D01*
X176694987Y-77000088D01*
X176841250Y-77168938D01*
X177013126Y-77311632D01*
X177206000Y-77424338D01*
X177414692Y-77504030D01*
X177419760Y-77505061D01*
X177419763Y-77505062D01*
X177527017Y-77526883D01*
X177633597Y-77548567D01*
X177638772Y-77548757D01*
X177638774Y-77548757D01*
X177851673Y-77556564D01*
X177851677Y-77556564D01*
X177856837Y-77556753D01*
X177861957Y-77556097D01*
X177861959Y-77556097D01*
X178073288Y-77529025D01*
X178073289Y-77529025D01*
X178078416Y-77528368D01*
X178083366Y-77526883D01*
X178287429Y-77465661D01*
X178287434Y-77465659D01*
X178292384Y-77464174D01*
X178492994Y-77365896D01*
X178674860Y-77236173D01*
X178833096Y-77078489D01*
X178892594Y-76995689D01*
X178963453Y-76897077D01*
X178964776Y-76898028D01*
X179011645Y-76854857D01*
X179081580Y-76842625D01*
X179147026Y-76870144D01*
X179174875Y-76901994D01*
X179234987Y-77000088D01*
X179381250Y-77168938D01*
X179553126Y-77311632D01*
X179746000Y-77424338D01*
X179954692Y-77504030D01*
X179959760Y-77505061D01*
X179959763Y-77505062D01*
X180067017Y-77526883D01*
X180173597Y-77548567D01*
X180178772Y-77548757D01*
X180178774Y-77548757D01*
X180391673Y-77556564D01*
X180391677Y-77556564D01*
X180396837Y-77556753D01*
X180401957Y-77556097D01*
X180401959Y-77556097D01*
X180613288Y-77529025D01*
X180613289Y-77529025D01*
X180618416Y-77528368D01*
X180623366Y-77526883D01*
X180827429Y-77465661D01*
X180827434Y-77465659D01*
X180832384Y-77464174D01*
X181032994Y-77365896D01*
X181214860Y-77236173D01*
X181373096Y-77078489D01*
X181432594Y-76995689D01*
X181503453Y-76897077D01*
X181504776Y-76898028D01*
X181551645Y-76854857D01*
X181621580Y-76842625D01*
X181687026Y-76870144D01*
X181714875Y-76901994D01*
X181774987Y-77000088D01*
X181921250Y-77168938D01*
X182093126Y-77311632D01*
X182286000Y-77424338D01*
X182494692Y-77504030D01*
X182499760Y-77505061D01*
X182499763Y-77505062D01*
X182607017Y-77526883D01*
X182713597Y-77548567D01*
X182718772Y-77548757D01*
X182718774Y-77548757D01*
X182931673Y-77556564D01*
X182931677Y-77556564D01*
X182936837Y-77556753D01*
X182941957Y-77556097D01*
X182941959Y-77556097D01*
X183153288Y-77529025D01*
X183153289Y-77529025D01*
X183158416Y-77528368D01*
X183163366Y-77526883D01*
X183367429Y-77465661D01*
X183367434Y-77465659D01*
X183372384Y-77464174D01*
X183572994Y-77365896D01*
X183754860Y-77236173D01*
X183913096Y-77078489D01*
X183972594Y-76995689D01*
X184040435Y-76901277D01*
X184043453Y-76897077D01*
X184064320Y-76854857D01*
X184140136Y-76701453D01*
X184140137Y-76701451D01*
X184142430Y-76696811D01*
X184207370Y-76483069D01*
X184236529Y-76261590D01*
X184238156Y-76195000D01*
X184219852Y-75972361D01*
X184165431Y-75755702D01*
X184076354Y-75550840D01*
X183955014Y-75363277D01*
X183804670Y-75198051D01*
X183800619Y-75194852D01*
X183800615Y-75194848D01*
X183633414Y-75062800D01*
X183633410Y-75062798D01*
X183629359Y-75059598D01*
X183588053Y-75036796D01*
X183538084Y-74986364D01*
X183523312Y-74916921D01*
X183548428Y-74850516D01*
X183575780Y-74823909D01*
X183619603Y-74792650D01*
X183754860Y-74696173D01*
X183863091Y-74588319D01*
X183925462Y-74554404D01*
X183996268Y-74559592D01*
X184053030Y-74602238D01*
X184070012Y-74633341D01*
X184114385Y-74751705D01*
X184201739Y-74868261D01*
X184318295Y-74955615D01*
X184454684Y-75006745D01*
X184516866Y-75013500D01*
X186313134Y-75013500D01*
X186375316Y-75006745D01*
X186511705Y-74955615D01*
X186628261Y-74868261D01*
X186715615Y-74751705D01*
X186766745Y-74615316D01*
X186773500Y-74553134D01*
X186773500Y-72756866D01*
X186766745Y-72694684D01*
X186715615Y-72558295D01*
X186628261Y-72441739D01*
X186511705Y-72354385D01*
X186375316Y-72303255D01*
X186313134Y-72296500D01*
X184516866Y-72296500D01*
X184454684Y-72303255D01*
X184318295Y-72354385D01*
X184201739Y-72441739D01*
X184114385Y-72558295D01*
X184111233Y-72566703D01*
X184069919Y-72676907D01*
X184027277Y-72733671D01*
X183960716Y-72758371D01*
X183891367Y-72743163D01*
X183858743Y-72717476D01*
X183808151Y-72661875D01*
X183808142Y-72661866D01*
X183804670Y-72658051D01*
X183800619Y-72654852D01*
X183800615Y-72654848D01*
X183633414Y-72522800D01*
X183633410Y-72522798D01*
X183629359Y-72519598D01*
X183433789Y-72411638D01*
X183428920Y-72409914D01*
X183428916Y-72409912D01*
X183228087Y-72338795D01*
X183228083Y-72338794D01*
X183223212Y-72337069D01*
X183218119Y-72336162D01*
X183218116Y-72336161D01*
X183008373Y-72298800D01*
X183008367Y-72298799D01*
X183003284Y-72297894D01*
X182929452Y-72296992D01*
X182785081Y-72295228D01*
X182785079Y-72295228D01*
X182779911Y-72295165D01*
X182559091Y-72328955D01*
X182346756Y-72398357D01*
X182148607Y-72501507D01*
X182144474Y-72504610D01*
X182144471Y-72504612D01*
X181974100Y-72632530D01*
X181969965Y-72635635D01*
X181930525Y-72676907D01*
X181876280Y-72733671D01*
X181815629Y-72797138D01*
X181708201Y-72954621D01*
X181653293Y-72999621D01*
X181582768Y-73007792D01*
X181519021Y-72976538D01*
X181498324Y-72952054D01*
X181417822Y-72827617D01*
X181417820Y-72827614D01*
X181415014Y-72823277D01*
X181264670Y-72658051D01*
X181260619Y-72654852D01*
X181260615Y-72654848D01*
X181093414Y-72522800D01*
X181093410Y-72522798D01*
X181089359Y-72519598D01*
X180893789Y-72411638D01*
X180888920Y-72409914D01*
X180888916Y-72409912D01*
X180688087Y-72338795D01*
X180688083Y-72338794D01*
X180683212Y-72337069D01*
X180678119Y-72336162D01*
X180678116Y-72336161D01*
X180468373Y-72298800D01*
X180468367Y-72298799D01*
X180463284Y-72297894D01*
X180389452Y-72296992D01*
X180245081Y-72295228D01*
X180245079Y-72295228D01*
X180239911Y-72295165D01*
X180019091Y-72328955D01*
X179806756Y-72398357D01*
X179608607Y-72501507D01*
X179604474Y-72504610D01*
X179604471Y-72504612D01*
X179434100Y-72632530D01*
X179429965Y-72635635D01*
X179390525Y-72676907D01*
X179336280Y-72733671D01*
X179275629Y-72797138D01*
X179168201Y-72954621D01*
X179113293Y-72999621D01*
X179042768Y-73007792D01*
X178979021Y-72976538D01*
X178958324Y-72952054D01*
X178877822Y-72827617D01*
X178877820Y-72827614D01*
X178875014Y-72823277D01*
X178724670Y-72658051D01*
X178720619Y-72654852D01*
X178720615Y-72654848D01*
X178553414Y-72522800D01*
X178553410Y-72522798D01*
X178549359Y-72519598D01*
X178353789Y-72411638D01*
X178348920Y-72409914D01*
X178348916Y-72409912D01*
X178148087Y-72338795D01*
X178148083Y-72338794D01*
X178143212Y-72337069D01*
X178138119Y-72336162D01*
X178138116Y-72336161D01*
X177928373Y-72298800D01*
X177928367Y-72298799D01*
X177923284Y-72297894D01*
X177849452Y-72296992D01*
X177705081Y-72295228D01*
X177705079Y-72295228D01*
X177699911Y-72295165D01*
X177479091Y-72328955D01*
X177266756Y-72398357D01*
X177068607Y-72501507D01*
X177064474Y-72504610D01*
X177064471Y-72504612D01*
X176894100Y-72632530D01*
X176889965Y-72635635D01*
X176850525Y-72676907D01*
X176796280Y-72733671D01*
X176735629Y-72797138D01*
X176628201Y-72954621D01*
X176573293Y-72999621D01*
X176502768Y-73007792D01*
X176439021Y-72976538D01*
X176418324Y-72952054D01*
X176337822Y-72827617D01*
X176337820Y-72827614D01*
X176335014Y-72823277D01*
X176184670Y-72658051D01*
X176180619Y-72654852D01*
X176180615Y-72654848D01*
X176013414Y-72522800D01*
X176013410Y-72522798D01*
X176009359Y-72519598D01*
X175813789Y-72411638D01*
X175808920Y-72409914D01*
X175808916Y-72409912D01*
X175608087Y-72338795D01*
X175608083Y-72338794D01*
X175603212Y-72337069D01*
X175598119Y-72336162D01*
X175598116Y-72336161D01*
X175388373Y-72298800D01*
X175388367Y-72298799D01*
X175383284Y-72297894D01*
X175309452Y-72296992D01*
X175165081Y-72295228D01*
X175165079Y-72295228D01*
X175159911Y-72295165D01*
X174939091Y-72328955D01*
X174726756Y-72398357D01*
X174528607Y-72501507D01*
X174524474Y-72504610D01*
X174524471Y-72504612D01*
X174354100Y-72632530D01*
X174349965Y-72635635D01*
X174310525Y-72676907D01*
X174256280Y-72733671D01*
X174195629Y-72797138D01*
X174069743Y-72981680D01*
X173975688Y-73184305D01*
X173915989Y-73399570D01*
X173892251Y-73621695D01*
X170180000Y-73621695D01*
X170180000Y-56712583D01*
X170235229Y-56638891D01*
X170240615Y-56631705D01*
X170291745Y-56495316D01*
X170298500Y-56433134D01*
X170298500Y-50799500D01*
X170318502Y-50731379D01*
X170372158Y-50684886D01*
X170424500Y-50673500D01*
X178435000Y-50673500D01*
X178435000Y-56515000D01*
G37*
G04 #@! TD.AperFunction*
G04 #@! TA.AperFunction,Conductor*
G36*
X203200000Y-78740000D02*
G01*
X202443500Y-78740000D01*
X202443500Y-62535977D01*
X202443173Y-62517651D01*
X202442852Y-62508662D01*
X202441871Y-62490353D01*
X202410802Y-62347536D01*
X202409228Y-62343317D01*
X202409226Y-62343309D01*
X202398536Y-62314651D01*
X202385991Y-62281016D01*
X202358134Y-62230000D01*
X203200000Y-62230000D01*
X203200000Y-78740000D01*
G37*
G04 #@! TD.AperFunction*
G04 #@! TA.AperFunction,Conductor*
G36*
X201848032Y-62417921D02*
G01*
X201904868Y-62460468D01*
X201929679Y-62526988D01*
X201930000Y-62535977D01*
X201930000Y-90805500D01*
X201909998Y-90873621D01*
X201856342Y-90920114D01*
X201804000Y-90931500D01*
X195071000Y-90931500D01*
X195002879Y-90911498D01*
X194956386Y-90857842D01*
X194945000Y-90805500D01*
X194945000Y-63868500D01*
X194965002Y-63800379D01*
X195018658Y-63753886D01*
X195071000Y-63742500D01*
X199806604Y-63742500D01*
X199823051Y-63743578D01*
X199839516Y-63745746D01*
X199839520Y-63745746D01*
X199845086Y-63746479D01*
X199926489Y-63742640D01*
X199932424Y-63742500D01*
X199954999Y-63742500D01*
X199980989Y-63740181D01*
X199986248Y-63739822D01*
X200069488Y-63735896D01*
X200074947Y-63734646D01*
X200074952Y-63734645D01*
X200086970Y-63731892D01*
X200103899Y-63729211D01*
X200121762Y-63727617D01*
X200127178Y-63726135D01*
X200127180Y-63726135D01*
X200202133Y-63705630D01*
X200207251Y-63704344D01*
X200283000Y-63686995D01*
X200283002Y-63686994D01*
X200288470Y-63685742D01*
X200298970Y-63681263D01*
X200304967Y-63678706D01*
X200321142Y-63673073D01*
X200333039Y-63669818D01*
X200333043Y-63669817D01*
X200338451Y-63668337D01*
X200413667Y-63632461D01*
X200418476Y-63630290D01*
X200489949Y-63599804D01*
X200489950Y-63599804D01*
X200495109Y-63597603D01*
X200510110Y-63587749D01*
X200525025Y-63579346D01*
X200541218Y-63571622D01*
X200545769Y-63568352D01*
X200545772Y-63568350D01*
X200608881Y-63523001D01*
X200613232Y-63520011D01*
X200679010Y-63476804D01*
X200679018Y-63476798D01*
X200682874Y-63474265D01*
X200703662Y-63455743D01*
X200713939Y-63447510D01*
X200723654Y-63440529D01*
X200798063Y-63363745D01*
X200799452Y-63362335D01*
X201714905Y-62446882D01*
X201777217Y-62412856D01*
X201848032Y-62417921D01*
G37*
G04 #@! TD.AperFunction*
G04 #@! TA.AperFunction,Conductor*
G36*
X201872121Y-50693502D02*
G01*
X201918614Y-50747158D01*
X201930000Y-50799500D01*
X201930000Y-56073022D01*
X201909998Y-56141143D01*
X201893095Y-56162117D01*
X198517617Y-59537595D01*
X198455305Y-59571621D01*
X198428522Y-59574500D01*
X194945000Y-59574500D01*
X194945000Y-50673500D01*
X201804000Y-50673500D01*
X201872121Y-50693502D01*
G37*
G04 #@! TD.AperFunction*
G04 #@! TA.AperFunction,Conductor*
G36*
X100208279Y-56818210D02*
G01*
X100232892Y-56828468D01*
X100236108Y-56830229D01*
X100243295Y-56835615D01*
X100379684Y-56886745D01*
X100441866Y-56893500D01*
X100781880Y-56893500D01*
X100850001Y-56913502D01*
X100896494Y-56967158D01*
X100897575Y-56969935D01*
X100899785Y-56974632D01*
X100902236Y-56982175D01*
X100906486Y-56988871D01*
X100906486Y-56988872D01*
X100906650Y-56989131D01*
X100917415Y-57010258D01*
X100917529Y-57010546D01*
X100917532Y-57010551D01*
X100920448Y-57017917D01*
X100925104Y-57024325D01*
X100925107Y-57024331D01*
X100953458Y-57063352D01*
X100957901Y-57069889D01*
X100988000Y-57117318D01*
X100993778Y-57122744D01*
X100993779Y-57122745D01*
X100994007Y-57122959D01*
X101009688Y-57140746D01*
X101014528Y-57147407D01*
X101020637Y-57152461D01*
X101020638Y-57152462D01*
X101057796Y-57183203D01*
X101063730Y-57188434D01*
X101098898Y-57221458D01*
X101098901Y-57221460D01*
X101104679Y-57226886D01*
X101111903Y-57230858D01*
X101131506Y-57244181D01*
X101131746Y-57244380D01*
X101131753Y-57244384D01*
X101137856Y-57249433D01*
X101177400Y-57268041D01*
X101188676Y-57273347D01*
X101195708Y-57276929D01*
X101244940Y-57303995D01*
X101252615Y-57305965D01*
X101252621Y-57305968D01*
X101252919Y-57306044D01*
X101275228Y-57314076D01*
X101275503Y-57314206D01*
X101275511Y-57314209D01*
X101282682Y-57317583D01*
X101337849Y-57328106D01*
X101345558Y-57329829D01*
X101379551Y-57338557D01*
X101392293Y-57341829D01*
X101392294Y-57341829D01*
X101399970Y-57343800D01*
X101408207Y-57343800D01*
X101431816Y-57346032D01*
X101432119Y-57346090D01*
X101432123Y-57346090D01*
X101439906Y-57347575D01*
X101495951Y-57344049D01*
X101503862Y-57343800D01*
X101694290Y-57343800D01*
X101762411Y-57363802D01*
X101808904Y-57417458D01*
X101819529Y-57455973D01*
X101822221Y-57480358D01*
X101828482Y-57537066D01*
X101831353Y-57563075D01*
X101833962Y-57570206D01*
X101833963Y-57570208D01*
X101885026Y-57709744D01*
X101892700Y-57753045D01*
X101892700Y-63211407D01*
X101890468Y-63235016D01*
X101888925Y-63243106D01*
X101891941Y-63291049D01*
X101892451Y-63299151D01*
X101892700Y-63307062D01*
X101892700Y-74761433D01*
X101892173Y-74772616D01*
X101890498Y-74780109D01*
X101890747Y-74788035D01*
X101890747Y-74788036D01*
X101892638Y-74848186D01*
X101892700Y-74852145D01*
X101892700Y-74880056D01*
X101893197Y-74883990D01*
X101893197Y-74883991D01*
X101893205Y-74884056D01*
X101894138Y-74895893D01*
X101895527Y-74940089D01*
X101901178Y-74959539D01*
X101905187Y-74978900D01*
X101906196Y-74986883D01*
X101907726Y-74998997D01*
X101910645Y-75006368D01*
X101910645Y-75006370D01*
X101924004Y-75040112D01*
X101927849Y-75051342D01*
X101935535Y-75077799D01*
X101940182Y-75093793D01*
X101944215Y-75100612D01*
X101944217Y-75100617D01*
X101950493Y-75111228D01*
X101959188Y-75128976D01*
X101966648Y-75147817D01*
X101971310Y-75154233D01*
X101971310Y-75154234D01*
X101992636Y-75183587D01*
X101999152Y-75193507D01*
X102015721Y-75221523D01*
X102021658Y-75231562D01*
X102035979Y-75245883D01*
X102048819Y-75260916D01*
X102060728Y-75277307D01*
X102066832Y-75282357D01*
X102066837Y-75282362D01*
X102094798Y-75305493D01*
X102103579Y-75313483D01*
X102869240Y-76079145D01*
X102898469Y-76124937D01*
X102905085Y-76143015D01*
X102909322Y-76149321D01*
X102909324Y-76149324D01*
X102918400Y-76162830D01*
X103000730Y-76285349D01*
X103064147Y-76343054D01*
X103120777Y-76394583D01*
X103127565Y-76400760D01*
X103278268Y-76482585D01*
X103444139Y-76526101D01*
X103531586Y-76527474D01*
X103608003Y-76528675D01*
X103608006Y-76528675D01*
X103615602Y-76528794D01*
X103623006Y-76527098D01*
X103623008Y-76527098D01*
X103731333Y-76502288D01*
X103782759Y-76490510D01*
X103807754Y-76477939D01*
X103869560Y-76446854D01*
X103939405Y-76434116D01*
X104005048Y-76461160D01*
X104045650Y-76519401D01*
X104051990Y-76566232D01*
X104051869Y-76568469D01*
X104051500Y-76571866D01*
X104051500Y-78368134D01*
X104058255Y-78430316D01*
X104109385Y-78566705D01*
X104196739Y-78683261D01*
X104313295Y-78770615D01*
X104449684Y-78821745D01*
X104511866Y-78828500D01*
X106308134Y-78828500D01*
X106370316Y-78821745D01*
X106506705Y-78770615D01*
X106623261Y-78683261D01*
X106710615Y-78566705D01*
X106761745Y-78430316D01*
X106768500Y-78368134D01*
X106768500Y-76571866D01*
X106761745Y-76509684D01*
X106710615Y-76373295D01*
X106623261Y-76256739D01*
X106506705Y-76169385D01*
X106370316Y-76118255D01*
X106308134Y-76111500D01*
X106296649Y-76111500D01*
X106228528Y-76091498D01*
X106182035Y-76037842D01*
X106171931Y-75967568D01*
X106201425Y-75902988D01*
X106248431Y-75869091D01*
X106331569Y-75834654D01*
X106371988Y-75817912D01*
X106584270Y-75693864D01*
X106622389Y-75671589D01*
X106622390Y-75671588D01*
X106626092Y-75669425D01*
X106857694Y-75487827D01*
X106864601Y-75480700D01*
X107026644Y-75313483D01*
X107062506Y-75276476D01*
X107236741Y-75039285D01*
X107239053Y-75035027D01*
X107375122Y-74784418D01*
X107375123Y-74784416D01*
X107377172Y-74780642D01*
X107462661Y-74554404D01*
X107479685Y-74509351D01*
X107479686Y-74509347D01*
X107481203Y-74505333D01*
X107514451Y-74360164D01*
X107549156Y-74298228D01*
X107611837Y-74264887D01*
X107682593Y-74270726D01*
X107726366Y-74299198D01*
X108541339Y-75114170D01*
X109323574Y-75896405D01*
X109357599Y-75958717D01*
X109352535Y-76029532D01*
X109309988Y-76086368D01*
X109243468Y-76111179D01*
X109234479Y-76111500D01*
X108321866Y-76111500D01*
X108259684Y-76118255D01*
X108123295Y-76169385D01*
X108006739Y-76256739D01*
X107919385Y-76373295D01*
X107868255Y-76509684D01*
X107861500Y-76571866D01*
X107861500Y-78368134D01*
X107868255Y-78430316D01*
X107919385Y-78566705D01*
X108006739Y-78683261D01*
X108123295Y-78770615D01*
X108259684Y-78821745D01*
X108321866Y-78828500D01*
X109630406Y-78828500D01*
X109698527Y-78848502D01*
X109719501Y-78865405D01*
X110240343Y-79386247D01*
X110247887Y-79394537D01*
X110252000Y-79401018D01*
X110257777Y-79406443D01*
X110284675Y-79431702D01*
X110300183Y-79446264D01*
X110301667Y-79447658D01*
X110304509Y-79450413D01*
X110324230Y-79470134D01*
X110327425Y-79472612D01*
X110336447Y-79480318D01*
X110368679Y-79510586D01*
X110375628Y-79514406D01*
X110386432Y-79520346D01*
X110402956Y-79531199D01*
X110418959Y-79543613D01*
X110459543Y-79561176D01*
X110470173Y-79566383D01*
X110508940Y-79587695D01*
X110516617Y-79589666D01*
X110516622Y-79589668D01*
X110528558Y-79592732D01*
X110547266Y-79599137D01*
X110565855Y-79607181D01*
X110573680Y-79608420D01*
X110573682Y-79608421D01*
X110609519Y-79614097D01*
X110621140Y-79616504D01*
X110652959Y-79624673D01*
X110663970Y-79627500D01*
X110684231Y-79627500D01*
X110703940Y-79629051D01*
X110723943Y-79632219D01*
X110731835Y-79631473D01*
X110737062Y-79630979D01*
X110767954Y-79628059D01*
X110779811Y-79627500D01*
X113078233Y-79627500D01*
X113089416Y-79628027D01*
X113096909Y-79629702D01*
X113104835Y-79629453D01*
X113104836Y-79629453D01*
X113164986Y-79627562D01*
X113168945Y-79627500D01*
X113196856Y-79627500D01*
X113200791Y-79627003D01*
X113200856Y-79626995D01*
X113212693Y-79626062D01*
X113244951Y-79625048D01*
X113248970Y-79624922D01*
X113256889Y-79624673D01*
X113276343Y-79619021D01*
X113295700Y-79615013D01*
X113307930Y-79613468D01*
X113307931Y-79613468D01*
X113315797Y-79612474D01*
X113323168Y-79609555D01*
X113323170Y-79609555D01*
X113356912Y-79596196D01*
X113368142Y-79592351D01*
X113402983Y-79582229D01*
X113402984Y-79582229D01*
X113410593Y-79580018D01*
X113417412Y-79575985D01*
X113417417Y-79575983D01*
X113428028Y-79569707D01*
X113445776Y-79561012D01*
X113464617Y-79553552D01*
X113484987Y-79538753D01*
X113500387Y-79527564D01*
X113510307Y-79521048D01*
X113541535Y-79502580D01*
X113541538Y-79502578D01*
X113548362Y-79498542D01*
X113562683Y-79484221D01*
X113577717Y-79471380D01*
X113587693Y-79464132D01*
X113594107Y-79459472D01*
X113622288Y-79425407D01*
X113630278Y-79416626D01*
X113993759Y-79053146D01*
X114002037Y-79045613D01*
X114008518Y-79041500D01*
X114055130Y-78991862D01*
X114057885Y-78989019D01*
X114074834Y-78972071D01*
X114077635Y-78969270D01*
X114080115Y-78966073D01*
X114087820Y-78957051D01*
X114112659Y-78930600D01*
X114118086Y-78924821D01*
X114121905Y-78917875D01*
X114121907Y-78917872D01*
X114127848Y-78907066D01*
X114138699Y-78890547D01*
X114146258Y-78880801D01*
X114151114Y-78874541D01*
X114154259Y-78867272D01*
X114154262Y-78867268D01*
X114168674Y-78833963D01*
X114173891Y-78823313D01*
X114195195Y-78784560D01*
X114200233Y-78764937D01*
X114206637Y-78746234D01*
X114211533Y-78734920D01*
X114211533Y-78734919D01*
X114214681Y-78727645D01*
X114215920Y-78719822D01*
X114215923Y-78719812D01*
X114221599Y-78683976D01*
X114224005Y-78672356D01*
X114233028Y-78637211D01*
X114233028Y-78637210D01*
X114235000Y-78629530D01*
X114235000Y-78609276D01*
X114236551Y-78589565D01*
X114238480Y-78577386D01*
X114239720Y-78569557D01*
X114235559Y-78525538D01*
X114235000Y-78513681D01*
X114235000Y-77739267D01*
X114235527Y-77728084D01*
X114237202Y-77720591D01*
X114236938Y-77712175D01*
X114235062Y-77652501D01*
X114235000Y-77648543D01*
X114235000Y-77620644D01*
X114234496Y-77616653D01*
X114233563Y-77604811D01*
X114233441Y-77600912D01*
X114232174Y-77560611D01*
X114229962Y-77552997D01*
X114229961Y-77552992D01*
X114226523Y-77541159D01*
X114222512Y-77521795D01*
X114221597Y-77514547D01*
X114219974Y-77501703D01*
X114217057Y-77494336D01*
X114217056Y-77494331D01*
X114203698Y-77460592D01*
X114199854Y-77449365D01*
X114189730Y-77414522D01*
X114187518Y-77406907D01*
X114177207Y-77389472D01*
X114168512Y-77371724D01*
X114161052Y-77352883D01*
X114135064Y-77317113D01*
X114128548Y-77307193D01*
X114121122Y-77294637D01*
X114106042Y-77269138D01*
X114100436Y-77263531D01*
X114091720Y-77254815D01*
X114078879Y-77239781D01*
X114071631Y-77229805D01*
X114071630Y-77229804D01*
X114066972Y-77223393D01*
X114032901Y-77195207D01*
X114024122Y-77187218D01*
X113954405Y-77117501D01*
X113920379Y-77055189D01*
X113917500Y-77028406D01*
X113917500Y-76485094D01*
X113937502Y-76416973D01*
X113991158Y-76370480D01*
X114061432Y-76360376D01*
X114126012Y-76389870D01*
X114132595Y-76395999D01*
X115251143Y-77514547D01*
X115258687Y-77522837D01*
X115262800Y-77529318D01*
X115268577Y-77534743D01*
X115312467Y-77575958D01*
X115315309Y-77578713D01*
X115335031Y-77598435D01*
X115338155Y-77600858D01*
X115338159Y-77600862D01*
X115338224Y-77600912D01*
X115347245Y-77608617D01*
X115379479Y-77638886D01*
X115386427Y-77642705D01*
X115386429Y-77642707D01*
X115397232Y-77648646D01*
X115413759Y-77659502D01*
X115423498Y-77667057D01*
X115423500Y-77667058D01*
X115429760Y-77671914D01*
X115470340Y-77689474D01*
X115480988Y-77694691D01*
X115505776Y-77708318D01*
X115519740Y-77715995D01*
X115527416Y-77717966D01*
X115527419Y-77717967D01*
X115539362Y-77721033D01*
X115558067Y-77727437D01*
X115576655Y-77735481D01*
X115584478Y-77736720D01*
X115584488Y-77736723D01*
X115620324Y-77742399D01*
X115631944Y-77744805D01*
X115663759Y-77752973D01*
X115674770Y-77755800D01*
X115695024Y-77755800D01*
X115714734Y-77757351D01*
X115734743Y-77760520D01*
X115742635Y-77759774D01*
X115761380Y-77758002D01*
X115778762Y-77756359D01*
X115790619Y-77755800D01*
X118510359Y-77755800D01*
X118521542Y-77756327D01*
X118529035Y-77758002D01*
X118536961Y-77757753D01*
X118536962Y-77757753D01*
X118597112Y-77755862D01*
X118601071Y-77755800D01*
X118628982Y-77755800D01*
X118632917Y-77755303D01*
X118632982Y-77755295D01*
X118644819Y-77754362D01*
X118677077Y-77753348D01*
X118681096Y-77753222D01*
X118689015Y-77752973D01*
X118708469Y-77747321D01*
X118727826Y-77743313D01*
X118740056Y-77741768D01*
X118740057Y-77741768D01*
X118747923Y-77740774D01*
X118755294Y-77737855D01*
X118755296Y-77737855D01*
X118789038Y-77724496D01*
X118800268Y-77720651D01*
X118835109Y-77710529D01*
X118835110Y-77710529D01*
X118842719Y-77708318D01*
X118849538Y-77704285D01*
X118849543Y-77704283D01*
X118860154Y-77698007D01*
X118877902Y-77689312D01*
X118896743Y-77681852D01*
X118932513Y-77655864D01*
X118942433Y-77649348D01*
X118973661Y-77630880D01*
X118973664Y-77630878D01*
X118980488Y-77626842D01*
X118994809Y-77612521D01*
X119009843Y-77599680D01*
X119011557Y-77598435D01*
X119026233Y-77587772D01*
X119054424Y-77553695D01*
X119062414Y-77544916D01*
X119586746Y-77020584D01*
X119595036Y-77013040D01*
X119601517Y-77008927D01*
X119648158Y-76959259D01*
X119650912Y-76956418D01*
X119670634Y-76936696D01*
X119673118Y-76933494D01*
X119680816Y-76924482D01*
X119705660Y-76898025D01*
X119711085Y-76892248D01*
X119720846Y-76874493D01*
X119731697Y-76857974D01*
X119744113Y-76841968D01*
X119748554Y-76831706D01*
X119761673Y-76801390D01*
X119766890Y-76790740D01*
X119788194Y-76751987D01*
X119793232Y-76732364D01*
X119799636Y-76713661D01*
X119804532Y-76702347D01*
X119804532Y-76702346D01*
X119807680Y-76695072D01*
X119808919Y-76687249D01*
X119808922Y-76687239D01*
X119814598Y-76651403D01*
X119817004Y-76639783D01*
X119826027Y-76604638D01*
X119826027Y-76604637D01*
X119827999Y-76596957D01*
X119827999Y-76576703D01*
X119829550Y-76556992D01*
X119831479Y-76544813D01*
X119832719Y-76536984D01*
X119831785Y-76527098D01*
X119829439Y-76502285D01*
X119828558Y-76492965D01*
X119827999Y-76481108D01*
X119827999Y-72405840D01*
X119828526Y-72394657D01*
X119830201Y-72387164D01*
X119829703Y-72371304D01*
X119828061Y-72319087D01*
X119827999Y-72315128D01*
X119827999Y-72287217D01*
X119827494Y-72283217D01*
X119826561Y-72271374D01*
X119826083Y-72256146D01*
X119825172Y-72227183D01*
X119819521Y-72207731D01*
X119815513Y-72188379D01*
X119813966Y-72176136D01*
X119812973Y-72168276D01*
X119810055Y-72160905D01*
X119796699Y-72127170D01*
X119792854Y-72115943D01*
X119788572Y-72101204D01*
X119780517Y-72073480D01*
X119776483Y-72066658D01*
X119776480Y-72066652D01*
X119770205Y-72056041D01*
X119761509Y-72038291D01*
X119756971Y-72026829D01*
X119756968Y-72026824D01*
X119754051Y-72019456D01*
X119741400Y-72002043D01*
X119728072Y-71983698D01*
X119721556Y-71973780D01*
X119703074Y-71942530D01*
X119699041Y-71935710D01*
X119684717Y-71921386D01*
X119671875Y-71906351D01*
X119671377Y-71905665D01*
X119659971Y-71889966D01*
X119625905Y-71861784D01*
X119617126Y-71853795D01*
X119610904Y-71847573D01*
X119576878Y-71785261D01*
X119573999Y-71758478D01*
X119573999Y-71497521D01*
X119594001Y-71429400D01*
X119610904Y-71408426D01*
X119795426Y-71223904D01*
X119857738Y-71189878D01*
X119884521Y-71186999D01*
X120145478Y-71186999D01*
X120213599Y-71207001D01*
X120234574Y-71223904D01*
X120845426Y-71834757D01*
X120852960Y-71843036D01*
X120857073Y-71849517D01*
X120879434Y-71870515D01*
X120906724Y-71896142D01*
X120909566Y-71898897D01*
X120929303Y-71918634D01*
X120932500Y-71921114D01*
X120941520Y-71928817D01*
X120973752Y-71959085D01*
X120980698Y-71962904D01*
X120980701Y-71962906D01*
X120991507Y-71968847D01*
X121008026Y-71979698D01*
X121024032Y-71992113D01*
X121031301Y-71995258D01*
X121031305Y-71995261D01*
X121064610Y-72009673D01*
X121075260Y-72014890D01*
X121114013Y-72036194D01*
X121121688Y-72038165D01*
X121121689Y-72038165D01*
X121133635Y-72041232D01*
X121152340Y-72047636D01*
X121170928Y-72055680D01*
X121178751Y-72056919D01*
X121178761Y-72056922D01*
X121214597Y-72062598D01*
X121226217Y-72065004D01*
X121261362Y-72074027D01*
X121269043Y-72075999D01*
X121289297Y-72075999D01*
X121309007Y-72077550D01*
X121329016Y-72080719D01*
X121336908Y-72079973D01*
X121373034Y-72076558D01*
X121384892Y-72075999D01*
X123234144Y-72075999D01*
X123302265Y-72096001D01*
X123348758Y-72149657D01*
X123358862Y-72219931D01*
X123356441Y-72230460D01*
X123356774Y-72230534D01*
X123355549Y-72236016D01*
X123353844Y-72241357D01*
X123353112Y-72246914D01*
X123353112Y-72246916D01*
X123345835Y-72302191D01*
X123324521Y-72464086D01*
X123324785Y-72469685D01*
X123324785Y-72469687D01*
X123329601Y-72571812D01*
X123335104Y-72688488D01*
X123360965Y-72801403D01*
X123375284Y-72863920D01*
X123385258Y-72907470D01*
X123421872Y-72993310D01*
X123468642Y-73102960D01*
X123473397Y-73114109D01*
X123495802Y-73148217D01*
X123581302Y-73278379D01*
X123596735Y-73301874D01*
X123599798Y-73305312D01*
X123599802Y-73305317D01*
X123630575Y-73339855D01*
X123634722Y-73344509D01*
X123636019Y-73345806D01*
X127607617Y-77317405D01*
X127641643Y-77379717D01*
X127636578Y-77450533D01*
X127607617Y-77495595D01*
X127466802Y-77636410D01*
X127359406Y-77764854D01*
X127248101Y-77959993D01*
X127246232Y-77965270D01*
X127246230Y-77965275D01*
X127183634Y-78142043D01*
X127173111Y-78171759D01*
X127172204Y-78177298D01*
X127145479Y-78340498D01*
X127136806Y-78393457D01*
X127136894Y-78399070D01*
X127136894Y-78399073D01*
X127137385Y-78430316D01*
X127140335Y-78618081D01*
X127141415Y-78623586D01*
X127181620Y-78828511D01*
X127183585Y-78838529D01*
X127185623Y-78843755D01*
X127185624Y-78843760D01*
X127229082Y-78955224D01*
X127265190Y-79047835D01*
X127382570Y-79239382D01*
X127386305Y-79243575D01*
X127386308Y-79243578D01*
X127428995Y-79291488D01*
X127532015Y-79407115D01*
X127708801Y-79545734D01*
X127713760Y-79548359D01*
X127713759Y-79548359D01*
X127878484Y-79635575D01*
X127907341Y-79650854D01*
X127912687Y-79652560D01*
X127912689Y-79652561D01*
X128022925Y-79687742D01*
X128121357Y-79719156D01*
X128126914Y-79719888D01*
X128126916Y-79719888D01*
X128214503Y-79731419D01*
X128344086Y-79748479D01*
X128349685Y-79748215D01*
X128349687Y-79748215D01*
X128470377Y-79742523D01*
X128568488Y-79737896D01*
X128707477Y-79706063D01*
X128782005Y-79688994D01*
X128782009Y-79688993D01*
X128787470Y-79687742D01*
X128933329Y-79625528D01*
X128988954Y-79601802D01*
X128988956Y-79601801D01*
X128994109Y-79599603D01*
X129079346Y-79543613D01*
X129178020Y-79478797D01*
X129178024Y-79478794D01*
X129181874Y-79476265D01*
X129185312Y-79473202D01*
X129185317Y-79473198D01*
X129223152Y-79439487D01*
X129224509Y-79438278D01*
X129984259Y-78678528D01*
X129996651Y-78667660D01*
X130009843Y-78657538D01*
X130009851Y-78657531D01*
X130014292Y-78654123D01*
X130069168Y-78593815D01*
X130073267Y-78589520D01*
X130089198Y-78573589D01*
X130105934Y-78553573D01*
X130109379Y-78549624D01*
X130161703Y-78492121D01*
X130161706Y-78492117D01*
X130165485Y-78487964D01*
X130175013Y-78472775D01*
X130185091Y-78458903D01*
X130192992Y-78449455D01*
X130192997Y-78449448D01*
X130196594Y-78445146D01*
X130237887Y-78372752D01*
X130240592Y-78368232D01*
X130240654Y-78368134D01*
X130274708Y-78313846D01*
X130281886Y-78302404D01*
X130281888Y-78302401D01*
X130284864Y-78297656D01*
X130291552Y-78281021D01*
X130299012Y-78265589D01*
X130305120Y-78254881D01*
X130305124Y-78254872D01*
X130307899Y-78250007D01*
X130309768Y-78244730D01*
X130309770Y-78244725D01*
X130335715Y-78171458D01*
X130337580Y-78166522D01*
X130366566Y-78094416D01*
X130368656Y-78089217D01*
X130372294Y-78071650D01*
X130376899Y-78055156D01*
X130382889Y-78038241D01*
X130394146Y-77969500D01*
X130396355Y-77956009D01*
X130397317Y-77950819D01*
X130413277Y-77873754D01*
X130413278Y-77873750D01*
X130414213Y-77869233D01*
X130414479Y-77864622D01*
X130415815Y-77841452D01*
X130417262Y-77828347D01*
X130418286Y-77822090D01*
X130418286Y-77822083D01*
X130419194Y-77816542D01*
X130418315Y-77760558D01*
X130417516Y-77709736D01*
X130417500Y-77707757D01*
X130417500Y-77180395D01*
X130418578Y-77163948D01*
X130420746Y-77147483D01*
X130420746Y-77147479D01*
X130421479Y-77141913D01*
X130417640Y-77060510D01*
X130417500Y-77054575D01*
X130417500Y-77032001D01*
X130415181Y-77006013D01*
X130414822Y-77000750D01*
X130411429Y-76928811D01*
X130410896Y-76917511D01*
X130409645Y-76912048D01*
X130409644Y-76912042D01*
X130406893Y-76900032D01*
X130404211Y-76883099D01*
X130403116Y-76870832D01*
X130402617Y-76865238D01*
X130397965Y-76848231D01*
X130387400Y-76809616D01*
X130380624Y-76784848D01*
X130379341Y-76779739D01*
X130373530Y-76754364D01*
X130368965Y-76734434D01*
X130373255Y-76663567D01*
X130415177Y-76606269D01*
X130481422Y-76580732D01*
X130550957Y-76595063D01*
X130580880Y-76617210D01*
X131478217Y-77514547D01*
X131485761Y-77522837D01*
X131489874Y-77529318D01*
X131495651Y-77534743D01*
X131539541Y-77575958D01*
X131542383Y-77578713D01*
X131562105Y-77598435D01*
X131565229Y-77600858D01*
X131565233Y-77600862D01*
X131565298Y-77600912D01*
X131574319Y-77608617D01*
X131606553Y-77638886D01*
X131613501Y-77642705D01*
X131613503Y-77642707D01*
X131624306Y-77648646D01*
X131640833Y-77659502D01*
X131650572Y-77667057D01*
X131650574Y-77667058D01*
X131656834Y-77671914D01*
X131697414Y-77689474D01*
X131708062Y-77694691D01*
X131732850Y-77708318D01*
X131746814Y-77715995D01*
X131754490Y-77717966D01*
X131754493Y-77717967D01*
X131766436Y-77721033D01*
X131785141Y-77727437D01*
X131803729Y-77735481D01*
X131811552Y-77736720D01*
X131811562Y-77736723D01*
X131847398Y-77742399D01*
X131859018Y-77744805D01*
X131890833Y-77752973D01*
X131901844Y-77755800D01*
X131922098Y-77755800D01*
X131941808Y-77757351D01*
X131961817Y-77760520D01*
X131969709Y-77759774D01*
X131988454Y-77758002D01*
X132005836Y-77756359D01*
X132017693Y-77755800D01*
X140828401Y-77755800D01*
X140839584Y-77756327D01*
X140847077Y-77758002D01*
X140855003Y-77757753D01*
X140855004Y-77757753D01*
X140915154Y-77755862D01*
X140919113Y-77755800D01*
X140947024Y-77755800D01*
X140950959Y-77755303D01*
X140951024Y-77755295D01*
X140962861Y-77754362D01*
X140995119Y-77753348D01*
X140999138Y-77753222D01*
X141007057Y-77752973D01*
X141026511Y-77747321D01*
X141045868Y-77743313D01*
X141058098Y-77741768D01*
X141058099Y-77741768D01*
X141065965Y-77740774D01*
X141073336Y-77737855D01*
X141073338Y-77737855D01*
X141107080Y-77724496D01*
X141118310Y-77720651D01*
X141153151Y-77710529D01*
X141153152Y-77710529D01*
X141160761Y-77708318D01*
X141167580Y-77704285D01*
X141167585Y-77704283D01*
X141178196Y-77698007D01*
X141195944Y-77689312D01*
X141214785Y-77681852D01*
X141250555Y-77655864D01*
X141260475Y-77649348D01*
X141291703Y-77630880D01*
X141291706Y-77630878D01*
X141298530Y-77626842D01*
X141312851Y-77612521D01*
X141327885Y-77599680D01*
X141329599Y-77598435D01*
X141344275Y-77587772D01*
X141372466Y-77553695D01*
X141380456Y-77544916D01*
X142895758Y-76029614D01*
X142939497Y-76001855D01*
X142941293Y-76001444D01*
X143094492Y-75924393D01*
X143100263Y-75919464D01*
X143100266Y-75919462D01*
X143219112Y-75817957D01*
X143224889Y-75813023D01*
X143324958Y-75673764D01*
X143388919Y-75514654D01*
X143393751Y-75480700D01*
X143412500Y-75348965D01*
X143412500Y-75348961D01*
X143413081Y-75344881D01*
X143413238Y-75329934D01*
X143404814Y-75260324D01*
X143393549Y-75167233D01*
X143393548Y-75167230D01*
X143392636Y-75159692D01*
X143384756Y-75138836D01*
X143334705Y-75006381D01*
X143332021Y-74999278D01*
X143306528Y-74962185D01*
X143239193Y-74864212D01*
X143239192Y-74864210D01*
X143234891Y-74857953D01*
X143235597Y-74857468D01*
X143208201Y-74798810D01*
X143207391Y-74777453D01*
X143206847Y-74777447D01*
X143206961Y-74766633D01*
X143206961Y-74766627D01*
X143207004Y-74762500D01*
X143199340Y-74699171D01*
X143187315Y-74599799D01*
X143187314Y-74599796D01*
X143186402Y-74592258D01*
X143172099Y-74554404D01*
X143131226Y-74446238D01*
X143125858Y-74375444D01*
X143159616Y-74312987D01*
X143221782Y-74278695D01*
X143249092Y-74275700D01*
X146359423Y-74275700D01*
X146427544Y-74295702D01*
X146448518Y-74312605D01*
X146768319Y-74632406D01*
X146797550Y-74678200D01*
X146822332Y-74745921D01*
X146822334Y-74745925D01*
X146824944Y-74753057D01*
X146829181Y-74759363D01*
X146829183Y-74759366D01*
X146855689Y-74798810D01*
X146920589Y-74895391D01*
X146948446Y-74920739D01*
X147017965Y-74983996D01*
X147047424Y-75010802D01*
X147198127Y-75092627D01*
X147363998Y-75136143D01*
X147451445Y-75137516D01*
X147527862Y-75138717D01*
X147527865Y-75138717D01*
X147535461Y-75138836D01*
X147542865Y-75137140D01*
X147542867Y-75137140D01*
X147618738Y-75119763D01*
X147702618Y-75100552D01*
X147855817Y-75023501D01*
X147861588Y-75018572D01*
X147861591Y-75018570D01*
X147980437Y-74917065D01*
X147986214Y-74912131D01*
X148086283Y-74772872D01*
X148088100Y-74774177D01*
X148130558Y-74731961D01*
X148199975Y-74717068D01*
X148266424Y-74742069D01*
X148279722Y-74753626D01*
X149395186Y-75869091D01*
X150453795Y-76927700D01*
X150487821Y-76990012D01*
X150490700Y-77016795D01*
X150490700Y-78905112D01*
X150482093Y-78950882D01*
X150437459Y-79065363D01*
X150432918Y-79077009D01*
X150431926Y-79084542D01*
X150431926Y-79084543D01*
X150412015Y-79235788D01*
X150410535Y-79247026D01*
X150418740Y-79321346D01*
X150427747Y-79402925D01*
X150429353Y-79417475D01*
X150431962Y-79424606D01*
X150431963Y-79424608D01*
X150442486Y-79453363D01*
X150488285Y-79578515D01*
X150492522Y-79584821D01*
X150492524Y-79584824D01*
X150523871Y-79631473D01*
X150583930Y-79720849D01*
X150710765Y-79836260D01*
X150861468Y-79918085D01*
X151027339Y-79961601D01*
X151114786Y-79962974D01*
X151191203Y-79964175D01*
X151191206Y-79964175D01*
X151198802Y-79964294D01*
X151206206Y-79962598D01*
X151206208Y-79962598D01*
X151296623Y-79941890D01*
X151365959Y-79926010D01*
X151519158Y-79848959D01*
X151524929Y-79844030D01*
X151524932Y-79844028D01*
X151643778Y-79742523D01*
X151649555Y-79737589D01*
X151730080Y-79625528D01*
X151745192Y-79604498D01*
X151745193Y-79604497D01*
X151749624Y-79598330D01*
X151813585Y-79439220D01*
X151818250Y-79406443D01*
X151837166Y-79273531D01*
X151837166Y-79273527D01*
X151837747Y-79269447D01*
X151837821Y-79262357D01*
X151837861Y-79258633D01*
X151837861Y-79258627D01*
X151837904Y-79254500D01*
X151826971Y-79164153D01*
X151818215Y-79091799D01*
X151818214Y-79091796D01*
X151817302Y-79084258D01*
X151810163Y-79065363D01*
X151765834Y-78948051D01*
X151757700Y-78903513D01*
X151757700Y-76780967D01*
X151758227Y-76769784D01*
X151759902Y-76762291D01*
X151757762Y-76694214D01*
X151757700Y-76690255D01*
X151757700Y-76662344D01*
X151757195Y-76658344D01*
X151756262Y-76646501D01*
X151755122Y-76610230D01*
X151754873Y-76602311D01*
X151749221Y-76582857D01*
X151745213Y-76563500D01*
X151743668Y-76551270D01*
X151743668Y-76551269D01*
X151742674Y-76543403D01*
X151736843Y-76528675D01*
X151726396Y-76502288D01*
X151722551Y-76491058D01*
X151712429Y-76456217D01*
X151712429Y-76456216D01*
X151710218Y-76448607D01*
X151706185Y-76441788D01*
X151706183Y-76441783D01*
X151699907Y-76431172D01*
X151691212Y-76413424D01*
X151683752Y-76394583D01*
X151673579Y-76380580D01*
X151657764Y-76358813D01*
X151651248Y-76348893D01*
X151628742Y-76310838D01*
X151630640Y-76309715D01*
X151608817Y-76254150D01*
X151622709Y-76184526D01*
X151672038Y-76133465D01*
X151706193Y-76120175D01*
X151714576Y-76118255D01*
X151752759Y-76109510D01*
X151905958Y-76032459D01*
X151911729Y-76027530D01*
X151911732Y-76027528D01*
X152020697Y-75934462D01*
X152036355Y-75921089D01*
X152136424Y-75781830D01*
X152200385Y-75622720D01*
X152211964Y-75541358D01*
X152241364Y-75476736D01*
X152301036Y-75438267D01*
X152372032Y-75438165D01*
X152425802Y-75470017D01*
X153321595Y-76365810D01*
X153355621Y-76428122D01*
X153358500Y-76454905D01*
X153358500Y-78905112D01*
X153349893Y-78950882D01*
X153305259Y-79065363D01*
X153300718Y-79077009D01*
X153299726Y-79084542D01*
X153299726Y-79084543D01*
X153279815Y-79235788D01*
X153278335Y-79247026D01*
X153286540Y-79321346D01*
X153295547Y-79402925D01*
X153297153Y-79417475D01*
X153299762Y-79424606D01*
X153299763Y-79424608D01*
X153310286Y-79453363D01*
X153356085Y-79578515D01*
X153360322Y-79584821D01*
X153360324Y-79584824D01*
X153391671Y-79631473D01*
X153451730Y-79720849D01*
X153578565Y-79836260D01*
X153729268Y-79918085D01*
X153895139Y-79961601D01*
X153982586Y-79962974D01*
X154059003Y-79964175D01*
X154059006Y-79964175D01*
X154066602Y-79964294D01*
X154074006Y-79962598D01*
X154074008Y-79962598D01*
X154164423Y-79941890D01*
X154233759Y-79926010D01*
X154386958Y-79848959D01*
X154392729Y-79844030D01*
X154392732Y-79844028D01*
X154511578Y-79742523D01*
X154517355Y-79737589D01*
X154597880Y-79625528D01*
X154612992Y-79604498D01*
X154612993Y-79604497D01*
X154617424Y-79598330D01*
X154681385Y-79439220D01*
X154686050Y-79406443D01*
X154704966Y-79273531D01*
X154704966Y-79273527D01*
X154705547Y-79269447D01*
X154705621Y-79262357D01*
X154705661Y-79258633D01*
X154705661Y-79258627D01*
X154705704Y-79254500D01*
X154694771Y-79164153D01*
X154686015Y-79091799D01*
X154686014Y-79091796D01*
X154685102Y-79084258D01*
X154677963Y-79065363D01*
X154633634Y-78948051D01*
X154625500Y-78903513D01*
X154625500Y-76274354D01*
X154645502Y-76206233D01*
X154699158Y-76159740D01*
X154769432Y-76149636D01*
X154811622Y-76163623D01*
X154850121Y-76184526D01*
X154931268Y-76228585D01*
X154938617Y-76230513D01*
X154939494Y-76230743D01*
X154940153Y-76231121D01*
X154945679Y-76233309D01*
X154945362Y-76234110D01*
X154996621Y-76263525D01*
X156301595Y-77568499D01*
X156335621Y-77630811D01*
X156338500Y-77657594D01*
X156338500Y-79914612D01*
X156329893Y-79960382D01*
X156324680Y-79973752D01*
X156286011Y-80072934D01*
X156280718Y-80086509D01*
X156279726Y-80094042D01*
X156279726Y-80094043D01*
X156259491Y-80247748D01*
X156258335Y-80256526D01*
X156265204Y-80318743D01*
X156273403Y-80393006D01*
X156277153Y-80426975D01*
X156279762Y-80434106D01*
X156279763Y-80434108D01*
X156302385Y-80495925D01*
X156336085Y-80588015D01*
X156431730Y-80730349D01*
X156492179Y-80785353D01*
X156550101Y-80838058D01*
X156558565Y-80845760D01*
X156709268Y-80927585D01*
X156875139Y-80971101D01*
X156962586Y-80972474D01*
X157039003Y-80973675D01*
X157039006Y-80973675D01*
X157046602Y-80973794D01*
X157054006Y-80972098D01*
X157054008Y-80972098D01*
X157151291Y-80949817D01*
X157213759Y-80935510D01*
X157366958Y-80858459D01*
X157372729Y-80853530D01*
X157372732Y-80853528D01*
X157491578Y-80752023D01*
X157497355Y-80747089D01*
X157572098Y-80643075D01*
X157592992Y-80613998D01*
X157592993Y-80613997D01*
X157597424Y-80607830D01*
X157661385Y-80448720D01*
X157661592Y-80447262D01*
X157697185Y-80388868D01*
X157761045Y-80357846D01*
X157831540Y-80366274D01*
X157871036Y-80393006D01*
X158607829Y-81129800D01*
X159344595Y-81866566D01*
X159378621Y-81928878D01*
X159381500Y-81955661D01*
X159381500Y-90805500D01*
X159361498Y-90873621D01*
X159307842Y-90920114D01*
X159255500Y-90931500D01*
X154584500Y-90931500D01*
X154516379Y-90911498D01*
X154469886Y-90857842D01*
X154458500Y-90805500D01*
X154458500Y-83979595D01*
X154478502Y-83911474D01*
X154495405Y-83890500D01*
X155136226Y-83249679D01*
X155179964Y-83221921D01*
X155181759Y-83221510D01*
X155334958Y-83144459D01*
X155340729Y-83139530D01*
X155340732Y-83139528D01*
X155459578Y-83038023D01*
X155465355Y-83033089D01*
X155565424Y-82893830D01*
X155629385Y-82734720D01*
X155653547Y-82564947D01*
X155653704Y-82550000D01*
X155633102Y-82379758D01*
X155572487Y-82219344D01*
X155475357Y-82078019D01*
X155469686Y-82072966D01*
X155352993Y-81968996D01*
X155352990Y-81968994D01*
X155347321Y-81963943D01*
X155339325Y-81959709D01*
X155202481Y-81887254D01*
X155202482Y-81887254D01*
X155195769Y-81883700D01*
X155178196Y-81879286D01*
X155036822Y-81843775D01*
X155036818Y-81843775D01*
X155029451Y-81841924D01*
X155021852Y-81841884D01*
X155021850Y-81841884D01*
X154950394Y-81841510D01*
X154857969Y-81841026D01*
X154850589Y-81842798D01*
X154850587Y-81842798D01*
X154698602Y-81879286D01*
X154698598Y-81879287D01*
X154691223Y-81881058D01*
X154684481Y-81884538D01*
X154684475Y-81884540D01*
X154642289Y-81906314D01*
X154572582Y-81919783D01*
X154506659Y-81893427D01*
X154465449Y-81835615D01*
X154458500Y-81794348D01*
X154458500Y-81361866D01*
X154451745Y-81299684D01*
X154400615Y-81163295D01*
X154313261Y-81046739D01*
X154196705Y-80959385D01*
X154060316Y-80908255D01*
X153998134Y-80901500D01*
X151921866Y-80901500D01*
X151859684Y-80908255D01*
X151723295Y-80959385D01*
X151606739Y-81046739D01*
X151519385Y-81163295D01*
X151468255Y-81299684D01*
X151461500Y-81361866D01*
X151461500Y-81741159D01*
X151441498Y-81809280D01*
X151387842Y-81855773D01*
X151317568Y-81865877D01*
X151304805Y-81863363D01*
X151226822Y-81843775D01*
X151226818Y-81843775D01*
X151219451Y-81841924D01*
X151211852Y-81841884D01*
X151211850Y-81841884D01*
X151140394Y-81841510D01*
X151047969Y-81841026D01*
X151040589Y-81842798D01*
X151040587Y-81842798D01*
X150888602Y-81879286D01*
X150888598Y-81879287D01*
X150881223Y-81881058D01*
X150728839Y-81959709D01*
X150723120Y-81964698D01*
X150707331Y-81978472D01*
X150642849Y-82008181D01*
X150572541Y-81998312D01*
X150518731Y-81951999D01*
X150498500Y-81883524D01*
X150498500Y-81361866D01*
X150491745Y-81299684D01*
X150440615Y-81163295D01*
X150353261Y-81046739D01*
X150236705Y-80959385D01*
X150100316Y-80908255D01*
X150038134Y-80901500D01*
X147961866Y-80901500D01*
X147899684Y-80908255D01*
X147763295Y-80959385D01*
X147646739Y-81046739D01*
X147559385Y-81163295D01*
X147508255Y-81299684D01*
X147501500Y-81361866D01*
X147501500Y-90805500D01*
X147481498Y-90873621D01*
X147427842Y-90920114D01*
X147375500Y-90931500D01*
X146664500Y-90931500D01*
X146596379Y-90911498D01*
X146549886Y-90857842D01*
X146538500Y-90805500D01*
X146538500Y-81361866D01*
X146531745Y-81299684D01*
X146480615Y-81163295D01*
X146393261Y-81046739D01*
X146276705Y-80959385D01*
X146140316Y-80908255D01*
X146078134Y-80901500D01*
X144001866Y-80901500D01*
X143939684Y-80908255D01*
X143803295Y-80959385D01*
X143686739Y-81046739D01*
X143599385Y-81163295D01*
X143548255Y-81299684D01*
X143541500Y-81361866D01*
X143541500Y-90805500D01*
X143521498Y-90873621D01*
X143467842Y-90920114D01*
X143415500Y-90931500D01*
X142704500Y-90931500D01*
X142636379Y-90911498D01*
X142589886Y-90857842D01*
X142578500Y-90805500D01*
X142578500Y-81361866D01*
X142571745Y-81299684D01*
X142520615Y-81163295D01*
X142433261Y-81046739D01*
X142316705Y-80959385D01*
X142180316Y-80908255D01*
X142118134Y-80901500D01*
X140041866Y-80901500D01*
X139979684Y-80908255D01*
X139843295Y-80959385D01*
X139726739Y-81046739D01*
X139639385Y-81163295D01*
X139588255Y-81299684D01*
X139581500Y-81361866D01*
X139581500Y-90805500D01*
X139561498Y-90873621D01*
X139507842Y-90920114D01*
X139455500Y-90931500D01*
X138744500Y-90931500D01*
X138676379Y-90911498D01*
X138629886Y-90857842D01*
X138618500Y-90805500D01*
X138618500Y-81361866D01*
X138611745Y-81299684D01*
X138560615Y-81163295D01*
X138473261Y-81046739D01*
X138356705Y-80959385D01*
X138220316Y-80908255D01*
X138158134Y-80901500D01*
X136081866Y-80901500D01*
X136019684Y-80908255D01*
X135883295Y-80959385D01*
X135766739Y-81046739D01*
X135679385Y-81163295D01*
X135628255Y-81299684D01*
X135621500Y-81361866D01*
X135621500Y-90805500D01*
X135601498Y-90873621D01*
X135547842Y-90920114D01*
X135495500Y-90931500D01*
X134784500Y-90931500D01*
X134716379Y-90911498D01*
X134669886Y-90857842D01*
X134658500Y-90805500D01*
X134658500Y-81361866D01*
X134651745Y-81299684D01*
X134600615Y-81163295D01*
X134513261Y-81046739D01*
X134396705Y-80959385D01*
X134260316Y-80908255D01*
X134198134Y-80901500D01*
X132121866Y-80901500D01*
X132059684Y-80908255D01*
X131923295Y-80959385D01*
X131806739Y-81046739D01*
X131719385Y-81163295D01*
X131668255Y-81299684D01*
X131661500Y-81361866D01*
X131661500Y-90805500D01*
X131641498Y-90873621D01*
X131587842Y-90920114D01*
X131535500Y-90931500D01*
X130824500Y-90931500D01*
X130756379Y-90911498D01*
X130709886Y-90857842D01*
X130698500Y-90805500D01*
X130698500Y-81361866D01*
X130691745Y-81299684D01*
X130640615Y-81163295D01*
X130553261Y-81046739D01*
X130436705Y-80959385D01*
X130300316Y-80908255D01*
X130238134Y-80901500D01*
X128161866Y-80901500D01*
X128099684Y-80908255D01*
X127963295Y-80959385D01*
X127846739Y-81046739D01*
X127759385Y-81163295D01*
X127708255Y-81299684D01*
X127701500Y-81361866D01*
X127701500Y-90805500D01*
X127681498Y-90873621D01*
X127627842Y-90920114D01*
X127575500Y-90931500D01*
X126864500Y-90931500D01*
X126796379Y-90911498D01*
X126749886Y-90857842D01*
X126738500Y-90805500D01*
X126738500Y-81361866D01*
X126731745Y-81299684D01*
X126680615Y-81163295D01*
X126593261Y-81046739D01*
X126476705Y-80959385D01*
X126340316Y-80908255D01*
X126278134Y-80901500D01*
X124201866Y-80901500D01*
X124139684Y-80908255D01*
X124003295Y-80959385D01*
X123886739Y-81046739D01*
X123799385Y-81163295D01*
X123748255Y-81299684D01*
X123741500Y-81361866D01*
X123741500Y-90805500D01*
X123721498Y-90873621D01*
X123667842Y-90920114D01*
X123615500Y-90931500D01*
X122904500Y-90931500D01*
X122836379Y-90911498D01*
X122789886Y-90857842D01*
X122778500Y-90805500D01*
X122778500Y-81361866D01*
X122771745Y-81299684D01*
X122720615Y-81163295D01*
X122633261Y-81046739D01*
X122516705Y-80959385D01*
X122380316Y-80908255D01*
X122318134Y-80901500D01*
X120241866Y-80901500D01*
X120179684Y-80908255D01*
X120043295Y-80959385D01*
X119926739Y-81046739D01*
X119839385Y-81163295D01*
X119788255Y-81299684D01*
X119781500Y-81361866D01*
X119781500Y-90805500D01*
X119761498Y-90873621D01*
X119707842Y-90920114D01*
X119655500Y-90931500D01*
X118944500Y-90931500D01*
X118876379Y-90911498D01*
X118829886Y-90857842D01*
X118818500Y-90805500D01*
X118818500Y-81361866D01*
X118811745Y-81299684D01*
X118760615Y-81163295D01*
X118673261Y-81046739D01*
X118556705Y-80959385D01*
X118420316Y-80908255D01*
X118358134Y-80901500D01*
X116281866Y-80901500D01*
X116219684Y-80908255D01*
X116083295Y-80959385D01*
X115966739Y-81046739D01*
X115879385Y-81163295D01*
X115828255Y-81299684D01*
X115821500Y-81361866D01*
X115821500Y-90805500D01*
X115801498Y-90873621D01*
X115747842Y-90920114D01*
X115695500Y-90931500D01*
X114984500Y-90931500D01*
X114916379Y-90911498D01*
X114869886Y-90857842D01*
X114858500Y-90805500D01*
X114858500Y-81361866D01*
X114851745Y-81299684D01*
X114800615Y-81163295D01*
X114713261Y-81046739D01*
X114596705Y-80959385D01*
X114460316Y-80908255D01*
X114398134Y-80901500D01*
X112321866Y-80901500D01*
X112259684Y-80908255D01*
X112123295Y-80959385D01*
X112006739Y-81046739D01*
X111919385Y-81163295D01*
X111868255Y-81299684D01*
X111861500Y-81361866D01*
X111861500Y-90805500D01*
X111841498Y-90873621D01*
X111787842Y-90920114D01*
X111735500Y-90931500D01*
X111024500Y-90931500D01*
X110956379Y-90911498D01*
X110909886Y-90857842D01*
X110898500Y-90805500D01*
X110898500Y-81361866D01*
X110891745Y-81299684D01*
X110840615Y-81163295D01*
X110753261Y-81046739D01*
X110636705Y-80959385D01*
X110500316Y-80908255D01*
X110438134Y-80901500D01*
X108361866Y-80901500D01*
X108299684Y-80908255D01*
X108163295Y-80959385D01*
X108046739Y-81046739D01*
X107959385Y-81163295D01*
X107908255Y-81299684D01*
X107901500Y-81361866D01*
X107901500Y-90805500D01*
X107881498Y-90873621D01*
X107827842Y-90920114D01*
X107775500Y-90931500D01*
X107064500Y-90931500D01*
X106996379Y-90911498D01*
X106949886Y-90857842D01*
X106938500Y-90805500D01*
X106938500Y-81361866D01*
X106931745Y-81299684D01*
X106880615Y-81163295D01*
X106793261Y-81046739D01*
X106676705Y-80959385D01*
X106540316Y-80908255D01*
X106478134Y-80901500D01*
X104401866Y-80901500D01*
X104339684Y-80908255D01*
X104203295Y-80959385D01*
X104086739Y-81046739D01*
X103999385Y-81163295D01*
X103948255Y-81299684D01*
X103941500Y-81361866D01*
X103941500Y-90805500D01*
X103921498Y-90873621D01*
X103867842Y-90920114D01*
X103815500Y-90931500D01*
X99059500Y-90931500D01*
X98991379Y-90911498D01*
X98944886Y-90857842D01*
X98933500Y-90805500D01*
X98933500Y-81351441D01*
X98934095Y-81339459D01*
X98936200Y-81330913D01*
X98933616Y-81270824D01*
X98933500Y-81265411D01*
X98933500Y-81243487D01*
X98932865Y-81239053D01*
X98932854Y-81238897D01*
X98931717Y-81226664D01*
X98930328Y-81194353D01*
X98930327Y-81194350D01*
X98929942Y-81185389D01*
X98925471Y-81172227D01*
X98920050Y-81149569D01*
X98919353Y-81144699D01*
X98919352Y-81144696D01*
X98918080Y-81135813D01*
X98900975Y-81098194D01*
X98896382Y-81086597D01*
X98883091Y-81047472D01*
X98877937Y-81040129D01*
X98877936Y-81040126D01*
X98875113Y-81036105D01*
X98863543Y-81015867D01*
X98857792Y-81003218D01*
X98847452Y-80991217D01*
X98836674Y-80978709D01*
X98830822Y-80971917D01*
X98823157Y-80962074D01*
X98799416Y-80928247D01*
X98792402Y-80922640D01*
X98788561Y-80919569D01*
X98771780Y-80903396D01*
X98768574Y-80899675D01*
X98768572Y-80899673D01*
X98762713Y-80892873D01*
X98728036Y-80870396D01*
X98717906Y-80863091D01*
X98692652Y-80842904D01*
X98692651Y-80842903D01*
X98685641Y-80837300D01*
X98672793Y-80832021D01*
X98652154Y-80821212D01*
X98640485Y-80813648D01*
X98608211Y-80803996D01*
X98600905Y-80801811D01*
X98589122Y-80797641D01*
X98550914Y-80781941D01*
X98537100Y-80780480D01*
X98514250Y-80775896D01*
X98509538Y-80774487D01*
X98509537Y-80774487D01*
X98500934Y-80771914D01*
X98491958Y-80771859D01*
X98491957Y-80771859D01*
X98459618Y-80771661D01*
X98447138Y-80770964D01*
X98414989Y-80767564D01*
X98406063Y-80766620D01*
X98392388Y-80769096D01*
X98369180Y-80771109D01*
X98355279Y-80771024D01*
X98354498Y-80771247D01*
X98351153Y-80771453D01*
X98155742Y-80768816D01*
X98140029Y-80767618D01*
X97992905Y-80747089D01*
X97905860Y-80734943D01*
X97890431Y-80731795D01*
X97720274Y-80685838D01*
X97662178Y-80670147D01*
X97647251Y-80665095D01*
X97428475Y-80575436D01*
X97414296Y-80568560D01*
X97214568Y-80455765D01*
X97208419Y-80452292D01*
X97195220Y-80443707D01*
X97052458Y-80337580D01*
X97005473Y-80302652D01*
X96993439Y-80292479D01*
X96822777Y-80128838D01*
X96812107Y-80117241D01*
X96729447Y-80015283D01*
X96663212Y-79933584D01*
X96654080Y-79920758D01*
X96561472Y-79771756D01*
X96529268Y-79719941D01*
X96521803Y-79706063D01*
X96423040Y-79491251D01*
X96417365Y-79476549D01*
X96368369Y-79321346D01*
X96346185Y-79251075D01*
X96342394Y-79235796D01*
X96299915Y-79003202D01*
X96298059Y-78987552D01*
X96296870Y-78966142D01*
X96286848Y-78785698D01*
X96288221Y-78759839D01*
X96288242Y-78758774D01*
X96289685Y-78749917D01*
X96288585Y-78741014D01*
X96288585Y-78741010D01*
X96285720Y-78717826D01*
X96284771Y-78701678D01*
X96393207Y-59109308D01*
X96394951Y-59089101D01*
X96397769Y-59072348D01*
X96398576Y-59067552D01*
X96398729Y-59055000D01*
X96397003Y-59042947D01*
X96396001Y-59016845D01*
X96410340Y-58798078D01*
X96412491Y-58781738D01*
X96450479Y-58590757D01*
X96461112Y-58537304D01*
X96465375Y-58521394D01*
X96545485Y-58285398D01*
X96551791Y-58270174D01*
X96662016Y-58046658D01*
X96670257Y-58032384D01*
X96808713Y-57825171D01*
X96818746Y-57812095D01*
X96983068Y-57624722D01*
X96994722Y-57613068D01*
X97182095Y-57448746D01*
X97195171Y-57438713D01*
X97402384Y-57300257D01*
X97416658Y-57292016D01*
X97640174Y-57181791D01*
X97655400Y-57175484D01*
X97891394Y-57095375D01*
X97907304Y-57091112D01*
X98076800Y-57057397D01*
X98151738Y-57042491D01*
X98168078Y-57040340D01*
X98328970Y-57029794D01*
X98383237Y-57026237D01*
X98406350Y-57027267D01*
X98409854Y-57027310D01*
X98418724Y-57028691D01*
X98427626Y-57027527D01*
X98427628Y-57027527D01*
X98445887Y-57025139D01*
X98450286Y-57024564D01*
X98466621Y-57023500D01*
X99686377Y-57023500D01*
X99687148Y-57023502D01*
X99764721Y-57023976D01*
X99793152Y-57015850D01*
X99809915Y-57012272D01*
X99810753Y-57012152D01*
X99839187Y-57008080D01*
X99850673Y-57002858D01*
X99857706Y-56999660D01*
X99862564Y-56997451D01*
X99880087Y-56991004D01*
X99904771Y-56983949D01*
X99912365Y-56979157D01*
X99912368Y-56979156D01*
X99929780Y-56968170D01*
X99944865Y-56960030D01*
X99971782Y-56947792D01*
X99991235Y-56931030D01*
X100006239Y-56919927D01*
X100027958Y-56906224D01*
X100033897Y-56899499D01*
X100033901Y-56899496D01*
X100047532Y-56884062D01*
X100059724Y-56872018D01*
X100075329Y-56858571D01*
X100075330Y-56858570D01*
X100080101Y-56854459D01*
X100080107Y-56854455D01*
X100082127Y-56852714D01*
X100082378Y-56853006D01*
X100137283Y-56817975D01*
X100208279Y-56818210D01*
G37*
G04 #@! TD.AperFunction*
G04 #@! TA.AperFunction,Conductor*
G36*
X163283621Y-50693502D02*
G01*
X163330114Y-50747158D01*
X163341500Y-50799500D01*
X163341500Y-56433134D01*
X163348255Y-56495316D01*
X163399385Y-56631705D01*
X163486739Y-56748261D01*
X163603295Y-56835615D01*
X163739684Y-56886745D01*
X163801866Y-56893500D01*
X165878134Y-56893500D01*
X165940316Y-56886745D01*
X166076705Y-56835615D01*
X166193261Y-56748261D01*
X166280615Y-56631705D01*
X166331745Y-56495316D01*
X166338500Y-56433134D01*
X166338500Y-50799500D01*
X166358502Y-50731379D01*
X166412158Y-50684886D01*
X166464500Y-50673500D01*
X167175500Y-50673500D01*
X167243621Y-50693502D01*
X167290114Y-50747158D01*
X167301500Y-50799500D01*
X167301500Y-56433134D01*
X167308255Y-56495316D01*
X167359385Y-56631705D01*
X167446739Y-56748261D01*
X167563295Y-56835615D01*
X167699684Y-56886745D01*
X167761866Y-56893500D01*
X169838134Y-56893500D01*
X169900316Y-56886745D01*
X170036705Y-56835615D01*
X170153261Y-56748261D01*
X170180000Y-56712583D01*
X170180000Y-76715330D01*
X169989307Y-76524637D01*
X169955281Y-76462325D01*
X169952402Y-76435542D01*
X169952402Y-63337543D01*
X169953659Y-63319789D01*
X169956868Y-63297242D01*
X169956868Y-63297241D01*
X169957449Y-63293159D01*
X169957606Y-63278212D01*
X169951737Y-63229710D01*
X169946317Y-63184921D01*
X169937917Y-63115511D01*
X169937916Y-63115508D01*
X169937004Y-63107970D01*
X169934008Y-63100039D01*
X169879073Y-62954659D01*
X169876389Y-62947556D01*
X169842133Y-62897713D01*
X169783561Y-62812490D01*
X169783560Y-62812488D01*
X169779259Y-62806231D01*
X169773588Y-62801178D01*
X169656895Y-62697208D01*
X169656892Y-62697206D01*
X169651223Y-62692155D01*
X169643227Y-62687921D01*
X169533263Y-62629698D01*
X169499671Y-62611912D01*
X169482098Y-62607498D01*
X169340724Y-62571987D01*
X169340720Y-62571987D01*
X169333353Y-62570136D01*
X169325754Y-62570096D01*
X169325752Y-62570096D01*
X169254296Y-62569722D01*
X169161871Y-62569238D01*
X169154491Y-62571010D01*
X169154489Y-62571010D01*
X169002504Y-62607498D01*
X169002500Y-62607499D01*
X168995125Y-62609270D01*
X168842741Y-62687921D01*
X168713517Y-62800651D01*
X168709150Y-62806864D01*
X168709145Y-62806870D01*
X168676386Y-62853481D01*
X168620852Y-62897713D01*
X168550220Y-62904898D01*
X168486915Y-62872756D01*
X168451038Y-62811492D01*
X168447300Y-62781030D01*
X168447300Y-60557330D01*
X168448557Y-60539576D01*
X168451766Y-60517029D01*
X168451766Y-60517028D01*
X168452347Y-60512946D01*
X168452504Y-60497999D01*
X168450689Y-60482996D01*
X168442151Y-60412444D01*
X168432815Y-60335298D01*
X168432814Y-60335295D01*
X168431902Y-60327757D01*
X168428019Y-60317479D01*
X168373971Y-60174446D01*
X168371287Y-60167343D01*
X168348290Y-60133882D01*
X168278459Y-60032277D01*
X168278458Y-60032275D01*
X168274157Y-60026018D01*
X168268486Y-60020965D01*
X168151793Y-59916995D01*
X168151790Y-59916993D01*
X168146121Y-59911942D01*
X168138125Y-59907708D01*
X168017359Y-59843766D01*
X167994569Y-59831699D01*
X167983649Y-59828956D01*
X167835622Y-59791774D01*
X167835618Y-59791774D01*
X167828251Y-59789923D01*
X167820652Y-59789883D01*
X167820650Y-59789883D01*
X167749194Y-59789509D01*
X167656769Y-59789025D01*
X167649389Y-59790797D01*
X167649387Y-59790797D01*
X167497402Y-59827285D01*
X167497398Y-59827286D01*
X167490023Y-59829057D01*
X167337639Y-59907708D01*
X167208415Y-60020438D01*
X167109810Y-60160738D01*
X167082878Y-60229815D01*
X167050279Y-60313427D01*
X167047518Y-60320508D01*
X167046526Y-60328041D01*
X167046526Y-60328042D01*
X167027111Y-60475519D01*
X167025135Y-60490525D01*
X167028061Y-60517029D01*
X167029539Y-60530415D01*
X167030300Y-60544242D01*
X167030300Y-78599993D01*
X167010298Y-78668114D01*
X166993395Y-78689088D01*
X166568433Y-79114050D01*
X166562168Y-79119904D01*
X166518568Y-79157939D01*
X166514201Y-79164153D01*
X166481825Y-79210219D01*
X166477892Y-79215514D01*
X166438477Y-79265782D01*
X166435354Y-79272698D01*
X166433970Y-79274984D01*
X166425596Y-79289665D01*
X166424331Y-79292025D01*
X166419963Y-79298239D01*
X166417203Y-79305318D01*
X166417202Y-79305320D01*
X166396751Y-79357775D01*
X166394200Y-79363844D01*
X166367908Y-79422073D01*
X166366524Y-79429540D01*
X166365723Y-79432095D01*
X166361094Y-79448348D01*
X166360431Y-79450928D01*
X166357671Y-79458009D01*
X166356680Y-79465540D01*
X166356679Y-79465542D01*
X166354934Y-79478797D01*
X166349331Y-79521361D01*
X166348301Y-79527859D01*
X166336657Y-79590686D01*
X166337094Y-79598264D01*
X166336928Y-79600899D01*
X166336307Y-79617845D01*
X166336279Y-79620495D01*
X166335288Y-79628026D01*
X166339544Y-79666573D01*
X166342299Y-79691529D01*
X166342850Y-79698094D01*
X166346529Y-79761885D01*
X166348762Y-79769145D01*
X166349232Y-79771756D01*
X166352669Y-79788354D01*
X166353272Y-79790927D01*
X166354106Y-79798475D01*
X166356716Y-79805606D01*
X166356716Y-79805608D01*
X166376062Y-79858475D01*
X166378166Y-79864725D01*
X166396952Y-79925789D01*
X166400852Y-79932306D01*
X166401927Y-79934720D01*
X166409239Y-79950049D01*
X166410427Y-79952382D01*
X166413038Y-79959515D01*
X166448679Y-80012553D01*
X166452198Y-80018099D01*
X166485016Y-80072934D01*
X166490358Y-80078332D01*
X166491968Y-80080408D01*
X166502703Y-80093524D01*
X166504445Y-80095542D01*
X166508683Y-80101849D01*
X166514301Y-80106961D01*
X166514302Y-80106962D01*
X166555938Y-80144848D01*
X166560689Y-80149404D01*
X166605637Y-80194825D01*
X166612109Y-80198791D01*
X166614188Y-80200439D01*
X166627696Y-80210581D01*
X166629897Y-80212146D01*
X166635518Y-80217260D01*
X166642192Y-80220883D01*
X166642198Y-80220888D01*
X166691670Y-80247748D01*
X166697358Y-80251032D01*
X166751851Y-80284425D01*
X166759083Y-80286733D01*
X166761487Y-80287834D01*
X166777049Y-80294472D01*
X166779544Y-80295460D01*
X166786221Y-80299085D01*
X166793567Y-80301012D01*
X166793569Y-80301013D01*
X166799817Y-80302652D01*
X166848046Y-80315305D01*
X166854343Y-80317134D01*
X166915218Y-80336562D01*
X166922794Y-80337078D01*
X166925423Y-80337580D01*
X166942132Y-80340316D01*
X166944747Y-80340674D01*
X166952092Y-80342601D01*
X167015986Y-80343604D01*
X167022570Y-80343880D01*
X167031438Y-80344484D01*
X167078729Y-80347709D01*
X167078733Y-80347709D01*
X167086305Y-80348225D01*
X167093779Y-80346920D01*
X167096442Y-80346781D01*
X167113290Y-80345455D01*
X167115958Y-80345175D01*
X167123555Y-80345294D01*
X167157237Y-80337580D01*
X167185828Y-80331032D01*
X167192294Y-80329728D01*
X167247755Y-80320049D01*
X167247757Y-80320048D01*
X167255237Y-80318743D01*
X167262190Y-80315691D01*
X167264727Y-80314925D01*
X167280817Y-80309603D01*
X167283311Y-80308705D01*
X167290712Y-80307010D01*
X167297491Y-80303600D01*
X167297495Y-80303599D01*
X167347788Y-80278304D01*
X167353756Y-80275496D01*
X167405301Y-80252869D01*
X167405302Y-80252869D01*
X167412258Y-80249815D01*
X167418287Y-80245188D01*
X167420586Y-80243829D01*
X167434932Y-80234829D01*
X167437124Y-80233372D01*
X167443911Y-80229959D01*
X167492513Y-80188449D01*
X167497609Y-80184323D01*
X167513636Y-80172025D01*
X167513638Y-80172024D01*
X167516912Y-80169511D01*
X167526432Y-80159991D01*
X167533696Y-80153275D01*
X167568532Y-80123523D01*
X167568535Y-80123519D01*
X167574308Y-80118589D01*
X167578740Y-80112422D01*
X167578745Y-80112416D01*
X167584861Y-80103904D01*
X167598088Y-80088335D01*
X168219320Y-79467103D01*
X168225585Y-79461249D01*
X168239627Y-79448999D01*
X168269185Y-79423214D01*
X168305929Y-79370933D01*
X168309861Y-79365639D01*
X168344591Y-79321346D01*
X168349276Y-79315371D01*
X168352399Y-79308455D01*
X168353783Y-79306169D01*
X168362157Y-79291488D01*
X168363422Y-79289128D01*
X168367790Y-79282914D01*
X168374470Y-79265782D01*
X168391002Y-79223378D01*
X168393559Y-79217295D01*
X168394364Y-79215514D01*
X168419845Y-79159080D01*
X168421229Y-79151613D01*
X168422030Y-79149058D01*
X168426659Y-79132805D01*
X168427322Y-79130225D01*
X168430082Y-79123144D01*
X168438422Y-79059792D01*
X168439453Y-79053285D01*
X168440960Y-79045158D01*
X168451096Y-78990467D01*
X168447509Y-78928261D01*
X168447300Y-78921007D01*
X168447300Y-77278855D01*
X168467302Y-77210734D01*
X168520958Y-77164241D01*
X168591232Y-77154137D01*
X168655812Y-77183631D01*
X168677141Y-77207489D01*
X168708545Y-77253183D01*
X168714215Y-77258234D01*
X168714216Y-77258236D01*
X168755072Y-77294637D01*
X168760348Y-77299618D01*
X170180000Y-78719270D01*
X170180000Y-78740000D01*
X170200730Y-78740000D01*
X172014595Y-80553866D01*
X172048621Y-80616178D01*
X172051500Y-80642961D01*
X172051500Y-80775500D01*
X172031498Y-80843621D01*
X171977842Y-80890114D01*
X171925500Y-80901500D01*
X171721866Y-80901500D01*
X171659684Y-80908255D01*
X171523295Y-80959385D01*
X171406739Y-81046739D01*
X171319385Y-81163295D01*
X171268255Y-81299684D01*
X171261500Y-81361866D01*
X171261500Y-90805500D01*
X171241498Y-90873621D01*
X171187842Y-90920114D01*
X171135500Y-90931500D01*
X170424500Y-90931500D01*
X170356379Y-90911498D01*
X170309886Y-90857842D01*
X170298500Y-90805500D01*
X170298500Y-81361866D01*
X170291745Y-81299684D01*
X170240615Y-81163295D01*
X170153261Y-81046739D01*
X170036705Y-80959385D01*
X169900316Y-80908255D01*
X169838134Y-80901500D01*
X167761866Y-80901500D01*
X167699684Y-80908255D01*
X167563295Y-80959385D01*
X167446739Y-81046739D01*
X167359385Y-81163295D01*
X167308255Y-81299684D01*
X167301500Y-81361866D01*
X167301500Y-90805500D01*
X167281498Y-90873621D01*
X167227842Y-90920114D01*
X167175500Y-90931500D01*
X166464500Y-90931500D01*
X166396379Y-90911498D01*
X166349886Y-90857842D01*
X166338500Y-90805500D01*
X166338500Y-81361866D01*
X166331745Y-81299684D01*
X166280615Y-81163295D01*
X166193261Y-81046739D01*
X166076705Y-80959385D01*
X165940316Y-80908255D01*
X165878134Y-80901500D01*
X165674500Y-80901500D01*
X165606379Y-80881498D01*
X165559886Y-80827842D01*
X165548500Y-80775500D01*
X165548500Y-61275634D01*
X165548792Y-61267064D01*
X165552209Y-61216946D01*
X165552209Y-61216942D01*
X165552725Y-61209370D01*
X165541739Y-61146425D01*
X165540777Y-61139904D01*
X165534015Y-61084026D01*
X165533102Y-61076480D01*
X165530416Y-61069372D01*
X165529779Y-61066778D01*
X165525318Y-61050472D01*
X165524548Y-61047921D01*
X165523242Y-61040438D01*
X165513710Y-61018723D01*
X165497561Y-60981934D01*
X165495069Y-60975827D01*
X165475173Y-60923174D01*
X165475173Y-60923173D01*
X165472487Y-60916066D01*
X165468184Y-60909805D01*
X165466947Y-60907439D01*
X165458720Y-60892659D01*
X165457369Y-60890374D01*
X165454315Y-60883417D01*
X165449695Y-60877397D01*
X165449692Y-60877391D01*
X165425806Y-60846264D01*
X165415413Y-60832720D01*
X165411541Y-60827390D01*
X165379661Y-60781002D01*
X165379656Y-60780997D01*
X165375357Y-60774741D01*
X165365686Y-60766124D01*
X165328830Y-60733287D01*
X165323554Y-60728306D01*
X164646623Y-60051375D01*
X164631878Y-60033648D01*
X164630936Y-60032278D01*
X164626634Y-60026018D01*
X164580106Y-59984563D01*
X164574831Y-59979583D01*
X164561854Y-59966606D01*
X164558876Y-59964271D01*
X164558868Y-59964264D01*
X164549112Y-59956615D01*
X164543038Y-59951536D01*
X164504273Y-59916997D01*
X164504266Y-59916992D01*
X164498598Y-59911942D01*
X164488640Y-59906670D01*
X164469857Y-59894472D01*
X164466967Y-59892206D01*
X164460995Y-59887523D01*
X164454074Y-59884398D01*
X164406756Y-59863033D01*
X164399654Y-59859554D01*
X164347046Y-59831699D01*
X164339678Y-59829848D01*
X164339677Y-59829848D01*
X164338415Y-59829531D01*
X164336121Y-59828955D01*
X164314968Y-59821588D01*
X164311634Y-59820083D01*
X164311633Y-59820083D01*
X164304704Y-59816954D01*
X164246189Y-59806109D01*
X164238456Y-59804423D01*
X164188100Y-59791774D01*
X164188094Y-59791773D01*
X164180728Y-59789923D01*
X164173129Y-59789883D01*
X164173128Y-59789883D01*
X164170191Y-59789868D01*
X164169469Y-59789864D01*
X164147170Y-59787756D01*
X164136091Y-59785703D01*
X164128510Y-59786140D01*
X164128509Y-59786140D01*
X164076666Y-59789129D01*
X164068756Y-59789336D01*
X164041894Y-59789196D01*
X164009246Y-59789025D01*
X164001863Y-59790797D01*
X164001858Y-59790798D01*
X163998289Y-59791655D01*
X163976141Y-59794926D01*
X163974970Y-59794994D01*
X163964892Y-59795575D01*
X163907989Y-59813080D01*
X163900412Y-59815153D01*
X163842500Y-59829057D01*
X163835755Y-59832538D01*
X163835748Y-59832541D01*
X163832484Y-59834226D01*
X163811755Y-59842686D01*
X163800988Y-59845998D01*
X163794476Y-59849895D01*
X163794470Y-59849898D01*
X163749917Y-59876562D01*
X163743003Y-59880410D01*
X163696867Y-59904223D01*
X163696864Y-59904225D01*
X163690116Y-59907708D01*
X163684394Y-59912700D01*
X163684392Y-59912701D01*
X163681625Y-59915115D01*
X163663509Y-59928277D01*
X163653843Y-59934062D01*
X163648450Y-59939399D01*
X163648446Y-59939402D01*
X163611529Y-59975935D01*
X163605742Y-59981312D01*
X163560892Y-60020438D01*
X163556523Y-60026655D01*
X163554423Y-60029643D01*
X163539961Y-60046757D01*
X163531952Y-60054683D01*
X163527985Y-60061157D01*
X163527980Y-60061163D01*
X163500851Y-60105433D01*
X163496506Y-60112048D01*
X163466658Y-60154517D01*
X163466654Y-60154524D01*
X163462287Y-60160738D01*
X163458198Y-60171226D01*
X163448235Y-60191296D01*
X163442352Y-60200897D01*
X163424261Y-60257584D01*
X163421619Y-60265044D01*
X163402755Y-60313427D01*
X163402755Y-60313428D01*
X163399995Y-60320508D01*
X163399004Y-60328038D01*
X163399003Y-60328041D01*
X163398525Y-60331675D01*
X163393639Y-60353536D01*
X163390215Y-60364264D01*
X163389699Y-60371838D01*
X163389698Y-60371842D01*
X163387977Y-60397095D01*
X163387214Y-60408297D01*
X163386169Y-60423624D01*
X163385385Y-60431489D01*
X163384317Y-60439600D01*
X163378604Y-60482994D01*
X163377612Y-60490525D01*
X163378849Y-60501733D01*
X163379318Y-60524115D01*
X163378552Y-60535351D01*
X163379857Y-60542828D01*
X163379857Y-60542830D01*
X163388784Y-60593979D01*
X163389899Y-60601816D01*
X163393422Y-60633724D01*
X163396430Y-60660974D01*
X163400298Y-60671543D01*
X163406097Y-60693186D01*
X163408034Y-60704283D01*
X163431957Y-60758780D01*
X163434909Y-60766124D01*
X163440354Y-60781002D01*
X163455362Y-60822014D01*
X163459601Y-60828322D01*
X163461642Y-60831360D01*
X163472434Y-60850990D01*
X163473906Y-60854344D01*
X163473909Y-60854348D01*
X163476962Y-60861304D01*
X163502525Y-60894618D01*
X163513191Y-60908519D01*
X163517806Y-60914941D01*
X163551007Y-60964348D01*
X163567017Y-60978916D01*
X163600435Y-61009324D01*
X163604731Y-61013423D01*
X164094596Y-61503289D01*
X164128621Y-61565601D01*
X164131500Y-61592384D01*
X164131500Y-63536598D01*
X164111498Y-63604719D01*
X164057842Y-63651212D01*
X163987568Y-63661316D01*
X163974812Y-63658804D01*
X163920351Y-63645124D01*
X163912752Y-63645084D01*
X163912750Y-63645084D01*
X163841294Y-63644710D01*
X163748869Y-63644226D01*
X163741489Y-63645998D01*
X163741487Y-63645998D01*
X163589502Y-63682486D01*
X163589498Y-63682487D01*
X163582123Y-63684258D01*
X163429739Y-63762909D01*
X163300515Y-63875639D01*
X163201910Y-64015939D01*
X163182620Y-64065415D01*
X163149629Y-64150033D01*
X163139618Y-64175709D01*
X163138626Y-64183242D01*
X163138626Y-64183243D01*
X163123321Y-64299500D01*
X163117235Y-64345726D01*
X163118436Y-64356602D01*
X163121639Y-64385616D01*
X163122400Y-64399443D01*
X163122400Y-76394838D01*
X163102398Y-76462959D01*
X163085496Y-76483933D01*
X162866065Y-76703365D01*
X162859798Y-76709219D01*
X162821940Y-76742244D01*
X162821937Y-76742247D01*
X162816215Y-76747239D01*
X162809652Y-76756577D01*
X162792987Y-76780289D01*
X162737452Y-76824520D01*
X162666820Y-76831706D01*
X162603516Y-76799565D01*
X162567638Y-76738301D01*
X162563900Y-76707838D01*
X162563900Y-58430831D01*
X162565157Y-58413077D01*
X162568366Y-58390530D01*
X162568366Y-58390529D01*
X162568947Y-58386447D01*
X162569104Y-58371500D01*
X162555749Y-58261141D01*
X162549415Y-58208799D01*
X162549414Y-58208796D01*
X162548502Y-58201258D01*
X162543652Y-58188421D01*
X162490571Y-58047947D01*
X162487887Y-58040844D01*
X162442909Y-57975400D01*
X162395059Y-57905778D01*
X162395058Y-57905776D01*
X162390757Y-57899519D01*
X162375926Y-57886305D01*
X162276993Y-57798158D01*
X162239437Y-57737908D01*
X162240418Y-57666918D01*
X162271717Y-57614987D01*
X162552824Y-57333880D01*
X162596563Y-57306121D01*
X162598359Y-57305710D01*
X162751558Y-57228659D01*
X162757329Y-57223730D01*
X162757332Y-57223728D01*
X162876178Y-57122223D01*
X162881955Y-57117289D01*
X162961723Y-57006281D01*
X162977592Y-56984198D01*
X162977593Y-56984197D01*
X162982024Y-56978030D01*
X163045985Y-56818920D01*
X163050611Y-56786414D01*
X163069566Y-56653231D01*
X163069566Y-56653227D01*
X163070147Y-56649147D01*
X163070304Y-56634200D01*
X163056963Y-56523956D01*
X163050615Y-56471499D01*
X163050614Y-56471496D01*
X163049702Y-56463958D01*
X163039339Y-56436531D01*
X162991771Y-56310647D01*
X162989087Y-56303544D01*
X162984786Y-56297286D01*
X162896259Y-56168478D01*
X162896258Y-56168476D01*
X162891957Y-56162219D01*
X162886286Y-56157166D01*
X162769593Y-56053196D01*
X162769590Y-56053194D01*
X162763921Y-56048143D01*
X162708731Y-56018921D01*
X162678508Y-56002919D01*
X162612369Y-55967900D01*
X162473804Y-55933095D01*
X162412609Y-55897100D01*
X162380588Y-55833735D01*
X162378500Y-55810891D01*
X162378500Y-50799500D01*
X162398502Y-50731379D01*
X162452158Y-50684886D01*
X162504500Y-50673500D01*
X163215500Y-50673500D01*
X163283621Y-50693502D01*
G37*
G04 #@! TD.AperFunction*
G04 #@! TA.AperFunction,Conductor*
G36*
X203200000Y-89535000D02*
G01*
X210946500Y-89535000D01*
X210946500Y-90805500D01*
X210926498Y-90873621D01*
X210872842Y-90920114D01*
X210820500Y-90931500D01*
X202569500Y-90931500D01*
X202501379Y-90911498D01*
X202454886Y-90857842D01*
X202443500Y-90805500D01*
X202443500Y-78740000D01*
X203200000Y-78740000D01*
X203200000Y-89535000D01*
G37*
G04 #@! TD.AperFunction*
G04 #@! TA.AperFunction,Conductor*
G36*
X194431500Y-90805500D02*
G01*
X194411498Y-90873621D01*
X194357842Y-90920114D01*
X194305500Y-90931500D01*
X194184500Y-90931500D01*
X194116379Y-90911498D01*
X194069886Y-90857842D01*
X194058500Y-90805500D01*
X194058500Y-81361866D01*
X194051745Y-81299684D01*
X194000615Y-81163295D01*
X193913261Y-81046739D01*
X193796705Y-80959385D01*
X193660316Y-80908255D01*
X193598134Y-80901500D01*
X191521866Y-80901500D01*
X191459684Y-80908255D01*
X191323295Y-80959385D01*
X191206739Y-81046739D01*
X191119385Y-81163295D01*
X191068255Y-81299684D01*
X191061500Y-81361866D01*
X191061500Y-90805500D01*
X191041498Y-90873621D01*
X190987842Y-90920114D01*
X190935500Y-90931500D01*
X190224500Y-90931500D01*
X190156379Y-90911498D01*
X190109886Y-90857842D01*
X190098500Y-90805500D01*
X190098500Y-81361866D01*
X190091745Y-81299684D01*
X190040615Y-81163295D01*
X189953261Y-81046739D01*
X189836705Y-80959385D01*
X189700316Y-80908255D01*
X189638134Y-80901500D01*
X187561866Y-80901500D01*
X187499684Y-80908255D01*
X187363295Y-80959385D01*
X187356110Y-80964770D01*
X187356108Y-80964771D01*
X187288399Y-81015516D01*
X187221892Y-81040364D01*
X187152510Y-81025311D01*
X187117382Y-80996939D01*
X187106031Y-80983766D01*
X187094927Y-80968761D01*
X187081224Y-80947042D01*
X187074499Y-80941103D01*
X187074496Y-80941099D01*
X187059062Y-80927468D01*
X187047018Y-80915276D01*
X187033573Y-80899673D01*
X187033570Y-80899671D01*
X187027713Y-80892873D01*
X187014009Y-80883990D01*
X187006165Y-80878906D01*
X186991291Y-80867615D01*
X186978783Y-80856569D01*
X186978782Y-80856568D01*
X186972049Y-80850622D01*
X186945287Y-80838057D01*
X186930309Y-80829737D01*
X186913017Y-80818529D01*
X186913012Y-80818527D01*
X186905485Y-80813648D01*
X186896892Y-80811078D01*
X186896887Y-80811076D01*
X186880880Y-80806289D01*
X186863436Y-80799628D01*
X186848324Y-80792533D01*
X186848322Y-80792532D01*
X186840200Y-80788719D01*
X186831333Y-80787338D01*
X186831332Y-80787338D01*
X186818583Y-80785353D01*
X186810983Y-80784170D01*
X186794268Y-80780387D01*
X186774534Y-80774485D01*
X186774528Y-80774484D01*
X186765934Y-80771914D01*
X186756963Y-80771859D01*
X186756962Y-80771859D01*
X186746903Y-80771798D01*
X186731494Y-80771704D01*
X186730711Y-80771671D01*
X186729614Y-80771500D01*
X186698623Y-80771500D01*
X186697853Y-80771498D01*
X186624215Y-80771048D01*
X186624214Y-80771048D01*
X186620279Y-80771024D01*
X186618935Y-80771408D01*
X186617590Y-80771500D01*
X182888623Y-80771500D01*
X182887853Y-80771498D01*
X182886052Y-80771487D01*
X182810279Y-80771024D01*
X182794618Y-80775500D01*
X182781847Y-80779150D01*
X182765085Y-80782728D01*
X182735813Y-80786920D01*
X182727645Y-80790634D01*
X182727644Y-80790634D01*
X182712438Y-80797548D01*
X182694914Y-80803996D01*
X182670229Y-80811051D01*
X182662635Y-80815843D01*
X182662632Y-80815844D01*
X182645220Y-80826830D01*
X182630137Y-80834969D01*
X182603218Y-80847208D01*
X182596416Y-80853069D01*
X182583765Y-80863970D01*
X182568761Y-80875073D01*
X182547042Y-80888776D01*
X182541103Y-80895501D01*
X182541099Y-80895504D01*
X182527468Y-80910938D01*
X182515276Y-80922982D01*
X182499673Y-80936427D01*
X182499671Y-80936430D01*
X182492873Y-80942287D01*
X182487993Y-80949816D01*
X182487992Y-80949817D01*
X182478906Y-80963835D01*
X182467615Y-80978709D01*
X182459805Y-80987553D01*
X182450622Y-80997951D01*
X182438058Y-81024711D01*
X182429737Y-81039691D01*
X182418529Y-81056983D01*
X182418527Y-81056988D01*
X182413648Y-81064515D01*
X182411078Y-81073108D01*
X182411076Y-81073113D01*
X182406289Y-81089120D01*
X182399628Y-81106564D01*
X182392533Y-81121676D01*
X182388719Y-81129800D01*
X182387339Y-81138664D01*
X182387338Y-81138668D01*
X182384170Y-81159015D01*
X182380387Y-81175731D01*
X182374457Y-81195560D01*
X182335776Y-81255094D01*
X182271049Y-81284264D01*
X182200826Y-81273810D01*
X182147403Y-81227050D01*
X182135758Y-81203688D01*
X182123768Y-81171705D01*
X182123767Y-81171703D01*
X182120615Y-81163295D01*
X182033261Y-81046739D01*
X181916705Y-80959385D01*
X181780316Y-80908255D01*
X181718134Y-80901500D01*
X179641866Y-80901500D01*
X179579684Y-80908255D01*
X179443295Y-80959385D01*
X179326739Y-81046739D01*
X179239385Y-81163295D01*
X179188255Y-81299684D01*
X179181500Y-81361866D01*
X179181500Y-90805500D01*
X179161498Y-90873621D01*
X179107842Y-90920114D01*
X179055500Y-90931500D01*
X178344500Y-90931500D01*
X178276379Y-90911498D01*
X178229886Y-90857842D01*
X178218500Y-90805500D01*
X178218500Y-81361866D01*
X178211745Y-81299684D01*
X178160615Y-81163295D01*
X178073261Y-81046739D01*
X177956705Y-80959385D01*
X177820316Y-80908255D01*
X177758134Y-80901500D01*
X175681866Y-80901500D01*
X175619684Y-80908255D01*
X175483295Y-80959385D01*
X175366739Y-81046739D01*
X175279385Y-81163295D01*
X175228255Y-81299684D01*
X175221500Y-81361866D01*
X175221500Y-90805500D01*
X175201498Y-90873621D01*
X175147842Y-90920114D01*
X175095500Y-90931500D01*
X174384500Y-90931500D01*
X174316379Y-90911498D01*
X174269886Y-90857842D01*
X174258500Y-90805500D01*
X174258500Y-81361866D01*
X174251745Y-81299684D01*
X174200615Y-81163295D01*
X174113261Y-81046739D01*
X173996705Y-80959385D01*
X173860316Y-80908255D01*
X173798134Y-80901500D01*
X173594500Y-80901500D01*
X173526379Y-80881498D01*
X173479886Y-80827842D01*
X173468500Y-80775500D01*
X173468500Y-80326211D01*
X173468792Y-80317642D01*
X173472209Y-80267523D01*
X173472209Y-80267519D01*
X173472725Y-80259947D01*
X173461736Y-80196985D01*
X173460777Y-80190482D01*
X173458240Y-80169511D01*
X173453102Y-80127058D01*
X173450416Y-80119949D01*
X173449784Y-80117378D01*
X173445324Y-80101072D01*
X173444549Y-80098504D01*
X173443242Y-80091016D01*
X173417561Y-80032512D01*
X173415069Y-80026405D01*
X173395173Y-79973752D01*
X173395173Y-79973751D01*
X173392487Y-79966644D01*
X173388183Y-79960382D01*
X173386947Y-79958017D01*
X173378720Y-79943237D01*
X173377369Y-79940952D01*
X173374315Y-79933995D01*
X173369695Y-79927975D01*
X173369692Y-79927969D01*
X173335421Y-79883309D01*
X173331541Y-79877968D01*
X173299661Y-79831580D01*
X173299656Y-79831575D01*
X173295357Y-79825319D01*
X173248829Y-79783864D01*
X173243554Y-79778884D01*
X172204670Y-78740000D01*
X194431500Y-78740000D01*
X194431500Y-90805500D01*
G37*
G04 #@! TD.AperFunction*
G04 #@! TA.AperFunction,Conductor*
G36*
X107487407Y-69629693D02*
G01*
X107487643Y-69629831D01*
X107492476Y-69631676D01*
X107492479Y-69631678D01*
X107608477Y-69675973D01*
X107711697Y-69715389D01*
X107716763Y-69716420D01*
X107716764Y-69716420D01*
X107773039Y-69727869D01*
X107946716Y-69763204D01*
X108082264Y-69768174D01*
X108181225Y-69771803D01*
X108181229Y-69771803D01*
X108186389Y-69771992D01*
X108191509Y-69771336D01*
X108191511Y-69771336D01*
X108264072Y-69762041D01*
X108424279Y-69741518D01*
X108429233Y-69740032D01*
X108429241Y-69740030D01*
X108530141Y-69709758D01*
X108601136Y-69709340D01*
X108655444Y-69741348D01*
X109238343Y-70324247D01*
X109245887Y-70332537D01*
X109250000Y-70339018D01*
X109255777Y-70344443D01*
X109299667Y-70385658D01*
X109302509Y-70388413D01*
X109322230Y-70408134D01*
X109325425Y-70410612D01*
X109334447Y-70418318D01*
X109366679Y-70448586D01*
X109373628Y-70452406D01*
X109384432Y-70458346D01*
X109400956Y-70469199D01*
X109416959Y-70481613D01*
X109457543Y-70499176D01*
X109468173Y-70504383D01*
X109506940Y-70525695D01*
X109514617Y-70527666D01*
X109514622Y-70527668D01*
X109526558Y-70530732D01*
X109545266Y-70537137D01*
X109563855Y-70545181D01*
X109571680Y-70546420D01*
X109571682Y-70546421D01*
X109607519Y-70552097D01*
X109619140Y-70554504D01*
X109654289Y-70563528D01*
X109661970Y-70565500D01*
X109682231Y-70565500D01*
X109701940Y-70567051D01*
X109721943Y-70570219D01*
X109729835Y-70569473D01*
X109735062Y-70568979D01*
X109765954Y-70566059D01*
X109777811Y-70565500D01*
X110699522Y-70565500D01*
X110767643Y-70585502D01*
X110814136Y-70639158D01*
X110824761Y-70677673D01*
X110833716Y-70758779D01*
X110834753Y-70768175D01*
X110837362Y-70775306D01*
X110837363Y-70775308D01*
X110858350Y-70832656D01*
X110893685Y-70929215D01*
X110989330Y-71071549D01*
X111116165Y-71186960D01*
X111122840Y-71190584D01*
X111260191Y-71265160D01*
X111260193Y-71265161D01*
X111266868Y-71268785D01*
X111274217Y-71270713D01*
X111275094Y-71270943D01*
X111275753Y-71271321D01*
X111281279Y-71273509D01*
X111280962Y-71274310D01*
X111332221Y-71303725D01*
X112150543Y-72122047D01*
X112158087Y-72130337D01*
X112162200Y-72136818D01*
X112167977Y-72142243D01*
X112211867Y-72183458D01*
X112214709Y-72186213D01*
X112234431Y-72205935D01*
X112237555Y-72208358D01*
X112237559Y-72208362D01*
X112237624Y-72208412D01*
X112246645Y-72216117D01*
X112278879Y-72246386D01*
X112285827Y-72250205D01*
X112285829Y-72250207D01*
X112296632Y-72256146D01*
X112313159Y-72267002D01*
X112322898Y-72274557D01*
X112322900Y-72274558D01*
X112329160Y-72279414D01*
X112369740Y-72296974D01*
X112380388Y-72302191D01*
X112411122Y-72319087D01*
X112419140Y-72323495D01*
X112426816Y-72325466D01*
X112426819Y-72325467D01*
X112438762Y-72328533D01*
X112457466Y-72334937D01*
X112466382Y-72338795D01*
X112476055Y-72342981D01*
X112483878Y-72344220D01*
X112483888Y-72344223D01*
X112519724Y-72349899D01*
X112531344Y-72352305D01*
X112566489Y-72361328D01*
X112574170Y-72363300D01*
X112594424Y-72363300D01*
X112614134Y-72364851D01*
X112634143Y-72368020D01*
X112642035Y-72367274D01*
X112678161Y-72363859D01*
X112690019Y-72363300D01*
X112996405Y-72363300D01*
X113064526Y-72383302D01*
X113111019Y-72436958D01*
X113121123Y-72507232D01*
X113091629Y-72571812D01*
X113085500Y-72578395D01*
X112891747Y-72772148D01*
X112883461Y-72779688D01*
X112876982Y-72783800D01*
X112871557Y-72789577D01*
X112830357Y-72833451D01*
X112827602Y-72836293D01*
X112807865Y-72856030D01*
X112805385Y-72859227D01*
X112797682Y-72868247D01*
X112767414Y-72900479D01*
X112763595Y-72907425D01*
X112763593Y-72907428D01*
X112757652Y-72918234D01*
X112746801Y-72934753D01*
X112734386Y-72950759D01*
X112731241Y-72958028D01*
X112731238Y-72958032D01*
X112716826Y-72991337D01*
X112711609Y-73001987D01*
X112690305Y-73040740D01*
X112688334Y-73048415D01*
X112688334Y-73048416D01*
X112685267Y-73060362D01*
X112678863Y-73079066D01*
X112670819Y-73097655D01*
X112669580Y-73105478D01*
X112669577Y-73105488D01*
X112663901Y-73141324D01*
X112661495Y-73152944D01*
X112653320Y-73184785D01*
X112650500Y-73195770D01*
X112650500Y-73216024D01*
X112648949Y-73235734D01*
X112645780Y-73255743D01*
X112646526Y-73263635D01*
X112649941Y-73299761D01*
X112650500Y-73311619D01*
X112650500Y-76420227D01*
X112630498Y-76488348D01*
X112576842Y-76534841D01*
X112506568Y-76544945D01*
X112441988Y-76515451D01*
X112435405Y-76509322D01*
X107346405Y-71420321D01*
X107312379Y-71358009D01*
X107309500Y-71331226D01*
X107309500Y-69744094D01*
X107329502Y-69675973D01*
X107383158Y-69629480D01*
X107453432Y-69619376D01*
X107487407Y-69629693D01*
G37*
G04 #@! TD.AperFunction*
G04 #@! TA.AperFunction,Conductor*
G36*
X141580837Y-67678502D02*
G01*
X141601811Y-67695405D01*
X146209811Y-72303405D01*
X146243837Y-72365717D01*
X146238772Y-72436532D01*
X146196225Y-72493368D01*
X146129705Y-72518179D01*
X146120716Y-72518500D01*
X143951595Y-72518500D01*
X143883474Y-72498498D01*
X143862500Y-72481595D01*
X141514342Y-70133437D01*
X141506802Y-70125151D01*
X141502690Y-70118672D01*
X141453038Y-70072046D01*
X141450197Y-70069292D01*
X141430460Y-70049555D01*
X141427263Y-70047075D01*
X141418241Y-70039370D01*
X141391790Y-70014531D01*
X141386011Y-70009104D01*
X141379065Y-70005285D01*
X141379062Y-70005283D01*
X141368256Y-69999342D01*
X141351737Y-69988491D01*
X141351273Y-69988131D01*
X141335731Y-69976076D01*
X141328462Y-69972931D01*
X141328458Y-69972928D01*
X141295153Y-69958516D01*
X141284503Y-69953299D01*
X141245750Y-69931995D01*
X141226127Y-69926957D01*
X141207424Y-69920553D01*
X141196110Y-69915657D01*
X141196109Y-69915657D01*
X141188835Y-69912509D01*
X141181012Y-69911270D01*
X141181002Y-69911267D01*
X141145166Y-69905591D01*
X141133546Y-69903185D01*
X141098401Y-69894162D01*
X141098400Y-69894162D01*
X141090720Y-69892190D01*
X141070466Y-69892190D01*
X141050755Y-69890639D01*
X141038576Y-69888710D01*
X141030747Y-69887470D01*
X141022855Y-69888216D01*
X140986729Y-69891631D01*
X140974871Y-69892190D01*
X134253904Y-69892190D01*
X134185783Y-69872188D01*
X134139290Y-69818532D01*
X134129186Y-69748258D01*
X134158680Y-69683678D01*
X134164809Y-69677095D01*
X134315186Y-69526718D01*
X134377498Y-69492692D01*
X134404281Y-69489813D01*
X139679013Y-69489813D01*
X139739134Y-69505082D01*
X139759747Y-69516274D01*
X139759752Y-69516276D01*
X139766423Y-69519898D01*
X139932294Y-69563414D01*
X140019741Y-69564787D01*
X140096158Y-69565988D01*
X140096161Y-69565988D01*
X140103757Y-69566107D01*
X140111161Y-69564411D01*
X140111163Y-69564411D01*
X140174001Y-69550019D01*
X140270914Y-69527823D01*
X140424113Y-69450772D01*
X140429884Y-69445843D01*
X140429887Y-69445841D01*
X140548733Y-69344336D01*
X140554510Y-69339402D01*
X140654579Y-69200143D01*
X140718540Y-69041033D01*
X140739787Y-68891743D01*
X140742121Y-68875344D01*
X140742121Y-68875340D01*
X140742702Y-68871260D01*
X140742859Y-68856313D01*
X140726900Y-68724439D01*
X140723170Y-68693612D01*
X140723168Y-68693602D01*
X140722257Y-68686071D01*
X140695080Y-68614147D01*
X140664326Y-68532760D01*
X140661642Y-68525657D01*
X140592911Y-68425653D01*
X140568814Y-68390591D01*
X140568813Y-68390589D01*
X140564512Y-68384332D01*
X140544447Y-68366455D01*
X140506892Y-68306206D01*
X140507871Y-68235216D01*
X140547075Y-68176025D01*
X140571652Y-68159814D01*
X140596392Y-68147371D01*
X140603176Y-68143959D01*
X140608947Y-68139030D01*
X140608950Y-68139028D01*
X140727796Y-68037523D01*
X140733573Y-68032589D01*
X140833642Y-67893330D01*
X140893660Y-67744028D01*
X140896283Y-67737504D01*
X140940250Y-67681759D01*
X141013191Y-67658500D01*
X141512716Y-67658500D01*
X141580837Y-67678502D01*
G37*
G04 #@! TD.AperFunction*
G04 #@! TA.AperFunction,Conductor*
G36*
X114702312Y-64613380D02*
G01*
X114724381Y-64638328D01*
X114738470Y-64659295D01*
X114803718Y-64756393D01*
X114867135Y-64814098D01*
X114905191Y-64848726D01*
X114930553Y-64871804D01*
X115081256Y-64953629D01*
X115247127Y-64997145D01*
X115336366Y-64998547D01*
X115410992Y-64999719D01*
X115410995Y-64999719D01*
X115418590Y-64999838D01*
X115469749Y-64988121D01*
X115540616Y-64992410D01*
X115558001Y-65000210D01*
X115699567Y-65077074D01*
X115865438Y-65120590D01*
X115952885Y-65121963D01*
X116029302Y-65123164D01*
X116029305Y-65123164D01*
X116036901Y-65123283D01*
X116044305Y-65121587D01*
X116044307Y-65121587D01*
X116107145Y-65107195D01*
X116204058Y-65084999D01*
X116290974Y-65041285D01*
X116360818Y-65028547D01*
X116426462Y-65055591D01*
X116467064Y-65113832D01*
X116469733Y-65184778D01*
X116436683Y-65242945D01*
X115847235Y-65832393D01*
X115838949Y-65839933D01*
X115832470Y-65844045D01*
X115827045Y-65849822D01*
X115785845Y-65893696D01*
X115783090Y-65896538D01*
X115763353Y-65916275D01*
X115760873Y-65919472D01*
X115753170Y-65928492D01*
X115722902Y-65960724D01*
X115719083Y-65967670D01*
X115719081Y-65967673D01*
X115713140Y-65978479D01*
X115702289Y-65994998D01*
X115689874Y-66011004D01*
X115686729Y-66018273D01*
X115686726Y-66018277D01*
X115672314Y-66051582D01*
X115667097Y-66062232D01*
X115645793Y-66100985D01*
X115643822Y-66108660D01*
X115643822Y-66108661D01*
X115640755Y-66120607D01*
X115634351Y-66139311D01*
X115630038Y-66149279D01*
X115626307Y-66157900D01*
X115625068Y-66165723D01*
X115625065Y-66165733D01*
X115619389Y-66201569D01*
X115616983Y-66213189D01*
X115605988Y-66256015D01*
X115605988Y-66276269D01*
X115604437Y-66295979D01*
X115601268Y-66315988D01*
X115603900Y-66343826D01*
X115605429Y-66360006D01*
X115605988Y-66371864D01*
X115605988Y-66584568D01*
X115597381Y-66630338D01*
X115563094Y-66718280D01*
X115548206Y-66756465D01*
X115547214Y-66763998D01*
X115547214Y-66763999D01*
X115527257Y-66915593D01*
X115525823Y-66926482D01*
X115531121Y-66974471D01*
X115540358Y-67058133D01*
X115544641Y-67096931D01*
X115547250Y-67104062D01*
X115547251Y-67104064D01*
X115561540Y-67143111D01*
X115603573Y-67257971D01*
X115607810Y-67264277D01*
X115607812Y-67264280D01*
X115639024Y-67310728D01*
X115699218Y-67400305D01*
X115826053Y-67515716D01*
X115976756Y-67597541D01*
X116142627Y-67641057D01*
X116230074Y-67642430D01*
X116306491Y-67643631D01*
X116306494Y-67643631D01*
X116314090Y-67643750D01*
X116321494Y-67642054D01*
X116321496Y-67642054D01*
X116403995Y-67623159D01*
X116481247Y-67605466D01*
X116610573Y-67540422D01*
X116680417Y-67527684D01*
X116746061Y-67554728D01*
X116786663Y-67612969D01*
X116792426Y-67639160D01*
X116803061Y-67735485D01*
X116804004Y-67744028D01*
X116862936Y-67905068D01*
X116958581Y-68047402D01*
X117085416Y-68162813D01*
X117236119Y-68244638D01*
X117389924Y-68284988D01*
X117450738Y-68321622D01*
X117482093Y-68385319D01*
X117474034Y-68455857D01*
X117447044Y-68495959D01*
X117227391Y-68715612D01*
X117182214Y-68744615D01*
X117182171Y-68744631D01*
X117174786Y-68746404D01*
X117168042Y-68749885D01*
X117168039Y-68749886D01*
X117109394Y-68780155D01*
X117022402Y-68825055D01*
X116893178Y-68937785D01*
X116794573Y-69078085D01*
X116791813Y-69085165D01*
X116737420Y-69224675D01*
X116732281Y-69237855D01*
X116731290Y-69245386D01*
X116731289Y-69245388D01*
X116725884Y-69286444D01*
X116697161Y-69351371D01*
X116637896Y-69390462D01*
X116600962Y-69395997D01*
X115580492Y-69395997D01*
X115512371Y-69375995D01*
X115491396Y-69359092D01*
X115165820Y-69033515D01*
X114825907Y-68693602D01*
X114797137Y-68649045D01*
X114787757Y-68624220D01*
X114765887Y-68566344D01*
X114717513Y-68495959D01*
X114673059Y-68431278D01*
X114673058Y-68431276D01*
X114668757Y-68425019D01*
X114663086Y-68419966D01*
X114546393Y-68315996D01*
X114546390Y-68315994D01*
X114540721Y-68310943D01*
X114532725Y-68306709D01*
X114480123Y-68278858D01*
X114389169Y-68230700D01*
X114371596Y-68226286D01*
X114230222Y-68190775D01*
X114230218Y-68190775D01*
X114222851Y-68188924D01*
X114215252Y-68188884D01*
X114215250Y-68188884D01*
X114143794Y-68188510D01*
X114051369Y-68188026D01*
X114043989Y-68189798D01*
X114043987Y-68189798D01*
X113892002Y-68226286D01*
X113891998Y-68226287D01*
X113884623Y-68228058D01*
X113732239Y-68306709D01*
X113603015Y-68419439D01*
X113504410Y-68559739D01*
X113442118Y-68719509D01*
X113441885Y-68721278D01*
X113406840Y-68780155D01*
X113343309Y-68811845D01*
X113272729Y-68804157D01*
X113232016Y-68776911D01*
X112704205Y-68249100D01*
X112670179Y-68186788D01*
X112667300Y-68160005D01*
X112667300Y-67352430D01*
X112687302Y-67284309D01*
X112740958Y-67237816D01*
X112777527Y-67227832D01*
X112781502Y-67227894D01*
X112948659Y-67189610D01*
X113101858Y-67112559D01*
X113107629Y-67107630D01*
X113107632Y-67107628D01*
X113226478Y-67006123D01*
X113232255Y-67001189D01*
X113272720Y-66944876D01*
X113328713Y-66901230D01*
X113399416Y-66894784D01*
X113464136Y-66929309D01*
X113592960Y-67058133D01*
X113622191Y-67103927D01*
X113646973Y-67171648D01*
X113646975Y-67171652D01*
X113649585Y-67178784D01*
X113653822Y-67185090D01*
X113653824Y-67185093D01*
X113682586Y-67227894D01*
X113745230Y-67321118D01*
X113872065Y-67436529D01*
X114022768Y-67518354D01*
X114188639Y-67561870D01*
X114276086Y-67563243D01*
X114352503Y-67564444D01*
X114352506Y-67564444D01*
X114360102Y-67564563D01*
X114367506Y-67562867D01*
X114367508Y-67562867D01*
X114430346Y-67548475D01*
X114527259Y-67526279D01*
X114680458Y-67449228D01*
X114686229Y-67444299D01*
X114686232Y-67444297D01*
X114805078Y-67342792D01*
X114810855Y-67337858D01*
X114910924Y-67198599D01*
X114974885Y-67039489D01*
X114981820Y-66990762D01*
X114998466Y-66873800D01*
X114998466Y-66873796D01*
X114999047Y-66869716D01*
X114999204Y-66854769D01*
X114989098Y-66771256D01*
X114979515Y-66692068D01*
X114979514Y-66692065D01*
X114978602Y-66684527D01*
X114975614Y-66676618D01*
X114920671Y-66531216D01*
X114917987Y-66524113D01*
X114861896Y-66442500D01*
X114825159Y-66389047D01*
X114825158Y-66389045D01*
X114820857Y-66382788D01*
X114815186Y-66377735D01*
X114698493Y-66273765D01*
X114698490Y-66273763D01*
X114692821Y-66268712D01*
X114560841Y-66198832D01*
X114509998Y-66149279D01*
X114493800Y-66087478D01*
X114493800Y-64708604D01*
X114513802Y-64640483D01*
X114567458Y-64593990D01*
X114637732Y-64583886D01*
X114702312Y-64613380D01*
G37*
G04 #@! TD.AperFunction*
G04 #@! TA.AperFunction,Conductor*
G36*
X133161626Y-65738001D02*
G01*
X133182600Y-65754904D01*
X135435414Y-68007718D01*
X135469440Y-68070030D01*
X135464375Y-68140845D01*
X135421828Y-68197681D01*
X135355308Y-68222492D01*
X135346319Y-68222813D01*
X134168454Y-68222813D01*
X134157271Y-68222286D01*
X134149778Y-68220611D01*
X134141852Y-68220860D01*
X134141851Y-68220860D01*
X134081701Y-68222751D01*
X134077742Y-68222813D01*
X134049831Y-68222813D01*
X134045897Y-68223310D01*
X134045896Y-68223310D01*
X134045831Y-68223318D01*
X134033994Y-68224251D01*
X134002177Y-68225251D01*
X133997716Y-68225391D01*
X133989797Y-68225640D01*
X133981474Y-68228058D01*
X133970345Y-68231291D01*
X133950993Y-68235299D01*
X133943922Y-68236193D01*
X133930890Y-68237839D01*
X133923521Y-68240756D01*
X133923519Y-68240757D01*
X133889784Y-68254113D01*
X133878556Y-68257958D01*
X133836094Y-68270295D01*
X133829272Y-68274329D01*
X133829266Y-68274332D01*
X133818655Y-68280607D01*
X133800905Y-68289303D01*
X133789443Y-68293841D01*
X133789438Y-68293844D01*
X133782070Y-68296761D01*
X133775655Y-68301422D01*
X133746312Y-68322740D01*
X133736394Y-68329256D01*
X133710534Y-68344550D01*
X133641718Y-68362010D01*
X133587435Y-68347452D01*
X133456641Y-68278200D01*
X133425015Y-68270256D01*
X133361204Y-68254228D01*
X133300008Y-68218233D01*
X133271398Y-68165507D01*
X133271325Y-68165535D01*
X133271123Y-68165001D01*
X133264462Y-68147371D01*
X133213394Y-68012224D01*
X133210710Y-68005121D01*
X133186031Y-67969212D01*
X133162333Y-67934730D01*
X133140233Y-67867261D01*
X133149265Y-67816368D01*
X133180967Y-67737504D01*
X133193986Y-67705119D01*
X133195056Y-67697601D01*
X133217567Y-67539430D01*
X133217567Y-67539426D01*
X133218148Y-67535346D01*
X133218225Y-67527974D01*
X133218262Y-67524532D01*
X133218262Y-67524526D01*
X133218305Y-67520399D01*
X133209692Y-67449228D01*
X133198616Y-67357698D01*
X133198615Y-67357695D01*
X133197703Y-67350157D01*
X133190725Y-67331688D01*
X133139772Y-67196846D01*
X133137088Y-67189743D01*
X133080652Y-67107628D01*
X133044260Y-67054677D01*
X133044259Y-67054675D01*
X133039958Y-67048418D01*
X133034287Y-67043365D01*
X132917594Y-66939395D01*
X132917591Y-66939393D01*
X132911922Y-66934342D01*
X132902417Y-66929309D01*
X132804835Y-66877642D01*
X132760370Y-66854099D01*
X132753007Y-66852250D01*
X132745908Y-66849524D01*
X132746932Y-66846857D01*
X132700803Y-66820696D01*
X132442553Y-66562446D01*
X132435013Y-66554160D01*
X132430901Y-66547681D01*
X132409726Y-66527796D01*
X132381250Y-66501056D01*
X132378408Y-66498301D01*
X132358671Y-66478564D01*
X132355474Y-66476084D01*
X132346452Y-66468379D01*
X132320001Y-66443540D01*
X132314222Y-66438113D01*
X132307276Y-66434294D01*
X132307273Y-66434292D01*
X132296467Y-66428351D01*
X132279948Y-66417500D01*
X132279484Y-66417140D01*
X132263942Y-66405085D01*
X132256673Y-66401940D01*
X132256669Y-66401937D01*
X132223364Y-66387525D01*
X132212714Y-66382308D01*
X132173961Y-66361004D01*
X132154338Y-66355966D01*
X132135635Y-66349562D01*
X132124321Y-66344666D01*
X132124320Y-66344666D01*
X132117046Y-66341518D01*
X132109223Y-66340279D01*
X132109213Y-66340276D01*
X132073377Y-66334600D01*
X132061757Y-66332194D01*
X132026612Y-66323171D01*
X132026611Y-66323171D01*
X132018931Y-66321199D01*
X131998677Y-66321199D01*
X131978966Y-66319648D01*
X131966787Y-66317719D01*
X131958958Y-66316479D01*
X131951066Y-66317225D01*
X131914940Y-66320640D01*
X131903082Y-66321199D01*
X131027023Y-66321199D01*
X130958902Y-66301197D01*
X130912409Y-66247541D01*
X130909157Y-66239737D01*
X130858866Y-66106646D01*
X130856182Y-66099543D01*
X130847890Y-66087478D01*
X130763354Y-65964477D01*
X130763353Y-65964475D01*
X130759052Y-65958218D01*
X130750168Y-65950302D01*
X130736444Y-65938075D01*
X130698888Y-65877825D01*
X130699868Y-65806835D01*
X130739073Y-65747645D01*
X130804055Y-65719046D01*
X130820263Y-65717999D01*
X133093505Y-65717999D01*
X133161626Y-65738001D01*
G37*
G04 #@! TD.AperFunction*
G04 #@! TA.AperFunction,Conductor*
G36*
X118254090Y-65738001D02*
G01*
X118300583Y-65791657D01*
X118310687Y-65861931D01*
X118281193Y-65926511D01*
X118260027Y-65945937D01*
X118249014Y-65953938D01*
X118239096Y-65960453D01*
X118207868Y-65978921D01*
X118207865Y-65978923D01*
X118201041Y-65982959D01*
X118186720Y-65997280D01*
X118171687Y-66010120D01*
X118155296Y-66022029D01*
X118150246Y-66028133D01*
X118150241Y-66028138D01*
X118127110Y-66056099D01*
X118119120Y-66064880D01*
X117302679Y-66881320D01*
X117257502Y-66910322D01*
X117257459Y-66910338D01*
X117250074Y-66912111D01*
X117243330Y-66915592D01*
X117243327Y-66915593D01*
X117207002Y-66934342D01*
X117129253Y-66974471D01*
X117059547Y-66987940D01*
X116993623Y-66961585D01*
X116952414Y-66903772D01*
X116946377Y-66877642D01*
X116933503Y-66771256D01*
X116933502Y-66771254D01*
X116932590Y-66763714D01*
X116927176Y-66749385D01*
X116899680Y-66676618D01*
X116894312Y-66605825D01*
X116928451Y-66542986D01*
X117716533Y-65754904D01*
X117778845Y-65720878D01*
X117805628Y-65717999D01*
X118185969Y-65717999D01*
X118254090Y-65738001D01*
G37*
G04 #@! TD.AperFunction*
G04 #@! TA.AperFunction,Conductor*
G36*
X120224337Y-58753001D02*
G01*
X120270830Y-58806657D01*
X120280934Y-58876931D01*
X120248066Y-58945252D01*
X120236122Y-58957971D01*
X120232303Y-58964917D01*
X120232301Y-58964920D01*
X120226360Y-58975726D01*
X120215509Y-58992245D01*
X120203094Y-59008251D01*
X120199949Y-59015520D01*
X120199946Y-59015524D01*
X120185534Y-59048829D01*
X120180317Y-59059479D01*
X120159013Y-59098232D01*
X120157042Y-59105907D01*
X120157042Y-59105908D01*
X120153975Y-59117854D01*
X120147571Y-59136558D01*
X120139527Y-59155147D01*
X120138288Y-59162970D01*
X120138285Y-59162980D01*
X120132609Y-59198816D01*
X120130203Y-59210436D01*
X120121180Y-59245581D01*
X120119208Y-59253262D01*
X120119208Y-59273516D01*
X120117657Y-59293226D01*
X120114488Y-59313235D01*
X120115234Y-59321127D01*
X120118649Y-59357253D01*
X120119208Y-59369111D01*
X120119208Y-59713941D01*
X120118681Y-59725124D01*
X120117006Y-59732617D01*
X120117255Y-59740543D01*
X120117255Y-59740544D01*
X120119146Y-59800694D01*
X120119208Y-59804653D01*
X120119208Y-59832564D01*
X120119705Y-59836498D01*
X120119705Y-59836499D01*
X120119713Y-59836564D01*
X120120646Y-59848401D01*
X120122035Y-59892597D01*
X120127655Y-59911942D01*
X120127686Y-59912047D01*
X120131695Y-59931408D01*
X120134234Y-59951505D01*
X120137153Y-59958876D01*
X120137153Y-59958878D01*
X120150512Y-59992620D01*
X120154357Y-60003850D01*
X120162158Y-60030702D01*
X120166690Y-60046301D01*
X120170723Y-60053120D01*
X120170725Y-60053125D01*
X120177001Y-60063736D01*
X120185696Y-60081484D01*
X120193156Y-60100325D01*
X120197818Y-60106741D01*
X120197818Y-60106742D01*
X120219144Y-60136095D01*
X120225660Y-60146015D01*
X120239019Y-60168603D01*
X120248166Y-60184070D01*
X120262487Y-60198391D01*
X120275327Y-60213424D01*
X120287236Y-60229815D01*
X120304471Y-60244073D01*
X120321313Y-60258006D01*
X120330092Y-60265996D01*
X122847562Y-62783466D01*
X122881588Y-62845778D01*
X122876523Y-62916593D01*
X122833976Y-62973429D01*
X122767456Y-62998240D01*
X122758467Y-62998561D01*
X116080734Y-62998561D01*
X116069550Y-62998034D01*
X116062062Y-62996360D01*
X116054139Y-62996609D01*
X115994004Y-62998499D01*
X115990046Y-62998561D01*
X115962115Y-62998561D01*
X115958200Y-62999056D01*
X115958196Y-62999056D01*
X115958138Y-62999064D01*
X115958109Y-62999067D01*
X115946267Y-63000000D01*
X115902081Y-63001388D01*
X115885362Y-63006245D01*
X115882629Y-63007039D01*
X115863277Y-63011047D01*
X115851039Y-63012593D01*
X115851037Y-63012594D01*
X115843174Y-63013587D01*
X115802057Y-63029867D01*
X115790856Y-63033702D01*
X115748377Y-63046043D01*
X115741558Y-63050076D01*
X115741553Y-63050078D01*
X115730942Y-63056354D01*
X115713192Y-63065051D01*
X115694354Y-63072509D01*
X115687938Y-63077170D01*
X115687937Y-63077171D01*
X115658596Y-63098489D01*
X115648672Y-63105008D01*
X115617431Y-63123483D01*
X115617426Y-63123487D01*
X115610608Y-63127519D01*
X115596284Y-63141843D01*
X115581252Y-63154682D01*
X115564864Y-63166589D01*
X115540912Y-63195542D01*
X115536683Y-63200654D01*
X115528693Y-63209434D01*
X115147818Y-63590309D01*
X115102642Y-63619312D01*
X115102597Y-63619329D01*
X115095211Y-63621102D01*
X115088465Y-63624584D01*
X115088462Y-63624585D01*
X115036874Y-63651212D01*
X114942827Y-63699753D01*
X114813603Y-63812483D01*
X114772175Y-63871429D01*
X114722887Y-63941558D01*
X114667352Y-63985789D01*
X114596720Y-63992975D01*
X114533416Y-63960834D01*
X114497538Y-63899569D01*
X114493800Y-63869107D01*
X114493800Y-62292194D01*
X114513802Y-62224073D01*
X114530705Y-62203099D01*
X115516830Y-61216975D01*
X116530752Y-60203053D01*
X116539038Y-60195513D01*
X116545517Y-60191401D01*
X116553446Y-60182958D01*
X116592142Y-60141750D01*
X116594897Y-60138908D01*
X116614634Y-60119171D01*
X116617114Y-60115974D01*
X116624819Y-60106952D01*
X116625016Y-60106742D01*
X116655085Y-60074722D01*
X116658904Y-60067776D01*
X116658906Y-60067773D01*
X116664847Y-60056967D01*
X116675698Y-60040448D01*
X116682035Y-60032278D01*
X116688113Y-60024442D01*
X116691258Y-60017173D01*
X116691261Y-60017169D01*
X116705673Y-59983864D01*
X116710890Y-59973214D01*
X116732194Y-59934461D01*
X116735376Y-59922070D01*
X116736678Y-59916997D01*
X116737232Y-59914838D01*
X116743636Y-59896135D01*
X116748532Y-59884821D01*
X116748532Y-59884820D01*
X116751680Y-59877546D01*
X116752919Y-59869723D01*
X116752922Y-59869713D01*
X116758598Y-59833877D01*
X116761004Y-59822257D01*
X116770027Y-59787112D01*
X116770027Y-59787111D01*
X116771999Y-59779431D01*
X116771999Y-59759177D01*
X116773550Y-59739466D01*
X116775479Y-59727287D01*
X116776719Y-59719458D01*
X116772558Y-59675439D01*
X116771999Y-59663582D01*
X116771999Y-59004628D01*
X116792001Y-58936507D01*
X116808904Y-58915533D01*
X116954533Y-58769904D01*
X117016845Y-58735878D01*
X117043628Y-58732999D01*
X120156216Y-58732999D01*
X120224337Y-58753001D01*
G37*
G04 #@! TD.AperFunction*
G04 #@! TA.AperFunction,Conductor*
G36*
X203200000Y-62230000D02*
G01*
X202358134Y-62230000D01*
X202315946Y-62152739D01*
X202212598Y-62049390D01*
X202201467Y-62041057D01*
X202159370Y-62009544D01*
X202159371Y-62009544D01*
X202155762Y-62006843D01*
X202027483Y-61936798D01*
X202018681Y-61934883D01*
X202018678Y-61934882D01*
X201889066Y-61906686D01*
X201889063Y-61906686D01*
X201884666Y-61905729D01*
X201813851Y-61900664D01*
X201809364Y-61900985D01*
X201677046Y-61910450D01*
X201668058Y-61911093D01*
X201659616Y-61914242D01*
X201659615Y-61914242D01*
X201535331Y-61960599D01*
X201535329Y-61960600D01*
X201531117Y-61962171D01*
X201527174Y-61964324D01*
X201527172Y-61964325D01*
X201508918Y-61974293D01*
X201468805Y-61996197D01*
X201465205Y-61998892D01*
X201355408Y-62081086D01*
X201355404Y-62081090D01*
X201351806Y-62083783D01*
X201205589Y-62230000D01*
X184150000Y-62230000D01*
X178435000Y-56515000D01*
X178435000Y-50674821D01*
X178498621Y-50693502D01*
X178545114Y-50747158D01*
X178556500Y-50799500D01*
X178556500Y-55827810D01*
X178559441Y-55882692D01*
X178562320Y-55909475D01*
X178562588Y-55911132D01*
X178562590Y-55911143D01*
X178570125Y-55957640D01*
X178570126Y-55957645D01*
X178571116Y-55963752D01*
X178573278Y-55969549D01*
X178573279Y-55969552D01*
X178619975Y-56094744D01*
X178622194Y-56100693D01*
X178624347Y-56104636D01*
X178624348Y-56104638D01*
X178654064Y-56159057D01*
X178656220Y-56163005D01*
X178658915Y-56166605D01*
X178741109Y-56276402D01*
X178741113Y-56276406D01*
X178743806Y-56280004D01*
X182364496Y-59900694D01*
X182365753Y-59901823D01*
X182365756Y-59901826D01*
X182368429Y-59904227D01*
X182405377Y-59937417D01*
X182426351Y-59954320D01*
X182427724Y-59955310D01*
X182465930Y-59982862D01*
X182465935Y-59982865D01*
X182470951Y-59986482D01*
X182603900Y-60047198D01*
X182611209Y-60049344D01*
X182667698Y-60065931D01*
X182667702Y-60065932D01*
X182672021Y-60067200D01*
X182676470Y-60067840D01*
X182676476Y-60067841D01*
X182812243Y-60087361D01*
X182812248Y-60087361D01*
X182816690Y-60088000D01*
X185038391Y-60088000D01*
X185100818Y-60104552D01*
X185131365Y-60121975D01*
X185152240Y-60133882D01*
X185156759Y-60136587D01*
X185171789Y-60146015D01*
X185222596Y-60177886D01*
X185222599Y-60177888D01*
X185227344Y-60180864D01*
X185232549Y-60182957D01*
X185232552Y-60182958D01*
X185243979Y-60187552D01*
X185259411Y-60195012D01*
X185270119Y-60201120D01*
X185270128Y-60201124D01*
X185274993Y-60203899D01*
X185280270Y-60205768D01*
X185280275Y-60205770D01*
X185353542Y-60231715D01*
X185358478Y-60233580D01*
X185384581Y-60244073D01*
X185435783Y-60264656D01*
X185441270Y-60265792D01*
X185441272Y-60265793D01*
X185453349Y-60268294D01*
X185469844Y-60272899D01*
X185486759Y-60278889D01*
X185492296Y-60279796D01*
X185492297Y-60279796D01*
X185568991Y-60292355D01*
X185574181Y-60293317D01*
X185651246Y-60309277D01*
X185651250Y-60309278D01*
X185655767Y-60310213D01*
X185660376Y-60310479D01*
X185660378Y-60310479D01*
X185683548Y-60311815D01*
X185696653Y-60313262D01*
X185702910Y-60314286D01*
X185702917Y-60314286D01*
X185708458Y-60315194D01*
X185714070Y-60315106D01*
X185714072Y-60315106D01*
X185815264Y-60313516D01*
X185817243Y-60313500D01*
X195615604Y-60313500D01*
X195632051Y-60314578D01*
X195648516Y-60316746D01*
X195648520Y-60316746D01*
X195654086Y-60317479D01*
X195735489Y-60313640D01*
X195741424Y-60313500D01*
X195763999Y-60313500D01*
X195789989Y-60311181D01*
X195795248Y-60310822D01*
X195878488Y-60306896D01*
X195883947Y-60305646D01*
X195883952Y-60305645D01*
X195895970Y-60302892D01*
X195912899Y-60300211D01*
X195930762Y-60298617D01*
X195936178Y-60297135D01*
X195936180Y-60297135D01*
X196011133Y-60276630D01*
X196016251Y-60275344D01*
X196092000Y-60257995D01*
X196092002Y-60257994D01*
X196097470Y-60256742D01*
X196107970Y-60252263D01*
X196113967Y-60249706D01*
X196130142Y-60244073D01*
X196142039Y-60240818D01*
X196142043Y-60240817D01*
X196147451Y-60239337D01*
X196218591Y-60205405D01*
X196222667Y-60203461D01*
X196227476Y-60201290D01*
X196298949Y-60170804D01*
X196298950Y-60170804D01*
X196304109Y-60168603D01*
X196319110Y-60158749D01*
X196334025Y-60150346D01*
X196350218Y-60142622D01*
X196354766Y-60139354D01*
X196354771Y-60139351D01*
X196393283Y-60111677D01*
X196466809Y-60088000D01*
X198428522Y-60088000D01*
X198455097Y-60086576D01*
X198481711Y-60085150D01*
X198481721Y-60085149D01*
X198483404Y-60085059D01*
X198510187Y-60082180D01*
X198511844Y-60081912D01*
X198511855Y-60081910D01*
X198558352Y-60074375D01*
X198558357Y-60074374D01*
X198564464Y-60073384D01*
X198570261Y-60071222D01*
X198570264Y-60071221D01*
X198697191Y-60023878D01*
X198697193Y-60023877D01*
X198701405Y-60022306D01*
X198710813Y-60017169D01*
X198759769Y-59990436D01*
X198759771Y-59990435D01*
X198763717Y-59988280D01*
X198806016Y-59956615D01*
X198877114Y-59903391D01*
X198877118Y-59903387D01*
X198880716Y-59900694D01*
X202256194Y-56525216D01*
X202292917Y-56484335D01*
X202309820Y-56463361D01*
X202329168Y-56436531D01*
X202338362Y-56423782D01*
X202338365Y-56423777D01*
X202341982Y-56418761D01*
X202402698Y-56285812D01*
X202416100Y-56240169D01*
X202421431Y-56222014D01*
X202421432Y-56222010D01*
X202422700Y-56217691D01*
X202423586Y-56211533D01*
X202442861Y-56077469D01*
X202442861Y-56077464D01*
X202443500Y-56073022D01*
X202443500Y-50799500D01*
X202463502Y-50731379D01*
X202517158Y-50684886D01*
X202569500Y-50673500D01*
X203200000Y-50673500D01*
X203200000Y-62230000D01*
G37*
G04 #@! TD.AperFunction*
G04 #@! TA.AperFunction,Conductor*
G36*
X111803621Y-50693502D02*
G01*
X111850114Y-50747158D01*
X111861500Y-50799500D01*
X111861500Y-56433134D01*
X111868255Y-56495316D01*
X111919385Y-56631705D01*
X112006739Y-56748261D01*
X112123295Y-56835615D01*
X112259684Y-56886745D01*
X112321866Y-56893500D01*
X114398134Y-56893500D01*
X114460316Y-56886745D01*
X114596705Y-56835615D01*
X114713261Y-56748261D01*
X114800615Y-56631705D01*
X114851745Y-56495316D01*
X114858500Y-56433134D01*
X114858500Y-50799500D01*
X114878502Y-50731379D01*
X114932158Y-50684886D01*
X114984500Y-50673500D01*
X119655500Y-50673500D01*
X119723621Y-50693502D01*
X119770114Y-50747158D01*
X119781500Y-50799500D01*
X119781500Y-55950800D01*
X119761498Y-56018921D01*
X119707842Y-56065414D01*
X119655500Y-56076800D01*
X116289929Y-56076800D01*
X116278746Y-56076273D01*
X116271253Y-56074598D01*
X116263327Y-56074847D01*
X116263326Y-56074847D01*
X116203163Y-56076738D01*
X116199205Y-56076800D01*
X116171306Y-56076800D01*
X116167316Y-56077304D01*
X116155482Y-56078236D01*
X116111273Y-56079626D01*
X116103659Y-56081838D01*
X116103654Y-56081839D01*
X116091821Y-56085277D01*
X116072458Y-56089288D01*
X116052365Y-56091826D01*
X116044998Y-56094743D01*
X116044993Y-56094744D01*
X116011254Y-56108102D01*
X116000027Y-56111946D01*
X115957569Y-56124282D01*
X115950743Y-56128319D01*
X115940134Y-56134593D01*
X115922386Y-56143288D01*
X115903545Y-56150748D01*
X115897129Y-56155410D01*
X115897128Y-56155410D01*
X115867775Y-56176736D01*
X115857855Y-56183252D01*
X115826627Y-56201720D01*
X115826624Y-56201722D01*
X115819800Y-56205758D01*
X115805479Y-56220079D01*
X115790446Y-56232919D01*
X115774055Y-56244828D01*
X115747935Y-56276402D01*
X115745864Y-56278905D01*
X115737874Y-56287684D01*
X113083986Y-58941571D01*
X113021674Y-58975597D01*
X112950858Y-58970532D01*
X112909062Y-58941778D01*
X112907957Y-58943019D01*
X112816436Y-58861476D01*
X112785850Y-58811284D01*
X112782774Y-58812502D01*
X112766500Y-58771397D01*
X112762655Y-58760170D01*
X112759484Y-58749255D01*
X112750318Y-58717707D01*
X112746284Y-58710885D01*
X112746281Y-58710879D01*
X112740006Y-58700268D01*
X112731310Y-58682518D01*
X112726772Y-58671056D01*
X112726769Y-58671051D01*
X112723852Y-58663683D01*
X112697873Y-58627925D01*
X112691357Y-58618007D01*
X112672875Y-58586757D01*
X112668842Y-58579937D01*
X112654518Y-58565613D01*
X112641676Y-58550578D01*
X112629772Y-58534193D01*
X112595706Y-58506011D01*
X112586927Y-58498022D01*
X110863995Y-56775090D01*
X110829969Y-56712778D01*
X110835034Y-56641963D01*
X110838332Y-56634751D01*
X110840615Y-56631705D01*
X110844475Y-56621410D01*
X110888971Y-56502715D01*
X110891745Y-56495316D01*
X110898500Y-56433134D01*
X110898500Y-50799500D01*
X110918502Y-50731379D01*
X110972158Y-50684886D01*
X111024500Y-50673500D01*
X111735500Y-50673500D01*
X111803621Y-50693502D01*
G37*
G04 #@! TD.AperFunction*
M02*
