M48
; DRILL file {KiCad (6.0.6-0)} date Tuesday, 11 October 2022 at 13:41:29
; FORMAT={-:-/ absolute / inch / decimal}
; #@! TF.CreationDate,2022-10-11T13:41:29+09:00
; #@! TF.GenerationSoftware,Kicad,Pcbnew,(6.0.6-0)
; #@! TF.FileFunction,MixedPlating,1,2
FMAT,2
INCH
; #@! TA.AperFunction,Plated,PTH,ViaDrill
T1C0.0079
; #@! TA.AperFunction,Plated,PTH,ViaDrill
T2C0.0157
; #@! TA.AperFunction,Plated,PTH,ComponentDrill
T3C0.0362
; #@! TA.AperFunction,Plated,PTH,ComponentDrill
T4C0.0394
; #@! TA.AperFunction,Plated,PTH,ComponentDrill
T5C0.0906
%
G90
G05
T1
X4.025Y-2.275
X4.2118Y-2.1655
X4.3644Y-2.9463
X4.4237Y-2.7229
X4.4307Y-3.0117
X4.5057Y-2.4602
X4.5093Y-2.3188
X4.5327Y-2.6251
X4.5329Y-2.7319
X4.5434Y-2.7789
X4.5466Y-2.3145
X4.5646Y-2.4173
X4.5693Y-2.3284
X4.5957Y-3.0654
X4.6114Y-2.6104
X4.6392Y-2.9611
X4.6541Y-2.9342
X4.6755Y-2.7339
X4.7094Y-2.5883
X4.7286Y-2.2446
X4.73Y-2.8491
X4.73Y-2.8759
X4.7731Y-2.7016
X4.8361Y-2.8454
X4.8368Y-2.9292
X4.9014Y-2.4799
X4.9116Y-2.5619
X4.9194Y-2.681
X4.9474Y-2.4714
X4.9489Y-2.6878
X5.1044Y-2.6221
X5.1488Y-2.8639
X5.3908Y-2.4833
X5.439Y-2.2715
X5.4966Y-2.2227
X5.5607Y-2.4531
X5.5784Y-2.3075
X5.7151Y-2.6627
X5.7286Y-2.9227
X5.7366Y-2.4532
X5.7686Y-2.468
X5.8023Y-2.5288
X5.8103Y-2.9385
X5.8221Y-2.6569
X5.8532Y-2.6576
X5.874Y-2.901
X5.8944Y-2.6751
X5.9Y-2.8153
X5.9056Y-3.1843
X5.9142Y-2.7865
X5.9668Y-2.5811
X5.9697Y-2.7197
X5.9774Y-2.4533
X5.9789Y-2.6539
X6.0513Y-3.1618
X6.083Y-2.4542
X6.1006Y-2.8711
X6.1195Y-3.2036
X6.1263Y-2.4668
X6.1556Y-2.764
X6.1774Y-2.6485
X6.1775Y-2.7099
X6.2036Y-2.5007
X6.2048Y-3.0994
X6.2242Y-2.2401
X6.2328Y-2.5018
X6.2704Y-2.9213
X6.2865Y-2.6284
X6.3Y-2.9
X6.3Y-2.975
X6.3208Y-2.5779
X6.3242Y-2.4811
X6.3904Y-2.5354
X6.392Y-3.2101
X6.4211Y-2.7585
X6.4355Y-2.5306
X6.506Y-3.1534
X6.5332Y-3.1294
X6.6117Y-2.4865
X6.7316Y-2.4526
X6.7507Y-2.3383
X6.7611Y-3.1713
X6.8071Y-2.3372
X6.8466Y-2.2972
X6.8474Y-2.3308
X6.8988Y-2.3762
X6.975Y-2.725
X7.125Y-2.725
X7.225Y-2.725
T2
X3.9953Y-3.0297
X3.9953Y-3.1547
X4.5861Y-2.9605
X4.6189Y-2.2061
X4.645Y-2.7331
X4.7Y-2.5179
X4.741Y-2.5179
X4.791Y-2.5179
X5.4593Y-2.756
X5.8251Y-2.766
X5.9174Y-2.5825
X5.9834Y-2.4167
X6.0Y-2.725
X6.0061Y-2.8937
X6.06Y-2.9245
X6.3542Y-2.7313
X6.8016Y-2.1234
X6.8016Y-2.1766
X6.875Y-2.025
X6.9575Y-2.1175
X6.9633Y-2.1867
X7.1134Y-2.1116
X7.1134Y-2.1634
X7.2Y-2.025
X7.2693Y-2.1057
X7.2693Y-2.1778
X7.425Y-3.25
X7.4252Y-2.0998
X7.4252Y-2.1748
X7.4252Y-3.1998
X7.5811Y-3.2189
X7.737Y-2.113
X7.737Y-2.188
X7.737Y-3.138
X7.737Y-3.213
X7.825Y-2.025
X7.8929Y-2.1071
X7.8929Y-2.1821
X7.8929Y-3.1321
X7.8929Y-3.2071
X8.0488Y-2.1262
X8.0488Y-2.2012
X8.0488Y-3.1262
X8.0488Y-3.2012
X8.2047Y-2.1203
X8.2047Y-2.1953
X8.2047Y-3.1203
X8.2047Y-3.1953
T3
X4.2567Y-2.5122
X4.2567Y-2.6106
X4.2567Y-2.6894
X4.2567Y-2.7878
T4
X4.925Y-2.8998
X4.925Y-2.9998
X5.075Y-2.8998
X5.075Y-2.9998
X6.8998Y-2.8998
X6.8998Y-2.9998
X6.9998Y-2.8998
X6.9998Y-2.9998
X7.0998Y-2.8998
X7.0998Y-2.9998
X7.1998Y-2.8998
X7.1998Y-2.9998
X7.2998Y-2.8998
X7.2998Y-2.9998
T5
X4.15Y-2.3913
X4.15Y-2.9087
T0
M30
