M48
; DRILL file {KiCad (6.0.6-0)} date Saturday, 27 August 2022 at 20:22:10
; FORMAT={-:-/ absolute / inch / decimal}
; #@! TF.CreationDate,2022-08-27T20:22:10+09:00
; #@! TF.GenerationSoftware,Kicad,Pcbnew,(6.0.6-0)
; #@! TF.FileFunction,MixedPlating,1,2
FMAT,2
INCH
; #@! TA.AperFunction,Plated,PTH,ViaDrill
T1C0.0079
; #@! TA.AperFunction,Plated,PTH,ViaDrill
T2C0.0157
; #@! TA.AperFunction,Plated,PTH,ComponentDrill
T3C0.0362
; #@! TA.AperFunction,Plated,PTH,ComponentDrill
T4C0.0394
; #@! TA.AperFunction,Plated,PTH,ComponentDrill
T5C0.0906
%
G90
G05
T1
X4.0561Y-2.2144
X4.2706Y-2.2413
X4.3586Y-2.5593
X4.4192Y-2.5587
X4.4524Y-2.7054
X4.4573Y-2.5577
X4.4931Y-3.0469
X4.5072Y-2.8851
X4.5186Y-2.9386
X4.5536Y-2.9522
X4.5598Y-2.8131
X4.5718Y-2.3256
X4.5799Y-2.768
X4.5924Y-2.859
X4.5928Y-2.9534
X4.6032Y-2.7913
X4.6362Y-2.8373
X4.6411Y-2.7365
X4.6762Y-2.7313
X4.715Y-2.7932
X4.81Y-2.4446
X4.8483Y-2.4697
X4.9088Y-2.6869
X4.9113Y-2.6301
X4.9134Y-2.6578
X4.986Y-2.2327
X5.1182Y-2.3186
X5.196Y-2.2376
X5.2155Y-2.9522
X5.3711Y-3.0474
X5.3972Y-2.2727
X5.5136Y-2.3297
X5.5963Y-2.2487
X5.6449Y-2.7959
X5.7206Y-2.9366
X5.7221Y-2.9043
X5.8261Y-3.0674
X5.8308Y-2.6483
X5.8312Y-2.9452
X5.8484Y-2.6312
X5.8707Y-2.8694
X5.8771Y-2.823
X5.9054Y-2.7592
X5.9087Y-2.9477
X5.9131Y-2.8435
X5.9388Y-2.6869
X5.9834Y-3.0657
X6.1625Y-2.9477
X6.4269Y-2.8438
X6.4387Y-2.2327
X6.4734Y-2.7592
T2
X3.9953Y-3.0297
X3.9953Y-3.1547
X4.6189Y-2.2061
X4.7Y-2.584
X4.741Y-2.584
X4.791Y-2.584
X6.8016Y-2.1234
X6.8016Y-2.1766
X6.875Y-2.025
X6.9575Y-2.1175
X6.9633Y-2.1867
X7.1134Y-2.1116
X7.1134Y-2.1634
X7.2Y-2.025
X7.2693Y-2.1057
X7.2693Y-2.1778
X7.4252Y-2.0998
X7.4252Y-2.1748
X7.4252Y-3.1498
X7.4252Y-3.1998
X7.575Y-3.125
X7.737Y-2.113
X7.737Y-2.188
X7.737Y-3.138
X7.737Y-3.213
X7.825Y-2.025
X7.8929Y-2.1071
X7.8929Y-2.1821
X7.8929Y-3.1321
X7.8929Y-3.2071
X8.0488Y-2.1262
X8.0488Y-2.2012
X8.0488Y-3.1262
X8.0488Y-3.2012
X8.2047Y-2.1203
X8.2047Y-2.1953
X8.2047Y-3.1203
X8.2047Y-3.1953
T3
X4.2872Y-2.5122
X4.2872Y-2.6106
X4.2872Y-2.6894
X4.2872Y-2.7878
T4
X4.925Y-2.8998
X4.925Y-2.9998
X5.075Y-2.8998
X5.075Y-2.9998
T5
X4.1805Y-2.3913
X4.1805Y-2.9087
T0
M30
