G04 #@! TF.GenerationSoftware,KiCad,Pcbnew,(6.0.6-0)*
G04 #@! TF.CreationDate,2022-10-11T13:41:26+09:00*
G04 #@! TF.ProjectId,MahJamma,4d61684a-616d-46d6-912e-6b696361645f,rev?*
G04 #@! TF.SameCoordinates,Original*
G04 #@! TF.FileFunction,Paste,Bot*
G04 #@! TF.FilePolarity,Positive*
%FSLAX46Y46*%
G04 Gerber Fmt 4.6, Leading zero omitted, Abs format (unit mm)*
G04 Created by KiCad (PCBNEW (6.0.6-0)) date 2022-10-11 13:41:26*
%MOMM*%
%LPD*%
G01*
G04 APERTURE LIST*
%ADD10R,1.980000X9.900000*%
G04 APERTURE END LIST*
D10*
X101480000Y-51435000D03*
X105440000Y-51435000D03*
X109400000Y-51435000D03*
X113360000Y-51435000D03*
X117320000Y-51435000D03*
X121280000Y-51435000D03*
X125240000Y-51435000D03*
X129200000Y-51435000D03*
X133160000Y-51435000D03*
X137120000Y-51435000D03*
X141080000Y-51435000D03*
X145040000Y-51435000D03*
X149000000Y-51435000D03*
X152960000Y-51435000D03*
X156920000Y-51435000D03*
X160880000Y-51435000D03*
X164840000Y-51435000D03*
X168800000Y-51435000D03*
X172760000Y-51435000D03*
X176720000Y-51435000D03*
X180680000Y-51435000D03*
X184640000Y-51435000D03*
X188600000Y-51435000D03*
X192560000Y-51435000D03*
X196520000Y-51435000D03*
X200480000Y-51435000D03*
X204440000Y-51435000D03*
X208400000Y-51435000D03*
X208400000Y-86360000D03*
X204440000Y-86360000D03*
X200480000Y-86360000D03*
X196520000Y-86360000D03*
X192560000Y-86360000D03*
X188600000Y-86360000D03*
X184640000Y-86360000D03*
X180680000Y-86360000D03*
X176720000Y-86360000D03*
X172760000Y-86360000D03*
X168800000Y-86360000D03*
X164840000Y-86360000D03*
X160880000Y-86360000D03*
X156920000Y-86360000D03*
X152960000Y-86360000D03*
X149000000Y-86360000D03*
X145040000Y-86360000D03*
X141080000Y-86360000D03*
X137120000Y-86360000D03*
X133160000Y-86360000D03*
X129200000Y-86360000D03*
X125240000Y-86360000D03*
X121280000Y-86360000D03*
X117320000Y-86360000D03*
X113360000Y-86360000D03*
X109400000Y-86360000D03*
X105440000Y-86360000D03*
X101480000Y-86360000D03*
M02*
