G04 #@! TF.GenerationSoftware,KiCad,Pcbnew,(6.0.6-0)*
G04 #@! TF.CreationDate,2022-11-15T04:41:17+09:00*
G04 #@! TF.ProjectId,MahJamma,4d61684a-616d-46d6-912e-6b696361645f,rev?*
G04 #@! TF.SameCoordinates,Original*
G04 #@! TF.FileFunction,Soldermask,Top*
G04 #@! TF.FilePolarity,Negative*
%FSLAX46Y46*%
G04 Gerber Fmt 4.6, Leading zero omitted, Abs format (unit mm)*
G04 Created by KiCad (PCBNEW (6.0.6-0)) date 2022-11-15 04:41:17*
%MOMM*%
%LPD*%
G01*
G04 APERTURE LIST*
G04 Aperture macros list*
%AMRoundRect*
0 Rectangle with rounded corners*
0 $1 Rounding radius*
0 $2 $3 $4 $5 $6 $7 $8 $9 X,Y pos of 4 corners*
0 Add a 4 corners polygon primitive as box body*
4,1,4,$2,$3,$4,$5,$6,$7,$8,$9,$2,$3,0*
0 Add four circle primitives for the rounded corners*
1,1,$1+$1,$2,$3*
1,1,$1+$1,$4,$5*
1,1,$1+$1,$6,$7*
1,1,$1+$1,$8,$9*
0 Add four rect primitives between the rounded corners*
20,1,$1+$1,$2,$3,$4,$5,0*
20,1,$1+$1,$4,$5,$6,$7,0*
20,1,$1+$1,$6,$7,$8,$9,0*
20,1,$1+$1,$8,$9,$2,$3,0*%
G04 Aperture macros list end*
%ADD10R,1.980000X9.900000*%
%ADD11R,1.700000X1.700000*%
%ADD12O,1.700000X1.700000*%
%ADD13R,0.550000X1.500000*%
%ADD14R,1.500000X0.550000*%
%ADD15RoundRect,0.237500X-0.300000X-0.237500X0.300000X-0.237500X0.300000X0.237500X-0.300000X0.237500X0*%
%ADD16RoundRect,0.237500X0.287500X0.237500X-0.287500X0.237500X-0.287500X-0.237500X0.287500X-0.237500X0*%
%ADD17RoundRect,0.237500X-0.237500X0.300000X-0.237500X-0.300000X0.237500X-0.300000X0.237500X0.300000X0*%
%ADD18C,1.900000*%
%ADD19C,3.300000*%
%ADD20RoundRect,0.237500X0.237500X-0.300000X0.237500X0.300000X-0.237500X0.300000X-0.237500X-0.300000X0*%
%ADD21RoundRect,0.237500X-0.250000X-0.237500X0.250000X-0.237500X0.250000X0.237500X-0.250000X0.237500X0*%
%ADD22RoundRect,0.075000X-0.662500X-0.075000X0.662500X-0.075000X0.662500X0.075000X-0.662500X0.075000X0*%
%ADD23RoundRect,0.075000X-0.075000X-0.662500X0.075000X-0.662500X0.075000X0.662500X-0.075000X0.662500X0*%
G04 APERTURE END LIST*
D10*
X101480000Y-51435000D03*
X105440000Y-51435000D03*
X109400000Y-51435000D03*
X113360000Y-51435000D03*
X117320000Y-51435000D03*
X121280000Y-51435000D03*
X125240000Y-51435000D03*
X129200000Y-51435000D03*
X133160000Y-51435000D03*
X137120000Y-51435000D03*
X141080000Y-51435000D03*
X145040000Y-51435000D03*
X149000000Y-51435000D03*
X152960000Y-51435000D03*
X156920000Y-51435000D03*
X160880000Y-51435000D03*
X164840000Y-51435000D03*
X168800000Y-51435000D03*
X172760000Y-51435000D03*
X176720000Y-51435000D03*
X180680000Y-51435000D03*
X184640000Y-51435000D03*
X188600000Y-51435000D03*
X192560000Y-51435000D03*
X196520000Y-51435000D03*
X200480000Y-51435000D03*
X204440000Y-51435000D03*
X208400000Y-51435000D03*
D11*
X185415000Y-73655000D03*
D12*
X185415000Y-76195000D03*
X182875000Y-73655000D03*
X182875000Y-76195000D03*
X180335000Y-73655000D03*
X180335000Y-76195000D03*
X177795000Y-73655000D03*
X177795000Y-76195000D03*
X175255000Y-73655000D03*
X175255000Y-76195000D03*
D13*
X133795000Y-74915000D03*
X134595000Y-74915000D03*
X135395000Y-74915000D03*
X136195000Y-74915000D03*
X136995000Y-74915000D03*
X137795000Y-74915000D03*
X138595000Y-74915000D03*
X139395000Y-74915000D03*
X140195000Y-74915000D03*
X140995000Y-74915000D03*
X141795000Y-74915000D03*
D14*
X143495000Y-73215000D03*
X143495000Y-72415000D03*
X143495000Y-71615000D03*
X143495000Y-70815000D03*
X143495000Y-70015000D03*
X143495000Y-69215000D03*
X143495000Y-68415000D03*
X143495000Y-67615000D03*
X143495000Y-66815000D03*
X143495000Y-66015000D03*
X143495000Y-65215000D03*
D13*
X141795000Y-63515000D03*
X140995000Y-63515000D03*
X140195000Y-63515000D03*
X139395000Y-63515000D03*
X138595000Y-63515000D03*
X137795000Y-63515000D03*
X136995000Y-63515000D03*
X136195000Y-63515000D03*
X135395000Y-63515000D03*
X134595000Y-63515000D03*
X133795000Y-63515000D03*
D14*
X132095000Y-65215000D03*
X132095000Y-66015000D03*
X132095000Y-66815000D03*
X132095000Y-67615000D03*
X132095000Y-68415000D03*
X132095000Y-69215000D03*
X132095000Y-70015000D03*
X132095000Y-70815000D03*
X132095000Y-71615000D03*
X132095000Y-72415000D03*
X132095000Y-73215000D03*
D15*
X137059500Y-61595000D03*
X138784500Y-61595000D03*
D11*
X105410000Y-77470000D03*
D12*
X105410000Y-80010000D03*
D11*
X109220000Y-77470000D03*
D12*
X109220000Y-80010000D03*
D15*
X140234500Y-76454000D03*
X141959500Y-76454000D03*
D16*
X118072500Y-77470000D03*
X116322500Y-77470000D03*
D17*
X145669000Y-68733500D03*
X145669000Y-70458500D03*
D18*
X108120000Y-63810000D03*
X108120000Y-66310000D03*
X108120000Y-68310000D03*
X108120000Y-70810000D03*
D19*
X105410000Y-60740000D03*
X105410000Y-73880000D03*
D20*
X130556000Y-70712500D03*
X130556000Y-68987500D03*
D21*
X112475000Y-77470000D03*
X114300000Y-77470000D03*
D20*
X117983000Y-63727500D03*
X117983000Y-62002500D03*
X116713000Y-63727500D03*
X116713000Y-62002500D03*
D22*
X112677500Y-67100000D03*
X112677500Y-67600000D03*
X112677500Y-68100000D03*
X112677500Y-68600000D03*
X112677500Y-69100000D03*
X112677500Y-69600000D03*
X112677500Y-70100000D03*
X112677500Y-70600000D03*
X112677500Y-71100000D03*
X112677500Y-71600000D03*
X112677500Y-72100000D03*
X112677500Y-72600000D03*
D23*
X114090000Y-74012500D03*
X114590000Y-74012500D03*
X115090000Y-74012500D03*
X115590000Y-74012500D03*
X116090000Y-74012500D03*
X116590000Y-74012500D03*
X117090000Y-74012500D03*
X117590000Y-74012500D03*
X118090000Y-74012500D03*
X118590000Y-74012500D03*
X119090000Y-74012500D03*
X119590000Y-74012500D03*
D22*
X121002500Y-72600000D03*
X121002500Y-72100000D03*
X121002500Y-71600000D03*
X121002500Y-71100000D03*
X121002500Y-70600000D03*
X121002500Y-70100000D03*
X121002500Y-69600000D03*
X121002500Y-69100000D03*
X121002500Y-68600000D03*
X121002500Y-68100000D03*
X121002500Y-67600000D03*
X121002500Y-67100000D03*
D23*
X119590000Y-65687500D03*
X119090000Y-65687500D03*
X118590000Y-65687500D03*
X118090000Y-65687500D03*
X117590000Y-65687500D03*
X117090000Y-65687500D03*
X116590000Y-65687500D03*
X116090000Y-65687500D03*
X115590000Y-65687500D03*
X115090000Y-65687500D03*
X114590000Y-65687500D03*
X114090000Y-65687500D03*
D10*
X208400000Y-86360000D03*
X204440000Y-86360000D03*
X200480000Y-86360000D03*
X196520000Y-86360000D03*
X192560000Y-86360000D03*
X188600000Y-86360000D03*
X184640000Y-86360000D03*
X180680000Y-86360000D03*
X176720000Y-86360000D03*
X172760000Y-86360000D03*
X168800000Y-86360000D03*
X164840000Y-86360000D03*
X160880000Y-86360000D03*
X156920000Y-86360000D03*
X152960000Y-86360000D03*
X149000000Y-86360000D03*
X145040000Y-86360000D03*
X141080000Y-86360000D03*
X137120000Y-86360000D03*
X133160000Y-86360000D03*
X129200000Y-86360000D03*
X125240000Y-86360000D03*
X121280000Y-86360000D03*
X117320000Y-86360000D03*
X113360000Y-86360000D03*
X109400000Y-86360000D03*
X105440000Y-86360000D03*
X101480000Y-86360000D03*
M02*
