G04 #@! TF.GenerationSoftware,KiCad,Pcbnew,(6.0.6-0)*
G04 #@! TF.CreationDate,2022-10-11T13:41:26+09:00*
G04 #@! TF.ProjectId,MahJamma,4d61684a-616d-46d6-912e-6b696361645f,rev?*
G04 #@! TF.SameCoordinates,Original*
G04 #@! TF.FileFunction,Copper,L2,Bot*
G04 #@! TF.FilePolarity,Positive*
%FSLAX46Y46*%
G04 Gerber Fmt 4.6, Leading zero omitted, Abs format (unit mm)*
G04 Created by KiCad (PCBNEW (6.0.6-0)) date 2022-10-11 13:41:26*
%MOMM*%
%LPD*%
G01*
G04 APERTURE LIST*
G04 #@! TA.AperFunction,SMDPad,CuDef*
%ADD10R,1.980000X9.900000*%
G04 #@! TD*
G04 #@! TA.AperFunction,ComponentPad*
%ADD11R,1.700000X1.700000*%
G04 #@! TD*
G04 #@! TA.AperFunction,ComponentPad*
%ADD12O,1.700000X1.700000*%
G04 #@! TD*
G04 #@! TA.AperFunction,ComponentPad*
%ADD13C,1.900000*%
G04 #@! TD*
G04 #@! TA.AperFunction,ComponentPad*
%ADD14C,3.300000*%
G04 #@! TD*
G04 #@! TA.AperFunction,ViaPad*
%ADD15C,0.400000*%
G04 #@! TD*
G04 #@! TA.AperFunction,ViaPad*
%ADD16C,0.500000*%
G04 #@! TD*
G04 #@! TA.AperFunction,Conductor*
%ADD17C,0.250000*%
G04 #@! TD*
G04 #@! TA.AperFunction,Conductor*
%ADD18C,1.500000*%
G04 #@! TD*
G04 #@! TA.AperFunction,Conductor*
%ADD19C,1.000000*%
G04 #@! TD*
G04 #@! TA.AperFunction,Conductor*
%ADD20C,0.400000*%
G04 #@! TD*
G04 #@! TA.AperFunction,Conductor*
%ADD21C,0.500000*%
G04 #@! TD*
G04 APERTURE END LIST*
D10*
X101480000Y-51435000D03*
X105440000Y-51435000D03*
X109400000Y-51435000D03*
X113360000Y-51435000D03*
X117320000Y-51435000D03*
X121280000Y-51435000D03*
X125240000Y-51435000D03*
X129200000Y-51435000D03*
X133160000Y-51435000D03*
X137120000Y-51435000D03*
X141080000Y-51435000D03*
X145040000Y-51435000D03*
X149000000Y-51435000D03*
X152960000Y-51435000D03*
X156920000Y-51435000D03*
X160880000Y-51435000D03*
X164840000Y-51435000D03*
X168800000Y-51435000D03*
X172760000Y-51435000D03*
X176720000Y-51435000D03*
X180680000Y-51435000D03*
X184640000Y-51435000D03*
X188600000Y-51435000D03*
X192560000Y-51435000D03*
X196520000Y-51435000D03*
X200480000Y-51435000D03*
X204440000Y-51435000D03*
X208400000Y-51435000D03*
D11*
X185415000Y-73655000D03*
D12*
X185415000Y-76195000D03*
X182875000Y-73655000D03*
X182875000Y-76195000D03*
X180335000Y-73655000D03*
X180335000Y-76195000D03*
X177795000Y-73655000D03*
X177795000Y-76195000D03*
X175255000Y-73655000D03*
X175255000Y-76195000D03*
D11*
X125095000Y-73655000D03*
D12*
X125095000Y-76195000D03*
D11*
X128905000Y-73655000D03*
D12*
X128905000Y-76195000D03*
D13*
X108120000Y-63810000D03*
X108120000Y-66310000D03*
X108120000Y-68310000D03*
X108120000Y-70810000D03*
D14*
X105410000Y-60740000D03*
X105410000Y-73880000D03*
D10*
X208400000Y-86360000D03*
X204440000Y-86360000D03*
X200480000Y-86360000D03*
X196520000Y-86360000D03*
X192560000Y-86360000D03*
X188600000Y-86360000D03*
X184640000Y-86360000D03*
X180680000Y-86360000D03*
X176720000Y-86360000D03*
X172760000Y-86360000D03*
X168800000Y-86360000D03*
X164840000Y-86360000D03*
X160880000Y-86360000D03*
X156920000Y-86360000D03*
X152960000Y-86360000D03*
X149000000Y-86360000D03*
X145040000Y-86360000D03*
X141080000Y-86360000D03*
X137120000Y-86360000D03*
X133160000Y-86360000D03*
X129200000Y-86360000D03*
X125240000Y-86360000D03*
X121280000Y-86360000D03*
X117320000Y-86360000D03*
X113360000Y-86360000D03*
X109400000Y-86360000D03*
X105440000Y-86360000D03*
X101480000Y-86360000D03*
D15*
X160020000Y-73660000D03*
X160020000Y-75565000D03*
X102235000Y-57785000D03*
X183515000Y-69215000D03*
X180975000Y-69215000D03*
X177165000Y-69215000D03*
X175229500Y-60355500D03*
X151865000Y-67410000D03*
X149200000Y-73685000D03*
D16*
X153925000Y-74282500D03*
D15*
X176720000Y-53785000D03*
X204440000Y-79405000D03*
X172760000Y-53935000D03*
X208400000Y-81160000D03*
X174625000Y-51435000D03*
X208400000Y-79255000D03*
X208400000Y-55760000D03*
X117320000Y-56035000D03*
X204440000Y-55910000D03*
D16*
X151977900Y-61385200D03*
X116486800Y-75196900D03*
D15*
X204440000Y-81310000D03*
X176868000Y-55542500D03*
X204440000Y-54005000D03*
X101480000Y-80130000D03*
X101480000Y-76955000D03*
D16*
X161396800Y-69376100D03*
D15*
X172760000Y-55285000D03*
X208400000Y-53855000D03*
X141691500Y-58610700D03*
X171732900Y-80550000D03*
X139613600Y-56457500D03*
X172900400Y-59365000D03*
X173923300Y-59202300D03*
X138149400Y-57696500D03*
X165253200Y-80096200D03*
X150002400Y-80882400D03*
X173904300Y-58349200D03*
X112363003Y-69160400D03*
X116059600Y-59141900D03*
X155435600Y-81372100D03*
X117835800Y-75211900D03*
X116729800Y-77861000D03*
X115482600Y-58787500D03*
X112540800Y-76496600D03*
X120105200Y-57011700D03*
X121238000Y-68620300D03*
D16*
X117981800Y-69421700D03*
X150301900Y-65594900D03*
X152400000Y-69215000D03*
X138665300Y-70003400D03*
X147956900Y-70257100D03*
X152555500Y-73500286D03*
D15*
X118213100Y-74528800D03*
X184640000Y-55315000D03*
X198755000Y-51435000D03*
X200480000Y-55425000D03*
X182880000Y-51435000D03*
X119380000Y-63955000D03*
X196520000Y-79705000D03*
X200480000Y-53520000D03*
X196520000Y-81610000D03*
X180680000Y-54950000D03*
X196520000Y-55575000D03*
X200480000Y-79555000D03*
X121692000Y-63955000D03*
X200480000Y-81460000D03*
X120422000Y-63955000D03*
X184640000Y-53485000D03*
X180680000Y-53635000D03*
X196520000Y-53670000D03*
X163095000Y-70066900D03*
X150220100Y-70776500D03*
X159677300Y-66760300D03*
X156351100Y-70204700D03*
X155608100Y-62657500D03*
X136927200Y-63076900D03*
X170981400Y-62296100D03*
X147378000Y-64230300D03*
X188600000Y-53335000D03*
X188600000Y-81275000D03*
X188600000Y-55240000D03*
X188595000Y-82550000D03*
X192560000Y-81760000D03*
X162356600Y-81537500D03*
X160635100Y-63019500D03*
X158093800Y-56897400D03*
X167938200Y-63157300D03*
X171467600Y-59394000D03*
X165942100Y-79487500D03*
X120140900Y-72366400D03*
X115402100Y-70583600D03*
X154954500Y-72925786D03*
X163460800Y-64277200D03*
X151555700Y-65559900D03*
X162315600Y-64398500D03*
X160548500Y-65479800D03*
X158312400Y-63544800D03*
X157571700Y-63517200D03*
X156906000Y-67273000D03*
X156908200Y-68830300D03*
X148671900Y-67502000D03*
X106979600Y-55002500D03*
X114537300Y-58897500D03*
X149859200Y-71509100D03*
X110855400Y-74836900D03*
X159268600Y-74200400D03*
X153703000Y-80310300D03*
X157602134Y-78724622D03*
X122854200Y-74402600D03*
X147582100Y-74639000D03*
X122837600Y-72273700D03*
X145506800Y-74236300D03*
X120140900Y-73048200D03*
X130780100Y-72743200D03*
X125702500Y-68270300D03*
X129652100Y-66600200D03*
X117128300Y-66305100D03*
X124755300Y-65071500D03*
X147882600Y-67485600D03*
X115941100Y-61399600D03*
X125663100Y-62774800D03*
X141241800Y-62308700D03*
X145162900Y-67633700D03*
X118757000Y-69441700D03*
X149716900Y-67947100D03*
X124953200Y-68096500D03*
X114444300Y-62488500D03*
X124494800Y-62989100D03*
X151825800Y-62314000D03*
X145709300Y-62310800D03*
X154507400Y-62337400D03*
X115131100Y-66677300D03*
X146521700Y-62688400D03*
X119618000Y-65742500D03*
X115136600Y-69390100D03*
X151630400Y-69080800D03*
D17*
X160020000Y-75565000D02*
X160020000Y-73660000D01*
X159268600Y-74200400D02*
X157602134Y-75866866D01*
X157602134Y-75866866D02*
X157602134Y-78724622D01*
X112363003Y-69739103D02*
X112363003Y-69160400D01*
X117835800Y-75211900D02*
X112363003Y-69739103D01*
X102235000Y-57785000D02*
X101480000Y-57030000D01*
X101480000Y-57030000D02*
X101480000Y-51435000D01*
D18*
X182245000Y-64770000D02*
X187325000Y-64770000D01*
X187325000Y-64770000D02*
X198755000Y-64770000D01*
D19*
X185415000Y-76195000D02*
X186617081Y-76195000D01*
X186617081Y-76195000D02*
X187325000Y-75487081D01*
X187325000Y-75487081D02*
X187325000Y-64770000D01*
X175255000Y-76195000D02*
X177165000Y-78105000D01*
X183505000Y-78105000D02*
X185415000Y-76195000D01*
X177165000Y-78105000D02*
X183505000Y-78105000D01*
D20*
X182875000Y-76195000D02*
X184150000Y-74920000D01*
X184150000Y-74920000D02*
X184150000Y-69215000D01*
D19*
X183515000Y-69215000D02*
X184150000Y-69215000D01*
X180975000Y-69215000D02*
X183515000Y-69215000D01*
X177165000Y-69215000D02*
X180975000Y-69215000D01*
X177165000Y-62291000D02*
X177165000Y-69215000D01*
X175229500Y-60355500D02*
X177165000Y-62291000D01*
X153255000Y-76195000D02*
X160445000Y-69005000D01*
X160445000Y-69005000D02*
X172760000Y-56690000D01*
D20*
X161396800Y-69376100D02*
X161025700Y-69005000D01*
X161025700Y-69005000D02*
X160445000Y-69005000D01*
D17*
X155233914Y-72925786D02*
X154954500Y-72925786D01*
X152400000Y-73344786D02*
X152555500Y-73500286D01*
X152400000Y-68757468D02*
X152400000Y-69215000D01*
X163460800Y-64277200D02*
X163460800Y-64698900D01*
X163460800Y-64698900D02*
X155233914Y-72925786D01*
X152400000Y-69215000D02*
X152400000Y-73344786D01*
X150301900Y-68336300D02*
X151978832Y-68336300D01*
X151978832Y-68336300D02*
X152400000Y-68757468D01*
D21*
X151865000Y-67410000D02*
X153255000Y-68800000D01*
X153255000Y-68800000D02*
X153255000Y-76195000D01*
D17*
X156139300Y-70822800D02*
X156649200Y-70822800D01*
X151555700Y-66239200D02*
X156139300Y-70822800D01*
X156649200Y-70822800D02*
X162315600Y-65156400D01*
X162315600Y-65156400D02*
X162315600Y-64398500D01*
X151555700Y-65559900D02*
X151555700Y-66239200D01*
D19*
X128905000Y-76195000D02*
X149230000Y-76195000D01*
D21*
X149200000Y-73685000D02*
X149200000Y-76165000D01*
X149200000Y-76165000D02*
X149230000Y-76195000D01*
D19*
X149230000Y-76195000D02*
X153255000Y-76195000D01*
D18*
X183555000Y-62230000D02*
X197525000Y-62230000D01*
X204440000Y-59085000D02*
X208400000Y-55125000D01*
X172760000Y-55285000D02*
X182245000Y-64770000D01*
X101480000Y-61080000D02*
X101480000Y-73780000D01*
X172760000Y-53935000D02*
X172760000Y-51435000D01*
X204440000Y-55910000D02*
X204440000Y-55315000D01*
X198755000Y-64770000D02*
X204440000Y-59085000D01*
X204440000Y-55315000D02*
X204440000Y-55260000D01*
D19*
X108895000Y-70810000D02*
X114280000Y-76195000D01*
D18*
X104450000Y-70810000D02*
X101480000Y-73780000D01*
X172760000Y-51435000D02*
X172760000Y-53935000D01*
X101480000Y-61080000D02*
X101480000Y-73780000D01*
X176868000Y-55542500D02*
X183555000Y-62230000D01*
X204440000Y-55260000D02*
X204440000Y-54005000D01*
X208400000Y-81160000D02*
X208400000Y-83820000D01*
D19*
X125095000Y-76195000D02*
X128905000Y-76195000D01*
D18*
X208400000Y-55125000D02*
X208400000Y-51435000D01*
X197525000Y-62230000D02*
X204440000Y-55315000D01*
X208400000Y-51435000D02*
X208400000Y-55125000D01*
X101480000Y-79890000D02*
X101480000Y-80130000D01*
X176720000Y-53785000D02*
X176720000Y-55395000D01*
X101480000Y-76955000D02*
X101480000Y-74908000D01*
X204440000Y-54005000D02*
X204440000Y-53347500D01*
X204440000Y-81310000D02*
X204440000Y-79405000D01*
X101480000Y-80130000D02*
X101480000Y-79890000D01*
X204440000Y-79405000D02*
X204440000Y-59085000D01*
D19*
X172760000Y-56690000D02*
X172760000Y-55285000D01*
D18*
X101480000Y-79890000D02*
X101480000Y-76955000D01*
X117320000Y-55395000D02*
X115380000Y-57334500D01*
X204440000Y-55315000D02*
X204440000Y-55260000D01*
X101480000Y-74908000D02*
X101480000Y-76955000D01*
X101480000Y-73780000D02*
X101480000Y-74908000D01*
X115380000Y-57334500D02*
X105139000Y-57334500D01*
X105139000Y-57334500D02*
X101480000Y-60993000D01*
X101480000Y-60993000D02*
X101480000Y-61080000D01*
X204440000Y-53347500D02*
X204440000Y-51435000D01*
X204440000Y-51435000D02*
X208400000Y-51435000D01*
X117320000Y-51435000D02*
X117320000Y-55395000D01*
X204440000Y-53347500D02*
X204440000Y-51435000D01*
X204440000Y-83820000D02*
X204440000Y-81310000D01*
X156920000Y-79860000D02*
X156920000Y-83820000D01*
X176720000Y-51435000D02*
X176720000Y-53785000D01*
X174625000Y-51435000D02*
X172760000Y-51435000D01*
X208400000Y-79255000D02*
X208400000Y-81160000D01*
X101480000Y-76955000D02*
X101480000Y-79890000D01*
X176720000Y-51435000D02*
X174625000Y-51435000D01*
X208400000Y-55125000D02*
X208400000Y-79255000D01*
D19*
X114280000Y-76195000D02*
X125095000Y-76195000D01*
D18*
X101480000Y-73780000D02*
X101480000Y-74908000D01*
X101480000Y-76955000D02*
X101480000Y-79890000D01*
X208400000Y-83820000D02*
X204440000Y-83820000D01*
X101480000Y-73780000D02*
X101480000Y-74908000D01*
X172760000Y-55285000D02*
X172760000Y-53935000D01*
X172760000Y-53935000D02*
X172760000Y-55285000D01*
X101480000Y-74908000D02*
X101480000Y-76955000D01*
X204440000Y-59085000D02*
X204440000Y-55910000D01*
D19*
X153255000Y-76195000D02*
X156920000Y-79860000D01*
D18*
X204440000Y-54005000D02*
X204440000Y-53347500D01*
X108120000Y-70810000D02*
X104450000Y-70810000D01*
X176720000Y-55395000D02*
X176868000Y-55542500D01*
X204440000Y-55260000D02*
X204440000Y-54005000D01*
D21*
X171732900Y-80550000D02*
X172900400Y-79382500D01*
X139613600Y-56661000D02*
X139613600Y-56457500D01*
X172900400Y-79382500D02*
X172900400Y-59365000D01*
X141691500Y-58610700D02*
X141563300Y-58610700D01*
X141563300Y-58610700D02*
X139613600Y-56661000D01*
X172760000Y-86360000D02*
X172760000Y-80959700D01*
X172760000Y-80959700D02*
X173923300Y-79796400D01*
X173923300Y-79796400D02*
X173923300Y-59202300D01*
X137288200Y-56835300D02*
X138149400Y-57696500D01*
X137120000Y-51435000D02*
X137120000Y-56835300D01*
X137120000Y-56835300D02*
X137288200Y-56835300D01*
D17*
X149000000Y-81084700D02*
X149800100Y-81084700D01*
X172290900Y-59135400D02*
X173077100Y-58349200D01*
X149800100Y-81084700D02*
X150002400Y-80882400D01*
X166226000Y-80096200D02*
X172290900Y-74031300D01*
X149000000Y-86360000D02*
X149000000Y-81084700D01*
X165253200Y-80096200D02*
X166226000Y-80096200D01*
X173077100Y-58349200D02*
X173904300Y-58349200D01*
X172290900Y-74031300D02*
X172290900Y-59135400D01*
X155435600Y-81299900D02*
X151996700Y-77861000D01*
X121280000Y-51435000D02*
X121280000Y-56710300D01*
X118848400Y-59141900D02*
X121280000Y-56710300D01*
X155435600Y-81372100D02*
X155435600Y-81299900D01*
X116059600Y-59141900D02*
X118848400Y-59141900D01*
X151996700Y-77861000D02*
X116729800Y-77861000D01*
X152960000Y-81084700D02*
X152105100Y-80229800D01*
X117258400Y-57011700D02*
X120105200Y-57011700D01*
X115482600Y-58787500D02*
X117258400Y-57011700D01*
X152105100Y-80229800D02*
X116274000Y-80229800D01*
X152960000Y-86360000D02*
X152960000Y-81084700D01*
X116274000Y-80229800D02*
X112540800Y-76496600D01*
X128905000Y-73655000D02*
X127729700Y-73655000D01*
X121238000Y-68620300D02*
X122695000Y-68620300D01*
X122695000Y-68620300D02*
X127729700Y-73655000D01*
X117981800Y-69421700D02*
X121339500Y-66064000D01*
X121339500Y-66064000D02*
X134725900Y-66064000D01*
X147956900Y-70257100D02*
X148381100Y-70257100D01*
X148381100Y-70257100D02*
X150301900Y-68336300D01*
X134725900Y-66064000D02*
X138665300Y-70003400D01*
X150301900Y-68336300D02*
X150301900Y-65594900D01*
X119086900Y-73655000D02*
X123919700Y-73655000D01*
X125095000Y-73655000D02*
X123919700Y-73655000D01*
X118213100Y-74528800D02*
X119086900Y-73655000D01*
D18*
X108120000Y-63810000D02*
X119235000Y-63810000D01*
X185420000Y-59690000D02*
X180680000Y-54950000D01*
X182880000Y-51435000D02*
X184640000Y-51435000D01*
X184640000Y-53485000D02*
X184640000Y-51435000D01*
X180680000Y-51435000D02*
X182880000Y-51435000D01*
X120422000Y-63955000D02*
X119380000Y-63955000D01*
X194580000Y-57335000D02*
X186660000Y-57335000D01*
X119235000Y-63810000D02*
X119380000Y-63955000D01*
D17*
X200480000Y-83820000D02*
X200480000Y-86360000D01*
D18*
X180680000Y-53635000D02*
X180680000Y-51435000D01*
X200480000Y-83820000D02*
X200480000Y-81460000D01*
X196520000Y-51435000D02*
X196520000Y-55395000D01*
X121692000Y-63955000D02*
X120422000Y-63955000D01*
X196520000Y-83820000D02*
X196520000Y-81610000D01*
X186660000Y-57335000D02*
X184640000Y-55315000D01*
X184640000Y-55315000D02*
X184640000Y-53485000D01*
X200480000Y-51435000D02*
X200480000Y-54790000D01*
X200480000Y-51435000D02*
X198755000Y-51435000D01*
X198755000Y-51435000D02*
X196520000Y-51435000D01*
X196520000Y-55395000D02*
X194580000Y-57335000D01*
X180680000Y-54950000D02*
X180680000Y-53635000D01*
D17*
X196520000Y-83820000D02*
X196520000Y-86360000D01*
D18*
X200480000Y-54790000D02*
X195580000Y-59690000D01*
X195580000Y-59690000D02*
X185420000Y-59690000D01*
D21*
X159677300Y-66981000D02*
X159677300Y-66760300D01*
X156453600Y-70204700D02*
X159677300Y-66981000D01*
X147302900Y-70978200D02*
X133160000Y-56835300D01*
X149672100Y-70776500D02*
X149470400Y-70978200D01*
X156351100Y-70204700D02*
X156453600Y-70204700D01*
X160880000Y-80959700D02*
X163095000Y-78744700D01*
X149470400Y-70978200D02*
X147302900Y-70978200D01*
X133160000Y-51435000D02*
X133160000Y-56835300D01*
X163095000Y-78744700D02*
X163095000Y-70066900D01*
X150220100Y-70776500D02*
X149672100Y-70776500D01*
X160880000Y-86360000D02*
X160880000Y-80959700D01*
X154035300Y-64230300D02*
X147378000Y-64230300D01*
X129200000Y-51435000D02*
X129200000Y-56835300D01*
X130685600Y-56835300D02*
X136927200Y-63076900D01*
X164602900Y-68674600D02*
X164602900Y-80722600D01*
X155608100Y-62657500D02*
X154035300Y-64230300D01*
X129200000Y-56835300D02*
X130685600Y-56835300D01*
X164602900Y-80722600D02*
X164840000Y-80959700D01*
X164840000Y-86360000D02*
X164840000Y-80959700D01*
X170981400Y-62296100D02*
X164602900Y-68674600D01*
D18*
X188600000Y-53335000D02*
X188600000Y-51435000D01*
D17*
X188600000Y-83820000D02*
X188600000Y-86360000D01*
D18*
X188600000Y-83820000D02*
X188600000Y-81275000D01*
D17*
X192560000Y-81760000D02*
X192560000Y-86360000D01*
D21*
X160635100Y-63019500D02*
X160635100Y-59438700D01*
X160635100Y-59438700D02*
X158093800Y-56897400D01*
X163902500Y-67193000D02*
X167938200Y-63157300D01*
X163902500Y-79991600D02*
X163902500Y-67193000D01*
X162356600Y-81537500D02*
X163902500Y-79991600D01*
X171681700Y-59608100D02*
X171467600Y-59394000D01*
X171681700Y-73747900D02*
X171681700Y-59608100D01*
X165942100Y-79487500D02*
X171681700Y-73747900D01*
D17*
X120140900Y-72366400D02*
X116399400Y-72366400D01*
X112343000Y-68310000D02*
X108120000Y-68310000D01*
X116399400Y-72366400D02*
X112343000Y-68310000D01*
X115402100Y-70583600D02*
X111128500Y-66310000D01*
X111128500Y-66310000D02*
X108120000Y-66310000D01*
X160548500Y-65479800D02*
X161210400Y-64817900D01*
X161210400Y-57040700D02*
X160880000Y-56710300D01*
X161210400Y-64817900D02*
X161210400Y-57040700D01*
X160880000Y-51435000D02*
X160880000Y-56710300D01*
X156920000Y-51435000D02*
X156920000Y-56710300D01*
X158312400Y-63544800D02*
X158312400Y-58102700D01*
X158312400Y-58102700D02*
X156920000Y-56710300D01*
X157571700Y-61322000D02*
X152960000Y-56710300D01*
X157571700Y-63517200D02*
X157571700Y-61322000D01*
X152960000Y-51435000D02*
X152960000Y-56710300D01*
X150501500Y-56710300D02*
X149000000Y-56710300D01*
X149000000Y-51435000D02*
X149000000Y-56710300D01*
X156906000Y-63114800D02*
X150501500Y-56710300D01*
X156906000Y-67273000D02*
X156906000Y-63114800D01*
X147264900Y-64957500D02*
X145040000Y-62732600D01*
X156908200Y-68830300D02*
X153035400Y-64957500D01*
X145040000Y-62732600D02*
X145040000Y-51435000D01*
X153035400Y-64957500D02*
X147264900Y-64957500D01*
X141080000Y-51435000D02*
X141080000Y-56710300D01*
X141080000Y-56710300D02*
X142395300Y-58025600D01*
X142395300Y-58025600D02*
X142395300Y-61225400D01*
X142395300Y-61225400D02*
X148671900Y-67502000D01*
X105440000Y-53462900D02*
X105440000Y-51435000D01*
X149791900Y-71576400D02*
X149859200Y-71509100D01*
X106979600Y-55002500D02*
X105440000Y-53462900D01*
X115409100Y-59769300D02*
X132805900Y-59769300D01*
X114537300Y-58897500D02*
X115409100Y-59769300D01*
X144613000Y-71576400D02*
X149791900Y-71576400D01*
X132805900Y-59769300D02*
X144613000Y-71576400D01*
X115462300Y-78606000D02*
X111693200Y-74836900D01*
X111693200Y-74836900D02*
X110855400Y-74836900D01*
X153703000Y-80310300D02*
X151998700Y-78606000D01*
X151998700Y-78606000D02*
X115462300Y-78606000D01*
X123284300Y-74832700D02*
X147388400Y-74832700D01*
X147388400Y-74832700D02*
X147582100Y-74639000D01*
X122854200Y-74402600D02*
X123284300Y-74832700D01*
X132273200Y-74236300D02*
X145506800Y-74236300D01*
X130780100Y-72743200D02*
X132273200Y-74236300D01*
X122063100Y-73048200D02*
X122837600Y-72273700D01*
X120140900Y-73048200D02*
X122063100Y-73048200D01*
X125702500Y-68270300D02*
X127372600Y-66600200D01*
X127372600Y-66600200D02*
X129652100Y-66600200D01*
X117128300Y-66305100D02*
X118361900Y-65071500D01*
X118361900Y-65071500D02*
X124755300Y-65071500D01*
X146418700Y-67485600D02*
X147882600Y-67485600D01*
X141241800Y-62308700D02*
X146418700Y-67485600D01*
X124287900Y-61399600D02*
X125663100Y-62774800D01*
X115941100Y-61399600D02*
X124287900Y-61399600D01*
X145557000Y-68027800D02*
X149636200Y-68027800D01*
X124480900Y-67624200D02*
X124953200Y-68096500D01*
X149636200Y-68027800D02*
X149716900Y-67947100D01*
X120574500Y-67624200D02*
X124480900Y-67624200D01*
X145162900Y-67633700D02*
X145557000Y-68027800D01*
X118757000Y-69441700D02*
X120574500Y-67624200D01*
X151647500Y-62135700D02*
X151825800Y-62314000D01*
X145884400Y-62135700D02*
X151647500Y-62135700D01*
X114444300Y-62488500D02*
X123994200Y-62488500D01*
X145709300Y-62310800D02*
X145884400Y-62135700D01*
X123994200Y-62488500D02*
X124494800Y-62989100D01*
X146521700Y-62688400D02*
X146672600Y-62839300D01*
X118490200Y-66870300D02*
X119618000Y-65742500D01*
X146672600Y-62839300D02*
X154005500Y-62839300D01*
X115131100Y-66677300D02*
X115324100Y-66870300D01*
X154005500Y-62839300D02*
X154507400Y-62337400D01*
X115324100Y-66870300D02*
X118490200Y-66870300D01*
X150085900Y-72034500D02*
X151630400Y-70490000D01*
X120900800Y-68074600D02*
X123440700Y-68074600D01*
X123440700Y-68074600D02*
X127400600Y-72034500D01*
X118966300Y-70009100D02*
X120900800Y-68074600D01*
X151630400Y-70490000D02*
X151630400Y-69080800D01*
X127400600Y-72034500D02*
X150085900Y-72034500D01*
X115755600Y-70009100D02*
X118966300Y-70009100D01*
X115136600Y-69390100D02*
X115755600Y-70009100D01*
G04 #@! TA.AperFunction,Conductor*
G36*
X187043621Y-50693502D02*
G01*
X187090114Y-50747158D01*
X187101500Y-50799500D01*
X187101500Y-56433134D01*
X187108255Y-56495316D01*
X187159385Y-56631705D01*
X187246739Y-56748261D01*
X187363295Y-56835615D01*
X187499684Y-56886745D01*
X187561866Y-56893500D01*
X189638134Y-56893500D01*
X189700316Y-56886745D01*
X189836705Y-56835615D01*
X189953261Y-56748261D01*
X190040615Y-56631705D01*
X190091745Y-56495316D01*
X190098500Y-56433134D01*
X190098500Y-50799500D01*
X190118502Y-50731379D01*
X190172158Y-50684886D01*
X190224500Y-50673500D01*
X190935500Y-50673500D01*
X191003621Y-50693502D01*
X191050114Y-50747158D01*
X191061500Y-50799500D01*
X191061500Y-56433134D01*
X191068255Y-56495316D01*
X191119385Y-56631705D01*
X191206739Y-56748261D01*
X191323295Y-56835615D01*
X191459684Y-56886745D01*
X191521866Y-56893500D01*
X193598134Y-56893500D01*
X193660316Y-56886745D01*
X193796705Y-56835615D01*
X193913261Y-56748261D01*
X194000615Y-56631705D01*
X194051745Y-56495316D01*
X194058500Y-56433134D01*
X194058500Y-50799500D01*
X194078502Y-50731379D01*
X194132158Y-50684886D01*
X194184500Y-50673500D01*
X194945000Y-50673500D01*
X194945000Y-60960000D01*
X184202190Y-60960000D01*
X184134069Y-60939998D01*
X184113095Y-60923095D01*
X179106905Y-55916905D01*
X179072879Y-55854593D01*
X179070000Y-55827810D01*
X179070000Y-50799500D01*
X179090002Y-50731379D01*
X179143658Y-50684886D01*
X179196000Y-50673500D01*
X186975500Y-50673500D01*
X187043621Y-50693502D01*
G37*
G04 #@! TD.AperFunction*
G04 #@! TA.AperFunction,Conductor*
G36*
X209618621Y-50693502D02*
G01*
X209665114Y-50747158D01*
X209676500Y-50799500D01*
X209676500Y-56506377D01*
X209676498Y-56507147D01*
X209676024Y-56584721D01*
X209678491Y-56593352D01*
X209684150Y-56613153D01*
X209687728Y-56629915D01*
X209691920Y-56659187D01*
X209695634Y-56667355D01*
X209695634Y-56667356D01*
X209702548Y-56682562D01*
X209708996Y-56700086D01*
X209716051Y-56724771D01*
X209720843Y-56732365D01*
X209720844Y-56732368D01*
X209731830Y-56749780D01*
X209739969Y-56764863D01*
X209752208Y-56791782D01*
X209758069Y-56798584D01*
X209768970Y-56811235D01*
X209780073Y-56826239D01*
X209793776Y-56847958D01*
X209800501Y-56853897D01*
X209800504Y-56853901D01*
X209815938Y-56867532D01*
X209827982Y-56879724D01*
X209841427Y-56895327D01*
X209841430Y-56895329D01*
X209847287Y-56902127D01*
X209854816Y-56907007D01*
X209854817Y-56907008D01*
X209868835Y-56916094D01*
X209883709Y-56927385D01*
X209896217Y-56938431D01*
X209902951Y-56944378D01*
X209929711Y-56956942D01*
X209944691Y-56965263D01*
X209961983Y-56976471D01*
X209961988Y-56976473D01*
X209969515Y-56981352D01*
X209978108Y-56983922D01*
X209978113Y-56983924D01*
X209994120Y-56988711D01*
X210011564Y-56995372D01*
X210026676Y-57002467D01*
X210026678Y-57002468D01*
X210034800Y-57006281D01*
X210043667Y-57007662D01*
X210043668Y-57007662D01*
X210053310Y-57009163D01*
X210064017Y-57010830D01*
X210080732Y-57014613D01*
X210100466Y-57020515D01*
X210100472Y-57020516D01*
X210109066Y-57023086D01*
X210118037Y-57023141D01*
X210118038Y-57023141D01*
X210128097Y-57023202D01*
X210143506Y-57023296D01*
X210144289Y-57023329D01*
X210145386Y-57023500D01*
X210176377Y-57023500D01*
X210177147Y-57023502D01*
X210250785Y-57023952D01*
X210250786Y-57023952D01*
X210254721Y-57023976D01*
X210256065Y-57023592D01*
X210257410Y-57023500D01*
X211405633Y-57023500D01*
X211425018Y-57025000D01*
X211439851Y-57027310D01*
X211439855Y-57027310D01*
X211448724Y-57028691D01*
X211465329Y-57026520D01*
X211489679Y-57025712D01*
X211719241Y-57040355D01*
X211735138Y-57042391D01*
X211987205Y-57091156D01*
X212002727Y-57095198D01*
X212124642Y-57135398D01*
X212246555Y-57175596D01*
X212261438Y-57181579D01*
X212493074Y-57292302D01*
X212507066Y-57300121D01*
X212722767Y-57439385D01*
X212735652Y-57448919D01*
X212931897Y-57614450D01*
X212943476Y-57625552D01*
X213117105Y-57814682D01*
X213127179Y-57827166D01*
X213275363Y-58036812D01*
X213283770Y-58050475D01*
X213404119Y-58277257D01*
X213410721Y-58291876D01*
X213501281Y-58532110D01*
X213505969Y-58547436D01*
X213565276Y-58797245D01*
X213567978Y-58813046D01*
X213590041Y-59021005D01*
X213591478Y-59034554D01*
X213591393Y-59059317D01*
X213591454Y-59061377D01*
X213590447Y-59070294D01*
X213593362Y-59087069D01*
X213593589Y-59088377D01*
X213595449Y-59109946D01*
X213595449Y-78681916D01*
X213592998Y-78706649D01*
X213543236Y-78955224D01*
X213539317Y-78970047D01*
X213450637Y-79238245D01*
X213444946Y-79252483D01*
X213326620Y-79503107D01*
X213324350Y-79507914D01*
X213316973Y-79521355D01*
X213166237Y-79760257D01*
X213157281Y-79772703D01*
X212978645Y-79991527D01*
X212968244Y-80002792D01*
X212764358Y-80198291D01*
X212752666Y-80208210D01*
X212526531Y-80377506D01*
X212513736Y-80385922D01*
X212268710Y-80526497D01*
X212254971Y-80533304D01*
X211994689Y-80643075D01*
X211980224Y-80648162D01*
X211708539Y-80725505D01*
X211693574Y-80728796D01*
X211448447Y-80767242D01*
X211422368Y-80768493D01*
X211421640Y-80768553D01*
X211412677Y-80768017D01*
X211403926Y-80770017D01*
X211399068Y-80770419D01*
X211394252Y-80771079D01*
X211385279Y-80771024D01*
X211331642Y-80786353D01*
X211325107Y-80788033D01*
X211279435Y-80798473D01*
X211279434Y-80798473D01*
X211270682Y-80800474D01*
X211262838Y-80804853D01*
X211258290Y-80806602D01*
X211253855Y-80808586D01*
X211245229Y-80811051D01*
X211237644Y-80815837D01*
X211237637Y-80815840D01*
X211198039Y-80840825D01*
X211192226Y-80844278D01*
X211151345Y-80867103D01*
X211143504Y-80871481D01*
X211137209Y-80877881D01*
X211133330Y-80880839D01*
X211129629Y-80883989D01*
X211122042Y-80888776D01*
X211116103Y-80895501D01*
X211116098Y-80895505D01*
X211085108Y-80930595D01*
X211080499Y-80935541D01*
X211047661Y-80968928D01*
X211047659Y-80968930D01*
X211041367Y-80975328D01*
X211037121Y-80983240D01*
X211034236Y-80987157D01*
X211031567Y-80991220D01*
X211025622Y-80997951D01*
X211003448Y-81045181D01*
X211001909Y-81048459D01*
X210998872Y-81054500D01*
X210976728Y-81095755D01*
X210976726Y-81095760D01*
X210972482Y-81103667D01*
X210970627Y-81112449D01*
X210968954Y-81117027D01*
X210967532Y-81121678D01*
X210963719Y-81129800D01*
X210962339Y-81138664D01*
X210955133Y-81184940D01*
X210953914Y-81191587D01*
X210942385Y-81246181D01*
X210943070Y-81255133D01*
X210946133Y-81295163D01*
X210946500Y-81304776D01*
X210946500Y-89535000D01*
X203200000Y-89535000D01*
X203200000Y-50673500D01*
X209550500Y-50673500D01*
X209618621Y-50693502D01*
G37*
G04 #@! TD.AperFunction*
G04 #@! TA.AperFunction,Conductor*
G36*
X178435000Y-56515000D02*
G01*
X184150000Y-62230000D01*
X203200000Y-62230000D01*
X203200000Y-78740000D01*
X202443500Y-78740000D01*
X202443500Y-63678977D01*
X202443173Y-63660651D01*
X202442852Y-63651662D01*
X202442825Y-63651157D01*
X202442142Y-63638407D01*
X202442142Y-63638404D01*
X202441871Y-63633353D01*
X202410802Y-63490536D01*
X202409228Y-63486317D01*
X202409226Y-63486309D01*
X202398536Y-63457651D01*
X202385991Y-63424016D01*
X202315946Y-63295739D01*
X202212598Y-63192390D01*
X202155762Y-63149843D01*
X202027483Y-63079798D01*
X202018681Y-63077883D01*
X202018678Y-63077882D01*
X201889066Y-63049686D01*
X201889063Y-63049686D01*
X201884666Y-63048729D01*
X201813851Y-63043664D01*
X201809364Y-63043985D01*
X201677046Y-63053450D01*
X201668058Y-63054093D01*
X201659616Y-63057242D01*
X201659615Y-63057242D01*
X201535331Y-63103599D01*
X201535329Y-63103600D01*
X201531117Y-63105171D01*
X201468805Y-63139197D01*
X201465205Y-63141892D01*
X201355408Y-63224086D01*
X201355404Y-63224090D01*
X201351806Y-63226783D01*
X199293353Y-65285236D01*
X199290639Y-65287970D01*
X199289250Y-65289380D01*
X199286305Y-65292393D01*
X199286152Y-65292551D01*
X199286072Y-65292633D01*
X199242499Y-65337597D01*
X199221192Y-65355223D01*
X199193619Y-65373336D01*
X199188310Y-65376823D01*
X199179406Y-65382806D01*
X199175055Y-65385796D01*
X199169902Y-65389418D01*
X199166600Y-65391738D01*
X199166551Y-65391773D01*
X199166232Y-65391997D01*
X199165955Y-65392196D01*
X199165910Y-65392228D01*
X199136178Y-65413593D01*
X199124494Y-65421050D01*
X199120452Y-65423327D01*
X199108043Y-65429446D01*
X199074190Y-65443885D01*
X199074148Y-65443903D01*
X199074010Y-65443962D01*
X199073908Y-65444007D01*
X199073838Y-65444037D01*
X199065703Y-65447608D01*
X199064191Y-65448272D01*
X199063939Y-65448386D01*
X199063898Y-65448404D01*
X199059760Y-65450272D01*
X199059709Y-65450296D01*
X199059382Y-65450443D01*
X199049601Y-65454983D01*
X199016175Y-65470926D01*
X199003378Y-65476187D01*
X198998995Y-65477714D01*
X198998985Y-65477717D01*
X198985687Y-65481542D01*
X198965625Y-65486137D01*
X198949610Y-65489805D01*
X198939114Y-65492325D01*
X198933996Y-65493611D01*
X198923634Y-65496330D01*
X198887934Y-65506097D01*
X198874388Y-65509012D01*
X198869808Y-65509737D01*
X198856046Y-65511147D01*
X198845229Y-65511657D01*
X198819056Y-65512892D01*
X198818890Y-65512902D01*
X198818842Y-65512904D01*
X198808638Y-65513493D01*
X198808619Y-65513494D01*
X198808276Y-65513514D01*
X198807830Y-65513544D01*
X198807837Y-65513544D01*
X198803410Y-65513846D01*
X198803377Y-65513848D01*
X198803017Y-65513873D01*
X198792763Y-65514681D01*
X198784369Y-65515060D01*
X198782533Y-65515081D01*
X198777779Y-65515137D01*
X198777694Y-65515139D01*
X198777314Y-65515143D01*
X198776912Y-65515152D01*
X198776883Y-65515153D01*
X198771702Y-65515275D01*
X198771639Y-65515277D01*
X198771379Y-65515283D01*
X198771109Y-65515293D01*
X198771026Y-65515295D01*
X198759778Y-65515693D01*
X198759766Y-65515693D01*
X198759299Y-65515710D01*
X198758871Y-65515730D01*
X198758851Y-65515731D01*
X198749650Y-65516165D01*
X198726812Y-65517242D01*
X198712645Y-65517112D01*
X198697189Y-65516099D01*
X198696217Y-65516067D01*
X198696193Y-65516066D01*
X198664594Y-65515032D01*
X198664570Y-65515032D01*
X198663604Y-65515000D01*
X195071000Y-65515000D01*
X195067654Y-65515360D01*
X195067649Y-65515360D01*
X194965215Y-65526372D01*
X194965208Y-65526373D01*
X194961851Y-65526734D01*
X194958551Y-65527452D01*
X194958550Y-65527452D01*
X194912790Y-65537406D01*
X194912785Y-65537407D01*
X194909509Y-65538120D01*
X194805343Y-65572790D01*
X194682388Y-65651808D01*
X194628732Y-65698301D01*
X194625792Y-65701694D01*
X194538919Y-65801950D01*
X194538917Y-65801953D01*
X194533018Y-65808761D01*
X194472302Y-65941710D01*
X194452300Y-66009831D01*
X194431500Y-66154500D01*
X194431500Y-78740000D01*
X174681800Y-78740000D01*
X174681800Y-75073361D01*
X174701802Y-75005240D01*
X174755458Y-74958747D01*
X174825732Y-74948643D01*
X174852748Y-74955651D01*
X174869856Y-74962184D01*
X174869864Y-74962186D01*
X174874692Y-74964030D01*
X174879760Y-74965061D01*
X174879763Y-74965062D01*
X174984466Y-74986364D01*
X175093597Y-75008567D01*
X175098772Y-75008757D01*
X175098774Y-75008757D01*
X175311673Y-75016564D01*
X175311677Y-75016564D01*
X175316837Y-75016753D01*
X175321957Y-75016097D01*
X175321959Y-75016097D01*
X175533288Y-74989025D01*
X175533289Y-74989025D01*
X175538416Y-74988368D01*
X175545096Y-74986364D01*
X175747429Y-74925661D01*
X175747434Y-74925659D01*
X175752384Y-74924174D01*
X175952994Y-74825896D01*
X176134860Y-74696173D01*
X176293096Y-74538489D01*
X176423453Y-74357077D01*
X176424776Y-74358028D01*
X176471645Y-74314857D01*
X176541580Y-74302625D01*
X176607026Y-74330144D01*
X176634875Y-74361994D01*
X176694987Y-74460088D01*
X176841250Y-74628938D01*
X177013126Y-74771632D01*
X177083595Y-74812811D01*
X177086445Y-74814476D01*
X177135169Y-74866114D01*
X177148240Y-74935897D01*
X177121509Y-75001669D01*
X177081055Y-75035027D01*
X177068607Y-75041507D01*
X177064474Y-75044610D01*
X177064471Y-75044612D01*
X176894100Y-75172530D01*
X176889965Y-75175635D01*
X176735629Y-75337138D01*
X176609743Y-75521680D01*
X176515688Y-75724305D01*
X176455989Y-75939570D01*
X176432251Y-76161695D01*
X176432548Y-76166848D01*
X176432548Y-76166851D01*
X176438011Y-76261590D01*
X176445110Y-76384715D01*
X176446247Y-76389761D01*
X176446248Y-76389767D01*
X176466119Y-76477939D01*
X176494222Y-76602639D01*
X176578266Y-76809616D01*
X176629019Y-76892438D01*
X176692291Y-76995688D01*
X176694987Y-77000088D01*
X176841250Y-77168938D01*
X177013126Y-77311632D01*
X177206000Y-77424338D01*
X177414692Y-77504030D01*
X177419760Y-77505061D01*
X177419763Y-77505062D01*
X177527017Y-77526883D01*
X177633597Y-77548567D01*
X177638772Y-77548757D01*
X177638774Y-77548757D01*
X177851673Y-77556564D01*
X177851677Y-77556564D01*
X177856837Y-77556753D01*
X177861957Y-77556097D01*
X177861959Y-77556097D01*
X178073288Y-77529025D01*
X178073289Y-77529025D01*
X178078416Y-77528368D01*
X178083366Y-77526883D01*
X178287429Y-77465661D01*
X178287434Y-77465659D01*
X178292384Y-77464174D01*
X178492994Y-77365896D01*
X178674860Y-77236173D01*
X178833096Y-77078489D01*
X178892594Y-76995689D01*
X178963453Y-76897077D01*
X178964776Y-76898028D01*
X179011645Y-76854857D01*
X179081580Y-76842625D01*
X179147026Y-76870144D01*
X179174875Y-76901994D01*
X179234987Y-77000088D01*
X179381250Y-77168938D01*
X179553126Y-77311632D01*
X179746000Y-77424338D01*
X179954692Y-77504030D01*
X179959760Y-77505061D01*
X179959763Y-77505062D01*
X180067017Y-77526883D01*
X180173597Y-77548567D01*
X180178772Y-77548757D01*
X180178774Y-77548757D01*
X180391673Y-77556564D01*
X180391677Y-77556564D01*
X180396837Y-77556753D01*
X180401957Y-77556097D01*
X180401959Y-77556097D01*
X180613288Y-77529025D01*
X180613289Y-77529025D01*
X180618416Y-77528368D01*
X180623366Y-77526883D01*
X180827429Y-77465661D01*
X180827434Y-77465659D01*
X180832384Y-77464174D01*
X181032994Y-77365896D01*
X181214860Y-77236173D01*
X181373096Y-77078489D01*
X181432594Y-76995689D01*
X181503453Y-76897077D01*
X181504776Y-76898028D01*
X181551645Y-76854857D01*
X181621580Y-76842625D01*
X181687026Y-76870144D01*
X181714875Y-76901994D01*
X181774987Y-77000088D01*
X181921250Y-77168938D01*
X182093126Y-77311632D01*
X182286000Y-77424338D01*
X182494692Y-77504030D01*
X182499760Y-77505061D01*
X182499763Y-77505062D01*
X182607017Y-77526883D01*
X182713597Y-77548567D01*
X182718772Y-77548757D01*
X182718774Y-77548757D01*
X182931673Y-77556564D01*
X182931677Y-77556564D01*
X182936837Y-77556753D01*
X182941957Y-77556097D01*
X182941959Y-77556097D01*
X183153288Y-77529025D01*
X183153289Y-77529025D01*
X183158416Y-77528368D01*
X183163366Y-77526883D01*
X183367429Y-77465661D01*
X183367434Y-77465659D01*
X183372384Y-77464174D01*
X183572994Y-77365896D01*
X183754860Y-77236173D01*
X183913096Y-77078489D01*
X183972594Y-76995689D01*
X184040435Y-76901277D01*
X184043453Y-76897077D01*
X184064320Y-76854857D01*
X184140136Y-76701453D01*
X184140137Y-76701451D01*
X184142430Y-76696811D01*
X184207370Y-76483069D01*
X184236529Y-76261590D01*
X184238156Y-76195000D01*
X184219852Y-75972361D01*
X184213114Y-75945534D01*
X184215920Y-75874593D01*
X184246224Y-75825747D01*
X184630528Y-75441443D01*
X184636793Y-75435589D01*
X184674664Y-75402552D01*
X184674665Y-75402551D01*
X184680385Y-75397561D01*
X184717136Y-75345271D01*
X184721028Y-75340029D01*
X184760476Y-75289718D01*
X184763600Y-75282799D01*
X184764988Y-75280507D01*
X184773357Y-75265835D01*
X184774622Y-75263475D01*
X184778990Y-75257261D01*
X184802203Y-75197723D01*
X184804759Y-75191642D01*
X184827918Y-75140352D01*
X184831045Y-75133427D01*
X184832430Y-75125954D01*
X184833234Y-75123388D01*
X184838792Y-75103877D01*
X184841282Y-75097491D01*
X184843452Y-75098337D01*
X184873903Y-75047168D01*
X184937432Y-75015473D01*
X184959640Y-75013500D01*
X186313134Y-75013500D01*
X186375316Y-75006745D01*
X186511705Y-74955615D01*
X186628261Y-74868261D01*
X186715615Y-74751705D01*
X186766745Y-74615316D01*
X186773500Y-74553134D01*
X186773500Y-72756866D01*
X186766745Y-72694684D01*
X186715615Y-72558295D01*
X186628261Y-72441739D01*
X186511705Y-72354385D01*
X186375316Y-72303255D01*
X186313134Y-72296500D01*
X184984500Y-72296500D01*
X184916379Y-72276498D01*
X184869886Y-72222842D01*
X184858500Y-72170500D01*
X184858500Y-69986151D01*
X184878502Y-69918030D01*
X184887415Y-69905836D01*
X184986201Y-69786425D01*
X184986203Y-69786421D01*
X184990130Y-69781675D01*
X185084198Y-69607701D01*
X185142682Y-69418768D01*
X185144666Y-69399889D01*
X185162711Y-69228204D01*
X185162711Y-69228202D01*
X185163355Y-69222075D01*
X185145430Y-69025112D01*
X185124644Y-68954484D01*
X185091330Y-68841294D01*
X185089590Y-68835381D01*
X184997960Y-68660110D01*
X184874032Y-68505975D01*
X184722526Y-68378846D01*
X184717128Y-68375879D01*
X184717123Y-68375875D01*
X184554608Y-68286533D01*
X184554609Y-68286533D01*
X184549213Y-68283567D01*
X184543346Y-68281706D01*
X184543344Y-68281705D01*
X184366564Y-68225627D01*
X184366563Y-68225627D01*
X184360694Y-68223765D01*
X184206773Y-68206500D01*
X178299500Y-68206500D01*
X178231379Y-68186498D01*
X178184886Y-68132842D01*
X178173500Y-68080500D01*
X178173500Y-62352842D01*
X178174237Y-62339235D01*
X178177659Y-62307737D01*
X178177659Y-62307732D01*
X178178324Y-62301611D01*
X178173950Y-62251609D01*
X178173621Y-62246784D01*
X178173500Y-62244313D01*
X178173500Y-62241231D01*
X178169309Y-62198489D01*
X178169187Y-62197174D01*
X178161623Y-62110719D01*
X178161087Y-62104587D01*
X178159600Y-62099468D01*
X178159080Y-62094167D01*
X178132218Y-62005194D01*
X178131862Y-62003994D01*
X178105909Y-61914663D01*
X178103455Y-61909929D01*
X178101916Y-61904831D01*
X178058316Y-61822831D01*
X178057702Y-61821663D01*
X178017726Y-61744541D01*
X178017725Y-61744540D01*
X178014892Y-61739074D01*
X178011569Y-61734911D01*
X178009066Y-61730204D01*
X177950245Y-61658082D01*
X177949554Y-61657226D01*
X177918262Y-61618027D01*
X177915758Y-61615523D01*
X177915116Y-61614805D01*
X177911415Y-61610472D01*
X177884065Y-61576938D01*
X177848737Y-61547712D01*
X177839958Y-61539723D01*
X175909607Y-59609373D01*
X175907425Y-59607191D01*
X175793239Y-59513397D01*
X175618937Y-59419938D01*
X175470789Y-59374644D01*
X175435700Y-59363916D01*
X175435698Y-59363916D01*
X175429802Y-59362113D01*
X175371949Y-59356236D01*
X175239166Y-59342748D01*
X175239161Y-59342748D01*
X175233038Y-59342126D01*
X175108975Y-59353854D01*
X175042271Y-59360159D01*
X175042269Y-59360159D01*
X175036138Y-59360739D01*
X174846604Y-59417241D01*
X174846013Y-59415258D01*
X174784782Y-59421518D01*
X174721462Y-59389408D01*
X174685553Y-59328162D01*
X174681800Y-59297638D01*
X174681800Y-59158007D01*
X174666482Y-59026619D01*
X174606133Y-58860363D01*
X174553146Y-58779543D01*
X174532523Y-58711608D01*
X174541610Y-58663463D01*
X174590853Y-58540964D01*
X174593685Y-58533920D01*
X174594755Y-58526402D01*
X174617266Y-58368231D01*
X174617266Y-58368227D01*
X174617847Y-58364147D01*
X174618004Y-58349200D01*
X174610069Y-58283627D01*
X174598315Y-58186499D01*
X174598314Y-58186496D01*
X174597402Y-58178958D01*
X174592547Y-58166108D01*
X174539471Y-58025647D01*
X174536787Y-58018544D01*
X174470690Y-57922372D01*
X174443959Y-57883478D01*
X174443958Y-57883476D01*
X174439657Y-57877219D01*
X174433986Y-57872166D01*
X174317293Y-57768196D01*
X174317290Y-57768194D01*
X174311621Y-57763143D01*
X174160069Y-57682900D01*
X174142496Y-57678486D01*
X174001122Y-57642975D01*
X174001118Y-57642975D01*
X173993751Y-57641124D01*
X173986152Y-57641084D01*
X173986150Y-57641084D01*
X173914694Y-57640710D01*
X173822269Y-57640226D01*
X173814889Y-57641998D01*
X173814887Y-57641998D01*
X173662902Y-57678486D01*
X173662898Y-57678487D01*
X173655523Y-57680258D01*
X173643519Y-57686454D01*
X173614046Y-57701666D01*
X173556256Y-57715700D01*
X173155868Y-57715700D01*
X173144685Y-57715173D01*
X173137192Y-57713498D01*
X173129266Y-57713747D01*
X173129265Y-57713747D01*
X173069102Y-57715638D01*
X173065144Y-57715700D01*
X173037244Y-57715700D01*
X173033254Y-57716204D01*
X173021420Y-57717136D01*
X172977211Y-57718526D01*
X172969597Y-57720738D01*
X172969592Y-57720739D01*
X172957759Y-57724177D01*
X172938396Y-57728188D01*
X172918303Y-57730726D01*
X172910936Y-57733643D01*
X172910931Y-57733644D01*
X172877192Y-57747002D01*
X172865965Y-57750846D01*
X172823507Y-57763182D01*
X172816681Y-57767219D01*
X172806072Y-57773493D01*
X172788324Y-57782188D01*
X172769483Y-57789648D01*
X172763067Y-57794310D01*
X172763066Y-57794310D01*
X172733713Y-57815636D01*
X172723793Y-57822152D01*
X172692565Y-57840620D01*
X172692562Y-57840622D01*
X172685738Y-57844658D01*
X172671417Y-57858979D01*
X172656384Y-57871819D01*
X172639993Y-57883728D01*
X172634942Y-57889833D01*
X172634937Y-57889838D01*
X172611801Y-57917804D01*
X172603813Y-57926582D01*
X171898647Y-58631748D01*
X171890361Y-58639288D01*
X171883882Y-58643400D01*
X171878457Y-58649177D01*
X171878456Y-58649178D01*
X171875972Y-58651823D01*
X171873511Y-58653269D01*
X171872348Y-58654231D01*
X171872193Y-58654043D01*
X171814759Y-58687788D01*
X171743819Y-58684949D01*
X171730774Y-58679717D01*
X171715288Y-58672480D01*
X171715285Y-58672479D01*
X171708650Y-58669378D01*
X171701485Y-58667888D01*
X171701483Y-58667887D01*
X171557528Y-58637945D01*
X171535485Y-58633360D01*
X171358679Y-58638143D01*
X171351597Y-58640021D01*
X171351596Y-58640021D01*
X171194798Y-58681596D01*
X171194796Y-58681597D01*
X171187716Y-58683474D01*
X171181257Y-58686930D01*
X171038226Y-58763461D01*
X171038223Y-58763463D01*
X171031766Y-58766918D01*
X171026278Y-58771765D01*
X171026275Y-58771767D01*
X170965481Y-58825459D01*
X170899196Y-58884000D01*
X170797116Y-59028440D01*
X170794381Y-59035226D01*
X170794379Y-59035230D01*
X170764059Y-59110464D01*
X170731002Y-59192489D01*
X170729901Y-59199726D01*
X170708150Y-59342706D01*
X170704401Y-59367349D01*
X170704994Y-59374641D01*
X170704994Y-59374644D01*
X170708807Y-59421518D01*
X170718740Y-59543637D01*
X170720994Y-59550596D01*
X170720995Y-59550599D01*
X170740035Y-59609373D01*
X170773249Y-59711899D01*
X170777045Y-59718154D01*
X170777046Y-59718157D01*
X170862096Y-59858314D01*
X170862099Y-59858318D01*
X170865005Y-59863107D01*
X170868714Y-59867306D01*
X170868717Y-59867311D01*
X170871109Y-59870019D01*
X170872403Y-59871484D01*
X170886295Y-59885376D01*
X170920321Y-59947688D01*
X170923200Y-59974471D01*
X170923200Y-61426520D01*
X170903198Y-61494641D01*
X170849542Y-61541134D01*
X170831659Y-61546918D01*
X170831763Y-61547240D01*
X170670467Y-61599492D01*
X170670464Y-61599493D01*
X170663501Y-61601749D01*
X170657245Y-61605545D01*
X170657241Y-61605547D01*
X170517094Y-61690591D01*
X170512292Y-61693505D01*
X170503916Y-61700903D01*
X170180000Y-62024819D01*
X170180000Y-56712583D01*
X170235229Y-56638891D01*
X170240615Y-56631705D01*
X170291745Y-56495316D01*
X170298500Y-56433134D01*
X170298500Y-50799500D01*
X170318502Y-50731379D01*
X170372158Y-50684886D01*
X170424500Y-50673500D01*
X178435000Y-50673500D01*
X178435000Y-56515000D01*
G37*
G04 #@! TD.AperFunction*
G04 #@! TA.AperFunction,Conductor*
G36*
X201848032Y-63560921D02*
G01*
X201904868Y-63603468D01*
X201929679Y-63669988D01*
X201930000Y-63678977D01*
X201930000Y-90805500D01*
X201909998Y-90873621D01*
X201856342Y-90920114D01*
X201804000Y-90931500D01*
X195071000Y-90931500D01*
X195002879Y-90911498D01*
X194956386Y-90857842D01*
X194945000Y-90805500D01*
X194945000Y-66154500D01*
X194965002Y-66086379D01*
X195018658Y-66039886D01*
X195071000Y-66028500D01*
X198663604Y-66028500D01*
X198680051Y-66029578D01*
X198696516Y-66031746D01*
X198696520Y-66031746D01*
X198702086Y-66032479D01*
X198783489Y-66028640D01*
X198789424Y-66028500D01*
X198811999Y-66028500D01*
X198837989Y-66026181D01*
X198843248Y-66025822D01*
X198926488Y-66021896D01*
X198931947Y-66020646D01*
X198931952Y-66020645D01*
X198943970Y-66017892D01*
X198960899Y-66015211D01*
X198978762Y-66013617D01*
X198984178Y-66012135D01*
X198984180Y-66012135D01*
X199059133Y-65991630D01*
X199064251Y-65990344D01*
X199140000Y-65972995D01*
X199140002Y-65972994D01*
X199145470Y-65971742D01*
X199155970Y-65967263D01*
X199161967Y-65964706D01*
X199178142Y-65959073D01*
X199190039Y-65955818D01*
X199190043Y-65955817D01*
X199195451Y-65954337D01*
X199270667Y-65918461D01*
X199275476Y-65916290D01*
X199346949Y-65885804D01*
X199346950Y-65885804D01*
X199352109Y-65883603D01*
X199367110Y-65873749D01*
X199382025Y-65865346D01*
X199398218Y-65857622D01*
X199402769Y-65854352D01*
X199402772Y-65854350D01*
X199465881Y-65809001D01*
X199470232Y-65806011D01*
X199536010Y-65762804D01*
X199536018Y-65762798D01*
X199539874Y-65760265D01*
X199560662Y-65741743D01*
X199570939Y-65733510D01*
X199580654Y-65726529D01*
X199655063Y-65649745D01*
X199656452Y-65648335D01*
X201714905Y-63589882D01*
X201777217Y-63555856D01*
X201848032Y-63560921D01*
G37*
G04 #@! TD.AperFunction*
G04 #@! TA.AperFunction,Conductor*
G36*
X201872121Y-50693502D02*
G01*
X201918614Y-50747158D01*
X201930000Y-50799500D01*
X201930000Y-55993022D01*
X201909998Y-56061143D01*
X201893095Y-56082117D01*
X197040617Y-60934595D01*
X196978305Y-60968621D01*
X196951522Y-60971500D01*
X194997474Y-60971500D01*
X194971563Y-60963892D01*
X194970559Y-60968507D01*
X194945000Y-60962947D01*
X194945000Y-50673500D01*
X201804000Y-50673500D01*
X201872121Y-50693502D01*
G37*
G04 #@! TD.AperFunction*
G04 #@! TA.AperFunction,Conductor*
G36*
X103883621Y-50693502D02*
G01*
X103930114Y-50747158D01*
X103941500Y-50799500D01*
X103941500Y-56433134D01*
X103948255Y-56495316D01*
X103999385Y-56631705D01*
X104086739Y-56748261D01*
X104203295Y-56835615D01*
X104339684Y-56886745D01*
X104401866Y-56893500D01*
X106478134Y-56893500D01*
X106540316Y-56886745D01*
X106676705Y-56835615D01*
X106793261Y-56748261D01*
X106880615Y-56631705D01*
X106931745Y-56495316D01*
X106938500Y-56433134D01*
X106938500Y-55836988D01*
X106958502Y-55768867D01*
X107012158Y-55722374D01*
X107049353Y-55712218D01*
X107054202Y-55712294D01*
X107061606Y-55710598D01*
X107061608Y-55710598D01*
X107129917Y-55694953D01*
X107221359Y-55674010D01*
X107374558Y-55596959D01*
X107380329Y-55592030D01*
X107380332Y-55592028D01*
X107499178Y-55490523D01*
X107504955Y-55485589D01*
X107605024Y-55346330D01*
X107658592Y-55213074D01*
X107702559Y-55157329D01*
X107769684Y-55134204D01*
X107838655Y-55151041D01*
X107887575Y-55202493D01*
X107901500Y-55260070D01*
X107901500Y-56433134D01*
X107908255Y-56495316D01*
X107959385Y-56631705D01*
X108046739Y-56748261D01*
X108163295Y-56835615D01*
X108299684Y-56886745D01*
X108361866Y-56893500D01*
X110438134Y-56893500D01*
X110500316Y-56886745D01*
X110636705Y-56835615D01*
X110753261Y-56748261D01*
X110840615Y-56631705D01*
X110891745Y-56495316D01*
X110898500Y-56433134D01*
X110898500Y-50799500D01*
X110918502Y-50731379D01*
X110972158Y-50684886D01*
X111024500Y-50673500D01*
X111735500Y-50673500D01*
X111803621Y-50693502D01*
X111850114Y-50747158D01*
X111861500Y-50799500D01*
X111861500Y-56433134D01*
X111868255Y-56495316D01*
X111919385Y-56631705D01*
X112006739Y-56748261D01*
X112123295Y-56835615D01*
X112259684Y-56886745D01*
X112321866Y-56893500D01*
X114398134Y-56893500D01*
X114460316Y-56886745D01*
X114596705Y-56835615D01*
X114713261Y-56748261D01*
X114800615Y-56631705D01*
X114851745Y-56495316D01*
X114858500Y-56433134D01*
X114858500Y-50799500D01*
X114878502Y-50731379D01*
X114932158Y-50684886D01*
X114984500Y-50673500D01*
X119655500Y-50673500D01*
X119723621Y-50693502D01*
X119770114Y-50747158D01*
X119781500Y-50799500D01*
X119781500Y-56252200D01*
X119761498Y-56320321D01*
X119707842Y-56366814D01*
X119655500Y-56378200D01*
X117337163Y-56378200D01*
X117325979Y-56377673D01*
X117318491Y-56375999D01*
X117310568Y-56376248D01*
X117250433Y-56378138D01*
X117246475Y-56378200D01*
X117218544Y-56378200D01*
X117214629Y-56378695D01*
X117214625Y-56378695D01*
X117214567Y-56378703D01*
X117214538Y-56378706D01*
X117202696Y-56379639D01*
X117158510Y-56381027D01*
X117150476Y-56383361D01*
X117139058Y-56386678D01*
X117119706Y-56390686D01*
X117107468Y-56392232D01*
X117107466Y-56392233D01*
X117099603Y-56393226D01*
X117058486Y-56409506D01*
X117047285Y-56413341D01*
X117004806Y-56425682D01*
X116997987Y-56429715D01*
X116997982Y-56429717D01*
X116987371Y-56435993D01*
X116969621Y-56444690D01*
X116950783Y-56452148D01*
X116944367Y-56456809D01*
X116944366Y-56456810D01*
X116915025Y-56478128D01*
X116905101Y-56484647D01*
X116873860Y-56503122D01*
X116873855Y-56503126D01*
X116867037Y-56507158D01*
X116852713Y-56521482D01*
X116837681Y-56534321D01*
X116821293Y-56546228D01*
X116795448Y-56577469D01*
X116793112Y-56580293D01*
X116785122Y-56589073D01*
X115286430Y-58087765D01*
X115241254Y-58116768D01*
X115241209Y-58116785D01*
X115233823Y-58118558D01*
X115227077Y-58122040D01*
X115227074Y-58122041D01*
X115151659Y-58160966D01*
X115081439Y-58197209D01*
X115075722Y-58202196D01*
X115075715Y-58202201D01*
X115013529Y-58256450D01*
X114949047Y-58286158D01*
X114878740Y-58276288D01*
X114871757Y-58272863D01*
X114793069Y-58231200D01*
X114714031Y-58211347D01*
X114634122Y-58191275D01*
X114634118Y-58191275D01*
X114626751Y-58189424D01*
X114619152Y-58189384D01*
X114619150Y-58189384D01*
X114547694Y-58189010D01*
X114455269Y-58188526D01*
X114447889Y-58190298D01*
X114447887Y-58190298D01*
X114295902Y-58226786D01*
X114295898Y-58226787D01*
X114288523Y-58228558D01*
X114136139Y-58307209D01*
X114006915Y-58419939D01*
X113908310Y-58560239D01*
X113900105Y-58581284D01*
X113855972Y-58694479D01*
X113846018Y-58720009D01*
X113845026Y-58727542D01*
X113845026Y-58727543D01*
X113825067Y-58879151D01*
X113823635Y-58890026D01*
X113824469Y-58897576D01*
X113841317Y-59050184D01*
X113842453Y-59060475D01*
X113845062Y-59067606D01*
X113845063Y-59067608D01*
X113856582Y-59099084D01*
X113901385Y-59221515D01*
X113905622Y-59227821D01*
X113905624Y-59227824D01*
X113929617Y-59263529D01*
X113997030Y-59363849D01*
X114123865Y-59479260D01*
X114186738Y-59513397D01*
X114267891Y-59557460D01*
X114267893Y-59557461D01*
X114274568Y-59561085D01*
X114281917Y-59563013D01*
X114282794Y-59563243D01*
X114283453Y-59563621D01*
X114288979Y-59565809D01*
X114288662Y-59566610D01*
X114339921Y-59596025D01*
X114905443Y-60161547D01*
X114912987Y-60169837D01*
X114917100Y-60176318D01*
X114922877Y-60181743D01*
X114966767Y-60222958D01*
X114969609Y-60225713D01*
X114989330Y-60245434D01*
X114992525Y-60247912D01*
X115001547Y-60255618D01*
X115033779Y-60285886D01*
X115040728Y-60289706D01*
X115051532Y-60295646D01*
X115068056Y-60306499D01*
X115084059Y-60318913D01*
X115124643Y-60336476D01*
X115135273Y-60341683D01*
X115174040Y-60362995D01*
X115181717Y-60364966D01*
X115181722Y-60364968D01*
X115193658Y-60368032D01*
X115212366Y-60374437D01*
X115230955Y-60382481D01*
X115238780Y-60383720D01*
X115238782Y-60383721D01*
X115274619Y-60389397D01*
X115286240Y-60391804D01*
X115321389Y-60400828D01*
X115329070Y-60402800D01*
X115349331Y-60402800D01*
X115369040Y-60404351D01*
X115389043Y-60407519D01*
X115396935Y-60406773D01*
X115402162Y-60406279D01*
X115433054Y-60403359D01*
X115444911Y-60402800D01*
X132491306Y-60402800D01*
X132559427Y-60422802D01*
X132580401Y-60439705D01*
X143326600Y-71185905D01*
X143360626Y-71248217D01*
X143355561Y-71319032D01*
X143313014Y-71375868D01*
X143246494Y-71400679D01*
X143237505Y-71401000D01*
X127715195Y-71401000D01*
X127647074Y-71380998D01*
X127626100Y-71364095D01*
X125438216Y-69176211D01*
X125404190Y-69113899D01*
X125409255Y-69043084D01*
X125451802Y-68986248D01*
X125518322Y-68961437D01*
X125559284Y-68965240D01*
X125605639Y-68977401D01*
X125693086Y-68978774D01*
X125769503Y-68979975D01*
X125769506Y-68979975D01*
X125777102Y-68980094D01*
X125784506Y-68978398D01*
X125784508Y-68978398D01*
X125900308Y-68951876D01*
X125944259Y-68941810D01*
X126097458Y-68864759D01*
X126103229Y-68859830D01*
X126103232Y-68859828D01*
X126222078Y-68758323D01*
X126227855Y-68753389D01*
X126327924Y-68614130D01*
X126367628Y-68515362D01*
X126395441Y-68473263D01*
X127598100Y-67270605D01*
X127660412Y-67236579D01*
X127687195Y-67233700D01*
X129301958Y-67233700D01*
X129362079Y-67248969D01*
X129382692Y-67260161D01*
X129382697Y-67260163D01*
X129389368Y-67263785D01*
X129555239Y-67307301D01*
X129642686Y-67308674D01*
X129719103Y-67309875D01*
X129719106Y-67309875D01*
X129726702Y-67309994D01*
X129734106Y-67308298D01*
X129734108Y-67308298D01*
X129840975Y-67283822D01*
X129893859Y-67271710D01*
X130047058Y-67194659D01*
X130052829Y-67189730D01*
X130052832Y-67189728D01*
X130161797Y-67096662D01*
X130177455Y-67083289D01*
X130277524Y-66944030D01*
X130341485Y-66784920D01*
X130342364Y-66785274D01*
X130375892Y-66730267D01*
X130439753Y-66699245D01*
X130460648Y-66697500D01*
X134411306Y-66697500D01*
X134479427Y-66717502D01*
X134500401Y-66734405D01*
X137892927Y-70126932D01*
X137923390Y-70176255D01*
X137972394Y-70323567D01*
X137976041Y-70329589D01*
X137976042Y-70329591D01*
X138040442Y-70435927D01*
X138060546Y-70469123D01*
X138178755Y-70591532D01*
X138321146Y-70684710D01*
X138327750Y-70687166D01*
X138327752Y-70687167D01*
X138364144Y-70700701D01*
X138480641Y-70744026D01*
X138649315Y-70766532D01*
X138656326Y-70765894D01*
X138656330Y-70765894D01*
X138811762Y-70751748D01*
X138818783Y-70751109D01*
X138825485Y-70748931D01*
X138825487Y-70748931D01*
X138973923Y-70700701D01*
X138973926Y-70700700D01*
X138980622Y-70698524D01*
X139126790Y-70611390D01*
X139131884Y-70606539D01*
X139131888Y-70606536D01*
X139199133Y-70542499D01*
X139250021Y-70494039D01*
X139259860Y-70479231D01*
X139340290Y-70358173D01*
X139344191Y-70352302D01*
X139404619Y-70193225D01*
X139428301Y-70024713D01*
X139428599Y-70003400D01*
X139409631Y-69834292D01*
X139400412Y-69807817D01*
X139380640Y-69751043D01*
X139353668Y-69673589D01*
X139263492Y-69529279D01*
X139247460Y-69513134D01*
X139151596Y-69416598D01*
X139143586Y-69408532D01*
X139131233Y-69400692D01*
X139088706Y-69373704D01*
X138999908Y-69317351D01*
X138839600Y-69260268D01*
X138840114Y-69258826D01*
X138787149Y-69229345D01*
X137019210Y-67461405D01*
X135229552Y-65671747D01*
X135222012Y-65663461D01*
X135217900Y-65656982D01*
X135209803Y-65649378D01*
X135168249Y-65610357D01*
X135165407Y-65607602D01*
X135145670Y-65587865D01*
X135142473Y-65585385D01*
X135133451Y-65577680D01*
X135107000Y-65552841D01*
X135101221Y-65547414D01*
X135094275Y-65543595D01*
X135094272Y-65543593D01*
X135083466Y-65537652D01*
X135066947Y-65526801D01*
X135066394Y-65526372D01*
X135050941Y-65514386D01*
X135043672Y-65511241D01*
X135043668Y-65511238D01*
X135010363Y-65496826D01*
X134999713Y-65491609D01*
X134960960Y-65470305D01*
X134941337Y-65465267D01*
X134922634Y-65458863D01*
X134911320Y-65453967D01*
X134911319Y-65453967D01*
X134904045Y-65450819D01*
X134896222Y-65449580D01*
X134896212Y-65449577D01*
X134860376Y-65443901D01*
X134848756Y-65441495D01*
X134813611Y-65432472D01*
X134813610Y-65432472D01*
X134805930Y-65430500D01*
X134785676Y-65430500D01*
X134765965Y-65428949D01*
X134753786Y-65427020D01*
X134745957Y-65425780D01*
X134738065Y-65426526D01*
X134701939Y-65429941D01*
X134690081Y-65430500D01*
X125561077Y-65430500D01*
X125492956Y-65410498D01*
X125446463Y-65356842D01*
X125436359Y-65286568D01*
X125440596Y-65270797D01*
X125439886Y-65270607D01*
X125441853Y-65263264D01*
X125444685Y-65256220D01*
X125453981Y-65190900D01*
X125468266Y-65090531D01*
X125468266Y-65090527D01*
X125468847Y-65086447D01*
X125469004Y-65071500D01*
X125463046Y-65022264D01*
X125449315Y-64908799D01*
X125449314Y-64908796D01*
X125448402Y-64901258D01*
X125443963Y-64889509D01*
X125390471Y-64747947D01*
X125387787Y-64740844D01*
X125378125Y-64726786D01*
X125294959Y-64605778D01*
X125294958Y-64605776D01*
X125290657Y-64599519D01*
X125282668Y-64592401D01*
X125168293Y-64490496D01*
X125168290Y-64490494D01*
X125162621Y-64485443D01*
X125011069Y-64405200D01*
X124993496Y-64400786D01*
X124852122Y-64365275D01*
X124852118Y-64365275D01*
X124844751Y-64363424D01*
X124837152Y-64363384D01*
X124837150Y-64363384D01*
X124765694Y-64363010D01*
X124673269Y-64362526D01*
X124665889Y-64364298D01*
X124665887Y-64364298D01*
X124513902Y-64400786D01*
X124513898Y-64400787D01*
X124506523Y-64402558D01*
X124476609Y-64417998D01*
X124465046Y-64423966D01*
X124407256Y-64438000D01*
X123030220Y-64438000D01*
X122962099Y-64417998D01*
X122915606Y-64364342D01*
X122905502Y-64294068D01*
X122907701Y-64282586D01*
X122914422Y-64254594D01*
X122942032Y-64139589D01*
X122954963Y-63915310D01*
X122927975Y-63692285D01*
X122861918Y-63477565D01*
X122773258Y-63305788D01*
X122759789Y-63236083D01*
X122786144Y-63170159D01*
X122843957Y-63128950D01*
X122885224Y-63122000D01*
X123679606Y-63122000D01*
X123747727Y-63142002D01*
X123768701Y-63158905D01*
X123802260Y-63192464D01*
X123831491Y-63238258D01*
X123856273Y-63305979D01*
X123856275Y-63305983D01*
X123858885Y-63313115D01*
X123863122Y-63319421D01*
X123863124Y-63319424D01*
X123890514Y-63360184D01*
X123954530Y-63455449D01*
X123978835Y-63477565D01*
X124057268Y-63548933D01*
X124081365Y-63570860D01*
X124232068Y-63652685D01*
X124397939Y-63696201D01*
X124485386Y-63697574D01*
X124561803Y-63698775D01*
X124561806Y-63698775D01*
X124569402Y-63698894D01*
X124576806Y-63697198D01*
X124576808Y-63697198D01*
X124639646Y-63682806D01*
X124736559Y-63660610D01*
X124889758Y-63583559D01*
X124895529Y-63578630D01*
X124895532Y-63578628D01*
X125011041Y-63479973D01*
X125020155Y-63472189D01*
X125036716Y-63449143D01*
X125080131Y-63388725D01*
X125136126Y-63345078D01*
X125206829Y-63338632D01*
X125249444Y-63356967D01*
X125249665Y-63356560D01*
X125256337Y-63360183D01*
X125256339Y-63360184D01*
X125282813Y-63374558D01*
X125400368Y-63438385D01*
X125566239Y-63481901D01*
X125653686Y-63483274D01*
X125730103Y-63484475D01*
X125730106Y-63484475D01*
X125737702Y-63484594D01*
X125745106Y-63482898D01*
X125745108Y-63482898D01*
X125842644Y-63460559D01*
X125904859Y-63446310D01*
X126058058Y-63369259D01*
X126063829Y-63364330D01*
X126063832Y-63364328D01*
X126182678Y-63262823D01*
X126188455Y-63257889D01*
X126288524Y-63118630D01*
X126352485Y-62959520D01*
X126357076Y-62927263D01*
X126376066Y-62793831D01*
X126376066Y-62793827D01*
X126376647Y-62789747D01*
X126376804Y-62774800D01*
X126364343Y-62671829D01*
X126357115Y-62612099D01*
X126357114Y-62612096D01*
X126356202Y-62604558D01*
X126351928Y-62593245D01*
X126298271Y-62451247D01*
X126295587Y-62444144D01*
X126263035Y-62396781D01*
X126202759Y-62309078D01*
X126202758Y-62309076D01*
X126198457Y-62302819D01*
X126192786Y-62297766D01*
X126076093Y-62193796D01*
X126076090Y-62193794D01*
X126070421Y-62188743D01*
X125918869Y-62108500D01*
X125911497Y-62106648D01*
X125904408Y-62103927D01*
X125905438Y-62101244D01*
X125859304Y-62075099D01*
X124791552Y-61007347D01*
X124784012Y-60999061D01*
X124779900Y-60992582D01*
X124730248Y-60945956D01*
X124727407Y-60943202D01*
X124707670Y-60923465D01*
X124704473Y-60920985D01*
X124695451Y-60913280D01*
X124663221Y-60883014D01*
X124656275Y-60879195D01*
X124656272Y-60879193D01*
X124645466Y-60873252D01*
X124628947Y-60862401D01*
X124628483Y-60862041D01*
X124612941Y-60849986D01*
X124605672Y-60846841D01*
X124605668Y-60846838D01*
X124572363Y-60832426D01*
X124561713Y-60827209D01*
X124522960Y-60805905D01*
X124503337Y-60800867D01*
X124484634Y-60794463D01*
X124473320Y-60789567D01*
X124473319Y-60789567D01*
X124466045Y-60786419D01*
X124458222Y-60785180D01*
X124458212Y-60785177D01*
X124422376Y-60779501D01*
X124410756Y-60777095D01*
X124375611Y-60768072D01*
X124375610Y-60768072D01*
X124367930Y-60766100D01*
X124347676Y-60766100D01*
X124327965Y-60764549D01*
X124315786Y-60762620D01*
X124307957Y-60761380D01*
X124300065Y-60762126D01*
X124263939Y-60765541D01*
X124252081Y-60766100D01*
X116290115Y-60766100D01*
X116231159Y-60751456D01*
X116196869Y-60733300D01*
X116150385Y-60721624D01*
X116037922Y-60693375D01*
X116037918Y-60693375D01*
X116030551Y-60691524D01*
X116022952Y-60691484D01*
X116022950Y-60691484D01*
X115951494Y-60691110D01*
X115859069Y-60690626D01*
X115851689Y-60692398D01*
X115851687Y-60692398D01*
X115699702Y-60728886D01*
X115699698Y-60728887D01*
X115692323Y-60730658D01*
X115539939Y-60809309D01*
X115410715Y-60922039D01*
X115312110Y-61062339D01*
X115249818Y-61222109D01*
X115248826Y-61229642D01*
X115248826Y-61229643D01*
X115228479Y-61384197D01*
X115227435Y-61392126D01*
X115234123Y-61452700D01*
X115244589Y-61547499D01*
X115246253Y-61562575D01*
X115248862Y-61569706D01*
X115248863Y-61569708D01*
X115266545Y-61618027D01*
X115286275Y-61671939D01*
X115291310Y-61685699D01*
X115295936Y-61756545D01*
X115261526Y-61818645D01*
X115199005Y-61852284D01*
X115172984Y-61855000D01*
X114793315Y-61855000D01*
X114734359Y-61840356D01*
X114700069Y-61822200D01*
X114682496Y-61817786D01*
X114541122Y-61782275D01*
X114541118Y-61782275D01*
X114533751Y-61780424D01*
X114526152Y-61780384D01*
X114526150Y-61780384D01*
X114454694Y-61780010D01*
X114362269Y-61779526D01*
X114354889Y-61781298D01*
X114354887Y-61781298D01*
X114202902Y-61817786D01*
X114202898Y-61817787D01*
X114195523Y-61819558D01*
X114043139Y-61898209D01*
X113913915Y-62010939D01*
X113815310Y-62151239D01*
X113753018Y-62311009D01*
X113752026Y-62318542D01*
X113752026Y-62318543D01*
X113735780Y-62441946D01*
X113707058Y-62506873D01*
X113647793Y-62545965D01*
X113610858Y-62551500D01*
X108890764Y-62551500D01*
X108829870Y-62535808D01*
X108742528Y-62487592D01*
X108719922Y-62475113D01*
X108538014Y-62410696D01*
X108498720Y-62396781D01*
X108498716Y-62396780D01*
X108493845Y-62395055D01*
X108488752Y-62394148D01*
X108488749Y-62394147D01*
X108262816Y-62353902D01*
X108262810Y-62353901D01*
X108257727Y-62352996D01*
X108170460Y-62351930D01*
X108023081Y-62350129D01*
X108023079Y-62350129D01*
X108017911Y-62350066D01*
X107780837Y-62386343D01*
X107552871Y-62460854D01*
X107501508Y-62487592D01*
X107360860Y-62560809D01*
X107340136Y-62571597D01*
X107336003Y-62574700D01*
X107336000Y-62574702D01*
X107196351Y-62679554D01*
X107148345Y-62715598D01*
X107136571Y-62727919D01*
X107018533Y-62851439D01*
X106982648Y-62888990D01*
X106979734Y-62893262D01*
X106979733Y-62893263D01*
X106922059Y-62977810D01*
X106847495Y-63087117D01*
X106746516Y-63304656D01*
X106706642Y-63448439D01*
X106688206Y-63514920D01*
X106682424Y-63535768D01*
X106656938Y-63774244D01*
X106657235Y-63779396D01*
X106657235Y-63779400D01*
X106659432Y-63817499D01*
X106670744Y-64013680D01*
X106671879Y-64018717D01*
X106671880Y-64018723D01*
X106699813Y-64142671D01*
X106723470Y-64247646D01*
X106765338Y-64350753D01*
X106807426Y-64454402D01*
X106813702Y-64469859D01*
X106939014Y-64674351D01*
X107096043Y-64855630D01*
X107206277Y-64947148D01*
X107225807Y-64963362D01*
X107265442Y-65022264D01*
X107266940Y-65093245D01*
X107229825Y-65153768D01*
X107220975Y-65161066D01*
X107152562Y-65212432D01*
X107148345Y-65215598D01*
X107144773Y-65219336D01*
X106988558Y-65382806D01*
X106982648Y-65388990D01*
X106979734Y-65393262D01*
X106979733Y-65393263D01*
X106909475Y-65496258D01*
X106847495Y-65587117D01*
X106805089Y-65678472D01*
X106764812Y-65765242D01*
X106746516Y-65804656D01*
X106682424Y-66035768D01*
X106656938Y-66274244D01*
X106670744Y-66513680D01*
X106671879Y-66518717D01*
X106671880Y-66518723D01*
X106720486Y-66734405D01*
X106723470Y-66747646D01*
X106813702Y-66969859D01*
X106816404Y-66974268D01*
X106921421Y-67145641D01*
X106939014Y-67174351D01*
X106942395Y-67178254D01*
X106982579Y-67224644D01*
X107012061Y-67289229D01*
X107001946Y-67359502D01*
X106985580Y-67385921D01*
X106982648Y-67388990D01*
X106847495Y-67587117D01*
X106746516Y-67804656D01*
X106682424Y-68035768D01*
X106656938Y-68274244D01*
X106657235Y-68279396D01*
X106657235Y-68279400D01*
X106662353Y-68368160D01*
X106670744Y-68513680D01*
X106671879Y-68518717D01*
X106671880Y-68518723D01*
X106709099Y-68683875D01*
X106723470Y-68747646D01*
X106773077Y-68869812D01*
X106800222Y-68936661D01*
X106813702Y-68969859D01*
X106939014Y-69174351D01*
X106942398Y-69178257D01*
X106942399Y-69178259D01*
X106974225Y-69215000D01*
X107096043Y-69355630D01*
X107280571Y-69508828D01*
X107487643Y-69629831D01*
X107492468Y-69631673D01*
X107492469Y-69631674D01*
X107545491Y-69651921D01*
X107711697Y-69715389D01*
X107716763Y-69716420D01*
X107716764Y-69716420D01*
X107773039Y-69727869D01*
X107946716Y-69763204D01*
X108082264Y-69768174D01*
X108181225Y-69771803D01*
X108181229Y-69771803D01*
X108186389Y-69771992D01*
X108191509Y-69771336D01*
X108191511Y-69771336D01*
X108419151Y-69742175D01*
X108419152Y-69742175D01*
X108424279Y-69741518D01*
X108507935Y-69716420D01*
X108649042Y-69674086D01*
X108649047Y-69674084D01*
X108653997Y-69672599D01*
X108869374Y-69567087D01*
X108873579Y-69564087D01*
X108873585Y-69564084D01*
X108972091Y-69493820D01*
X109064627Y-69427815D01*
X109234511Y-69258523D01*
X109245109Y-69243775D01*
X109371445Y-69067958D01*
X109374463Y-69063758D01*
X109399217Y-69013672D01*
X109447329Y-68961467D01*
X109512173Y-68943500D01*
X111533234Y-68943500D01*
X111601355Y-68963502D01*
X111647848Y-69017158D01*
X111658156Y-69085946D01*
X111649338Y-69152926D01*
X111656972Y-69222075D01*
X111667230Y-69314986D01*
X111668156Y-69323375D01*
X111670765Y-69330506D01*
X111670766Y-69330508D01*
X111721829Y-69470044D01*
X111729503Y-69513345D01*
X111729503Y-69660336D01*
X111728976Y-69671519D01*
X111727301Y-69679012D01*
X111727550Y-69686937D01*
X111727550Y-69686938D01*
X111729441Y-69747084D01*
X111729503Y-69751043D01*
X111729503Y-69778959D01*
X111730000Y-69782893D01*
X111730000Y-69782894D01*
X111730008Y-69782959D01*
X111730941Y-69794796D01*
X111732330Y-69838992D01*
X111737981Y-69858442D01*
X111741990Y-69877803D01*
X111744529Y-69897900D01*
X111747448Y-69905271D01*
X111747448Y-69905273D01*
X111760807Y-69939015D01*
X111764652Y-69950245D01*
X111772749Y-69978115D01*
X111776985Y-69992696D01*
X111781018Y-69999515D01*
X111781020Y-69999520D01*
X111787296Y-70010131D01*
X111795991Y-70027879D01*
X111803451Y-70046720D01*
X111808113Y-70053136D01*
X111808113Y-70053137D01*
X111829439Y-70082490D01*
X111835955Y-70092410D01*
X111858461Y-70130465D01*
X111872782Y-70144786D01*
X111885622Y-70159819D01*
X111897531Y-70176210D01*
X111918099Y-70193225D01*
X111931608Y-70204401D01*
X111940387Y-70212391D01*
X117143261Y-75415266D01*
X117172492Y-75461060D01*
X117173847Y-75464762D01*
X117199885Y-75535915D01*
X117204122Y-75542221D01*
X117204124Y-75542224D01*
X117229473Y-75579947D01*
X117295530Y-75678249D01*
X117326474Y-75706406D01*
X117414866Y-75786836D01*
X117422365Y-75793660D01*
X117573068Y-75875485D01*
X117738939Y-75919001D01*
X117826386Y-75920374D01*
X117902803Y-75921575D01*
X117902806Y-75921575D01*
X117910402Y-75921694D01*
X117917806Y-75919998D01*
X117917808Y-75919998D01*
X117997329Y-75901785D01*
X118077559Y-75883410D01*
X118230758Y-75806359D01*
X118236529Y-75801430D01*
X118236532Y-75801428D01*
X118355378Y-75699923D01*
X118361155Y-75694989D01*
X118461224Y-75555730D01*
X118525185Y-75396620D01*
X118549347Y-75226847D01*
X118549390Y-75222720D01*
X118549658Y-75219205D01*
X118574772Y-75152798D01*
X118603985Y-75125307D01*
X118608058Y-75123259D01*
X118633974Y-75101125D01*
X118732678Y-75016823D01*
X118738455Y-75011889D01*
X118838524Y-74872630D01*
X118878227Y-74773864D01*
X118906040Y-74731764D01*
X119312401Y-74325404D01*
X119374713Y-74291379D01*
X119401496Y-74288500D01*
X122015908Y-74288500D01*
X122084029Y-74308502D01*
X122130522Y-74362158D01*
X122141147Y-74400673D01*
X122158355Y-74556531D01*
X122159353Y-74565575D01*
X122161962Y-74572706D01*
X122161963Y-74572708D01*
X122180263Y-74622715D01*
X122218285Y-74726615D01*
X122222522Y-74732921D01*
X122222524Y-74732924D01*
X122246314Y-74768327D01*
X122313930Y-74868949D01*
X122374621Y-74924174D01*
X122434221Y-74978405D01*
X122440765Y-74984360D01*
X122483446Y-75007534D01*
X122584791Y-75062560D01*
X122584793Y-75062561D01*
X122591468Y-75066185D01*
X122598817Y-75068113D01*
X122599694Y-75068343D01*
X122600353Y-75068721D01*
X122605879Y-75070909D01*
X122605562Y-75071710D01*
X122656821Y-75101125D01*
X122780643Y-75224947D01*
X122788187Y-75233237D01*
X122792300Y-75239718D01*
X122798077Y-75245143D01*
X122841967Y-75286358D01*
X122844809Y-75289113D01*
X122864530Y-75308834D01*
X122867725Y-75311312D01*
X122876747Y-75319018D01*
X122908979Y-75349286D01*
X122915928Y-75353106D01*
X122926732Y-75359046D01*
X122943256Y-75369899D01*
X122959259Y-75382313D01*
X122999843Y-75399876D01*
X123010473Y-75405083D01*
X123049240Y-75426395D01*
X123056917Y-75428366D01*
X123056922Y-75428368D01*
X123068858Y-75431432D01*
X123087566Y-75437837D01*
X123106155Y-75445881D01*
X123113983Y-75447121D01*
X123113990Y-75447123D01*
X123149824Y-75452799D01*
X123161444Y-75455205D01*
X123193259Y-75463373D01*
X123204270Y-75466200D01*
X123224524Y-75466200D01*
X123244234Y-75467751D01*
X123264243Y-75470920D01*
X123272135Y-75470174D01*
X123290880Y-75468402D01*
X123308262Y-75466759D01*
X123320119Y-75466200D01*
X147309633Y-75466200D01*
X147320816Y-75466727D01*
X147328309Y-75468402D01*
X147336235Y-75468153D01*
X147336236Y-75468153D01*
X147396386Y-75466262D01*
X147400345Y-75466200D01*
X147428256Y-75466200D01*
X147432191Y-75465703D01*
X147432256Y-75465695D01*
X147444093Y-75464762D01*
X147476351Y-75463748D01*
X147480370Y-75463622D01*
X147488289Y-75463373D01*
X147507743Y-75457721D01*
X147527100Y-75453713D01*
X147539330Y-75452168D01*
X147539331Y-75452168D01*
X147547197Y-75451174D01*
X147554568Y-75448255D01*
X147554570Y-75448255D01*
X147588312Y-75434896D01*
X147599542Y-75431051D01*
X147634383Y-75420929D01*
X147634384Y-75420929D01*
X147641993Y-75418718D01*
X147648812Y-75414685D01*
X147648817Y-75414683D01*
X147659428Y-75408407D01*
X147677176Y-75399712D01*
X147696017Y-75392252D01*
X147716387Y-75377453D01*
X147731787Y-75366264D01*
X147741707Y-75359748D01*
X147752938Y-75353106D01*
X147779762Y-75337242D01*
X147785374Y-75331630D01*
X147789413Y-75328497D01*
X147820897Y-75311188D01*
X147823859Y-75310510D01*
X147977058Y-75233459D01*
X147982829Y-75228530D01*
X147982832Y-75228528D01*
X148101678Y-75127023D01*
X148107455Y-75122089D01*
X148191421Y-75005240D01*
X148203092Y-74988998D01*
X148203093Y-74988997D01*
X148207524Y-74982830D01*
X148271485Y-74823720D01*
X148272801Y-74814476D01*
X148295066Y-74658031D01*
X148295066Y-74658027D01*
X148295647Y-74653947D01*
X148295804Y-74639000D01*
X148287782Y-74572708D01*
X148276115Y-74476299D01*
X148276114Y-74476296D01*
X148275202Y-74468758D01*
X148270264Y-74455688D01*
X148217271Y-74315447D01*
X148214587Y-74308344D01*
X148175587Y-74251598D01*
X148121759Y-74173278D01*
X148121758Y-74173276D01*
X148117457Y-74167019D01*
X148111786Y-74161966D01*
X147995093Y-74057996D01*
X147995090Y-74057994D01*
X147989421Y-74052943D01*
X147981425Y-74048709D01*
X147927278Y-74020040D01*
X147837869Y-73972700D01*
X147791779Y-73961123D01*
X147678922Y-73932775D01*
X147678918Y-73932775D01*
X147671551Y-73930924D01*
X147663952Y-73930884D01*
X147663950Y-73930884D01*
X147592494Y-73930510D01*
X147500069Y-73930026D01*
X147492689Y-73931798D01*
X147492687Y-73931798D01*
X147340702Y-73968286D01*
X147340698Y-73968287D01*
X147333323Y-73970058D01*
X147180939Y-74048709D01*
X147175220Y-74053698D01*
X147090086Y-74127966D01*
X147051715Y-74161439D01*
X147051152Y-74160794D01*
X146996030Y-74194751D01*
X146962843Y-74199200D01*
X146327685Y-74199200D01*
X146259564Y-74179198D01*
X146213071Y-74125542D01*
X146202598Y-74088337D01*
X146199902Y-74066058D01*
X146139287Y-73905644D01*
X146103156Y-73853073D01*
X146046459Y-73770578D01*
X146046458Y-73770576D01*
X146042157Y-73764319D01*
X146036486Y-73759266D01*
X145919793Y-73655296D01*
X145919790Y-73655294D01*
X145914121Y-73650243D01*
X145762569Y-73570000D01*
X145752051Y-73567358D01*
X145603622Y-73530075D01*
X145603618Y-73530075D01*
X145596251Y-73528224D01*
X145588652Y-73528184D01*
X145588650Y-73528184D01*
X145517194Y-73527810D01*
X145424769Y-73527326D01*
X145417389Y-73529098D01*
X145417387Y-73529098D01*
X145265402Y-73565586D01*
X145265398Y-73565587D01*
X145258023Y-73567358D01*
X145228109Y-73582798D01*
X145216546Y-73588766D01*
X145158756Y-73602800D01*
X132587795Y-73602800D01*
X132519674Y-73582798D01*
X132498700Y-73565895D01*
X131815900Y-72883095D01*
X131781874Y-72820783D01*
X131786939Y-72749968D01*
X131829486Y-72693132D01*
X131896006Y-72668321D01*
X131904995Y-72668000D01*
X150007133Y-72668000D01*
X150018316Y-72668527D01*
X150025809Y-72670202D01*
X150033735Y-72669953D01*
X150033736Y-72669953D01*
X150093886Y-72668062D01*
X150097845Y-72668000D01*
X150125756Y-72668000D01*
X150129691Y-72667503D01*
X150129756Y-72667495D01*
X150141593Y-72666562D01*
X150173851Y-72665548D01*
X150177870Y-72665422D01*
X150185789Y-72665173D01*
X150205243Y-72659521D01*
X150224600Y-72655513D01*
X150236830Y-72653968D01*
X150236831Y-72653968D01*
X150244697Y-72652974D01*
X150252068Y-72650055D01*
X150252070Y-72650055D01*
X150285812Y-72636696D01*
X150297042Y-72632851D01*
X150331883Y-72622729D01*
X150331884Y-72622729D01*
X150339493Y-72620518D01*
X150346312Y-72616485D01*
X150346317Y-72616483D01*
X150356928Y-72610207D01*
X150374676Y-72601512D01*
X150393517Y-72594052D01*
X150401125Y-72588525D01*
X150429287Y-72568064D01*
X150439207Y-72561548D01*
X150470435Y-72543080D01*
X150470438Y-72543078D01*
X150477262Y-72539042D01*
X150491583Y-72524721D01*
X150506617Y-72511880D01*
X150516594Y-72504631D01*
X150523007Y-72499972D01*
X150551198Y-72465895D01*
X150559188Y-72457116D01*
X151551405Y-71464900D01*
X151613717Y-71430874D01*
X151684533Y-71435939D01*
X151741368Y-71478486D01*
X151766179Y-71545006D01*
X151766500Y-71553995D01*
X151766500Y-73266019D01*
X151765973Y-73277202D01*
X151764298Y-73284695D01*
X151764547Y-73292621D01*
X151764547Y-73292622D01*
X151766438Y-73352772D01*
X151766500Y-73356731D01*
X151766500Y-73384642D01*
X151766997Y-73388576D01*
X151766997Y-73388577D01*
X151767005Y-73388642D01*
X151767938Y-73400479D01*
X151769327Y-73444675D01*
X151774978Y-73464125D01*
X151778987Y-73483486D01*
X151779590Y-73488255D01*
X151781526Y-73503583D01*
X151784444Y-73510953D01*
X151791113Y-73527797D01*
X151799360Y-73561885D01*
X151808881Y-73658985D01*
X151862594Y-73820453D01*
X151866241Y-73826475D01*
X151866242Y-73826477D01*
X151937115Y-73943501D01*
X151950746Y-73966009D01*
X152068955Y-74088418D01*
X152133531Y-74130675D01*
X152198635Y-74173278D01*
X152211346Y-74181596D01*
X152217950Y-74184052D01*
X152217952Y-74184053D01*
X152254344Y-74197587D01*
X152370841Y-74240912D01*
X152539515Y-74263418D01*
X152546526Y-74262780D01*
X152546530Y-74262780D01*
X152701962Y-74248634D01*
X152708983Y-74247995D01*
X152715685Y-74245817D01*
X152715687Y-74245817D01*
X152864123Y-74197587D01*
X152864126Y-74197586D01*
X152870822Y-74195410D01*
X153016990Y-74108276D01*
X153022084Y-74103425D01*
X153022088Y-74103422D01*
X153122165Y-74008119D01*
X153140221Y-73990925D01*
X153144753Y-73984105D01*
X153212269Y-73882484D01*
X153234391Y-73849188D01*
X153294819Y-73690111D01*
X153318501Y-73521599D01*
X153318652Y-73510774D01*
X153318744Y-73504247D01*
X153318744Y-73504241D01*
X153318799Y-73500286D01*
X153299831Y-73331178D01*
X153243868Y-73170475D01*
X153227220Y-73143832D01*
X153190045Y-73084341D01*
X153153692Y-73026165D01*
X153070094Y-72941980D01*
X153036287Y-72879550D01*
X153033500Y-72853197D01*
X153033500Y-69670262D01*
X153054551Y-69600536D01*
X153078891Y-69563902D01*
X153139319Y-69404825D01*
X153163001Y-69236313D01*
X153163299Y-69215000D01*
X153144331Y-69045892D01*
X153145789Y-69045729D01*
X153149705Y-68982815D01*
X153191725Y-68925589D01*
X153258014Y-68900165D01*
X153327524Y-68914616D01*
X153357257Y-68936661D01*
X155635643Y-71215047D01*
X155643187Y-71223337D01*
X155647300Y-71229818D01*
X155653077Y-71235243D01*
X155696967Y-71276458D01*
X155699809Y-71279213D01*
X155719530Y-71298934D01*
X155722725Y-71301412D01*
X155731744Y-71309115D01*
X155751933Y-71328074D01*
X155787899Y-71389284D01*
X155785062Y-71460224D01*
X155754776Y-71509019D01*
X155083252Y-72180543D01*
X155020940Y-72214569D01*
X154993499Y-72217446D01*
X154872469Y-72216812D01*
X154865089Y-72218584D01*
X154865087Y-72218584D01*
X154713102Y-72255072D01*
X154713098Y-72255073D01*
X154705723Y-72256844D01*
X154553339Y-72335495D01*
X154424115Y-72448225D01*
X154325510Y-72588525D01*
X154306729Y-72636696D01*
X154267849Y-72736418D01*
X154263218Y-72748295D01*
X154262226Y-72755828D01*
X154262226Y-72755829D01*
X154242533Y-72905418D01*
X154240835Y-72918312D01*
X154245837Y-72963621D01*
X154258575Y-73078996D01*
X154259653Y-73088761D01*
X154318585Y-73249801D01*
X154322822Y-73256107D01*
X154322824Y-73256110D01*
X154353915Y-73302377D01*
X154414230Y-73392135D01*
X154419846Y-73397245D01*
X154528759Y-73496348D01*
X154541065Y-73507546D01*
X154691768Y-73589371D01*
X154857639Y-73632887D01*
X154945086Y-73634260D01*
X155021503Y-73635461D01*
X155021506Y-73635461D01*
X155029102Y-73635580D01*
X155036506Y-73633884D01*
X155036508Y-73633884D01*
X155155513Y-73606628D01*
X155196259Y-73597296D01*
X155203043Y-73593884D01*
X155203046Y-73593883D01*
X155248847Y-73570848D01*
X155301499Y-73557475D01*
X155325883Y-73556708D01*
X155333803Y-73556459D01*
X155353257Y-73550807D01*
X155372614Y-73546799D01*
X155384844Y-73545254D01*
X155384845Y-73545254D01*
X155392711Y-73544260D01*
X155400082Y-73541341D01*
X155400084Y-73541341D01*
X155433826Y-73527982D01*
X155445056Y-73524137D01*
X155479897Y-73514015D01*
X155479898Y-73514015D01*
X155487507Y-73511804D01*
X155494326Y-73507771D01*
X155494331Y-73507769D01*
X155504942Y-73501493D01*
X155522690Y-73492798D01*
X155541531Y-73485338D01*
X155561784Y-73470624D01*
X155577301Y-73459350D01*
X155587221Y-73452834D01*
X155618449Y-73434366D01*
X155618452Y-73434364D01*
X155625276Y-73430328D01*
X155639597Y-73416007D01*
X155654631Y-73403166D01*
X155658321Y-73400485D01*
X155671021Y-73391258D01*
X155699212Y-73357181D01*
X155707202Y-73348402D01*
X163853053Y-65202552D01*
X163861339Y-65195012D01*
X163867818Y-65190900D01*
X163914444Y-65141248D01*
X163917198Y-65138407D01*
X163936935Y-65118670D01*
X163939415Y-65115473D01*
X163947120Y-65106451D01*
X163971959Y-65080000D01*
X163977386Y-65074221D01*
X163981205Y-65067275D01*
X163981207Y-65067272D01*
X163987148Y-65056466D01*
X163997999Y-65039947D01*
X164005558Y-65030201D01*
X164010414Y-65023941D01*
X164013559Y-65016672D01*
X164013562Y-65016668D01*
X164027974Y-64983363D01*
X164033191Y-64972713D01*
X164054495Y-64933960D01*
X164059533Y-64914337D01*
X164065937Y-64895634D01*
X164070833Y-64884320D01*
X164070833Y-64884319D01*
X164073981Y-64877045D01*
X164075220Y-64869222D01*
X164075223Y-64869212D01*
X164080899Y-64833376D01*
X164083305Y-64821756D01*
X164092328Y-64786611D01*
X164092328Y-64786610D01*
X164094300Y-64778930D01*
X164094300Y-64758676D01*
X164095851Y-64738965D01*
X164097780Y-64726786D01*
X164099020Y-64718957D01*
X164094859Y-64674938D01*
X164094300Y-64663081D01*
X164094300Y-64625319D01*
X164103392Y-64578323D01*
X164115281Y-64548747D01*
X164150185Y-64461920D01*
X164158886Y-64400786D01*
X164173766Y-64296231D01*
X164173766Y-64296227D01*
X164174347Y-64292147D01*
X164174447Y-64282632D01*
X164174461Y-64281333D01*
X164174461Y-64281327D01*
X164174504Y-64277200D01*
X164168223Y-64225299D01*
X164154815Y-64114499D01*
X164154814Y-64114496D01*
X164153902Y-64106958D01*
X164118656Y-64013680D01*
X164095971Y-63953647D01*
X164093287Y-63946544D01*
X164075674Y-63920917D01*
X164000459Y-63811478D01*
X164000458Y-63811476D01*
X163996157Y-63805219D01*
X163990486Y-63800166D01*
X163873793Y-63696196D01*
X163873790Y-63696194D01*
X163868121Y-63691143D01*
X163860125Y-63686909D01*
X163749626Y-63628403D01*
X163716569Y-63610900D01*
X163698996Y-63606486D01*
X163557622Y-63570975D01*
X163557618Y-63570975D01*
X163550251Y-63569124D01*
X163542652Y-63569084D01*
X163542650Y-63569084D01*
X163471194Y-63568710D01*
X163378769Y-63568226D01*
X163371389Y-63569998D01*
X163371387Y-63569998D01*
X163219402Y-63606486D01*
X163219398Y-63606487D01*
X163212023Y-63608258D01*
X163059639Y-63686909D01*
X162930415Y-63799639D01*
X162926047Y-63805854D01*
X162920965Y-63811498D01*
X162919931Y-63810567D01*
X162870765Y-63849726D01*
X162800133Y-63856911D01*
X162739394Y-63827119D01*
X162728597Y-63817499D01*
X162728591Y-63817495D01*
X162722921Y-63812443D01*
X162571369Y-63732200D01*
X162560851Y-63729558D01*
X162412422Y-63692275D01*
X162412418Y-63692275D01*
X162405051Y-63690424D01*
X162397452Y-63690384D01*
X162397450Y-63690384D01*
X162325994Y-63690010D01*
X162233569Y-63689526D01*
X162226189Y-63691298D01*
X162226187Y-63691298D01*
X162074202Y-63727786D01*
X162074198Y-63727787D01*
X162066823Y-63729558D01*
X162053249Y-63736564D01*
X162027690Y-63749756D01*
X161957983Y-63763225D01*
X161892059Y-63736870D01*
X161850849Y-63679057D01*
X161843900Y-63637790D01*
X161843900Y-57119467D01*
X161844427Y-57108284D01*
X161846102Y-57100791D01*
X161845849Y-57092722D01*
X161843962Y-57032714D01*
X161843900Y-57028755D01*
X161843900Y-57014618D01*
X161863902Y-56946497D01*
X161917558Y-56900004D01*
X161956291Y-56889355D01*
X161960199Y-56888930D01*
X161980316Y-56886745D01*
X162116705Y-56835615D01*
X162233261Y-56748261D01*
X162320615Y-56631705D01*
X162371745Y-56495316D01*
X162378500Y-56433134D01*
X162378500Y-50799500D01*
X162398502Y-50731379D01*
X162452158Y-50684886D01*
X162504500Y-50673500D01*
X163215500Y-50673500D01*
X163283621Y-50693502D01*
X163330114Y-50747158D01*
X163341500Y-50799500D01*
X163341500Y-56433134D01*
X163348255Y-56495316D01*
X163399385Y-56631705D01*
X163486739Y-56748261D01*
X163603295Y-56835615D01*
X163739684Y-56886745D01*
X163801866Y-56893500D01*
X165878134Y-56893500D01*
X165940316Y-56886745D01*
X166076705Y-56835615D01*
X166193261Y-56748261D01*
X166280615Y-56631705D01*
X166331745Y-56495316D01*
X166338500Y-56433134D01*
X166338500Y-50799500D01*
X166358502Y-50731379D01*
X166412158Y-50684886D01*
X166464500Y-50673500D01*
X167175500Y-50673500D01*
X167243621Y-50693502D01*
X167290114Y-50747158D01*
X167301500Y-50799500D01*
X167301500Y-56433134D01*
X167308255Y-56495316D01*
X167359385Y-56631705D01*
X167446739Y-56748261D01*
X167563295Y-56835615D01*
X167699684Y-56886745D01*
X167761866Y-56893500D01*
X169838134Y-56893500D01*
X169900316Y-56886745D01*
X170036705Y-56835615D01*
X170153261Y-56748261D01*
X170180000Y-56712583D01*
X170180000Y-62024819D01*
X168913365Y-63291454D01*
X168851053Y-63325480D01*
X168780238Y-63320415D01*
X168723402Y-63277868D01*
X168698316Y-63205767D01*
X168694255Y-63055696D01*
X168694057Y-63048379D01*
X168648727Y-62877416D01*
X168642203Y-62865222D01*
X168568735Y-62727919D01*
X168568734Y-62727918D01*
X168565282Y-62721466D01*
X168448200Y-62588896D01*
X168303760Y-62486815D01*
X168289396Y-62481026D01*
X168146506Y-62423440D01*
X168146503Y-62423439D01*
X168139711Y-62420702D01*
X168059108Y-62408440D01*
X167972085Y-62395201D01*
X167972081Y-62395201D01*
X167964851Y-62394101D01*
X167957559Y-62394694D01*
X167957556Y-62394694D01*
X167884760Y-62400615D01*
X167788564Y-62408440D01*
X167781601Y-62410696D01*
X167781599Y-62410696D01*
X167627270Y-62460690D01*
X167627267Y-62460691D01*
X167620301Y-62462948D01*
X167614042Y-62466746D01*
X167614038Y-62466748D01*
X167574011Y-62491038D01*
X167469093Y-62554705D01*
X167460716Y-62562103D01*
X163413589Y-66609230D01*
X163399177Y-66621616D01*
X163387582Y-66630149D01*
X163387577Y-66630154D01*
X163381682Y-66634492D01*
X163376943Y-66640070D01*
X163376940Y-66640073D01*
X163347465Y-66674768D01*
X163340535Y-66682284D01*
X163334840Y-66687979D01*
X163332560Y-66690861D01*
X163317219Y-66710251D01*
X163314428Y-66713655D01*
X163271909Y-66763703D01*
X163267167Y-66769285D01*
X163263839Y-66775801D01*
X163260472Y-66780850D01*
X163257305Y-66785979D01*
X163252766Y-66791716D01*
X163221845Y-66857875D01*
X163219942Y-66861769D01*
X163186731Y-66926808D01*
X163184992Y-66933916D01*
X163182893Y-66939559D01*
X163180976Y-66945322D01*
X163177878Y-66951950D01*
X163176388Y-66959112D01*
X163176388Y-66959113D01*
X163163014Y-67023412D01*
X163162044Y-67027696D01*
X163144692Y-67098610D01*
X163144000Y-67109764D01*
X163143964Y-67109762D01*
X163143725Y-67113755D01*
X163143351Y-67117947D01*
X163141860Y-67125115D01*
X163142191Y-67137343D01*
X163143954Y-67202521D01*
X163144000Y-67205928D01*
X163144000Y-69182641D01*
X163123998Y-69250762D01*
X163070342Y-69297255D01*
X163039338Y-69306821D01*
X162903898Y-69330094D01*
X162879386Y-69334306D01*
X162716636Y-69403557D01*
X162710748Y-69407890D01*
X162710743Y-69407893D01*
X162612416Y-69480255D01*
X162574182Y-69508392D01*
X162569445Y-69513968D01*
X162569440Y-69513973D01*
X162464406Y-69637606D01*
X162464403Y-69637610D01*
X162459667Y-69643185D01*
X162423740Y-69713544D01*
X162390337Y-69778959D01*
X162379231Y-69800708D01*
X162377492Y-69807813D01*
X162377491Y-69807817D01*
X162367156Y-69850056D01*
X162337192Y-69972510D01*
X162336500Y-69983664D01*
X162336500Y-78378329D01*
X162316498Y-78446450D01*
X162299595Y-78467424D01*
X160391089Y-80375930D01*
X160376677Y-80388316D01*
X160365082Y-80396849D01*
X160365077Y-80396854D01*
X160359182Y-80401192D01*
X160354443Y-80406770D01*
X160354440Y-80406773D01*
X160324965Y-80441468D01*
X160318035Y-80448984D01*
X160312340Y-80454679D01*
X160310060Y-80457561D01*
X160294719Y-80476951D01*
X160291928Y-80480355D01*
X160251795Y-80527595D01*
X160244667Y-80535985D01*
X160241339Y-80542501D01*
X160237972Y-80547550D01*
X160234805Y-80552679D01*
X160230266Y-80558416D01*
X160199345Y-80624575D01*
X160197442Y-80628469D01*
X160164231Y-80693508D01*
X160162492Y-80700616D01*
X160160393Y-80706259D01*
X160158476Y-80712022D01*
X160155378Y-80718650D01*
X160141268Y-80786489D01*
X160140514Y-80790112D01*
X160139554Y-80794354D01*
X160136839Y-80805450D01*
X160101221Y-80866861D01*
X160038053Y-80899270D01*
X160014451Y-80901500D01*
X159841866Y-80901500D01*
X159779684Y-80908255D01*
X159643295Y-80959385D01*
X159526739Y-81046739D01*
X159439385Y-81163295D01*
X159388255Y-81299684D01*
X159381500Y-81361866D01*
X159381500Y-90805500D01*
X159361498Y-90873621D01*
X159307842Y-90920114D01*
X159255500Y-90931500D01*
X154584500Y-90931500D01*
X154516379Y-90911498D01*
X154469886Y-90857842D01*
X154458500Y-90805500D01*
X154458500Y-81522895D01*
X154478502Y-81454774D01*
X154532158Y-81408281D01*
X154602432Y-81398177D01*
X154667012Y-81427671D01*
X154673595Y-81433800D01*
X154706143Y-81466348D01*
X154739719Y-81526670D01*
X154739919Y-81527524D01*
X154740753Y-81535075D01*
X154799685Y-81696115D01*
X154895330Y-81838449D01*
X155022165Y-81953860D01*
X155172868Y-82035685D01*
X155338739Y-82079201D01*
X155426186Y-82080574D01*
X155502603Y-82081775D01*
X155502606Y-82081775D01*
X155510202Y-82081894D01*
X155517606Y-82080198D01*
X155517608Y-82080198D01*
X155580446Y-82065806D01*
X155677359Y-82043610D01*
X155830558Y-81966559D01*
X155836329Y-81961630D01*
X155836332Y-81961628D01*
X155955178Y-81860123D01*
X155960955Y-81855189D01*
X156061024Y-81715930D01*
X156124985Y-81556820D01*
X156142493Y-81433800D01*
X156148566Y-81391131D01*
X156148566Y-81391127D01*
X156149147Y-81387047D01*
X156149304Y-81372100D01*
X156141491Y-81307540D01*
X156129615Y-81209399D01*
X156129614Y-81209396D01*
X156128702Y-81201858D01*
X156122310Y-81184940D01*
X156070771Y-81048547D01*
X156068087Y-81041444D01*
X156028446Y-80983766D01*
X155975259Y-80906378D01*
X155975258Y-80906376D01*
X155970957Y-80900119D01*
X155962825Y-80892873D01*
X155865996Y-80806602D01*
X155842921Y-80786043D01*
X155805945Y-80766465D01*
X155775810Y-80744206D01*
X153748753Y-78717148D01*
X156888469Y-78717148D01*
X156907287Y-78887597D01*
X156909896Y-78894728D01*
X156909897Y-78894730D01*
X156917822Y-78916386D01*
X156966219Y-79048637D01*
X156970456Y-79054943D01*
X156970458Y-79054946D01*
X156979534Y-79068452D01*
X157061864Y-79190971D01*
X157188699Y-79306382D01*
X157339402Y-79388207D01*
X157505273Y-79431723D01*
X157592720Y-79433096D01*
X157669137Y-79434297D01*
X157669140Y-79434297D01*
X157676736Y-79434416D01*
X157684140Y-79432720D01*
X157684142Y-79432720D01*
X157746980Y-79418328D01*
X157843893Y-79396132D01*
X157997092Y-79319081D01*
X158002863Y-79314152D01*
X158002866Y-79314150D01*
X158121712Y-79212645D01*
X158127489Y-79207711D01*
X158227558Y-79068452D01*
X158291519Y-78909342D01*
X158295688Y-78880047D01*
X158315100Y-78743653D01*
X158315100Y-78743649D01*
X158315681Y-78739569D01*
X158315838Y-78724622D01*
X158295236Y-78554380D01*
X158243768Y-78418173D01*
X158235634Y-78373635D01*
X158235634Y-76181460D01*
X158255636Y-76113339D01*
X158272535Y-76092369D01*
X159128603Y-75236302D01*
X159190913Y-75202278D01*
X159261729Y-75207343D01*
X159318564Y-75249890D01*
X159343375Y-75316410D01*
X159335088Y-75371171D01*
X159334996Y-75371406D01*
X159331492Y-75380395D01*
X159328718Y-75387509D01*
X159327726Y-75395042D01*
X159327726Y-75395043D01*
X159307445Y-75549098D01*
X159306335Y-75557526D01*
X159314374Y-75630344D01*
X159322772Y-75706406D01*
X159325153Y-75727975D01*
X159327762Y-75735106D01*
X159327763Y-75735108D01*
X159335688Y-75756764D01*
X159384085Y-75889015D01*
X159388322Y-75895321D01*
X159388324Y-75895324D01*
X159414709Y-75934588D01*
X159479730Y-76031349D01*
X159543148Y-76089055D01*
X159581425Y-76123884D01*
X159606565Y-76146760D01*
X159757268Y-76228585D01*
X159923139Y-76272101D01*
X160010586Y-76273474D01*
X160087003Y-76274675D01*
X160087006Y-76274675D01*
X160094602Y-76274794D01*
X160102006Y-76273098D01*
X160102008Y-76273098D01*
X160166881Y-76258240D01*
X160261759Y-76236510D01*
X160414958Y-76159459D01*
X160420729Y-76154530D01*
X160420732Y-76154528D01*
X160539578Y-76053023D01*
X160545355Y-76048089D01*
X160645424Y-75908830D01*
X160709385Y-75749720D01*
X160713670Y-75719610D01*
X160732966Y-75584031D01*
X160732966Y-75584027D01*
X160733547Y-75579947D01*
X160733704Y-75565000D01*
X160724686Y-75490478D01*
X160714015Y-75402299D01*
X160714014Y-75402296D01*
X160713102Y-75394758D01*
X160710394Y-75387590D01*
X160661634Y-75258551D01*
X160653500Y-75214013D01*
X160653500Y-74008119D01*
X160662592Y-73961123D01*
X160694204Y-73882484D01*
X160709385Y-73844720D01*
X160726731Y-73722839D01*
X160732966Y-73679031D01*
X160732966Y-73679027D01*
X160733547Y-73674947D01*
X160733621Y-73667857D01*
X160733661Y-73664133D01*
X160733661Y-73664127D01*
X160733704Y-73660000D01*
X160722316Y-73565895D01*
X160714015Y-73497299D01*
X160714014Y-73497296D01*
X160713102Y-73489758D01*
X160709671Y-73480676D01*
X160655171Y-73336447D01*
X160652487Y-73329344D01*
X160584957Y-73231087D01*
X160559659Y-73194278D01*
X160559658Y-73194276D01*
X160555357Y-73188019D01*
X160549686Y-73182966D01*
X160432993Y-73078996D01*
X160432990Y-73078994D01*
X160427321Y-73073943D01*
X160419325Y-73069709D01*
X160337084Y-73026165D01*
X160275769Y-72993700D01*
X160258196Y-72989286D01*
X160116822Y-72953775D01*
X160116818Y-72953775D01*
X160109451Y-72951924D01*
X160101852Y-72951884D01*
X160101850Y-72951884D01*
X160030394Y-72951510D01*
X159937969Y-72951026D01*
X159930589Y-72952798D01*
X159930587Y-72952798D01*
X159778602Y-72989286D01*
X159778598Y-72989287D01*
X159771223Y-72991058D01*
X159618839Y-73069709D01*
X159489615Y-73182439D01*
X159391010Y-73322739D01*
X159388251Y-73329815D01*
X159388249Y-73329819D01*
X159356415Y-73411469D01*
X159313034Y-73467671D01*
X159246155Y-73491497D01*
X159238363Y-73491697D01*
X159211607Y-73491557D01*
X159186569Y-73491426D01*
X159179189Y-73493198D01*
X159179187Y-73493198D01*
X159027202Y-73529686D01*
X159027198Y-73529687D01*
X159019823Y-73531458D01*
X158867439Y-73610109D01*
X158738215Y-73722839D01*
X158639610Y-73863139D01*
X158636850Y-73870219D01*
X158636848Y-73870222D01*
X158604259Y-73953809D01*
X158575961Y-73997135D01*
X157209881Y-75363214D01*
X157201595Y-75370754D01*
X157195116Y-75374866D01*
X157189691Y-75380643D01*
X157148491Y-75424517D01*
X157145736Y-75427359D01*
X157125999Y-75447096D01*
X157123519Y-75450293D01*
X157115816Y-75459313D01*
X157085548Y-75491545D01*
X157081729Y-75498491D01*
X157081727Y-75498494D01*
X157075786Y-75509300D01*
X157064935Y-75525819D01*
X157052520Y-75541825D01*
X157049375Y-75549094D01*
X157049372Y-75549098D01*
X157034960Y-75582403D01*
X157029743Y-75593053D01*
X157008439Y-75631806D01*
X157006468Y-75639481D01*
X157006468Y-75639482D01*
X157003401Y-75651428D01*
X156996997Y-75670132D01*
X156993485Y-75678249D01*
X156988953Y-75688721D01*
X156987714Y-75696544D01*
X156987711Y-75696554D01*
X156982035Y-75732390D01*
X156979629Y-75744010D01*
X156968634Y-75786836D01*
X156968634Y-75807090D01*
X156967083Y-75826800D01*
X156963914Y-75846809D01*
X156964660Y-75854701D01*
X156968075Y-75890827D01*
X156968634Y-75902685D01*
X156968634Y-78375234D01*
X156960027Y-78421004D01*
X156910852Y-78547131D01*
X156909860Y-78554664D01*
X156909860Y-78554665D01*
X156890506Y-78701678D01*
X156888469Y-78717148D01*
X153748753Y-78717148D01*
X152500352Y-77468747D01*
X152492812Y-77460461D01*
X152488700Y-77453982D01*
X152439048Y-77407356D01*
X152436207Y-77404602D01*
X152416470Y-77384865D01*
X152413273Y-77382385D01*
X152404251Y-77374680D01*
X152377800Y-77349841D01*
X152372021Y-77344414D01*
X152365075Y-77340595D01*
X152365072Y-77340593D01*
X152354266Y-77334652D01*
X152337747Y-77323801D01*
X152337283Y-77323441D01*
X152321741Y-77311386D01*
X152314472Y-77308241D01*
X152314468Y-77308238D01*
X152281163Y-77293826D01*
X152270513Y-77288609D01*
X152231760Y-77267305D01*
X152212137Y-77262267D01*
X152193434Y-77255863D01*
X152182120Y-77250967D01*
X152182119Y-77250967D01*
X152174845Y-77247819D01*
X152167022Y-77246580D01*
X152167012Y-77246577D01*
X152131176Y-77240901D01*
X152119556Y-77238495D01*
X152084411Y-77229472D01*
X152084410Y-77229472D01*
X152076730Y-77227500D01*
X152056476Y-77227500D01*
X152036765Y-77225949D01*
X152024586Y-77224020D01*
X152016757Y-77222780D01*
X152008865Y-77223526D01*
X151972739Y-77226941D01*
X151960881Y-77227500D01*
X117078815Y-77227500D01*
X117019859Y-77212856D01*
X116985569Y-77194700D01*
X116967996Y-77190286D01*
X116826622Y-77154775D01*
X116826618Y-77154775D01*
X116819251Y-77152924D01*
X116811652Y-77152884D01*
X116811650Y-77152884D01*
X116740194Y-77152510D01*
X116647769Y-77152026D01*
X116640389Y-77153798D01*
X116640387Y-77153798D01*
X116488402Y-77190286D01*
X116488398Y-77190287D01*
X116481023Y-77192058D01*
X116328639Y-77270709D01*
X116199415Y-77383439D01*
X116100810Y-77523739D01*
X116038518Y-77683509D01*
X116016135Y-77853526D01*
X116015397Y-77853429D01*
X115996390Y-77915731D01*
X115942249Y-77961657D01*
X115891114Y-77972500D01*
X115776895Y-77972500D01*
X115708774Y-77952498D01*
X115687800Y-77935595D01*
X112196852Y-74444647D01*
X112189312Y-74436361D01*
X112185200Y-74429882D01*
X112135548Y-74383256D01*
X112132707Y-74380502D01*
X112112970Y-74360765D01*
X112109773Y-74358285D01*
X112100751Y-74350580D01*
X112074300Y-74325741D01*
X112068521Y-74320314D01*
X112061575Y-74316495D01*
X112061572Y-74316493D01*
X112050766Y-74310552D01*
X112034247Y-74299701D01*
X112033783Y-74299341D01*
X112018241Y-74287286D01*
X112010972Y-74284141D01*
X112010968Y-74284138D01*
X111977663Y-74269726D01*
X111967013Y-74264509D01*
X111928260Y-74243205D01*
X111919330Y-74240912D01*
X111908638Y-74238167D01*
X111889934Y-74231763D01*
X111878620Y-74226867D01*
X111878619Y-74226867D01*
X111871345Y-74223719D01*
X111863522Y-74222480D01*
X111863512Y-74222477D01*
X111827676Y-74216801D01*
X111816056Y-74214395D01*
X111780911Y-74205372D01*
X111780910Y-74205372D01*
X111773230Y-74203400D01*
X111752976Y-74203400D01*
X111733265Y-74201849D01*
X111721086Y-74199920D01*
X111713257Y-74198680D01*
X111705365Y-74199426D01*
X111669239Y-74202841D01*
X111657381Y-74203400D01*
X111204415Y-74203400D01*
X111145459Y-74188756D01*
X111111169Y-74170600D01*
X111100651Y-74167958D01*
X110952222Y-74130675D01*
X110952218Y-74130675D01*
X110944851Y-74128824D01*
X110937252Y-74128784D01*
X110937250Y-74128784D01*
X110865794Y-74128410D01*
X110773369Y-74127926D01*
X110765989Y-74129698D01*
X110765987Y-74129698D01*
X110614002Y-74166186D01*
X110613998Y-74166187D01*
X110606623Y-74167958D01*
X110454239Y-74246609D01*
X110325015Y-74359339D01*
X110226410Y-74499639D01*
X110211263Y-74538489D01*
X110167856Y-74649822D01*
X110164118Y-74659409D01*
X110163126Y-74666942D01*
X110163126Y-74666943D01*
X110149050Y-74773864D01*
X110141735Y-74829426D01*
X110151144Y-74914650D01*
X110159283Y-74988368D01*
X110160553Y-74999875D01*
X110163162Y-75007006D01*
X110163163Y-75007008D01*
X110173417Y-75035027D01*
X110219485Y-75160915D01*
X110223722Y-75167221D01*
X110223724Y-75167224D01*
X110261797Y-75223881D01*
X110315130Y-75303249D01*
X110358370Y-75342594D01*
X110425485Y-75403664D01*
X110441965Y-75418660D01*
X110592668Y-75500485D01*
X110758539Y-75544001D01*
X110845986Y-75545374D01*
X110922403Y-75546575D01*
X110922406Y-75546575D01*
X110930002Y-75546694D01*
X110937406Y-75544998D01*
X110937408Y-75544998D01*
X111008223Y-75528779D01*
X111097159Y-75508410D01*
X111146022Y-75483835D01*
X111202635Y-75470400D01*
X111378606Y-75470400D01*
X111446727Y-75490402D01*
X111467701Y-75507305D01*
X111922735Y-75962339D01*
X111956761Y-76024651D01*
X111951696Y-76095466D01*
X111936728Y-76123884D01*
X111911810Y-76159339D01*
X111849518Y-76319109D01*
X111848526Y-76326642D01*
X111848526Y-76326643D01*
X111828608Y-76477939D01*
X111827135Y-76489126D01*
X111827969Y-76496676D01*
X111840196Y-76607425D01*
X111845953Y-76659575D01*
X111904885Y-76820615D01*
X112000530Y-76962949D01*
X112127365Y-77078360D01*
X112191786Y-77113338D01*
X112271391Y-77156560D01*
X112271393Y-77156561D01*
X112278068Y-77160185D01*
X112285417Y-77162113D01*
X112286294Y-77162343D01*
X112286953Y-77162721D01*
X112292479Y-77164909D01*
X112292162Y-77165710D01*
X112343421Y-77195125D01*
X114057637Y-78909342D01*
X115770348Y-80622053D01*
X115777888Y-80630339D01*
X115782000Y-80636818D01*
X115787776Y-80642242D01*
X115831651Y-80683443D01*
X115834493Y-80686198D01*
X115854230Y-80705935D01*
X115857427Y-80708415D01*
X115866447Y-80716118D01*
X115898679Y-80746386D01*
X115905625Y-80750205D01*
X115905628Y-80750207D01*
X115916434Y-80756148D01*
X115932953Y-80766999D01*
X115948959Y-80779414D01*
X115987075Y-80795908D01*
X116041646Y-80841317D01*
X116063007Y-80909024D01*
X116044371Y-80977531D01*
X116012599Y-81012369D01*
X115966739Y-81046739D01*
X115879385Y-81163295D01*
X115828255Y-81299684D01*
X115821500Y-81361866D01*
X115821500Y-90805500D01*
X115801498Y-90873621D01*
X115747842Y-90920114D01*
X115695500Y-90931500D01*
X114984500Y-90931500D01*
X114916379Y-90911498D01*
X114869886Y-90857842D01*
X114858500Y-90805500D01*
X114858500Y-81361866D01*
X114851745Y-81299684D01*
X114800615Y-81163295D01*
X114713261Y-81046739D01*
X114596705Y-80959385D01*
X114460316Y-80908255D01*
X114398134Y-80901500D01*
X112321866Y-80901500D01*
X112259684Y-80908255D01*
X112123295Y-80959385D01*
X112006739Y-81046739D01*
X111919385Y-81163295D01*
X111868255Y-81299684D01*
X111861500Y-81361866D01*
X111861500Y-90805500D01*
X111841498Y-90873621D01*
X111787842Y-90920114D01*
X111735500Y-90931500D01*
X111024500Y-90931500D01*
X110956379Y-90911498D01*
X110909886Y-90857842D01*
X110898500Y-90805500D01*
X110898500Y-81361866D01*
X110891745Y-81299684D01*
X110840615Y-81163295D01*
X110753261Y-81046739D01*
X110636705Y-80959385D01*
X110500316Y-80908255D01*
X110438134Y-80901500D01*
X108361866Y-80901500D01*
X108299684Y-80908255D01*
X108163295Y-80959385D01*
X108046739Y-81046739D01*
X107959385Y-81163295D01*
X107908255Y-81299684D01*
X107901500Y-81361866D01*
X107901500Y-90805500D01*
X107881498Y-90873621D01*
X107827842Y-90920114D01*
X107775500Y-90931500D01*
X107064500Y-90931500D01*
X106996379Y-90911498D01*
X106949886Y-90857842D01*
X106938500Y-90805500D01*
X106938500Y-81361866D01*
X106931745Y-81299684D01*
X106880615Y-81163295D01*
X106793261Y-81046739D01*
X106676705Y-80959385D01*
X106540316Y-80908255D01*
X106478134Y-80901500D01*
X104401866Y-80901500D01*
X104339684Y-80908255D01*
X104203295Y-80959385D01*
X104086739Y-81046739D01*
X103999385Y-81163295D01*
X103948255Y-81299684D01*
X103941500Y-81361866D01*
X103941500Y-90805500D01*
X103921498Y-90873621D01*
X103867842Y-90920114D01*
X103815500Y-90931500D01*
X99059500Y-90931500D01*
X98991379Y-90911498D01*
X98944886Y-90857842D01*
X98933500Y-90805500D01*
X98933500Y-81351441D01*
X98934095Y-81339459D01*
X98936200Y-81330913D01*
X98933616Y-81270824D01*
X98933500Y-81265411D01*
X98933500Y-81243487D01*
X98932865Y-81239053D01*
X98932854Y-81238897D01*
X98931717Y-81226664D01*
X98931699Y-81226230D01*
X98930975Y-81209399D01*
X98930328Y-81194353D01*
X98930327Y-81194350D01*
X98929942Y-81185389D01*
X98925471Y-81172227D01*
X98920050Y-81149569D01*
X98919353Y-81144699D01*
X98919352Y-81144696D01*
X98918080Y-81135813D01*
X98900975Y-81098194D01*
X98896382Y-81086597D01*
X98883091Y-81047472D01*
X98877937Y-81040129D01*
X98877936Y-81040126D01*
X98875113Y-81036105D01*
X98863543Y-81015867D01*
X98857792Y-81003218D01*
X98847452Y-80991217D01*
X98835659Y-80977531D01*
X98830822Y-80971917D01*
X98823157Y-80962074D01*
X98799416Y-80928247D01*
X98792402Y-80922640D01*
X98788561Y-80919569D01*
X98771780Y-80903396D01*
X98768574Y-80899675D01*
X98768572Y-80899673D01*
X98762713Y-80892873D01*
X98728036Y-80870396D01*
X98717906Y-80863091D01*
X98692652Y-80842904D01*
X98692651Y-80842903D01*
X98685641Y-80837300D01*
X98672793Y-80832021D01*
X98652154Y-80821212D01*
X98640485Y-80813648D01*
X98608211Y-80803996D01*
X98600905Y-80801811D01*
X98589122Y-80797641D01*
X98550914Y-80781941D01*
X98537100Y-80780480D01*
X98514250Y-80775896D01*
X98509538Y-80774487D01*
X98509537Y-80774487D01*
X98500934Y-80771914D01*
X98491958Y-80771859D01*
X98491957Y-80771859D01*
X98459618Y-80771661D01*
X98447138Y-80770964D01*
X98414989Y-80767564D01*
X98406063Y-80766620D01*
X98392388Y-80769096D01*
X98369180Y-80771109D01*
X98355279Y-80771024D01*
X98354498Y-80771247D01*
X98351153Y-80771453D01*
X98155742Y-80768816D01*
X98140029Y-80767618D01*
X97987867Y-80746386D01*
X97905860Y-80734943D01*
X97890431Y-80731795D01*
X97668694Y-80671907D01*
X97662178Y-80670147D01*
X97647251Y-80665095D01*
X97428475Y-80575436D01*
X97414296Y-80568560D01*
X97305096Y-80506890D01*
X97208419Y-80452292D01*
X97195220Y-80443707D01*
X97057687Y-80341467D01*
X97005473Y-80302652D01*
X96993439Y-80292479D01*
X96822777Y-80128838D01*
X96812107Y-80117241D01*
X96710187Y-79991527D01*
X96663212Y-79933584D01*
X96654080Y-79920758D01*
X96562061Y-79772703D01*
X96529268Y-79719941D01*
X96521803Y-79706063D01*
X96423040Y-79491251D01*
X96417365Y-79476549D01*
X96368407Y-79321468D01*
X96346185Y-79251075D01*
X96342394Y-79235796D01*
X96299915Y-79003202D01*
X96298059Y-78987552D01*
X96296682Y-78962753D01*
X96286848Y-78785698D01*
X96288221Y-78759839D01*
X96288242Y-78758774D01*
X96289685Y-78749917D01*
X96288585Y-78741014D01*
X96288585Y-78741010D01*
X96285720Y-78717826D01*
X96284771Y-78701678D01*
X96311582Y-73857344D01*
X103246575Y-73857344D01*
X103263516Y-74151164D01*
X103264341Y-74155371D01*
X103264342Y-74155376D01*
X103286314Y-74267367D01*
X103320177Y-74439966D01*
X103321564Y-74444016D01*
X103321565Y-74444021D01*
X103408923Y-74699171D01*
X103415509Y-74718407D01*
X103475143Y-74836976D01*
X103538116Y-74962184D01*
X103547747Y-74981334D01*
X103550173Y-74984863D01*
X103550176Y-74984869D01*
X103639597Y-75114977D01*
X103714445Y-75223881D01*
X103717332Y-75227054D01*
X103717333Y-75227055D01*
X103744830Y-75257274D01*
X103912518Y-75441560D01*
X103915807Y-75444310D01*
X104135009Y-75627592D01*
X104135014Y-75627596D01*
X104138301Y-75630344D01*
X104214668Y-75678249D01*
X104383976Y-75784456D01*
X104383980Y-75784458D01*
X104387616Y-75786739D01*
X104503317Y-75838980D01*
X104651937Y-75906085D01*
X104651941Y-75906087D01*
X104655849Y-75907851D01*
X104702582Y-75921694D01*
X104933924Y-75990221D01*
X104933929Y-75990222D01*
X104938037Y-75991439D01*
X104942271Y-75992087D01*
X104942276Y-75992088D01*
X105224717Y-76035307D01*
X105224719Y-76035307D01*
X105228959Y-76035956D01*
X105378772Y-76038310D01*
X105518940Y-76040512D01*
X105518946Y-76040512D01*
X105523231Y-76040579D01*
X105815408Y-76005222D01*
X106065658Y-75939570D01*
X106095939Y-75931626D01*
X106095940Y-75931626D01*
X106100082Y-75930539D01*
X106371988Y-75817912D01*
X106508304Y-75738255D01*
X106622389Y-75671589D01*
X106622390Y-75671588D01*
X106626092Y-75669425D01*
X106857694Y-75487827D01*
X106861563Y-75483835D01*
X106999708Y-75341279D01*
X107062506Y-75276476D01*
X107236741Y-75039285D01*
X107248975Y-75016753D01*
X107375122Y-74784418D01*
X107375123Y-74784416D01*
X107377172Y-74780642D01*
X107455744Y-74572708D01*
X107479685Y-74509351D01*
X107479686Y-74509347D01*
X107481203Y-74505333D01*
X107516646Y-74350580D01*
X107545949Y-74222637D01*
X107545950Y-74222633D01*
X107546907Y-74218453D01*
X107548075Y-74205372D01*
X107572849Y-73927776D01*
X107572849Y-73927774D01*
X107573069Y-73925310D01*
X107573544Y-73880000D01*
X107573375Y-73877519D01*
X107553819Y-73590650D01*
X107553818Y-73590644D01*
X107553527Y-73586373D01*
X107551979Y-73578895D01*
X107511106Y-73381529D01*
X107493845Y-73298180D01*
X107395603Y-73020753D01*
X107260618Y-72759226D01*
X107254112Y-72749968D01*
X107093856Y-72521948D01*
X107093855Y-72521947D01*
X107091389Y-72518438D01*
X106891048Y-72302844D01*
X106885001Y-72297894D01*
X106666618Y-72119151D01*
X106663300Y-72116435D01*
X106412361Y-71962660D01*
X106393706Y-71954471D01*
X106146802Y-71846087D01*
X106146798Y-71846086D01*
X106142874Y-71844363D01*
X105859826Y-71763735D01*
X105855584Y-71763131D01*
X105855578Y-71763130D01*
X105572705Y-71722871D01*
X105568454Y-71722266D01*
X105413306Y-71721454D01*
X105278436Y-71720747D01*
X105278430Y-71720747D01*
X105274150Y-71720725D01*
X105269906Y-71721284D01*
X105269902Y-71721284D01*
X105141341Y-71738210D01*
X104982360Y-71759140D01*
X104978220Y-71760273D01*
X104978218Y-71760273D01*
X104845188Y-71796666D01*
X104698483Y-71836800D01*
X104694533Y-71838485D01*
X104431714Y-71950586D01*
X104431707Y-71950590D01*
X104427772Y-71952268D01*
X104288294Y-72035744D01*
X104178918Y-72101204D01*
X104178914Y-72101207D01*
X104175236Y-72103408D01*
X103945549Y-72287422D01*
X103942605Y-72290524D01*
X103942601Y-72290528D01*
X103745911Y-72497796D01*
X103742961Y-72500905D01*
X103571220Y-72739908D01*
X103433504Y-73000007D01*
X103398414Y-73095894D01*
X103348941Y-73231087D01*
X103332362Y-73276390D01*
X103269666Y-73563943D01*
X103269330Y-73568213D01*
X103246920Y-73852966D01*
X103246575Y-73857344D01*
X96311582Y-73857344D01*
X96384307Y-60717344D01*
X103246575Y-60717344D01*
X103263516Y-61011164D01*
X103264341Y-61015371D01*
X103264342Y-61015376D01*
X103290094Y-61146633D01*
X103320177Y-61299966D01*
X103321564Y-61304016D01*
X103321565Y-61304021D01*
X103413661Y-61573009D01*
X103415509Y-61578407D01*
X103477118Y-61700903D01*
X103543400Y-61832690D01*
X103547747Y-61841334D01*
X103550173Y-61844863D01*
X103550176Y-61844869D01*
X103652619Y-61993923D01*
X103714445Y-62083881D01*
X103717332Y-62087054D01*
X103717333Y-62087055D01*
X103751068Y-62124129D01*
X103912518Y-62301560D01*
X103915807Y-62304310D01*
X104135009Y-62487592D01*
X104135014Y-62487596D01*
X104138301Y-62490344D01*
X104235792Y-62551500D01*
X104383976Y-62644456D01*
X104383980Y-62644458D01*
X104387616Y-62646739D01*
X104460293Y-62679554D01*
X104651937Y-62766085D01*
X104651941Y-62766087D01*
X104655849Y-62767851D01*
X104680149Y-62775049D01*
X104933924Y-62850221D01*
X104933929Y-62850222D01*
X104938037Y-62851439D01*
X104942271Y-62852087D01*
X104942276Y-62852088D01*
X105224717Y-62895307D01*
X105224719Y-62895307D01*
X105228959Y-62895956D01*
X105378772Y-62898310D01*
X105518940Y-62900512D01*
X105518946Y-62900512D01*
X105523231Y-62900579D01*
X105815408Y-62865222D01*
X106100082Y-62790539D01*
X106371988Y-62677912D01*
X106558012Y-62569208D01*
X106622389Y-62531589D01*
X106622390Y-62531588D01*
X106626092Y-62529425D01*
X106857694Y-62347827D01*
X106864606Y-62340695D01*
X107002412Y-62198489D01*
X107062506Y-62136476D01*
X107236741Y-61899285D01*
X107239215Y-61894728D01*
X107375122Y-61644418D01*
X107375123Y-61644416D01*
X107377172Y-61640642D01*
X107442325Y-61468221D01*
X107479685Y-61369351D01*
X107479686Y-61369347D01*
X107481203Y-61365333D01*
X107525199Y-61173236D01*
X107545949Y-61082637D01*
X107545950Y-61082633D01*
X107546907Y-61078453D01*
X107547714Y-61069419D01*
X107572849Y-60787776D01*
X107572849Y-60787774D01*
X107573069Y-60785310D01*
X107573544Y-60740000D01*
X107573329Y-60736851D01*
X107553819Y-60450650D01*
X107553818Y-60450644D01*
X107553527Y-60446373D01*
X107544504Y-60402800D01*
X107494714Y-60162377D01*
X107493845Y-60158180D01*
X107395603Y-59880753D01*
X107260618Y-59619226D01*
X107253694Y-59609373D01*
X107093856Y-59381948D01*
X107093855Y-59381947D01*
X107091389Y-59378438D01*
X106891048Y-59162844D01*
X106885139Y-59158007D01*
X106716211Y-59019742D01*
X106663300Y-58976435D01*
X106412361Y-58822660D01*
X106390460Y-58813046D01*
X106146802Y-58706087D01*
X106146798Y-58706086D01*
X106142874Y-58704363D01*
X105859826Y-58623735D01*
X105855584Y-58623131D01*
X105855578Y-58623130D01*
X105572705Y-58582871D01*
X105568454Y-58582266D01*
X105413306Y-58581454D01*
X105278436Y-58580747D01*
X105278430Y-58580747D01*
X105274150Y-58580725D01*
X105269906Y-58581284D01*
X105269902Y-58581284D01*
X105141341Y-58598210D01*
X104982360Y-58619140D01*
X104978220Y-58620273D01*
X104978218Y-58620273D01*
X104731425Y-58687788D01*
X104698483Y-58696800D01*
X104694533Y-58698485D01*
X104431714Y-58810586D01*
X104431707Y-58810590D01*
X104427772Y-58812268D01*
X104307917Y-58884000D01*
X104178918Y-58961204D01*
X104178914Y-58961207D01*
X104175236Y-58963408D01*
X103945549Y-59147422D01*
X103942605Y-59150524D01*
X103942601Y-59150528D01*
X103746151Y-59357543D01*
X103742961Y-59360905D01*
X103571220Y-59599908D01*
X103433504Y-59860007D01*
X103332362Y-60136390D01*
X103269666Y-60423943D01*
X103269330Y-60428213D01*
X103248675Y-60690666D01*
X103246575Y-60717344D01*
X96384307Y-60717344D01*
X96393207Y-59109308D01*
X96394951Y-59089101D01*
X96397769Y-59072348D01*
X96398576Y-59067552D01*
X96398729Y-59055000D01*
X96397003Y-59042947D01*
X96396001Y-59016845D01*
X96396335Y-59011757D01*
X96399328Y-58966090D01*
X96410340Y-58798078D01*
X96412491Y-58781738D01*
X96452173Y-58582244D01*
X96461112Y-58537304D01*
X96465375Y-58521394D01*
X96545485Y-58285398D01*
X96551791Y-58270174D01*
X96662016Y-58046658D01*
X96670257Y-58032384D01*
X96808713Y-57825171D01*
X96818746Y-57812095D01*
X96983068Y-57624722D01*
X96994722Y-57613068D01*
X97182095Y-57448746D01*
X97195171Y-57438713D01*
X97402384Y-57300257D01*
X97416658Y-57292016D01*
X97640174Y-57181791D01*
X97655400Y-57175484D01*
X97687310Y-57164652D01*
X97891394Y-57095375D01*
X97907304Y-57091112D01*
X98075553Y-57057645D01*
X98151738Y-57042491D01*
X98168078Y-57040340D01*
X98328985Y-57029793D01*
X98383237Y-57026237D01*
X98406350Y-57027267D01*
X98409854Y-57027310D01*
X98418724Y-57028691D01*
X98427626Y-57027527D01*
X98427628Y-57027527D01*
X98444449Y-57025327D01*
X98450286Y-57024564D01*
X98466621Y-57023500D01*
X99686377Y-57023500D01*
X99687148Y-57023502D01*
X99764721Y-57023976D01*
X99793152Y-57015850D01*
X99809915Y-57012272D01*
X99810753Y-57012152D01*
X99839187Y-57008080D01*
X99862564Y-56997451D01*
X99880087Y-56991004D01*
X99880311Y-56990940D01*
X99904771Y-56983949D01*
X99912365Y-56979157D01*
X99912368Y-56979156D01*
X99929780Y-56968170D01*
X99944865Y-56960030D01*
X99947568Y-56958801D01*
X99971782Y-56947792D01*
X99991235Y-56931030D01*
X100006239Y-56919927D01*
X100027958Y-56906224D01*
X100033897Y-56899499D01*
X100033901Y-56899496D01*
X100047532Y-56884062D01*
X100059724Y-56872018D01*
X100075329Y-56858571D01*
X100075330Y-56858570D01*
X100080101Y-56854459D01*
X100080107Y-56854455D01*
X100082127Y-56852714D01*
X100082378Y-56853006D01*
X100137283Y-56817975D01*
X100208279Y-56818210D01*
X100232892Y-56828468D01*
X100236108Y-56830229D01*
X100243295Y-56835615D01*
X100379684Y-56886745D01*
X100441866Y-56893500D01*
X100719794Y-56893500D01*
X100787915Y-56913502D01*
X100834408Y-56967158D01*
X100845732Y-57015539D01*
X100846438Y-57037984D01*
X100846500Y-57041945D01*
X100846500Y-57069856D01*
X100846997Y-57073790D01*
X100846997Y-57073791D01*
X100847005Y-57073856D01*
X100847938Y-57085693D01*
X100849327Y-57129889D01*
X100854978Y-57149339D01*
X100858987Y-57168700D01*
X100860180Y-57178139D01*
X100861526Y-57188797D01*
X100864445Y-57196168D01*
X100864445Y-57196170D01*
X100877804Y-57229912D01*
X100881649Y-57241142D01*
X100891771Y-57275983D01*
X100893982Y-57283593D01*
X100898015Y-57290412D01*
X100898017Y-57290417D01*
X100904293Y-57301028D01*
X100912988Y-57318776D01*
X100920448Y-57337617D01*
X100925110Y-57344033D01*
X100925110Y-57344034D01*
X100946436Y-57373387D01*
X100952952Y-57383307D01*
X100975458Y-57421362D01*
X100989779Y-57435683D01*
X101002619Y-57450716D01*
X101014528Y-57467107D01*
X101048605Y-57495298D01*
X101057384Y-57503288D01*
X101542460Y-57988364D01*
X101571691Y-58034158D01*
X101596473Y-58101879D01*
X101596475Y-58101883D01*
X101599085Y-58109015D01*
X101603322Y-58115321D01*
X101603324Y-58115324D01*
X101612400Y-58128830D01*
X101694730Y-58251349D01*
X101821565Y-58366760D01*
X101972268Y-58448585D01*
X102138139Y-58492101D01*
X102225586Y-58493474D01*
X102302003Y-58494675D01*
X102302006Y-58494675D01*
X102309602Y-58494794D01*
X102317006Y-58493098D01*
X102317008Y-58493098D01*
X102411331Y-58471495D01*
X102476759Y-58456510D01*
X102629958Y-58379459D01*
X102635729Y-58374530D01*
X102635732Y-58374528D01*
X102754578Y-58273023D01*
X102760355Y-58268089D01*
X102860424Y-58128830D01*
X102924385Y-57969720D01*
X102925455Y-57962202D01*
X102947966Y-57804031D01*
X102947966Y-57804027D01*
X102948547Y-57799947D01*
X102948622Y-57792814D01*
X102948661Y-57789132D01*
X102948661Y-57789126D01*
X102948704Y-57785000D01*
X102941486Y-57725354D01*
X102929015Y-57622299D01*
X102929014Y-57622296D01*
X102928102Y-57614758D01*
X102923117Y-57601564D01*
X102870171Y-57461447D01*
X102867487Y-57454344D01*
X102816876Y-57380705D01*
X102774659Y-57319278D01*
X102774658Y-57319276D01*
X102770357Y-57313019D01*
X102764686Y-57307966D01*
X102647993Y-57203996D01*
X102647990Y-57203994D01*
X102642321Y-57198943D01*
X102622473Y-57188434D01*
X102505599Y-57126552D01*
X102454755Y-57076999D01*
X102438774Y-57007825D01*
X102462728Y-56940991D01*
X102519012Y-56897718D01*
X102550951Y-56889935D01*
X102572460Y-56887599D01*
X102572464Y-56887598D01*
X102580316Y-56886745D01*
X102716705Y-56835615D01*
X102833261Y-56748261D01*
X102920615Y-56631705D01*
X102971745Y-56495316D01*
X102978500Y-56433134D01*
X102978500Y-50799500D01*
X102998502Y-50731379D01*
X103052158Y-50684886D01*
X103104500Y-50673500D01*
X103815500Y-50673500D01*
X103883621Y-50693502D01*
G37*
G04 #@! TD.AperFunction*
G04 #@! TA.AperFunction,Conductor*
G36*
X194431500Y-90805500D02*
G01*
X194411498Y-90873621D01*
X194357842Y-90920114D01*
X194305500Y-90931500D01*
X194184500Y-90931500D01*
X194116379Y-90911498D01*
X194069886Y-90857842D01*
X194058500Y-90805500D01*
X194058500Y-81361866D01*
X194051745Y-81299684D01*
X194000615Y-81163295D01*
X193913261Y-81046739D01*
X193796705Y-80959385D01*
X193660316Y-80908255D01*
X193598134Y-80901500D01*
X191521866Y-80901500D01*
X191459684Y-80908255D01*
X191323295Y-80959385D01*
X191206739Y-81046739D01*
X191119385Y-81163295D01*
X191068255Y-81299684D01*
X191061500Y-81361866D01*
X191061500Y-90805500D01*
X191041498Y-90873621D01*
X190987842Y-90920114D01*
X190935500Y-90931500D01*
X190224500Y-90931500D01*
X190156379Y-90911498D01*
X190109886Y-90857842D01*
X190098500Y-90805500D01*
X190098500Y-81361866D01*
X190091745Y-81299684D01*
X190040615Y-81163295D01*
X189953261Y-81046739D01*
X189848360Y-80968120D01*
X189805845Y-80911261D01*
X189802391Y-80900543D01*
X189801013Y-80895505D01*
X189784337Y-80834549D01*
X189780656Y-80826830D01*
X189732978Y-80726873D01*
X189687622Y-80631782D01*
X189556529Y-80449346D01*
X189445207Y-80341467D01*
X189399229Y-80296911D01*
X189399226Y-80296909D01*
X189395201Y-80293008D01*
X189208738Y-80167710D01*
X189003033Y-80077412D01*
X188997582Y-80076103D01*
X188997578Y-80076102D01*
X188790046Y-80026278D01*
X188790045Y-80026278D01*
X188784589Y-80024968D01*
X188700525Y-80020121D01*
X188565917Y-80012360D01*
X188565914Y-80012360D01*
X188560310Y-80012037D01*
X188337285Y-80039025D01*
X188122565Y-80105082D01*
X188117585Y-80107652D01*
X188117581Y-80107654D01*
X187931672Y-80203609D01*
X187922936Y-80208118D01*
X187744708Y-80344877D01*
X187593515Y-80511036D01*
X187590537Y-80515783D01*
X187590535Y-80515786D01*
X187495768Y-80666859D01*
X187474136Y-80701344D01*
X187390344Y-80909783D01*
X187390145Y-80909703D01*
X187352693Y-80967016D01*
X187346472Y-80971993D01*
X187288399Y-81015516D01*
X187221892Y-81040364D01*
X187152510Y-81025311D01*
X187117382Y-80996939D01*
X187106031Y-80983766D01*
X187094927Y-80968761D01*
X187081224Y-80947042D01*
X187074499Y-80941103D01*
X187074496Y-80941099D01*
X187059062Y-80927468D01*
X187047018Y-80915276D01*
X187033573Y-80899673D01*
X187033570Y-80899671D01*
X187027713Y-80892873D01*
X187014009Y-80883990D01*
X187006165Y-80878906D01*
X186991291Y-80867615D01*
X186978783Y-80856569D01*
X186978782Y-80856568D01*
X186972049Y-80850622D01*
X186945287Y-80838057D01*
X186930309Y-80829737D01*
X186913017Y-80818529D01*
X186913012Y-80818527D01*
X186905485Y-80813648D01*
X186896892Y-80811078D01*
X186896887Y-80811076D01*
X186880880Y-80806289D01*
X186863436Y-80799628D01*
X186848324Y-80792533D01*
X186848322Y-80792532D01*
X186840200Y-80788719D01*
X186831333Y-80787338D01*
X186831332Y-80787338D01*
X186818583Y-80785353D01*
X186810983Y-80784170D01*
X186794268Y-80780387D01*
X186774534Y-80774485D01*
X186774528Y-80774484D01*
X186765934Y-80771914D01*
X186756963Y-80771859D01*
X186756962Y-80771859D01*
X186746903Y-80771798D01*
X186731494Y-80771704D01*
X186730711Y-80771671D01*
X186729614Y-80771500D01*
X186698623Y-80771500D01*
X186697853Y-80771498D01*
X186624215Y-80771048D01*
X186624214Y-80771048D01*
X186620279Y-80771024D01*
X186618935Y-80771408D01*
X186617590Y-80771500D01*
X182888623Y-80771500D01*
X182887853Y-80771498D01*
X182886052Y-80771487D01*
X182810279Y-80771024D01*
X182793233Y-80775896D01*
X182781847Y-80779150D01*
X182765085Y-80782728D01*
X182735813Y-80786920D01*
X182712931Y-80797324D01*
X182712438Y-80797548D01*
X182694914Y-80803996D01*
X182670229Y-80811051D01*
X182662635Y-80815843D01*
X182662632Y-80815844D01*
X182645220Y-80826830D01*
X182630137Y-80834969D01*
X182603218Y-80847208D01*
X182584543Y-80863300D01*
X182583765Y-80863970D01*
X182568761Y-80875073D01*
X182547042Y-80888776D01*
X182541103Y-80895501D01*
X182541099Y-80895504D01*
X182527468Y-80910938D01*
X182515276Y-80922982D01*
X182499673Y-80936427D01*
X182499671Y-80936430D01*
X182492873Y-80942287D01*
X182487993Y-80949816D01*
X182487992Y-80949817D01*
X182478906Y-80963835D01*
X182467615Y-80978709D01*
X182459805Y-80987553D01*
X182450622Y-80997951D01*
X182438058Y-81024711D01*
X182429737Y-81039691D01*
X182418529Y-81056983D01*
X182418527Y-81056988D01*
X182413648Y-81064515D01*
X182411078Y-81073108D01*
X182411076Y-81073113D01*
X182406289Y-81089120D01*
X182399628Y-81106564D01*
X182394069Y-81118404D01*
X182388719Y-81129800D01*
X182387339Y-81138664D01*
X182387338Y-81138668D01*
X182384170Y-81159015D01*
X182380387Y-81175731D01*
X182374457Y-81195560D01*
X182335776Y-81255094D01*
X182271049Y-81284264D01*
X182200826Y-81273810D01*
X182147403Y-81227050D01*
X182135758Y-81203688D01*
X182123768Y-81171705D01*
X182123767Y-81171703D01*
X182120615Y-81163295D01*
X182033261Y-81046739D01*
X181916705Y-80959385D01*
X181780316Y-80908255D01*
X181718134Y-80901500D01*
X179641866Y-80901500D01*
X179579684Y-80908255D01*
X179443295Y-80959385D01*
X179326739Y-81046739D01*
X179239385Y-81163295D01*
X179188255Y-81299684D01*
X179181500Y-81361866D01*
X179181500Y-90805500D01*
X179161498Y-90873621D01*
X179107842Y-90920114D01*
X179055500Y-90931500D01*
X178344500Y-90931500D01*
X178276379Y-90911498D01*
X178229886Y-90857842D01*
X178218500Y-90805500D01*
X178218500Y-81361866D01*
X178211745Y-81299684D01*
X178160615Y-81163295D01*
X178073261Y-81046739D01*
X177956705Y-80959385D01*
X177820316Y-80908255D01*
X177758134Y-80901500D01*
X175681866Y-80901500D01*
X175619684Y-80908255D01*
X175483295Y-80959385D01*
X175366739Y-81046739D01*
X175279385Y-81163295D01*
X175228255Y-81299684D01*
X175221500Y-81361866D01*
X175221500Y-90805500D01*
X175201498Y-90873621D01*
X175147842Y-90920114D01*
X175095500Y-90931500D01*
X174384500Y-90931500D01*
X174316379Y-90911498D01*
X174269886Y-90857842D01*
X174258500Y-90805500D01*
X174258500Y-81361866D01*
X174251745Y-81299684D01*
X174200615Y-81163295D01*
X174113261Y-81046739D01*
X174097846Y-81035186D01*
X174019422Y-80976410D01*
X173976907Y-80919550D01*
X173971882Y-80848732D01*
X174005892Y-80786489D01*
X174412211Y-80380170D01*
X174426623Y-80367784D01*
X174438218Y-80359251D01*
X174438223Y-80359246D01*
X174444118Y-80354908D01*
X174448857Y-80349330D01*
X174448860Y-80349327D01*
X174478335Y-80314632D01*
X174485265Y-80307116D01*
X174490961Y-80301420D01*
X174493224Y-80298559D01*
X174493229Y-80298554D01*
X174508585Y-80279144D01*
X174511374Y-80275742D01*
X174553896Y-80225691D01*
X174553897Y-80225690D01*
X174558633Y-80220115D01*
X174561961Y-80213598D01*
X174565327Y-80208550D01*
X174568490Y-80203428D01*
X174573035Y-80197684D01*
X174603964Y-80131505D01*
X174605863Y-80127621D01*
X174639069Y-80062592D01*
X174640810Y-80055477D01*
X174642913Y-80049822D01*
X174644822Y-80044083D01*
X174647922Y-80037450D01*
X174662791Y-79965965D01*
X174663761Y-79961682D01*
X174670635Y-79933590D01*
X174681108Y-79890790D01*
X174681800Y-79879636D01*
X174681835Y-79879638D01*
X174682075Y-79875666D01*
X174682452Y-79871445D01*
X174683941Y-79864285D01*
X174681846Y-79786858D01*
X174681800Y-79783450D01*
X174681800Y-78740000D01*
X194431500Y-78740000D01*
X194431500Y-90805500D01*
G37*
G04 #@! TD.AperFunction*
G04 #@! TA.AperFunction,Conductor*
G36*
X203200000Y-89535000D02*
G01*
X210946500Y-89535000D01*
X210946500Y-90805500D01*
X210926498Y-90873621D01*
X210872842Y-90920114D01*
X210820500Y-90931500D01*
X202569500Y-90931500D01*
X202501379Y-90911498D01*
X202454886Y-90857842D01*
X202443500Y-90805500D01*
X202443500Y-78740000D01*
X203200000Y-78740000D01*
X203200000Y-89535000D01*
G37*
G04 #@! TD.AperFunction*
G04 #@! TA.AperFunction,Conductor*
G36*
X151143912Y-66723770D02*
G01*
X151150495Y-66729899D01*
X151908301Y-67487705D01*
X151942327Y-67550017D01*
X151937262Y-67620832D01*
X151894715Y-67677668D01*
X151828195Y-67702479D01*
X151819206Y-67702800D01*
X151061400Y-67702800D01*
X150993279Y-67682798D01*
X150946786Y-67629142D01*
X150935400Y-67576800D01*
X150935400Y-66818994D01*
X150955402Y-66750873D01*
X151009058Y-66704380D01*
X151079332Y-66694276D01*
X151143912Y-66723770D01*
G37*
G04 #@! TD.AperFunction*
G04 #@! TA.AperFunction,Conductor*
G36*
X203200000Y-62230000D02*
G01*
X184150000Y-62230000D01*
X178435000Y-56515000D01*
X178435000Y-50674821D01*
X178498621Y-50693502D01*
X178545114Y-50747158D01*
X178556500Y-50799500D01*
X178556500Y-55827810D01*
X178559441Y-55882692D01*
X178562320Y-55909475D01*
X178562588Y-55911132D01*
X178562590Y-55911143D01*
X178570125Y-55957640D01*
X178570126Y-55957645D01*
X178571116Y-55963752D01*
X178573278Y-55969549D01*
X178573279Y-55969552D01*
X178620622Y-56096479D01*
X178622194Y-56100693D01*
X178624347Y-56104636D01*
X178624348Y-56104638D01*
X178634298Y-56122860D01*
X178656220Y-56163005D01*
X178658915Y-56166605D01*
X178741109Y-56276402D01*
X178741113Y-56276406D01*
X178743806Y-56280004D01*
X183749996Y-61286194D01*
X183790877Y-61322917D01*
X183811851Y-61339820D01*
X183813224Y-61340810D01*
X183851430Y-61368362D01*
X183851435Y-61368365D01*
X183856451Y-61371982D01*
X183989400Y-61432698D01*
X183995217Y-61434406D01*
X184053198Y-61451431D01*
X184053202Y-61451432D01*
X184057521Y-61452700D01*
X184061970Y-61453340D01*
X184061976Y-61453341D01*
X184197743Y-61472861D01*
X184197748Y-61472861D01*
X184202190Y-61473500D01*
X194874848Y-61473500D01*
X194892780Y-61474783D01*
X194922061Y-61478993D01*
X194933919Y-61480698D01*
X194942869Y-61480058D01*
X194969784Y-61481019D01*
X194974085Y-61481637D01*
X194993026Y-61484361D01*
X194993033Y-61484361D01*
X194997474Y-61485000D01*
X196951522Y-61485000D01*
X196978097Y-61483576D01*
X197004711Y-61482150D01*
X197004721Y-61482149D01*
X197006404Y-61482059D01*
X197033187Y-61479180D01*
X197034844Y-61478912D01*
X197034855Y-61478910D01*
X197081352Y-61471375D01*
X197081357Y-61471374D01*
X197087464Y-61470384D01*
X197093261Y-61468222D01*
X197093264Y-61468221D01*
X197220191Y-61420878D01*
X197220193Y-61420877D01*
X197224405Y-61419306D01*
X197286717Y-61385280D01*
X197328153Y-61354261D01*
X197400114Y-61300391D01*
X197400118Y-61300387D01*
X197403716Y-61297694D01*
X202256194Y-56445216D01*
X202259944Y-56441042D01*
X202273741Y-56425682D01*
X202292917Y-56404335D01*
X202309820Y-56383361D01*
X202316380Y-56374264D01*
X202338362Y-56343782D01*
X202338365Y-56343777D01*
X202341982Y-56338761D01*
X202402698Y-56205812D01*
X202415948Y-56160686D01*
X202421431Y-56142014D01*
X202421432Y-56142010D01*
X202422700Y-56137691D01*
X202423565Y-56131680D01*
X202442861Y-55997469D01*
X202442861Y-55997464D01*
X202443500Y-55993022D01*
X202443500Y-50799500D01*
X202463502Y-50731379D01*
X202517158Y-50684886D01*
X202569500Y-50673500D01*
X203200000Y-50673500D01*
X203200000Y-62230000D01*
G37*
G04 #@! TD.AperFunction*
G04 #@! TA.AperFunction,Conductor*
G36*
X147443621Y-50693502D02*
G01*
X147490114Y-50747158D01*
X147501500Y-50799500D01*
X147501500Y-56433134D01*
X147508255Y-56495316D01*
X147559385Y-56631705D01*
X147646739Y-56748261D01*
X147763295Y-56835615D01*
X147899684Y-56886745D01*
X147961866Y-56893500D01*
X148301880Y-56893500D01*
X148370001Y-56913502D01*
X148416494Y-56967158D01*
X148417575Y-56969935D01*
X148419785Y-56974632D01*
X148422236Y-56982175D01*
X148426486Y-56988871D01*
X148426486Y-56988872D01*
X148426650Y-56989131D01*
X148437415Y-57010258D01*
X148437529Y-57010546D01*
X148437532Y-57010551D01*
X148440448Y-57017917D01*
X148445104Y-57024325D01*
X148445107Y-57024331D01*
X148473458Y-57063352D01*
X148477901Y-57069889D01*
X148508000Y-57117318D01*
X148513778Y-57122744D01*
X148513779Y-57122745D01*
X148514007Y-57122959D01*
X148529688Y-57140746D01*
X148534528Y-57147407D01*
X148540637Y-57152461D01*
X148540638Y-57152462D01*
X148577796Y-57183203D01*
X148583730Y-57188434D01*
X148618898Y-57221458D01*
X148618901Y-57221460D01*
X148624679Y-57226886D01*
X148631903Y-57230858D01*
X148651506Y-57244181D01*
X148651746Y-57244380D01*
X148651753Y-57244384D01*
X148657856Y-57249433D01*
X148681751Y-57260677D01*
X148708676Y-57273347D01*
X148715708Y-57276929D01*
X148764940Y-57303995D01*
X148772615Y-57305965D01*
X148772621Y-57305968D01*
X148772919Y-57306044D01*
X148795228Y-57314076D01*
X148795503Y-57314206D01*
X148795511Y-57314209D01*
X148802682Y-57317583D01*
X148857849Y-57328106D01*
X148865558Y-57329829D01*
X148895889Y-57337617D01*
X148912293Y-57341829D01*
X148912294Y-57341829D01*
X148919970Y-57343800D01*
X148928207Y-57343800D01*
X148951816Y-57346032D01*
X148952119Y-57346090D01*
X148952123Y-57346090D01*
X148959906Y-57347575D01*
X149015951Y-57344049D01*
X149023862Y-57343800D01*
X150186906Y-57343800D01*
X150255027Y-57363802D01*
X150276001Y-57380705D01*
X154345589Y-61450294D01*
X154379615Y-61512606D01*
X154374550Y-61583422D01*
X154332003Y-61640257D01*
X154285906Y-61661908D01*
X154266005Y-61666685D01*
X154265999Y-61666687D01*
X154258623Y-61668458D01*
X154106239Y-61747109D01*
X153977015Y-61859839D01*
X153878410Y-62000139D01*
X153875651Y-62007215D01*
X153875648Y-62007221D01*
X153843060Y-62090807D01*
X153814761Y-62134135D01*
X153779998Y-62168897D01*
X153717685Y-62202921D01*
X153690904Y-62205800D01*
X152629430Y-62205800D01*
X152561309Y-62185798D01*
X152514816Y-62132142D01*
X152511564Y-62124338D01*
X152460971Y-61990447D01*
X152458287Y-61983344D01*
X152404543Y-61905146D01*
X152365459Y-61848278D01*
X152365458Y-61848276D01*
X152361157Y-61842019D01*
X152355486Y-61836966D01*
X152238793Y-61732996D01*
X152238790Y-61732994D01*
X152233121Y-61727943D01*
X152215115Y-61718409D01*
X152203128Y-61712063D01*
X152081569Y-61647700D01*
X152072979Y-61645542D01*
X152071040Y-61644637D01*
X152067108Y-61643127D01*
X152067215Y-61642849D01*
X152029606Y-61625272D01*
X152028601Y-61624541D01*
X152022821Y-61619114D01*
X152015880Y-61615298D01*
X152015873Y-61615293D01*
X152005066Y-61609352D01*
X151988547Y-61598501D01*
X151988083Y-61598141D01*
X151972541Y-61586086D01*
X151965272Y-61582941D01*
X151965268Y-61582938D01*
X151931963Y-61568526D01*
X151921313Y-61563309D01*
X151882560Y-61542005D01*
X151873673Y-61539723D01*
X151867838Y-61538225D01*
X151862937Y-61536967D01*
X151844234Y-61530563D01*
X151832920Y-61525667D01*
X151832919Y-61525667D01*
X151825645Y-61522519D01*
X151817822Y-61521280D01*
X151817812Y-61521277D01*
X151781976Y-61515601D01*
X151770356Y-61513195D01*
X151735211Y-61504172D01*
X151735210Y-61504172D01*
X151727530Y-61502200D01*
X151707276Y-61502200D01*
X151687565Y-61500649D01*
X151675386Y-61498720D01*
X151667557Y-61497480D01*
X151638286Y-61500247D01*
X151623539Y-61501641D01*
X151611681Y-61502200D01*
X145963167Y-61502200D01*
X145951984Y-61501673D01*
X145944491Y-61499998D01*
X145936565Y-61500247D01*
X145936564Y-61500247D01*
X145876401Y-61502138D01*
X145872443Y-61502200D01*
X145844544Y-61502200D01*
X145840554Y-61502704D01*
X145828715Y-61503636D01*
X145819091Y-61503939D01*
X145803455Y-61504430D01*
X145734740Y-61486576D01*
X145686586Y-61434406D01*
X145673500Y-61378492D01*
X145673500Y-57019500D01*
X145693502Y-56951379D01*
X145747158Y-56904886D01*
X145799500Y-56893500D01*
X146078134Y-56893500D01*
X146140316Y-56886745D01*
X146276705Y-56835615D01*
X146393261Y-56748261D01*
X146480615Y-56631705D01*
X146531745Y-56495316D01*
X146538500Y-56433134D01*
X146538500Y-50799500D01*
X146558502Y-50731379D01*
X146612158Y-50684886D01*
X146664500Y-50673500D01*
X147375500Y-50673500D01*
X147443621Y-50693502D01*
G37*
G04 #@! TD.AperFunction*
M02*
