G04 #@! TF.GenerationSoftware,KiCad,Pcbnew,(6.0.6-0)*
G04 #@! TF.CreationDate,2022-11-15T04:41:16+09:00*
G04 #@! TF.ProjectId,MahJamma,4d61684a-616d-46d6-912e-6b696361645f,rev?*
G04 #@! TF.SameCoordinates,Original*
G04 #@! TF.FileFunction,Legend,Top*
G04 #@! TF.FilePolarity,Positive*
%FSLAX46Y46*%
G04 Gerber Fmt 4.6, Leading zero omitted, Abs format (unit mm)*
G04 Created by KiCad (PCBNEW (6.0.6-0)) date 2022-11-15 04:41:16*
%MOMM*%
%LPD*%
G01*
G04 APERTURE LIST*
%ADD10C,0.200000*%
%ADD11C,0.250000*%
%ADD12C,0.300000*%
%ADD13C,0.150000*%
%ADD14C,0.120000*%
%ADD15C,0.100000*%
G04 APERTURE END LIST*
D10*
X179070000Y-71120000D02*
X181610000Y-71120000D01*
X181610000Y-71120000D02*
X181610000Y-72390000D01*
X181610000Y-72390000D02*
X179070000Y-72390000D01*
X179070000Y-72390000D02*
X179070000Y-71120000D01*
D11*
X196065000Y-58872380D02*
X196065000Y-57872380D01*
X196398333Y-58586666D01*
X196731666Y-57872380D01*
X196731666Y-58872380D01*
X197207857Y-58872380D02*
X197207857Y-57872380D01*
X197588809Y-57872380D01*
X197684047Y-57920000D01*
X197731666Y-57967619D01*
X197779285Y-58062857D01*
X197779285Y-58205714D01*
X197731666Y-58300952D01*
X197684047Y-58348571D01*
X197588809Y-58396190D01*
X197207857Y-58396190D01*
X198731666Y-58872380D02*
X198160238Y-58872380D01*
X198445952Y-58872380D02*
X198445952Y-57872380D01*
X198350714Y-58015238D01*
X198255476Y-58110476D01*
X198160238Y-58158095D01*
X199684047Y-58872380D02*
X199112619Y-58872380D01*
X199398333Y-58872380D02*
X199398333Y-57872380D01*
X199303095Y-58015238D01*
X199207857Y-58110476D01*
X199112619Y-58158095D01*
X200112619Y-58491428D02*
X200874523Y-58491428D01*
X201350714Y-58872380D02*
X201350714Y-57872380D01*
X201684047Y-58586666D01*
X202017380Y-57872380D01*
X202017380Y-58872380D01*
X202922142Y-58872380D02*
X202922142Y-58348571D01*
X202874523Y-58253333D01*
X202779285Y-58205714D01*
X202588809Y-58205714D01*
X202493571Y-58253333D01*
X202922142Y-58824761D02*
X202826904Y-58872380D01*
X202588809Y-58872380D01*
X202493571Y-58824761D01*
X202445952Y-58729523D01*
X202445952Y-58634285D01*
X202493571Y-58539047D01*
X202588809Y-58491428D01*
X202826904Y-58491428D01*
X202922142Y-58443809D01*
X203398333Y-58872380D02*
X203398333Y-57872380D01*
X203826904Y-58872380D02*
X203826904Y-58348571D01*
X203779285Y-58253333D01*
X203684047Y-58205714D01*
X203541190Y-58205714D01*
X203445952Y-58253333D01*
X203398333Y-58300952D01*
X204588809Y-57872380D02*
X204588809Y-58586666D01*
X204541190Y-58729523D01*
X204445952Y-58824761D01*
X204303095Y-58872380D01*
X204207857Y-58872380D01*
X205493571Y-58872380D02*
X205493571Y-58348571D01*
X205445952Y-58253333D01*
X205350714Y-58205714D01*
X205160238Y-58205714D01*
X205065000Y-58253333D01*
X205493571Y-58824761D02*
X205398333Y-58872380D01*
X205160238Y-58872380D01*
X205065000Y-58824761D01*
X205017380Y-58729523D01*
X205017380Y-58634285D01*
X205065000Y-58539047D01*
X205160238Y-58491428D01*
X205398333Y-58491428D01*
X205493571Y-58443809D01*
X205969761Y-58872380D02*
X205969761Y-58205714D01*
X205969761Y-58300952D02*
X206017380Y-58253333D01*
X206112619Y-58205714D01*
X206255476Y-58205714D01*
X206350714Y-58253333D01*
X206398333Y-58348571D01*
X206398333Y-58872380D01*
X206398333Y-58348571D02*
X206445952Y-58253333D01*
X206541190Y-58205714D01*
X206684047Y-58205714D01*
X206779285Y-58253333D01*
X206826904Y-58348571D01*
X206826904Y-58872380D01*
X207303095Y-58872380D02*
X207303095Y-58205714D01*
X207303095Y-58300952D02*
X207350714Y-58253333D01*
X207445952Y-58205714D01*
X207588809Y-58205714D01*
X207684047Y-58253333D01*
X207731666Y-58348571D01*
X207731666Y-58872380D01*
X207731666Y-58348571D02*
X207779285Y-58253333D01*
X207874523Y-58205714D01*
X208017380Y-58205714D01*
X208112619Y-58253333D01*
X208160238Y-58348571D01*
X208160238Y-58872380D01*
X209065000Y-58872380D02*
X209065000Y-58348571D01*
X209017380Y-58253333D01*
X208922142Y-58205714D01*
X208731666Y-58205714D01*
X208636428Y-58253333D01*
X209065000Y-58824761D02*
X208969761Y-58872380D01*
X208731666Y-58872380D01*
X208636428Y-58824761D01*
X208588809Y-58729523D01*
X208588809Y-58634285D01*
X208636428Y-58539047D01*
X208731666Y-58491428D01*
X208969761Y-58491428D01*
X209065000Y-58443809D01*
D12*
X148690000Y-79188571D02*
X148690000Y-80260000D01*
X148618571Y-80474285D01*
X148475714Y-80617142D01*
X148261428Y-80688571D01*
X148118571Y-80688571D01*
X149332857Y-80260000D02*
X150047142Y-80260000D01*
X149190000Y-80688571D02*
X149690000Y-79188571D01*
X150190000Y-80688571D01*
X150690000Y-80688571D02*
X150690000Y-79188571D01*
X151190000Y-80260000D01*
X151690000Y-79188571D01*
X151690000Y-80688571D01*
X152404285Y-80688571D02*
X152404285Y-79188571D01*
X152904285Y-80260000D01*
X153404285Y-79188571D01*
X153404285Y-80688571D01*
X154047142Y-80260000D02*
X154761428Y-80260000D01*
X153904285Y-80688571D02*
X154404285Y-79188571D01*
X154904285Y-80688571D01*
X157047142Y-79902857D02*
X157261428Y-79974285D01*
X157332857Y-80045714D01*
X157404285Y-80188571D01*
X157404285Y-80402857D01*
X157332857Y-80545714D01*
X157261428Y-80617142D01*
X157118571Y-80688571D01*
X156547142Y-80688571D01*
X156547142Y-79188571D01*
X157047142Y-79188571D01*
X157190000Y-79260000D01*
X157261428Y-79331428D01*
X157332857Y-79474285D01*
X157332857Y-79617142D01*
X157261428Y-79760000D01*
X157190000Y-79831428D01*
X157047142Y-79902857D01*
X156547142Y-79902857D01*
X157975714Y-80260000D02*
X158690000Y-80260000D01*
X157832857Y-80688571D02*
X158332857Y-79188571D01*
X158832857Y-80688571D01*
X160190000Y-80545714D02*
X160118571Y-80617142D01*
X159904285Y-80688571D01*
X159761428Y-80688571D01*
X159547142Y-80617142D01*
X159404285Y-80474285D01*
X159332857Y-80331428D01*
X159261428Y-80045714D01*
X159261428Y-79831428D01*
X159332857Y-79545714D01*
X159404285Y-79402857D01*
X159547142Y-79260000D01*
X159761428Y-79188571D01*
X159904285Y-79188571D01*
X160118571Y-79260000D01*
X160190000Y-79331428D01*
X160832857Y-80688571D02*
X160832857Y-79188571D01*
X161690000Y-80688571D02*
X161047142Y-79831428D01*
X161690000Y-79188571D02*
X160832857Y-80045714D01*
X191041666Y-74806071D02*
X191458333Y-76306071D01*
X191875000Y-74806071D01*
X192767857Y-76234642D02*
X192648809Y-76306071D01*
X192410714Y-76306071D01*
X192291666Y-76234642D01*
X192232142Y-76091785D01*
X192232142Y-75520357D01*
X192291666Y-75377500D01*
X192410714Y-75306071D01*
X192648809Y-75306071D01*
X192767857Y-75377500D01*
X192827380Y-75520357D01*
X192827380Y-75663214D01*
X192232142Y-75806071D01*
X193363095Y-76306071D02*
X193363095Y-75306071D01*
X193363095Y-75591785D02*
X193422619Y-75448928D01*
X193482142Y-75377500D01*
X193601190Y-75306071D01*
X193720238Y-75306071D01*
X195744047Y-76306071D02*
X195029761Y-76306071D01*
X195386904Y-76306071D02*
X195386904Y-74806071D01*
X195267857Y-75020357D01*
X195148809Y-75163214D01*
X195029761Y-75234642D01*
X196279761Y-76163214D02*
X196339285Y-76234642D01*
X196279761Y-76306071D01*
X196220238Y-76234642D01*
X196279761Y-76163214D01*
X196279761Y-76306071D01*
X196815476Y-74948928D02*
X196875000Y-74877500D01*
X196994047Y-74806071D01*
X197291666Y-74806071D01*
X197410714Y-74877500D01*
X197470238Y-74948928D01*
X197529761Y-75091785D01*
X197529761Y-75234642D01*
X197470238Y-75448928D01*
X196755952Y-76306071D01*
X197529761Y-76306071D01*
X198303571Y-74806071D02*
X198422619Y-74806071D01*
X198541666Y-74877500D01*
X198601190Y-74948928D01*
X198660714Y-75091785D01*
X198720238Y-75377500D01*
X198720238Y-75734642D01*
X198660714Y-76020357D01*
X198601190Y-76163214D01*
X198541666Y-76234642D01*
X198422619Y-76306071D01*
X198303571Y-76306071D01*
X198184523Y-76234642D01*
X198125000Y-76163214D01*
X198065476Y-76020357D01*
X198005952Y-75734642D01*
X198005952Y-75377500D01*
X198065476Y-75091785D01*
X198125000Y-74948928D01*
X198184523Y-74877500D01*
X198303571Y-74806071D01*
X200148809Y-74948928D02*
X200208333Y-74877500D01*
X200327380Y-74806071D01*
X200625000Y-74806071D01*
X200744047Y-74877500D01*
X200803571Y-74948928D01*
X200863095Y-75091785D01*
X200863095Y-75234642D01*
X200803571Y-75448928D01*
X200089285Y-76306071D01*
X200863095Y-76306071D01*
X201636904Y-74806071D02*
X201755952Y-74806071D01*
X201875000Y-74877500D01*
X201934523Y-74948928D01*
X201994047Y-75091785D01*
X202053571Y-75377500D01*
X202053571Y-75734642D01*
X201994047Y-76020357D01*
X201934523Y-76163214D01*
X201875000Y-76234642D01*
X201755952Y-76306071D01*
X201636904Y-76306071D01*
X201517857Y-76234642D01*
X201458333Y-76163214D01*
X201398809Y-76020357D01*
X201339285Y-75734642D01*
X201339285Y-75377500D01*
X201398809Y-75091785D01*
X201458333Y-74948928D01*
X201517857Y-74877500D01*
X201636904Y-74806071D01*
X202529761Y-74948928D02*
X202589285Y-74877500D01*
X202708333Y-74806071D01*
X203005952Y-74806071D01*
X203125000Y-74877500D01*
X203184523Y-74948928D01*
X203244047Y-75091785D01*
X203244047Y-75234642D01*
X203184523Y-75448928D01*
X202470238Y-76306071D01*
X203244047Y-76306071D01*
X203720238Y-74948928D02*
X203779761Y-74877500D01*
X203898809Y-74806071D01*
X204196428Y-74806071D01*
X204315476Y-74877500D01*
X204375000Y-74948928D01*
X204434523Y-75091785D01*
X204434523Y-75234642D01*
X204375000Y-75448928D01*
X203660714Y-76306071D01*
X204434523Y-76306071D01*
X204970238Y-76163214D02*
X205029761Y-76234642D01*
X204970238Y-76306071D01*
X204910714Y-76234642D01*
X204970238Y-76163214D01*
X204970238Y-76306071D01*
X206220238Y-76306071D02*
X205505952Y-76306071D01*
X205863095Y-76306071D02*
X205863095Y-74806071D01*
X205744047Y-75020357D01*
X205625000Y-75163214D01*
X205505952Y-75234642D01*
X207410714Y-76306071D02*
X206696428Y-76306071D01*
X207053571Y-76306071D02*
X207053571Y-74806071D01*
X206934523Y-75020357D01*
X206815476Y-75163214D01*
X206696428Y-75234642D01*
X207946428Y-76163214D02*
X208005952Y-76234642D01*
X207946428Y-76306071D01*
X207886904Y-76234642D01*
X207946428Y-76163214D01*
X207946428Y-76306071D01*
X209196428Y-76306071D02*
X208482142Y-76306071D01*
X208839285Y-76306071D02*
X208839285Y-74806071D01*
X208720238Y-75020357D01*
X208601190Y-75163214D01*
X208482142Y-75234642D01*
X210327380Y-74806071D02*
X209732142Y-74806071D01*
X209672619Y-75520357D01*
X209732142Y-75448928D01*
X209851190Y-75377500D01*
X210148809Y-75377500D01*
X210267857Y-75448928D01*
X210327380Y-75520357D01*
X210386904Y-75663214D01*
X210386904Y-76020357D01*
X210327380Y-76163214D01*
X210267857Y-76234642D01*
X210148809Y-76306071D01*
X209851190Y-76306071D01*
X209732142Y-76234642D01*
X209672619Y-76163214D01*
X187589285Y-78721071D02*
X187589285Y-77221071D01*
X187886904Y-77221071D01*
X188065476Y-77292500D01*
X188184523Y-77435357D01*
X188244047Y-77578214D01*
X188303571Y-77863928D01*
X188303571Y-78078214D01*
X188244047Y-78363928D01*
X188184523Y-78506785D01*
X188065476Y-78649642D01*
X187886904Y-78721071D01*
X187589285Y-78721071D01*
X189315476Y-78649642D02*
X189196428Y-78721071D01*
X188958333Y-78721071D01*
X188839285Y-78649642D01*
X188779761Y-78506785D01*
X188779761Y-77935357D01*
X188839285Y-77792500D01*
X188958333Y-77721071D01*
X189196428Y-77721071D01*
X189315476Y-77792500D01*
X189375000Y-77935357D01*
X189375000Y-78078214D01*
X188779761Y-78221071D01*
X189851190Y-78649642D02*
X189970238Y-78721071D01*
X190208333Y-78721071D01*
X190327380Y-78649642D01*
X190386904Y-78506785D01*
X190386904Y-78435357D01*
X190327380Y-78292500D01*
X190208333Y-78221071D01*
X190029761Y-78221071D01*
X189910714Y-78149642D01*
X189851190Y-78006785D01*
X189851190Y-77935357D01*
X189910714Y-77792500D01*
X190029761Y-77721071D01*
X190208333Y-77721071D01*
X190327380Y-77792500D01*
X190922619Y-78721071D02*
X190922619Y-77721071D01*
X190922619Y-77221071D02*
X190863095Y-77292500D01*
X190922619Y-77363928D01*
X190982142Y-77292500D01*
X190922619Y-77221071D01*
X190922619Y-77363928D01*
X192053571Y-77721071D02*
X192053571Y-78935357D01*
X191994047Y-79078214D01*
X191934523Y-79149642D01*
X191815476Y-79221071D01*
X191636904Y-79221071D01*
X191517857Y-79149642D01*
X192053571Y-78649642D02*
X191934523Y-78721071D01*
X191696428Y-78721071D01*
X191577380Y-78649642D01*
X191517857Y-78578214D01*
X191458333Y-78435357D01*
X191458333Y-78006785D01*
X191517857Y-77863928D01*
X191577380Y-77792500D01*
X191696428Y-77721071D01*
X191934523Y-77721071D01*
X192053571Y-77792500D01*
X192648809Y-77721071D02*
X192648809Y-78721071D01*
X192648809Y-77863928D02*
X192708333Y-77792500D01*
X192827380Y-77721071D01*
X193005952Y-77721071D01*
X193125000Y-77792500D01*
X193184523Y-77935357D01*
X193184523Y-78721071D01*
X194255952Y-78649642D02*
X194136904Y-78721071D01*
X193898809Y-78721071D01*
X193779761Y-78649642D01*
X193720238Y-78506785D01*
X193720238Y-77935357D01*
X193779761Y-77792500D01*
X193898809Y-77721071D01*
X194136904Y-77721071D01*
X194255952Y-77792500D01*
X194315476Y-77935357D01*
X194315476Y-78078214D01*
X193720238Y-78221071D01*
X195386904Y-78721071D02*
X195386904Y-77221071D01*
X195386904Y-78649642D02*
X195267857Y-78721071D01*
X195029761Y-78721071D01*
X194910714Y-78649642D01*
X194851190Y-78578214D01*
X194791666Y-78435357D01*
X194791666Y-78006785D01*
X194851190Y-77863928D01*
X194910714Y-77792500D01*
X195029761Y-77721071D01*
X195267857Y-77721071D01*
X195386904Y-77792500D01*
X196934523Y-78721071D02*
X196934523Y-77221071D01*
X196934523Y-77792500D02*
X197053571Y-77721071D01*
X197291666Y-77721071D01*
X197410714Y-77792500D01*
X197470238Y-77863928D01*
X197529761Y-78006785D01*
X197529761Y-78435357D01*
X197470238Y-78578214D01*
X197410714Y-78649642D01*
X197291666Y-78721071D01*
X197053571Y-78721071D01*
X196934523Y-78649642D01*
X197946428Y-77721071D02*
X198244047Y-78721071D01*
X198541666Y-77721071D02*
X198244047Y-78721071D01*
X198125000Y-79078214D01*
X198065476Y-79149642D01*
X197946428Y-79221071D01*
X199970238Y-78721071D02*
X199970238Y-77221071D01*
X200386904Y-78292500D01*
X200803571Y-77221071D01*
X200803571Y-78721071D01*
X201875000Y-78649642D02*
X201755952Y-78721071D01*
X201517857Y-78721071D01*
X201398809Y-78649642D01*
X201339285Y-78506785D01*
X201339285Y-77935357D01*
X201398809Y-77792500D01*
X201517857Y-77721071D01*
X201755952Y-77721071D01*
X201875000Y-77792500D01*
X201934523Y-77935357D01*
X201934523Y-78078214D01*
X201339285Y-78221071D01*
X202648809Y-78721071D02*
X202529761Y-78649642D01*
X202470238Y-78506785D01*
X202470238Y-77221071D01*
X203303571Y-78721071D02*
X203184523Y-78649642D01*
X203125000Y-78506785D01*
X203125000Y-77221071D01*
X203958333Y-78721071D02*
X203839285Y-78649642D01*
X203779761Y-78578214D01*
X203720238Y-78435357D01*
X203720238Y-78006785D01*
X203779761Y-77863928D01*
X203839285Y-77792500D01*
X203958333Y-77721071D01*
X204136904Y-77721071D01*
X204255952Y-77792500D01*
X204315476Y-77863928D01*
X204375000Y-78006785D01*
X204375000Y-78435357D01*
X204315476Y-78578214D01*
X204255952Y-78649642D01*
X204136904Y-78721071D01*
X203958333Y-78721071D01*
X204791666Y-77721071D02*
X205029761Y-78721071D01*
X205267857Y-78006785D01*
X205505952Y-78721071D01*
X205744047Y-77721071D01*
X207172619Y-78721071D02*
X207172619Y-77221071D01*
X207648809Y-77221071D01*
X207767857Y-77292500D01*
X207827380Y-77363928D01*
X207886904Y-77506785D01*
X207886904Y-77721071D01*
X207827380Y-77863928D01*
X207767857Y-77935357D01*
X207648809Y-78006785D01*
X207172619Y-78006785D01*
X209136904Y-78578214D02*
X209077380Y-78649642D01*
X208898809Y-78721071D01*
X208779761Y-78721071D01*
X208601190Y-78649642D01*
X208482142Y-78506785D01*
X208422619Y-78363928D01*
X208363095Y-78078214D01*
X208363095Y-77863928D01*
X208422619Y-77578214D01*
X208482142Y-77435357D01*
X208601190Y-77292500D01*
X208779761Y-77221071D01*
X208898809Y-77221071D01*
X209077380Y-77292500D01*
X209136904Y-77363928D01*
X210089285Y-77935357D02*
X210267857Y-78006785D01*
X210327380Y-78078214D01*
X210386904Y-78221071D01*
X210386904Y-78435357D01*
X210327380Y-78578214D01*
X210267857Y-78649642D01*
X210148809Y-78721071D01*
X209672619Y-78721071D01*
X209672619Y-77221071D01*
X210089285Y-77221071D01*
X210208333Y-77292500D01*
X210267857Y-77363928D01*
X210327380Y-77506785D01*
X210327380Y-77649642D01*
X210267857Y-77792500D01*
X210208333Y-77863928D01*
X210089285Y-77935357D01*
X209672619Y-77935357D01*
X146011428Y-59098571D02*
X146011428Y-57598571D01*
X146511428Y-58670000D01*
X147011428Y-57598571D01*
X147011428Y-59098571D01*
X147654285Y-58670000D02*
X148368571Y-58670000D01*
X147511428Y-59098571D02*
X148011428Y-57598571D01*
X148511428Y-59098571D01*
X149011428Y-59098571D02*
X149011428Y-57598571D01*
X149011428Y-58312857D02*
X149868571Y-58312857D01*
X149868571Y-59098571D02*
X149868571Y-57598571D01*
X151011428Y-57598571D02*
X151011428Y-58670000D01*
X150940000Y-58884285D01*
X150797142Y-59027142D01*
X150582857Y-59098571D01*
X150440000Y-59098571D01*
X152011428Y-57598571D02*
X152297142Y-57598571D01*
X152440000Y-57670000D01*
X152582857Y-57812857D01*
X152654285Y-58098571D01*
X152654285Y-58598571D01*
X152582857Y-58884285D01*
X152440000Y-59027142D01*
X152297142Y-59098571D01*
X152011428Y-59098571D01*
X151868571Y-59027142D01*
X151725714Y-58884285D01*
X151654285Y-58598571D01*
X151654285Y-58098571D01*
X151725714Y-57812857D01*
X151868571Y-57670000D01*
X152011428Y-57598571D01*
X153297142Y-59098571D02*
X153297142Y-57598571D01*
X154154285Y-59098571D01*
X154154285Y-57598571D01*
X155654285Y-57670000D02*
X155511428Y-57598571D01*
X155297142Y-57598571D01*
X155082857Y-57670000D01*
X154940000Y-57812857D01*
X154868571Y-57955714D01*
X154797142Y-58241428D01*
X154797142Y-58455714D01*
X154868571Y-58741428D01*
X154940000Y-58884285D01*
X155082857Y-59027142D01*
X155297142Y-59098571D01*
X155440000Y-59098571D01*
X155654285Y-59027142D01*
X155725714Y-58955714D01*
X155725714Y-58455714D01*
X155440000Y-58455714D01*
X158011428Y-58312857D02*
X157511428Y-58312857D01*
X157511428Y-59098571D02*
X157511428Y-57598571D01*
X158225714Y-57598571D01*
X159654285Y-59098571D02*
X159154285Y-58384285D01*
X158797142Y-59098571D02*
X158797142Y-57598571D01*
X159368571Y-57598571D01*
X159511428Y-57670000D01*
X159582857Y-57741428D01*
X159654285Y-57884285D01*
X159654285Y-58098571D01*
X159582857Y-58241428D01*
X159511428Y-58312857D01*
X159368571Y-58384285D01*
X158797142Y-58384285D01*
X160582857Y-57598571D02*
X160868571Y-57598571D01*
X161011428Y-57670000D01*
X161154285Y-57812857D01*
X161225714Y-58098571D01*
X161225714Y-58598571D01*
X161154285Y-58884285D01*
X161011428Y-59027142D01*
X160868571Y-59098571D01*
X160582857Y-59098571D01*
X160440000Y-59027142D01*
X160297142Y-58884285D01*
X160225714Y-58598571D01*
X160225714Y-58098571D01*
X160297142Y-57812857D01*
X160440000Y-57670000D01*
X160582857Y-57598571D01*
X161868571Y-59098571D02*
X161868571Y-57598571D01*
X162725714Y-59098571D01*
X162725714Y-57598571D01*
X163225714Y-57598571D02*
X164082857Y-57598571D01*
X163654285Y-59098571D02*
X163654285Y-57598571D01*
D13*
X170283333Y-75652380D02*
X170283333Y-76366666D01*
X170235714Y-76509523D01*
X170140476Y-76604761D01*
X169997619Y-76652380D01*
X169902380Y-76652380D01*
X170616666Y-75652380D02*
X171188095Y-75652380D01*
X170902380Y-76652380D02*
X170902380Y-75652380D01*
X171473809Y-76366666D02*
X171950000Y-76366666D01*
X171378571Y-76652380D02*
X171711904Y-75652380D01*
X172045238Y-76652380D01*
X172902380Y-75700000D02*
X172807142Y-75652380D01*
X172664285Y-75652380D01*
X172521428Y-75700000D01*
X172426190Y-75795238D01*
X172378571Y-75890476D01*
X172330952Y-76080952D01*
X172330952Y-76223809D01*
X172378571Y-76414285D01*
X172426190Y-76509523D01*
X172521428Y-76604761D01*
X172664285Y-76652380D01*
X172759523Y-76652380D01*
X172902380Y-76604761D01*
X172950000Y-76557142D01*
X172950000Y-76223809D01*
X172759523Y-76223809D01*
X133223095Y-72477380D02*
X133223095Y-73286904D01*
X133270714Y-73382142D01*
X133318333Y-73429761D01*
X133413571Y-73477380D01*
X133604047Y-73477380D01*
X133699285Y-73429761D01*
X133746904Y-73382142D01*
X133794523Y-73286904D01*
X133794523Y-72477380D01*
X134223095Y-72572619D02*
X134270714Y-72525000D01*
X134365952Y-72477380D01*
X134604047Y-72477380D01*
X134699285Y-72525000D01*
X134746904Y-72572619D01*
X134794523Y-72667857D01*
X134794523Y-72763095D01*
X134746904Y-72905952D01*
X134175476Y-73477380D01*
X134794523Y-73477380D01*
X135342333Y-61952142D02*
X135294714Y-61999761D01*
X135151857Y-62047380D01*
X135056619Y-62047380D01*
X134913761Y-61999761D01*
X134818523Y-61904523D01*
X134770904Y-61809285D01*
X134723285Y-61618809D01*
X134723285Y-61475952D01*
X134770904Y-61285476D01*
X134818523Y-61190238D01*
X134913761Y-61095000D01*
X135056619Y-61047380D01*
X135151857Y-61047380D01*
X135294714Y-61095000D01*
X135342333Y-61142619D01*
X136199476Y-61047380D02*
X136009000Y-61047380D01*
X135913761Y-61095000D01*
X135866142Y-61142619D01*
X135770904Y-61285476D01*
X135723285Y-61475952D01*
X135723285Y-61856904D01*
X135770904Y-61952142D01*
X135818523Y-61999761D01*
X135913761Y-62047380D01*
X136104238Y-62047380D01*
X136199476Y-61999761D01*
X136247095Y-61952142D01*
X136294714Y-61856904D01*
X136294714Y-61618809D01*
X136247095Y-61523571D01*
X136199476Y-61475952D01*
X136104238Y-61428333D01*
X135913761Y-61428333D01*
X135818523Y-61475952D01*
X135770904Y-61523571D01*
X135723285Y-61618809D01*
X140784066Y-78462142D02*
X140736447Y-78509761D01*
X140593590Y-78557380D01*
X140498352Y-78557380D01*
X140355494Y-78509761D01*
X140260256Y-78414523D01*
X140212637Y-78319285D01*
X140165018Y-78128809D01*
X140165018Y-77985952D01*
X140212637Y-77795476D01*
X140260256Y-77700238D01*
X140355494Y-77605000D01*
X140498352Y-77557380D01*
X140593590Y-77557380D01*
X140736447Y-77605000D01*
X140784066Y-77652619D01*
X141117399Y-77557380D02*
X141736447Y-77557380D01*
X141403113Y-77938333D01*
X141545971Y-77938333D01*
X141641209Y-77985952D01*
X141688828Y-78033571D01*
X141736447Y-78128809D01*
X141736447Y-78366904D01*
X141688828Y-78462142D01*
X141641209Y-78509761D01*
X141545971Y-78557380D01*
X141260256Y-78557380D01*
X141165018Y-78509761D01*
X141117399Y-78462142D01*
X116459404Y-79192380D02*
X116459404Y-78192380D01*
X116697500Y-78192380D01*
X116840357Y-78240000D01*
X116935595Y-78335238D01*
X116983214Y-78430476D01*
X117030833Y-78620952D01*
X117030833Y-78763809D01*
X116983214Y-78954285D01*
X116935595Y-79049523D01*
X116840357Y-79144761D01*
X116697500Y-79192380D01*
X116459404Y-79192380D01*
X117983214Y-79192380D02*
X117411785Y-79192380D01*
X117697500Y-79192380D02*
X117697500Y-78192380D01*
X117602261Y-78335238D01*
X117507023Y-78430476D01*
X117411785Y-78478095D01*
X145502333Y-67667142D02*
X145454714Y-67714761D01*
X145311857Y-67762380D01*
X145216619Y-67762380D01*
X145073761Y-67714761D01*
X144978523Y-67619523D01*
X144930904Y-67524285D01*
X144883285Y-67333809D01*
X144883285Y-67190952D01*
X144930904Y-67000476D01*
X144978523Y-66905238D01*
X145073761Y-66810000D01*
X145216619Y-66762380D01*
X145311857Y-66762380D01*
X145454714Y-66810000D01*
X145502333Y-66857619D01*
X146359476Y-67095714D02*
X146359476Y-67762380D01*
X146121380Y-66714761D02*
X145883285Y-67429047D01*
X146502333Y-67429047D01*
X105076666Y-66762380D02*
X105076666Y-67476666D01*
X105029047Y-67619523D01*
X104933809Y-67714761D01*
X104790952Y-67762380D01*
X104695714Y-67762380D01*
X105981428Y-67095714D02*
X105981428Y-67762380D01*
X105743333Y-66714761D02*
X105505238Y-67429047D01*
X106124285Y-67429047D01*
X130008333Y-72747142D02*
X129960714Y-72794761D01*
X129817857Y-72842380D01*
X129722619Y-72842380D01*
X129579761Y-72794761D01*
X129484523Y-72699523D01*
X129436904Y-72604285D01*
X129389285Y-72413809D01*
X129389285Y-72270952D01*
X129436904Y-72080476D01*
X129484523Y-71985238D01*
X129579761Y-71890000D01*
X129722619Y-71842380D01*
X129817857Y-71842380D01*
X129960714Y-71890000D01*
X130008333Y-71937619D01*
X130913095Y-71842380D02*
X130436904Y-71842380D01*
X130389285Y-72318571D01*
X130436904Y-72270952D01*
X130532142Y-72223333D01*
X130770238Y-72223333D01*
X130865476Y-72270952D01*
X130913095Y-72318571D01*
X130960714Y-72413809D01*
X130960714Y-72651904D01*
X130913095Y-72747142D01*
X130865476Y-72794761D01*
X130770238Y-72842380D01*
X130532142Y-72842380D01*
X130436904Y-72794761D01*
X130389285Y-72747142D01*
X113220833Y-79192380D02*
X112887500Y-78716190D01*
X112649404Y-79192380D02*
X112649404Y-78192380D01*
X113030357Y-78192380D01*
X113125595Y-78240000D01*
X113173214Y-78287619D01*
X113220833Y-78382857D01*
X113220833Y-78525714D01*
X113173214Y-78620952D01*
X113125595Y-78668571D01*
X113030357Y-78716190D01*
X112649404Y-78716190D01*
X114173214Y-79192380D02*
X113601785Y-79192380D01*
X113887500Y-79192380D02*
X113887500Y-78192380D01*
X113792261Y-78335238D01*
X113697023Y-78430476D01*
X113601785Y-78478095D01*
X119086333Y-63222142D02*
X119038714Y-63269761D01*
X118895857Y-63317380D01*
X118800619Y-63317380D01*
X118657761Y-63269761D01*
X118562523Y-63174523D01*
X118514904Y-63079285D01*
X118467285Y-62888809D01*
X118467285Y-62745952D01*
X118514904Y-62555476D01*
X118562523Y-62460238D01*
X118657761Y-62365000D01*
X118800619Y-62317380D01*
X118895857Y-62317380D01*
X119038714Y-62365000D01*
X119086333Y-62412619D01*
X120038714Y-63317380D02*
X119467285Y-63317380D01*
X119753000Y-63317380D02*
X119753000Y-62317380D01*
X119657761Y-62460238D01*
X119562523Y-62555476D01*
X119467285Y-62603095D01*
X115276333Y-63222142D02*
X115228714Y-63269761D01*
X115085857Y-63317380D01*
X114990619Y-63317380D01*
X114847761Y-63269761D01*
X114752523Y-63174523D01*
X114704904Y-63079285D01*
X114657285Y-62888809D01*
X114657285Y-62745952D01*
X114704904Y-62555476D01*
X114752523Y-62460238D01*
X114847761Y-62365000D01*
X114990619Y-62317380D01*
X115085857Y-62317380D01*
X115228714Y-62365000D01*
X115276333Y-62412619D01*
X115657285Y-62412619D02*
X115704904Y-62365000D01*
X115800142Y-62317380D01*
X116038238Y-62317380D01*
X116133476Y-62365000D01*
X116181095Y-62412619D01*
X116228714Y-62507857D01*
X116228714Y-62603095D01*
X116181095Y-62745952D01*
X115609666Y-63317380D01*
X116228714Y-63317380D01*
X113665095Y-66762380D02*
X113665095Y-67571904D01*
X113712714Y-67667142D01*
X113760333Y-67714761D01*
X113855571Y-67762380D01*
X114046047Y-67762380D01*
X114141285Y-67714761D01*
X114188904Y-67667142D01*
X114236523Y-67571904D01*
X114236523Y-66762380D01*
X115236523Y-67762380D02*
X114665095Y-67762380D01*
X114950809Y-67762380D02*
X114950809Y-66762380D01*
X114855571Y-66905238D01*
X114760333Y-67000476D01*
X114665095Y-67048095D01*
D14*
X186745000Y-72325000D02*
X186745000Y-73655000D01*
X186745000Y-77525000D02*
X173925000Y-77525000D01*
X173925000Y-72325000D02*
X173925000Y-77525000D01*
X184145000Y-74925000D02*
X186745000Y-74925000D01*
X185415000Y-72325000D02*
X186745000Y-72325000D01*
X186745000Y-74925000D02*
X186745000Y-77525000D01*
X184145000Y-72325000D02*
X173925000Y-72325000D01*
X184145000Y-72325000D02*
X184145000Y-74925000D01*
D13*
X133195000Y-74390000D02*
X133195000Y-75665000D01*
X132620000Y-64040000D02*
X132620000Y-64715000D01*
X132620000Y-74390000D02*
X133195000Y-74390000D01*
X142970000Y-64040000D02*
X142295000Y-64040000D01*
X132620000Y-64040000D02*
X133295000Y-64040000D01*
X142970000Y-74390000D02*
X142295000Y-74390000D01*
X132620000Y-74390000D02*
X132620000Y-73715000D01*
X142970000Y-74390000D02*
X142970000Y-73715000D01*
X142970000Y-64040000D02*
X142970000Y-64715000D01*
D14*
X137775733Y-61085000D02*
X138068267Y-61085000D01*
X137775733Y-62105000D02*
X138068267Y-62105000D01*
X106740000Y-78740000D02*
X106740000Y-81340000D01*
X104080000Y-78740000D02*
X104080000Y-81340000D01*
X104080000Y-76140000D02*
X105410000Y-76140000D01*
X104080000Y-77470000D02*
X104080000Y-76140000D01*
X104080000Y-81340000D02*
X106740000Y-81340000D01*
X104080000Y-78740000D02*
X106740000Y-78740000D01*
X107890000Y-77470000D02*
X107890000Y-76140000D01*
X107890000Y-76140000D02*
X109220000Y-76140000D01*
X110550000Y-78740000D02*
X110550000Y-81340000D01*
X107890000Y-81340000D02*
X110550000Y-81340000D01*
X107890000Y-78740000D02*
X107890000Y-81340000D01*
X107890000Y-78740000D02*
X110550000Y-78740000D01*
X140950733Y-76964000D02*
X141243267Y-76964000D01*
X140950733Y-75944000D02*
X141243267Y-75944000D01*
G36*
X195113767Y-60479323D02*
G01*
X195266059Y-60645867D01*
X195320324Y-60728566D01*
X195422206Y-60921143D01*
X195450926Y-61044693D01*
X195405375Y-61084449D01*
X195325758Y-61059355D01*
X195167891Y-60996879D01*
X195008500Y-60928996D01*
X194794966Y-60820875D01*
X194697761Y-60725195D01*
X194709672Y-60624962D01*
X194823483Y-60503186D01*
X194826593Y-60500546D01*
X194970360Y-60432305D01*
X195113767Y-60479323D01*
G37*
G36*
X195681283Y-60139306D02*
G01*
X195807133Y-60280392D01*
X195924917Y-60449068D01*
X196005614Y-60600371D01*
X196024500Y-60671096D01*
X195973512Y-60705689D01*
X195837197Y-60683430D01*
X195640526Y-60610424D01*
X195500625Y-60543076D01*
X195332384Y-60446732D01*
X195222893Y-60367212D01*
X195199000Y-60334851D01*
X195241078Y-60260682D01*
X195343784Y-60147818D01*
X195357750Y-60134500D01*
X195516500Y-59985362D01*
X195681283Y-60139306D01*
G37*
G36*
X193685039Y-61682086D02*
G01*
X193679426Y-62216921D01*
X193681715Y-62639004D01*
X193694444Y-62962471D01*
X193720152Y-63201456D01*
X193761377Y-63370094D01*
X193820659Y-63482519D01*
X193900535Y-63552868D01*
X194003544Y-63595274D01*
X194029907Y-63602344D01*
X194323463Y-63621667D01*
X194667462Y-63559195D01*
X195027563Y-63427688D01*
X195369427Y-63239906D01*
X195658715Y-63008610D01*
X195676866Y-62990344D01*
X195810403Y-62849719D01*
X195863901Y-62769754D01*
X195846530Y-62720716D01*
X195773725Y-62676226D01*
X195666430Y-62566622D01*
X195655569Y-62438508D01*
X195726717Y-62261555D01*
X195876521Y-62179546D01*
X196045454Y-62189866D01*
X196199547Y-62276832D01*
X196261536Y-62425565D01*
X196240233Y-62620725D01*
X196144449Y-62846973D01*
X195982995Y-63088969D01*
X195764681Y-63331374D01*
X195498320Y-63558848D01*
X195192723Y-63756053D01*
X195125353Y-63791692D01*
X194737153Y-63937479D01*
X194330625Y-64000034D01*
X193942268Y-63977479D01*
X193612012Y-63869713D01*
X193408487Y-63735015D01*
X193232291Y-63569730D01*
X193183387Y-63506484D01*
X193138605Y-63434537D01*
X193104267Y-63359230D01*
X193078989Y-63263542D01*
X193061385Y-63130452D01*
X193050071Y-62942939D01*
X193043662Y-62683982D01*
X193040772Y-62336561D01*
X193040017Y-61883655D01*
X193040000Y-61744359D01*
X193040000Y-60198000D01*
X193373375Y-60197967D01*
X193706750Y-60197935D01*
X193685039Y-61682086D01*
G37*
G36*
X191300392Y-61503046D02*
G01*
X191388132Y-61562204D01*
X191432650Y-61700843D01*
X191360690Y-61856167D01*
X191179882Y-62017929D01*
X190949224Y-62151409D01*
X190732092Y-62245592D01*
X190522911Y-62301461D01*
X190271194Y-62329563D01*
X190055500Y-62338062D01*
X189730420Y-62331770D01*
X189383832Y-62303146D01*
X189087417Y-62258251D01*
X189071250Y-62254840D01*
X188756422Y-62210805D01*
X188365963Y-62191073D01*
X187948810Y-62195236D01*
X187553904Y-62222882D01*
X187245625Y-62270150D01*
X187134086Y-62285825D01*
X187084269Y-62246518D01*
X187071377Y-62121494D01*
X187071000Y-62053696D01*
X187091224Y-61863213D01*
X187158498Y-61767665D01*
X187182125Y-61756152D01*
X187286963Y-61736479D01*
X187489206Y-61715000D01*
X187759336Y-61694364D01*
X188055250Y-61677800D01*
X188456567Y-61665746D01*
X188790777Y-61674550D01*
X189116659Y-61708289D01*
X189492990Y-61771041D01*
X189547500Y-61781316D01*
X189877609Y-61836533D01*
X190200628Y-61877463D01*
X190474338Y-61899438D01*
X190624970Y-61900500D01*
X190823949Y-61885408D01*
X190927514Y-61856759D01*
X190967138Y-61795605D01*
X190974220Y-61690250D01*
X190996093Y-61549914D01*
X191079900Y-61491092D01*
X191140435Y-61480664D01*
X191300392Y-61503046D01*
G37*
G36*
X198846053Y-61301083D02*
G01*
X198888463Y-61390477D01*
X198915493Y-61552744D01*
X198953390Y-61768650D01*
X199005070Y-61892903D01*
X199097233Y-61938613D01*
X199256578Y-61918885D01*
X199509804Y-61846828D01*
X199512718Y-61845943D01*
X199951299Y-61746777D01*
X200304827Y-61741635D01*
X200573654Y-61830544D01*
X200705529Y-61941544D01*
X200806419Y-62107506D01*
X200850206Y-62276029D01*
X200850262Y-62281165D01*
X200793063Y-62525528D01*
X200643072Y-62762521D01*
X200431712Y-62960598D01*
X200190406Y-63088216D01*
X200015918Y-63118762D01*
X199864287Y-63076040D01*
X199798458Y-62971442D01*
X199835957Y-62841124D01*
X199864943Y-62807342D01*
X199962780Y-62743360D01*
X200072124Y-62776902D01*
X200091917Y-62788897D01*
X200179341Y-62828458D01*
X200240157Y-62793867D01*
X200305991Y-62663681D01*
X200317761Y-62635762D01*
X200381855Y-62377326D01*
X200340629Y-62173031D01*
X200196808Y-62034592D01*
X200175644Y-62024252D01*
X200055674Y-61989027D01*
X199905607Y-61992101D01*
X199687348Y-62035821D01*
X199591050Y-62060307D01*
X199372734Y-62122189D01*
X199205302Y-62178219D01*
X199125001Y-62216268D01*
X199124999Y-62216270D01*
X199124387Y-62297366D01*
X199173138Y-62465252D01*
X199260294Y-62694955D01*
X199374898Y-62961505D01*
X199505996Y-63239929D01*
X199642629Y-63505254D01*
X199773843Y-63732509D01*
X199824157Y-63809801D01*
X199970887Y-64027228D01*
X200052374Y-64160714D01*
X200075708Y-64230706D01*
X200047979Y-64257651D01*
X199980968Y-64262000D01*
X199886932Y-64218683D01*
X199737998Y-64104351D01*
X199564178Y-63942429D01*
X199540319Y-63918074D01*
X199219396Y-63512790D01*
X198933475Y-62999420D01*
X198812792Y-62757212D01*
X198706874Y-62564967D01*
X198629907Y-62447355D01*
X198601809Y-62422596D01*
X198520772Y-62453464D01*
X198370648Y-62535540D01*
X198228593Y-62622811D01*
X198051037Y-62733243D01*
X197946853Y-62780089D01*
X197883571Y-62769945D01*
X197828718Y-62709410D01*
X197825303Y-62704753D01*
X197765412Y-62597095D01*
X197778239Y-62511739D01*
X197878729Y-62430659D01*
X198081827Y-62335829D01*
X198156353Y-62305466D01*
X198352220Y-62225910D01*
X198493012Y-62166786D01*
X198545764Y-62142220D01*
X198534677Y-62081023D01*
X198491336Y-61942119D01*
X198469176Y-61878319D01*
X198398511Y-61651016D01*
X198389975Y-61507837D01*
X198450211Y-61418670D01*
X198584883Y-61353756D01*
X198756973Y-61296134D01*
X198846053Y-61301083D01*
G37*
G36*
X184404000Y-60769500D02*
G01*
X184943750Y-60769500D01*
X185214417Y-60765303D01*
X185380064Y-60750191D01*
X185462472Y-60720379D01*
X185483500Y-60675713D01*
X185532276Y-60576274D01*
X185642250Y-60477910D01*
X185766532Y-60410723D01*
X185864253Y-60421590D01*
X185959750Y-60477910D01*
X186091363Y-60620892D01*
X186104782Y-60784696D01*
X186018714Y-60923714D01*
X185948249Y-60968306D01*
X185828042Y-60997957D01*
X185636125Y-61015225D01*
X185350532Y-61022665D01*
X185161464Y-61023500D01*
X184404000Y-61023500D01*
X184404000Y-61595000D01*
X184738192Y-61595000D01*
X184941809Y-61586980D01*
X185056720Y-61553855D01*
X185120696Y-61482027D01*
X185135067Y-61452124D01*
X185245499Y-61325718D01*
X185401300Y-61280471D01*
X185562127Y-61309272D01*
X185687638Y-61405010D01*
X185737500Y-61558325D01*
X185719369Y-61684480D01*
X185651804Y-61768888D01*
X185515041Y-61819279D01*
X185289318Y-61843386D01*
X184994550Y-61849000D01*
X184404000Y-61849000D01*
X184404000Y-62533366D01*
X184638618Y-62577380D01*
X184926123Y-62661595D01*
X185213992Y-62797398D01*
X185476888Y-62966479D01*
X185689477Y-63150529D01*
X185826421Y-63331238D01*
X185864500Y-63463292D01*
X185817057Y-63632627D01*
X185699507Y-63753946D01*
X185549020Y-63806386D01*
X185402764Y-63769085D01*
X185369200Y-63741300D01*
X185313134Y-63636104D01*
X185294698Y-63504753D01*
X185315739Y-63400806D01*
X185356500Y-63373000D01*
X185425104Y-63348607D01*
X185399978Y-63285028D01*
X185302532Y-63196658D01*
X185154179Y-63097896D01*
X184976329Y-63003137D01*
X184790395Y-62926778D01*
X184631067Y-62885231D01*
X184404000Y-62848383D01*
X184403063Y-63126566D01*
X184359862Y-63450655D01*
X184226467Y-63697579D01*
X184086500Y-63826888D01*
X183851351Y-63934826D01*
X183555023Y-63979619D01*
X183249069Y-63956605D01*
X183102250Y-63915913D01*
X182817253Y-63761092D01*
X182636609Y-63558085D01*
X182561537Y-63328324D01*
X182593258Y-63093238D01*
X182732991Y-62874258D01*
X182981955Y-62692812D01*
X183031288Y-62669022D01*
X183284780Y-62578074D01*
X183496915Y-62547151D01*
X183644696Y-62576067D01*
X183705127Y-62664636D01*
X183705500Y-62674500D01*
X183661112Y-62780138D01*
X183575346Y-62801500D01*
X183425448Y-62830365D01*
X183265541Y-62894401D01*
X183080931Y-63042578D01*
X183006675Y-63223306D01*
X183046277Y-63411064D01*
X183174313Y-63558891D01*
X183378924Y-63672469D01*
X183559655Y-63665071D01*
X183705500Y-63563500D01*
X183759022Y-63497698D01*
X183795120Y-63410843D01*
X183817134Y-63278712D01*
X183828406Y-63077086D01*
X183832275Y-62781742D01*
X183832500Y-62642750D01*
X183832500Y-61849000D01*
X183261000Y-61849000D01*
X182989473Y-61846877D01*
X182820751Y-61836930D01*
X182730662Y-61813786D01*
X182695034Y-61772074D01*
X182689500Y-61722000D01*
X182699049Y-61661660D01*
X182743811Y-61624167D01*
X182847959Y-61604147D01*
X183035664Y-61596229D01*
X183261000Y-61595000D01*
X183832500Y-61595000D01*
X183832500Y-61023500D01*
X183038750Y-61023500D01*
X182709342Y-61022343D01*
X182486298Y-61016672D01*
X182348986Y-61003186D01*
X182276776Y-60978585D01*
X182249037Y-60939566D01*
X182245000Y-60896500D01*
X182252229Y-60843794D01*
X182287671Y-60808107D01*
X182371956Y-60786137D01*
X182525716Y-60774584D01*
X182769581Y-60770145D01*
X183038750Y-60769500D01*
X183832500Y-60769500D01*
X183832500Y-60071000D01*
X184404000Y-60071000D01*
X184404000Y-60769500D01*
G37*
G36*
X209804000Y-60769500D02*
G01*
X210343750Y-60769500D01*
X210614417Y-60765303D01*
X210780064Y-60750191D01*
X210862472Y-60720379D01*
X210883500Y-60675713D01*
X210932276Y-60576274D01*
X211042250Y-60477910D01*
X211166532Y-60410723D01*
X211264253Y-60421590D01*
X211359750Y-60477910D01*
X211491363Y-60620892D01*
X211504782Y-60784696D01*
X211418714Y-60923714D01*
X211348249Y-60968306D01*
X211228042Y-60997957D01*
X211036125Y-61015225D01*
X210750532Y-61022665D01*
X210561464Y-61023500D01*
X209804000Y-61023500D01*
X209804000Y-61595000D01*
X210138192Y-61595000D01*
X210341809Y-61586980D01*
X210456720Y-61553855D01*
X210520696Y-61482027D01*
X210535067Y-61452124D01*
X210645499Y-61325718D01*
X210801300Y-61280471D01*
X210962127Y-61309272D01*
X211087638Y-61405010D01*
X211137500Y-61558325D01*
X211119369Y-61684480D01*
X211051804Y-61768888D01*
X210915041Y-61819279D01*
X210689318Y-61843386D01*
X210394550Y-61849000D01*
X209804000Y-61849000D01*
X209804000Y-62533366D01*
X210038618Y-62577380D01*
X210326123Y-62661595D01*
X210613992Y-62797398D01*
X210876888Y-62966479D01*
X211089477Y-63150529D01*
X211226421Y-63331238D01*
X211264500Y-63463292D01*
X211217057Y-63632627D01*
X211099507Y-63753946D01*
X210949020Y-63806386D01*
X210802764Y-63769085D01*
X210769200Y-63741300D01*
X210713134Y-63636104D01*
X210694698Y-63504753D01*
X210715739Y-63400806D01*
X210756500Y-63373000D01*
X210825104Y-63348607D01*
X210799978Y-63285028D01*
X210702532Y-63196658D01*
X210554179Y-63097896D01*
X210376329Y-63003137D01*
X210190395Y-62926778D01*
X210031067Y-62885231D01*
X209804000Y-62848383D01*
X209803063Y-63126566D01*
X209759862Y-63450655D01*
X209626467Y-63697579D01*
X209486500Y-63826888D01*
X209251351Y-63934826D01*
X208955023Y-63979619D01*
X208649069Y-63956605D01*
X208502250Y-63915913D01*
X208217253Y-63761092D01*
X208036609Y-63558085D01*
X207961537Y-63328324D01*
X207993258Y-63093238D01*
X208132991Y-62874258D01*
X208381955Y-62692812D01*
X208431288Y-62669022D01*
X208684780Y-62578074D01*
X208896915Y-62547151D01*
X209044696Y-62576067D01*
X209105127Y-62664636D01*
X209105500Y-62674500D01*
X209061112Y-62780138D01*
X208975346Y-62801500D01*
X208825448Y-62830365D01*
X208665541Y-62894401D01*
X208480931Y-63042578D01*
X208406675Y-63223306D01*
X208446277Y-63411064D01*
X208574313Y-63558891D01*
X208778924Y-63672469D01*
X208959655Y-63665071D01*
X209105500Y-63563500D01*
X209159022Y-63497698D01*
X209195120Y-63410843D01*
X209217134Y-63278712D01*
X209228406Y-63077086D01*
X209232275Y-62781742D01*
X209232500Y-62642750D01*
X209232500Y-61849000D01*
X208661000Y-61849000D01*
X208389473Y-61846877D01*
X208220751Y-61836930D01*
X208130662Y-61813786D01*
X208095034Y-61772074D01*
X208089500Y-61722000D01*
X208099049Y-61661660D01*
X208143811Y-61624167D01*
X208247959Y-61604147D01*
X208435664Y-61596229D01*
X208661000Y-61595000D01*
X209232500Y-61595000D01*
X209232500Y-61023500D01*
X208438750Y-61023500D01*
X208109342Y-61022343D01*
X207886298Y-61016672D01*
X207748986Y-61003186D01*
X207676776Y-60978585D01*
X207649037Y-60939566D01*
X207645000Y-60896500D01*
X207652229Y-60843794D01*
X207687671Y-60808107D01*
X207771956Y-60786137D01*
X207925716Y-60774584D01*
X208169581Y-60770145D01*
X208438750Y-60769500D01*
X209232500Y-60769500D01*
X209232500Y-60071000D01*
X209804000Y-60071000D01*
X209804000Y-60769500D01*
G37*
G36*
X204222202Y-60050207D02*
G01*
X204380717Y-60083720D01*
X204491321Y-60114092D01*
X204690467Y-60189265D01*
X204767635Y-60261858D01*
X204765614Y-60290442D01*
X204717643Y-60369263D01*
X204607382Y-60529387D01*
X204449063Y-60750764D01*
X204256918Y-61013338D01*
X204157528Y-61147214D01*
X203951115Y-61426162D01*
X203768523Y-61677020D01*
X203624994Y-61878539D01*
X203535768Y-62009469D01*
X203517358Y-62039763D01*
X203484441Y-62110168D01*
X203504627Y-62127898D01*
X203601096Y-62092768D01*
X203723121Y-62038127D01*
X203920859Y-61962451D01*
X204095894Y-61918361D01*
X204143234Y-61913894D01*
X204217750Y-61918315D01*
X204259475Y-61950716D01*
X204274174Y-62037205D01*
X204267610Y-62203891D01*
X204251585Y-62404625D01*
X204243933Y-62782954D01*
X204298818Y-63066852D01*
X204424589Y-63276750D01*
X204629597Y-63433075D01*
X204683324Y-63460924D01*
X204848050Y-63529529D01*
X204993855Y-63548790D01*
X205180798Y-63523385D01*
X205261850Y-63505975D01*
X205670135Y-63354701D01*
X206008168Y-63097913D01*
X206157987Y-62921400D01*
X206274640Y-62741306D01*
X206299931Y-62622816D01*
X206233530Y-62538978D01*
X206152750Y-62495554D01*
X206022649Y-62388262D01*
X205990547Y-62254278D01*
X206040731Y-62123468D01*
X206157489Y-62025699D01*
X206325110Y-61990838D01*
X206411697Y-62003317D01*
X206551914Y-62099005D01*
X206617903Y-62294486D01*
X206608368Y-62585578D01*
X206603204Y-62619825D01*
X206483357Y-63010030D01*
X206265198Y-63383277D01*
X205975463Y-63702551D01*
X205665197Y-63918594D01*
X205404240Y-64007606D01*
X205092041Y-64048414D01*
X204783702Y-64038271D01*
X204535389Y-63974913D01*
X204251740Y-63814126D01*
X204057498Y-63616995D01*
X203940641Y-63360947D01*
X203889144Y-63023413D01*
X203884940Y-62753875D01*
X203886569Y-62492683D01*
X203876162Y-62334326D01*
X203849465Y-62254878D01*
X203802224Y-62230412D01*
X203791805Y-62230000D01*
X203667690Y-62283817D01*
X203506083Y-62431356D01*
X203324242Y-62651747D01*
X203139428Y-62924119D01*
X202972225Y-63221033D01*
X202856313Y-63442648D01*
X202758732Y-63616916D01*
X202695622Y-63715445D01*
X202684792Y-63726704D01*
X202573205Y-63729235D01*
X202444461Y-63639982D01*
X202340401Y-63495458D01*
X202274208Y-63352917D01*
X202260779Y-63244932D01*
X202309922Y-63132870D01*
X202431447Y-62978100D01*
X202488649Y-62911598D01*
X202589465Y-62773558D01*
X202736351Y-62543524D01*
X202916968Y-62242275D01*
X203118976Y-61890589D01*
X203330037Y-61509242D01*
X203414477Y-61352594D01*
X203612142Y-60985262D01*
X203791169Y-60656950D01*
X203942565Y-60383790D01*
X204057341Y-60181916D01*
X204126507Y-60067458D01*
X204141703Y-60047691D01*
X204222202Y-60050207D01*
G37*
G36*
X199909682Y-60836350D02*
G01*
X200098218Y-60905626D01*
X200169311Y-60986529D01*
X200129600Y-61103315D01*
X200020478Y-61241198D01*
X199868030Y-61392262D01*
X199702441Y-61522497D01*
X199550043Y-61615903D01*
X199437169Y-61656485D01*
X199390152Y-61628244D01*
X199390000Y-61624220D01*
X199415947Y-61551022D01*
X199480834Y-61409488D01*
X199507989Y-61354345D01*
X199595676Y-61157287D01*
X199659876Y-60974984D01*
X199666830Y-60948583D01*
X199706497Y-60835656D01*
X199778108Y-60806972D01*
X199909682Y-60836350D01*
G37*
X118857500Y-76735000D02*
X116397500Y-76735000D01*
X118857500Y-78205000D02*
X118857500Y-76735000D01*
X116397500Y-78205000D02*
X118857500Y-78205000D01*
X146179000Y-69449733D02*
X146179000Y-69742267D01*
X145159000Y-69449733D02*
X145159000Y-69742267D01*
D15*
X95015000Y-60635000D02*
X95690000Y-60635000D01*
X108345000Y-61660000D02*
X108345000Y-60635000D01*
X108345000Y-73985000D02*
X107620000Y-73985000D01*
X108345000Y-73035000D02*
X108345000Y-73985000D01*
X95665000Y-73985000D02*
X95015000Y-73985000D01*
X108345000Y-60635000D02*
X107545000Y-60635000D01*
X95015000Y-73985000D02*
X95015000Y-73285000D01*
X95015000Y-61610000D02*
X95015000Y-60635000D01*
D14*
X131066000Y-69996267D02*
X131066000Y-69703733D01*
X130046000Y-69996267D02*
X130046000Y-69703733D01*
X113132776Y-77992500D02*
X113642224Y-77992500D01*
X113132776Y-76947500D02*
X113642224Y-76947500D01*
X118493000Y-63011267D02*
X118493000Y-62718733D01*
X117473000Y-63011267D02*
X117473000Y-62718733D01*
X116203000Y-63011267D02*
X116203000Y-62718733D01*
X117223000Y-63011267D02*
X117223000Y-62718733D01*
X120450000Y-73460000D02*
X120450000Y-73010000D01*
X120450000Y-66240000D02*
X120450000Y-66690000D01*
X120000000Y-66240000D02*
X120450000Y-66240000D01*
X113230000Y-66690000D02*
X111940000Y-66690000D01*
X120000000Y-73460000D02*
X120450000Y-73460000D01*
X113230000Y-66240000D02*
X113230000Y-66690000D01*
X113230000Y-73460000D02*
X113230000Y-73010000D01*
X113680000Y-66240000D02*
X113230000Y-66240000D01*
X113680000Y-73460000D02*
X113230000Y-73460000D01*
M02*
