G04 #@! TF.GenerationSoftware,KiCad,Pcbnew,(6.0.6-0)*
G04 #@! TF.CreationDate,2022-10-11T13:41:26+09:00*
G04 #@! TF.ProjectId,MahJamma,4d61684a-616d-46d6-912e-6b696361645f,rev?*
G04 #@! TF.SameCoordinates,Original*
G04 #@! TF.FileFunction,Paste,Top*
G04 #@! TF.FilePolarity,Positive*
%FSLAX46Y46*%
G04 Gerber Fmt 4.6, Leading zero omitted, Abs format (unit mm)*
G04 Created by KiCad (PCBNEW (6.0.6-0)) date 2022-10-11 13:41:26*
%MOMM*%
%LPD*%
G01*
G04 APERTURE LIST*
G04 Aperture macros list*
%AMRoundRect*
0 Rectangle with rounded corners*
0 $1 Rounding radius*
0 $2 $3 $4 $5 $6 $7 $8 $9 X,Y pos of 4 corners*
0 Add a 4 corners polygon primitive as box body*
4,1,4,$2,$3,$4,$5,$6,$7,$8,$9,$2,$3,0*
0 Add four circle primitives for the rounded corners*
1,1,$1+$1,$2,$3*
1,1,$1+$1,$4,$5*
1,1,$1+$1,$6,$7*
1,1,$1+$1,$8,$9*
0 Add four rect primitives between the rounded corners*
20,1,$1+$1,$2,$3,$4,$5,0*
20,1,$1+$1,$4,$5,$6,$7,0*
20,1,$1+$1,$6,$7,$8,$9,0*
20,1,$1+$1,$8,$9,$2,$3,0*%
G04 Aperture macros list end*
%ADD10R,1.980000X9.900000*%
%ADD11R,0.550000X1.500000*%
%ADD12R,1.500000X0.550000*%
%ADD13RoundRect,0.237500X0.237500X-0.300000X0.237500X0.300000X-0.237500X0.300000X-0.237500X-0.300000X0*%
%ADD14RoundRect,0.237500X0.237500X-0.250000X0.237500X0.250000X-0.237500X0.250000X-0.237500X-0.250000X0*%
%ADD15RoundRect,0.237500X-0.300000X-0.237500X0.300000X-0.237500X0.300000X0.237500X-0.300000X0.237500X0*%
%ADD16RoundRect,0.237500X-0.237500X0.250000X-0.237500X-0.250000X0.237500X-0.250000X0.237500X0.250000X0*%
%ADD17RoundRect,0.237500X0.287500X0.237500X-0.287500X0.237500X-0.287500X-0.237500X0.287500X-0.237500X0*%
%ADD18RoundRect,0.237500X0.300000X0.237500X-0.300000X0.237500X-0.300000X-0.237500X0.300000X-0.237500X0*%
%ADD19RoundRect,0.237500X-0.250000X-0.237500X0.250000X-0.237500X0.250000X0.237500X-0.250000X0.237500X0*%
%ADD20RoundRect,0.075000X-0.662500X-0.075000X0.662500X-0.075000X0.662500X0.075000X-0.662500X0.075000X0*%
%ADD21RoundRect,0.075000X-0.075000X-0.662500X0.075000X-0.662500X0.075000X0.662500X-0.075000X0.662500X0*%
G04 APERTURE END LIST*
D10*
X101480000Y-51435000D03*
X105440000Y-51435000D03*
X109400000Y-51435000D03*
X113360000Y-51435000D03*
X117320000Y-51435000D03*
X121280000Y-51435000D03*
X125240000Y-51435000D03*
X129200000Y-51435000D03*
X133160000Y-51435000D03*
X137120000Y-51435000D03*
X141080000Y-51435000D03*
X145040000Y-51435000D03*
X149000000Y-51435000D03*
X152960000Y-51435000D03*
X156920000Y-51435000D03*
X160880000Y-51435000D03*
X164840000Y-51435000D03*
X168800000Y-51435000D03*
X172760000Y-51435000D03*
X176720000Y-51435000D03*
X180680000Y-51435000D03*
X184640000Y-51435000D03*
X188600000Y-51435000D03*
X192560000Y-51435000D03*
X196520000Y-51435000D03*
X200480000Y-51435000D03*
X204440000Y-51435000D03*
X208400000Y-51435000D03*
D11*
X156400000Y-64150000D03*
X155600000Y-64150000D03*
X154800000Y-64150000D03*
X154000000Y-64150000D03*
X153200000Y-64150000D03*
X152400000Y-64150000D03*
X151600000Y-64150000D03*
X150800000Y-64150000D03*
X150000000Y-64150000D03*
X149200000Y-64150000D03*
X148400000Y-64150000D03*
D12*
X146700000Y-65850000D03*
X146700000Y-66650000D03*
X146700000Y-67450000D03*
X146700000Y-68250000D03*
X146700000Y-69050000D03*
X146700000Y-69850000D03*
X146700000Y-70650000D03*
X146700000Y-71450000D03*
X146700000Y-72250000D03*
X146700000Y-73050000D03*
X146700000Y-73850000D03*
D11*
X148400000Y-75550000D03*
X149200000Y-75550000D03*
X150000000Y-75550000D03*
X150800000Y-75550000D03*
X151600000Y-75550000D03*
X152400000Y-75550000D03*
X153200000Y-75550000D03*
X154000000Y-75550000D03*
X154800000Y-75550000D03*
X155600000Y-75550000D03*
X156400000Y-75550000D03*
D12*
X158100000Y-73850000D03*
X158100000Y-73050000D03*
X158100000Y-72250000D03*
X158100000Y-71450000D03*
X158100000Y-70650000D03*
X158100000Y-69850000D03*
X158100000Y-69050000D03*
X158100000Y-68250000D03*
X158100000Y-67450000D03*
X158100000Y-66650000D03*
X158100000Y-65850000D03*
D13*
X143510000Y-70712500D03*
X143510000Y-68987500D03*
D14*
X180340000Y-70762500D03*
X180340000Y-68937500D03*
X182880000Y-70762500D03*
X182880000Y-68937500D03*
D15*
X160427500Y-68580000D03*
X162152500Y-68580000D03*
D16*
X185420000Y-68937500D03*
X185420000Y-70762500D03*
D14*
X175260000Y-70762500D03*
X175260000Y-68937500D03*
D17*
X112635000Y-77470000D03*
X110885000Y-77470000D03*
D18*
X149452500Y-62230000D03*
X147727500Y-62230000D03*
D15*
X152807500Y-77470000D03*
X154532500Y-77470000D03*
D19*
X107037500Y-77470000D03*
X108862500Y-77470000D03*
D13*
X119380000Y-63955000D03*
X119380000Y-62230000D03*
X116840000Y-63955000D03*
X116840000Y-62230000D03*
D20*
X113312500Y-69640000D03*
X113312500Y-70140000D03*
X113312500Y-70640000D03*
X113312500Y-71140000D03*
X113312500Y-71640000D03*
X113312500Y-72140000D03*
X113312500Y-72640000D03*
X113312500Y-73140000D03*
X113312500Y-73640000D03*
X113312500Y-74140000D03*
X113312500Y-74640000D03*
X113312500Y-75140000D03*
D21*
X114725000Y-76552500D03*
X115225000Y-76552500D03*
X115725000Y-76552500D03*
X116225000Y-76552500D03*
X116725000Y-76552500D03*
X117225000Y-76552500D03*
X117725000Y-76552500D03*
X118225000Y-76552500D03*
X118725000Y-76552500D03*
X119225000Y-76552500D03*
X119725000Y-76552500D03*
X120225000Y-76552500D03*
D20*
X121637500Y-75140000D03*
X121637500Y-74640000D03*
X121637500Y-74140000D03*
X121637500Y-73640000D03*
X121637500Y-73140000D03*
X121637500Y-72640000D03*
X121637500Y-72140000D03*
X121637500Y-71640000D03*
X121637500Y-71140000D03*
X121637500Y-70640000D03*
X121637500Y-70140000D03*
X121637500Y-69640000D03*
D21*
X120225000Y-68227500D03*
X119725000Y-68227500D03*
X119225000Y-68227500D03*
X118725000Y-68227500D03*
X118225000Y-68227500D03*
X117725000Y-68227500D03*
X117225000Y-68227500D03*
X116725000Y-68227500D03*
X116225000Y-68227500D03*
X115725000Y-68227500D03*
X115225000Y-68227500D03*
X114725000Y-68227500D03*
D10*
X208400000Y-86360000D03*
X204440000Y-86360000D03*
X200480000Y-86360000D03*
X196520000Y-86360000D03*
X192560000Y-86360000D03*
X188600000Y-86360000D03*
X184640000Y-86360000D03*
X180680000Y-86360000D03*
X176720000Y-86360000D03*
X172760000Y-86360000D03*
X168800000Y-86360000D03*
X164840000Y-86360000D03*
X160880000Y-86360000D03*
X156920000Y-86360000D03*
X152960000Y-86360000D03*
X149000000Y-86360000D03*
X145040000Y-86360000D03*
X141080000Y-86360000D03*
X137120000Y-86360000D03*
X133160000Y-86360000D03*
X129200000Y-86360000D03*
X125240000Y-86360000D03*
X121280000Y-86360000D03*
X117320000Y-86360000D03*
X113360000Y-86360000D03*
X109400000Y-86360000D03*
X105440000Y-86360000D03*
X101480000Y-86360000D03*
M02*
