M48
; DRILL file {KiCad (6.0.6-0)} date Tuesday, 15 November 2022 at 04:41:19
; FORMAT={-:-/ absolute / inch / decimal}
; #@! TF.CreationDate,2022-11-15T04:41:19+09:00
; #@! TF.GenerationSoftware,Kicad,Pcbnew,(6.0.6-0)
; #@! TF.FileFunction,MixedPlating,1,2
FMAT,2
INCH
; #@! TA.AperFunction,Plated,PTH,ViaDrill
T1C0.0079
; #@! TA.AperFunction,Plated,PTH,ViaDrill
T2C0.0157
; #@! TA.AperFunction,Plated,PTH,ComponentDrill
T3C0.0362
; #@! TA.AperFunction,Plated,PTH,ComponentDrill
T4C0.0394
; #@! TA.AperFunction,Plated,PTH,ComponentDrill
T5C0.0906
%
G90
G05
T1
X4.0365Y-2.2598
X4.0764Y-2.985
X4.2673Y-2.4037
X4.3315Y-2.2372
X4.3468Y-2.6172
X4.3495Y-2.5166
X4.3522Y-2.4508
X4.3665Y-2.719
X4.3909Y-2.7797
X4.4241Y-2.3392
X4.4281Y-3.05
X4.4373Y-2.6188
X4.4448Y-3.0802
X4.4545Y-2.5536
X4.46Y-2.405
X4.4833Y-2.7684
X4.4934Y-2.7125
X4.4951Y-2.9741
X4.4976Y-2.8473
X4.4994Y-2.6321
X4.5125Y-2.79
X4.516Y-2.7643
X4.5313Y-2.9684
X4.5411Y-2.5311
X4.5654Y-2.536
X4.5764Y-2.6352
X4.595Y-2.441
X4.6004Y-2.9622
X4.6025Y-2.3125
X4.623Y-2.7329
X4.6259Y-2.6607
X4.6435Y-2.9973
X4.645Y-2.441
X4.6525Y-2.3125
X4.6559Y-2.6599
X4.6726Y-2.6432
X4.7853Y-2.3561
X4.8272Y-2.6406
X4.8297Y-2.3339
X4.89Y-2.87
X4.8915Y-2.6421
X4.905Y-2.855
X4.9329Y-2.6505
X4.9713Y-2.612
X4.9844Y-2.6316
X5.0509Y-2.3298
X5.055Y-3.09
X5.08Y-3.065
X5.1228Y-2.8716
X5.1269Y-2.6154
X5.185Y-2.755
X5.2167Y-2.6583
X5.2196Y-2.6904
X5.2441Y-2.7144
X5.2795Y-2.6305
X5.2985Y-2.5608
X5.2986Y-2.8233
X5.3019Y-2.2162
X5.3161Y-2.4555
X5.3167Y-2.3133
X5.3409Y-2.1655
X5.3521Y-2.3381
X5.425Y-2.5487
X5.4497Y-2.6853
X5.4512Y-2.5494
X5.4556Y-2.6208
X5.4674Y-2.9966
X5.4691Y-2.6015
X5.489Y-2.2162
X5.513Y-2.7109
X5.5178Y-2.8006
X5.52Y-2.6594
X5.5216Y-2.543
X5.5282Y-2.2629
X5.5302Y-2.8552
X5.55Y-2.95
X5.5756Y-2.3662
X5.5971Y-2.3341
X5.6Y-2.54
X5.6005Y-2.3998
X5.61Y-2.9434
X5.6181Y-2.9657
X5.63Y-2.755
X5.6635Y-2.7565
X5.6706Y-2.3995
X5.6802Y-2.5006
X5.6844Y-2.4756
X5.6948Y-2.5482
X5.8029Y-2.8472
X5.8055Y-2.9303
X5.81Y-2.88
X5.8579Y-2.5608
X5.8634Y-2.5321
X5.9325Y-2.5177
X5.9498Y-3.1203
X5.95Y-3.25
X5.965Y-2.97
X6.0627Y-3.1203
X6.1Y-3.25
X6.11Y-2.975
X6.18Y-3.16
X6.2363Y-2.2281
X6.2385Y-2.5177
X6.3006Y-3.1353
X6.3375Y-2.8725
X6.3723Y-2.2981
X6.392Y-2.2297
X6.431Y-3.3318
X6.45Y-2.5336
X6.4603Y-2.3818
X6.5767Y-3.1353
X6.6039Y-2.3818
X6.6631Y-2.4913
X6.805Y-2.475
T2
X3.9953Y-3.4
X4.0087Y-3.2338
X4.6189Y-2.025
X4.6189Y-2.1311
X6.8016Y-2.025
X6.95Y-2.025
X7.1134Y-2.025
X7.2693Y-2.025
X7.4252Y-2.1248
X7.4252Y-2.1748
X7.4252Y-3.2748
X7.4252Y-3.3248
X7.4252Y-3.3748
X7.5Y-2.1
X7.5Y-2.15
X7.575Y-3.275
X7.737Y-3.4
X7.75Y-2.025
X7.8929Y-2.025
X7.8929Y-3.4
X8.05Y-2.025
X8.05Y-3.4
X8.2Y-2.025
X8.2047Y-3.4
T3
X4.2567Y-2.5122
X4.2567Y-2.6106
X4.2567Y-2.6894
X4.2567Y-2.7878
T4
X4.15Y-3.05
X4.15Y-3.15
X4.3Y-3.05
X4.3Y-3.15
X6.8998Y-2.8998
X6.8998Y-2.9998
X6.9998Y-2.8998
X6.9998Y-2.9998
X7.0998Y-2.8998
X7.0998Y-2.9998
X7.1998Y-2.8998
X7.1998Y-2.9998
X7.2998Y-2.8998
X7.2998Y-2.9998
T5
X4.15Y-2.3913
X4.15Y-2.9087
T0
M30
