G04 #@! TF.GenerationSoftware,KiCad,Pcbnew,(6.0.6-0)*
G04 #@! TF.CreationDate,2022-08-27T20:22:06+09:00*
G04 #@! TF.ProjectId,MahJamma,4d61684a-616d-46d6-912e-6b696361645f,rev?*
G04 #@! TF.SameCoordinates,Original*
G04 #@! TF.FileFunction,Copper,L2,Bot*
G04 #@! TF.FilePolarity,Positive*
%FSLAX46Y46*%
G04 Gerber Fmt 4.6, Leading zero omitted, Abs format (unit mm)*
G04 Created by KiCad (PCBNEW (6.0.6-0)) date 2022-08-27 20:22:06*
%MOMM*%
%LPD*%
G01*
G04 APERTURE LIST*
G04 #@! TA.AperFunction,ComponentPad*
%ADD10R,1.700000X1.700000*%
G04 #@! TD*
G04 #@! TA.AperFunction,ComponentPad*
%ADD11O,1.700000X1.700000*%
G04 #@! TD*
G04 #@! TA.AperFunction,SMDPad,CuDef*
%ADD12R,1.980000X9.900000*%
G04 #@! TD*
G04 #@! TA.AperFunction,ComponentPad*
%ADD13C,3.300000*%
G04 #@! TD*
G04 #@! TA.AperFunction,ComponentPad*
%ADD14C,1.900000*%
G04 #@! TD*
G04 #@! TA.AperFunction,ViaPad*
%ADD15C,0.400000*%
G04 #@! TD*
G04 #@! TA.AperFunction,Conductor*
%ADD16C,0.250000*%
G04 #@! TD*
G04 #@! TA.AperFunction,Conductor*
%ADD17C,0.500000*%
G04 #@! TD*
G04 #@! TA.AperFunction,Conductor*
%ADD18C,1.500000*%
G04 #@! TD*
G04 APERTURE END LIST*
D10*
X125095000Y-73655000D03*
D11*
X125095000Y-76195000D03*
D12*
X208400000Y-51435000D03*
X204440000Y-51435000D03*
X200480000Y-51435000D03*
X196520000Y-51435000D03*
X192560000Y-51435000D03*
X188600000Y-51435000D03*
X184640000Y-51435000D03*
X180680000Y-51435000D03*
X176720000Y-51435000D03*
X172760000Y-51435000D03*
X168800000Y-51435000D03*
X164840000Y-51435000D03*
X160880000Y-51435000D03*
X156920000Y-51435000D03*
X152960000Y-51435000D03*
X149000000Y-51435000D03*
X145040000Y-51435000D03*
X141080000Y-51435000D03*
X137120000Y-51435000D03*
X133160000Y-51435000D03*
X129200000Y-51435000D03*
X125240000Y-51435000D03*
X121280000Y-51435000D03*
X117320000Y-51435000D03*
X113360000Y-51435000D03*
X109400000Y-51435000D03*
X105440000Y-51435000D03*
X101480000Y-51435000D03*
D10*
X128905000Y-73655000D03*
D11*
X128905000Y-76195000D03*
D12*
X101480000Y-83820000D03*
X105440000Y-83820000D03*
X109400000Y-83820000D03*
X113360000Y-83820000D03*
X117320000Y-83820000D03*
X121280000Y-83820000D03*
X125240000Y-83820000D03*
X129200000Y-83820000D03*
X133160000Y-83820000D03*
X137120000Y-83820000D03*
X141080000Y-83820000D03*
X145040000Y-83820000D03*
X149000000Y-83820000D03*
X152960000Y-83820000D03*
X156920000Y-83820000D03*
X160880000Y-83820000D03*
X164840000Y-83820000D03*
X168800000Y-83820000D03*
X172760000Y-83820000D03*
X176720000Y-83820000D03*
X180680000Y-83820000D03*
X184640000Y-83820000D03*
X188600000Y-83820000D03*
X192560000Y-83820000D03*
X196520000Y-83820000D03*
X200480000Y-83820000D03*
X204440000Y-83820000D03*
X208400000Y-83820000D03*
D13*
X106185000Y-60740000D03*
X106185000Y-73880000D03*
D14*
X108895000Y-70810000D03*
X108895000Y-68310000D03*
X108895000Y-66310000D03*
X108895000Y-63810000D03*
D15*
X110707300Y-65005800D03*
X116329000Y-70307300D03*
X113215400Y-64965900D03*
X118776400Y-69375900D03*
X103024100Y-56244800D03*
X112247800Y-64992200D03*
X117883600Y-69507700D03*
X108472000Y-56930000D03*
X116122700Y-59071300D03*
X119761400Y-70947600D03*
X140044900Y-59173600D03*
X123147400Y-62731000D03*
X115819600Y-71452600D03*
X142146600Y-57118100D03*
X122175000Y-62092100D03*
X113091600Y-68716700D03*
X148101200Y-67267600D03*
X124799400Y-67509200D03*
X114483600Y-73282500D03*
X148548100Y-66832000D03*
X124746000Y-66804100D03*
X116647400Y-72618200D03*
X150845300Y-68246800D03*
X124683100Y-68246800D03*
X114771200Y-74640000D03*
X149278500Y-71704900D03*
X136425100Y-77405000D03*
X114123900Y-77390200D03*
X116920600Y-70899000D03*
X117760100Y-72066300D03*
X145341400Y-73769300D03*
X130003400Y-58892800D03*
X148111900Y-74808200D03*
X131978500Y-56835300D03*
X192405000Y-79375000D03*
X188600000Y-53335000D03*
X188600000Y-81275000D03*
X188600000Y-80005000D03*
X188600000Y-55240000D03*
X163243200Y-72233100D03*
X143379300Y-71014600D03*
X156527100Y-74872700D03*
X150080500Y-74872700D03*
X121692000Y-65632500D03*
X120422000Y-65632500D03*
X119380000Y-65632500D03*
X182880000Y-51435000D03*
X200480000Y-81460000D03*
X200480000Y-79555000D03*
X196520000Y-81610000D03*
X196520000Y-79705000D03*
X180680000Y-54950000D03*
X180680000Y-53635000D03*
X184640000Y-53485000D03*
X184640000Y-55315000D03*
X200480000Y-55425000D03*
X200480000Y-53520000D03*
X196520000Y-53670000D03*
X196520000Y-55575000D03*
X198755000Y-51435000D03*
X116657700Y-75016100D03*
X151977900Y-77869400D03*
X145302000Y-74590500D03*
X126645200Y-56710300D03*
X132473600Y-74985000D03*
X115661700Y-74985000D03*
X147983100Y-77913200D03*
X150191700Y-72224700D03*
X163542700Y-56710300D03*
X164424300Y-70084000D03*
X149997900Y-70084000D03*
X149115000Y-72883200D03*
X137089000Y-57726200D03*
X101480000Y-76955000D03*
X101480000Y-80130000D03*
X117320000Y-56035000D03*
X208400000Y-81160000D03*
X208400000Y-79255000D03*
X204440000Y-81310000D03*
X204440000Y-79405000D03*
X208400000Y-55760000D03*
X208400000Y-53855000D03*
X204440000Y-54005000D03*
X204440000Y-55910000D03*
X174625000Y-51435000D03*
X176720000Y-53785000D03*
X172760000Y-53935000D03*
X172760000Y-55285000D03*
X176868000Y-55542500D03*
D16*
X110707300Y-67083300D02*
X110707300Y-65005800D01*
X113931300Y-70307300D02*
X110707300Y-67083300D01*
X116329000Y-70307300D02*
X113931300Y-70307300D01*
X114366400Y-64965900D02*
X118776400Y-69375900D01*
X113215400Y-64965900D02*
X114366400Y-64965900D01*
X103024000Y-56244800D02*
X103024100Y-56244800D01*
X103024000Y-56308100D02*
X103024000Y-56244800D01*
X102621800Y-56710300D02*
X103024000Y-56308100D01*
X101480000Y-56710300D02*
X102621800Y-56710300D01*
X101480000Y-51435000D02*
X101480000Y-56710300D01*
X112746900Y-65491300D02*
X112247800Y-64992200D01*
X113867200Y-65491300D02*
X112746900Y-65491300D01*
X117883600Y-69507700D02*
X113867200Y-65491300D01*
X105440000Y-51435000D02*
X105440000Y-56710300D01*
X108252300Y-56710300D02*
X108472000Y-56930000D01*
X105440000Y-56710300D02*
X108252300Y-56710300D01*
X120246500Y-59071300D02*
X116122700Y-59071300D01*
X123702600Y-62527400D02*
X120246500Y-59071300D01*
X123702600Y-67006400D02*
X123702600Y-62527400D01*
X119761400Y-70947600D02*
X123702600Y-67006400D01*
X141080000Y-51435000D02*
X141080000Y-56710300D01*
X141080000Y-58138500D02*
X140044900Y-59173600D01*
X141080000Y-56710300D02*
X141080000Y-58138500D01*
X123248500Y-62832100D02*
X123147400Y-62731000D01*
X123248500Y-66300400D02*
X123248500Y-62832100D01*
X118096300Y-71452600D02*
X123248500Y-66300400D01*
X115819600Y-71452600D02*
X118096300Y-71452600D01*
X142554400Y-56710300D02*
X142146600Y-57118100D01*
X145040000Y-56710300D02*
X142554400Y-56710300D01*
X122175000Y-62774500D02*
X122175000Y-62092100D01*
X122782800Y-63382300D02*
X122175000Y-62774500D01*
X122782800Y-66129200D02*
X122782800Y-63382300D01*
X118874600Y-70037400D02*
X122782800Y-66129200D01*
X117613700Y-70037400D02*
X118874600Y-70037400D01*
X116293000Y-68716700D02*
X117613700Y-70037400D01*
X113091600Y-68716700D02*
X116293000Y-68716700D01*
X145040000Y-51435000D02*
X145040000Y-56710300D01*
X149000000Y-51435000D02*
X149000000Y-56710300D01*
X148022800Y-67189200D02*
X148101200Y-67267600D01*
X148022800Y-57687500D02*
X148022800Y-67189200D01*
X149000000Y-56710300D02*
X148022800Y-57687500D01*
X124677800Y-67509200D02*
X124799400Y-67509200D01*
X118992800Y-73194200D02*
X124677800Y-67509200D01*
X114571900Y-73194200D02*
X118992800Y-73194200D01*
X114483600Y-73282500D02*
X114571900Y-73194200D01*
X152960000Y-62420100D02*
X148548100Y-66832000D01*
X152960000Y-51435000D02*
X152960000Y-62420100D01*
X118931900Y-72618200D02*
X124746000Y-66804100D01*
X116647400Y-72618200D02*
X118931900Y-72618200D01*
X119285300Y-73644600D02*
X124683100Y-68246800D01*
X115766600Y-73644600D02*
X119285300Y-73644600D01*
X114771200Y-74640000D02*
X115766600Y-73644600D01*
X156920000Y-62172100D02*
X150845300Y-68246800D01*
X156920000Y-51435000D02*
X156920000Y-62172100D01*
X114138700Y-77405000D02*
X136425100Y-77405000D01*
X114123900Y-77390200D02*
X114138700Y-77405000D01*
X160880000Y-60103400D02*
X149278500Y-71704900D01*
X160880000Y-51435000D02*
X160880000Y-60103400D01*
X113484000Y-70899000D02*
X108895000Y-66310000D01*
X116920600Y-70899000D02*
X113484000Y-70899000D01*
X112651300Y-72066300D02*
X117760100Y-72066300D01*
X108895000Y-68310000D02*
X112651300Y-72066300D01*
D17*
X144879900Y-73769300D02*
X130003400Y-58892800D01*
X145341400Y-73769300D02*
X144879900Y-73769300D01*
X148111900Y-74239900D02*
X148111900Y-74808200D01*
X131978500Y-58106500D02*
X148111900Y-74239900D01*
X131978500Y-56835300D02*
X131978500Y-58106500D01*
D18*
X192560000Y-79530000D02*
X192560000Y-83820000D01*
X192405000Y-79375000D02*
X192560000Y-79530000D01*
X188600000Y-53335000D02*
X188600000Y-51435000D01*
X188600000Y-83820000D02*
X188600000Y-81275000D01*
D17*
X163243200Y-76822900D02*
X163243200Y-72233100D01*
X164840000Y-78419700D02*
X163243200Y-76822900D01*
X129200000Y-51435000D02*
X129200000Y-56835300D01*
X164840000Y-83820000D02*
X164840000Y-78419700D01*
X143379300Y-71014600D02*
X129200000Y-56835300D01*
X160074100Y-78419700D02*
X156527100Y-74872700D01*
X160880000Y-78419700D02*
X160074100Y-78419700D01*
X160880000Y-83820000D02*
X160880000Y-78419700D01*
X133160000Y-57952200D02*
X133160000Y-51435000D01*
X150080500Y-74872700D02*
X133160000Y-57952200D01*
D18*
X193040000Y-59690000D02*
X186690000Y-59690000D01*
X192855000Y-57335000D02*
X186660000Y-57335000D01*
X117558000Y-63810000D02*
X108895000Y-63810000D01*
X119380000Y-65632500D02*
X117558000Y-63810000D01*
X182880000Y-51435000D02*
X184640000Y-51435000D01*
X180680000Y-51435000D02*
X182880000Y-51435000D01*
X180680000Y-53635000D02*
X180680000Y-51435000D01*
X184640000Y-53485000D02*
X184640000Y-51435000D01*
X195580000Y-59690000D02*
X193040000Y-59690000D01*
X200480000Y-54790000D02*
X195580000Y-59690000D01*
X200480000Y-51435000D02*
X200480000Y-54790000D01*
X180680000Y-54950000D02*
X180680000Y-53635000D01*
X185420000Y-59690000D02*
X180680000Y-54950000D01*
X186690000Y-59690000D02*
X185420000Y-59690000D01*
X200480000Y-51435000D02*
X198755000Y-51435000D01*
X121692000Y-65632500D02*
X120422000Y-65632500D01*
X120422000Y-65632500D02*
X119380000Y-65632500D01*
X198755000Y-51435000D02*
X196520000Y-51435000D01*
X194580000Y-57335000D02*
X192855000Y-57335000D01*
X196520000Y-55395000D02*
X194580000Y-57335000D01*
X196520000Y-51435000D02*
X196520000Y-55395000D01*
X184640000Y-55315000D02*
X184640000Y-53485000D01*
X186660000Y-57335000D02*
X184640000Y-55315000D01*
X200480000Y-83820000D02*
X200480000Y-81460000D01*
X196520000Y-83820000D02*
X196520000Y-81610000D01*
D16*
X125095000Y-73655000D02*
X123919700Y-73655000D01*
X122558600Y-75016100D02*
X123919700Y-73655000D01*
X116657700Y-75016100D02*
X122558600Y-75016100D01*
X152653200Y-78544700D02*
X151977900Y-77869400D01*
X152960000Y-78544700D02*
X152653200Y-78544700D01*
X144525400Y-74590500D02*
X126645200Y-56710300D01*
X145302000Y-74590500D02*
X144525400Y-74590500D01*
X152960000Y-83820000D02*
X152960000Y-78544700D01*
X121280000Y-51435000D02*
X121280000Y-56710300D01*
X125713300Y-61143600D02*
X121280000Y-56710300D01*
X125713300Y-70626300D02*
X125713300Y-61143600D01*
X128114900Y-70626300D02*
X125713300Y-70626300D01*
X132473600Y-74985000D02*
X128114900Y-70626300D01*
X116321500Y-74325200D02*
X115661700Y-74985000D01*
X122014400Y-74325200D02*
X116321500Y-74325200D01*
X125713300Y-70626300D02*
X122014400Y-74325200D01*
X148614600Y-78544700D02*
X147983100Y-77913200D01*
X149000000Y-78544700D02*
X148614600Y-78544700D01*
X163542700Y-58873700D02*
X163542700Y-56710300D01*
X150191700Y-72224700D02*
X163542700Y-58873700D01*
X149000000Y-83820000D02*
X149000000Y-78544700D01*
D17*
X172760000Y-83820000D02*
X172760000Y-78419700D01*
X137120000Y-51435000D02*
X137120000Y-56835300D01*
X137188600Y-56835300D02*
X137120000Y-56835300D01*
X137789300Y-57436000D02*
X137188600Y-56835300D01*
X137789300Y-57875400D02*
X137789300Y-57436000D01*
X149997900Y-70084000D02*
X137789300Y-57875400D01*
X172760000Y-78419700D02*
X164424300Y-70084000D01*
X137089000Y-60857200D02*
X149115000Y-72883200D01*
X137089000Y-57726200D02*
X137089000Y-60857200D01*
D18*
X128905000Y-76195000D02*
X153255000Y-76195000D01*
X156920000Y-79860000D02*
X156920000Y-83820000D01*
X153255000Y-76195000D02*
X156920000Y-79860000D01*
X101480000Y-61080000D02*
X101480000Y-74908000D01*
X104420000Y-58140000D02*
X101480000Y-61080000D01*
X114575000Y-58140000D02*
X104420000Y-58140000D01*
X117320000Y-55395000D02*
X114575000Y-58140000D01*
X117320000Y-51435000D02*
X117320000Y-55395000D01*
X172760000Y-53935000D02*
X172760000Y-55285000D01*
X172760000Y-51435000D02*
X172760000Y-53935000D01*
X198755000Y-64770000D02*
X204440000Y-59085000D01*
X182245000Y-64770000D02*
X198755000Y-64770000D01*
X172760000Y-55285000D02*
X182245000Y-64770000D01*
X176720000Y-51435000D02*
X176720000Y-53785000D01*
X176720000Y-55395000D02*
X176868000Y-55542500D01*
X176720000Y-53785000D02*
X176720000Y-55395000D01*
X208400000Y-83820000D02*
X204440000Y-83820000D01*
X208400000Y-51435000D02*
X208400000Y-83820000D01*
X204440000Y-51435000D02*
X208400000Y-51435000D01*
X208400000Y-55125000D02*
X208400000Y-51435000D01*
X204440000Y-59085000D02*
X208400000Y-55125000D01*
X204440000Y-83820000D02*
X204440000Y-59085000D01*
X176720000Y-51435000D02*
X174625000Y-51435000D01*
X174625000Y-51435000D02*
X172760000Y-51435000D01*
X172760000Y-56690000D02*
X172760000Y-55285000D01*
X153255000Y-76195000D02*
X172760000Y-56690000D01*
X172760000Y-55285000D02*
X172760000Y-53935000D01*
X172760000Y-53935000D02*
X172760000Y-51435000D01*
X101480000Y-83820000D02*
X101480000Y-76955000D01*
X101480000Y-76955000D02*
X101480000Y-74908000D01*
X105578000Y-70810000D02*
X108895000Y-70810000D01*
X101480000Y-74908000D02*
X105578000Y-70810000D01*
X114280000Y-76195000D02*
X125095000Y-76195000D01*
X108895000Y-70810000D02*
X114280000Y-76195000D01*
X125095000Y-76195000D02*
X128905000Y-76195000D01*
X204440000Y-59085000D02*
X204440000Y-55910000D01*
X204440000Y-55315000D02*
X204440000Y-55260000D01*
X197525000Y-62230000D02*
X204440000Y-55315000D01*
X183555000Y-62230000D02*
X197525000Y-62230000D01*
X176868000Y-55542500D02*
X183555000Y-62230000D01*
X204440000Y-55910000D02*
X204440000Y-55260000D01*
X204440000Y-55260000D02*
X204440000Y-54005000D01*
X204440000Y-55260000D02*
X204440000Y-54005000D01*
X204440000Y-54005000D02*
X204440000Y-53347500D01*
X204440000Y-53347500D02*
X204440000Y-51435000D01*
X204440000Y-54005000D02*
X204440000Y-53347500D01*
X204440000Y-53347500D02*
X204440000Y-51435000D01*
G04 #@! TA.AperFunction,Conductor*
G36*
X211423151Y-50675702D02*
G01*
X211660445Y-50720654D01*
X211674114Y-50724044D01*
X211697498Y-50731253D01*
X211931958Y-50803536D01*
X211945154Y-50808428D01*
X212158593Y-50901422D01*
X212192501Y-50916195D01*
X212205078Y-50922533D01*
X212438855Y-51057233D01*
X212450646Y-51064935D01*
X212667943Y-51224893D01*
X212678776Y-51233842D01*
X212876871Y-51417060D01*
X212886652Y-51427179D01*
X213063047Y-51631343D01*
X213071634Y-51642484D01*
X213224147Y-51865068D01*
X213231438Y-51877100D01*
X213358162Y-52115323D01*
X213364064Y-52128094D01*
X213463398Y-52378943D01*
X213467844Y-52392307D01*
X213538565Y-52652686D01*
X213541490Y-52666459D01*
X213580465Y-52918588D01*
X213582709Y-52933103D01*
X213584079Y-52947120D01*
X213593796Y-53180940D01*
X213592112Y-53207348D01*
X213590401Y-53217386D01*
X213592847Y-53238441D01*
X213594607Y-53253594D01*
X213595449Y-53268133D01*
X213595449Y-76150633D01*
X213593949Y-76170018D01*
X213591639Y-76184851D01*
X213591639Y-76184855D01*
X213590258Y-76193724D01*
X213592348Y-76209708D01*
X213593127Y-76234499D01*
X213577678Y-76464054D01*
X213575410Y-76480823D01*
X213524116Y-76731801D01*
X213519622Y-76748114D01*
X213435164Y-76989951D01*
X213428525Y-77005516D01*
X213312420Y-77233862D01*
X213303755Y-77248397D01*
X213158099Y-77459126D01*
X213147565Y-77472368D01*
X212974990Y-77661678D01*
X212962776Y-77673390D01*
X212766385Y-77837872D01*
X212752712Y-77847841D01*
X212536058Y-77984522D01*
X212521173Y-77992569D01*
X212288155Y-78098988D01*
X212272325Y-78104968D01*
X212027147Y-78179204D01*
X212010668Y-78183007D01*
X211757754Y-78223723D01*
X211740910Y-78225285D01*
X211666029Y-78227173D01*
X211518114Y-78230903D01*
X211496249Y-78229027D01*
X211491632Y-78228776D01*
X211482831Y-78227025D01*
X211473893Y-78227814D01*
X211473892Y-78227814D01*
X211463958Y-78228691D01*
X211440055Y-78230801D01*
X211428217Y-78231287D01*
X211385279Y-78231024D01*
X211376652Y-78233489D01*
X211376648Y-78233490D01*
X211373488Y-78234393D01*
X211349957Y-78238753D01*
X211346680Y-78239042D01*
X211346670Y-78239044D01*
X211337737Y-78239833D01*
X211329383Y-78243098D01*
X211329381Y-78243098D01*
X211297742Y-78255462D01*
X211286508Y-78259253D01*
X211253859Y-78268584D01*
X211253856Y-78268585D01*
X211245229Y-78271051D01*
X211234867Y-78277589D01*
X211213491Y-78288386D01*
X211202070Y-78292849D01*
X211194964Y-78298330D01*
X211168066Y-78319077D01*
X211158348Y-78325868D01*
X211122042Y-78348776D01*
X211116101Y-78355503D01*
X211113929Y-78357962D01*
X211096447Y-78374320D01*
X211093845Y-78376327D01*
X211093843Y-78376329D01*
X211086736Y-78381811D01*
X211081453Y-78389068D01*
X211061463Y-78416526D01*
X211054039Y-78425775D01*
X211025622Y-78457951D01*
X211021808Y-78466074D01*
X211020412Y-78469048D01*
X211008225Y-78489653D01*
X211001007Y-78499568D01*
X210997973Y-78508014D01*
X210997972Y-78508017D01*
X210986489Y-78539988D01*
X210981961Y-78550945D01*
X210963719Y-78589800D01*
X210962339Y-78598665D01*
X210962337Y-78598670D01*
X210961832Y-78601912D01*
X210955918Y-78625110D01*
X210951773Y-78636652D01*
X210951232Y-78645612D01*
X210949185Y-78679515D01*
X210947913Y-78691309D01*
X210947248Y-78695577D01*
X210947247Y-78695587D01*
X210946500Y-78700386D01*
X210946500Y-78720180D01*
X210946271Y-78727773D01*
X210942994Y-78782046D01*
X210944989Y-78790796D01*
X210945724Y-78799744D01*
X210945170Y-78799790D01*
X210946500Y-78811605D01*
X210946500Y-88265500D01*
X210926498Y-88333621D01*
X210872842Y-88380114D01*
X210820500Y-88391500D01*
X203200000Y-88391500D01*
X203200000Y-50673500D01*
X211399699Y-50673500D01*
X211423151Y-50675702D01*
G37*
G04 #@! TD.AperFunction*
G04 #@! TA.AperFunction,Conductor*
G36*
X201848032Y-63560921D02*
G01*
X201904868Y-63603468D01*
X201929679Y-63669988D01*
X201930000Y-63678977D01*
X201930000Y-88265500D01*
X201909998Y-88333621D01*
X201856342Y-88380114D01*
X201804000Y-88391500D01*
X195071000Y-88391500D01*
X195002879Y-88371498D01*
X194956386Y-88317842D01*
X194945000Y-88265500D01*
X194945000Y-66154500D01*
X194965002Y-66086379D01*
X195018658Y-66039886D01*
X195071000Y-66028500D01*
X198663604Y-66028500D01*
X198680051Y-66029578D01*
X198696516Y-66031746D01*
X198696520Y-66031746D01*
X198702086Y-66032479D01*
X198783489Y-66028640D01*
X198789424Y-66028500D01*
X198811999Y-66028500D01*
X198837989Y-66026181D01*
X198843248Y-66025822D01*
X198926488Y-66021896D01*
X198931947Y-66020646D01*
X198931952Y-66020645D01*
X198943970Y-66017892D01*
X198960899Y-66015211D01*
X198978762Y-66013617D01*
X198984178Y-66012135D01*
X198984180Y-66012135D01*
X199059133Y-65991630D01*
X199064251Y-65990344D01*
X199140000Y-65972995D01*
X199140002Y-65972994D01*
X199145470Y-65971742D01*
X199155970Y-65967263D01*
X199161967Y-65964706D01*
X199178142Y-65959073D01*
X199190039Y-65955818D01*
X199190043Y-65955817D01*
X199195451Y-65954337D01*
X199270667Y-65918461D01*
X199275476Y-65916290D01*
X199346949Y-65885804D01*
X199346950Y-65885804D01*
X199352109Y-65883603D01*
X199367110Y-65873749D01*
X199382025Y-65865346D01*
X199398218Y-65857622D01*
X199402769Y-65854352D01*
X199402772Y-65854350D01*
X199465881Y-65809001D01*
X199470232Y-65806011D01*
X199536010Y-65762804D01*
X199536018Y-65762798D01*
X199539874Y-65760265D01*
X199560662Y-65741743D01*
X199570939Y-65733510D01*
X199580654Y-65726529D01*
X199655063Y-65649745D01*
X199656452Y-65648335D01*
X201714905Y-63589882D01*
X201777217Y-63555856D01*
X201848032Y-63560921D01*
G37*
G04 #@! TD.AperFunction*
G04 #@! TA.AperFunction,Conductor*
G36*
X201872121Y-50693502D02*
G01*
X201918614Y-50747158D01*
X201930000Y-50799500D01*
X201930000Y-55993022D01*
X201909998Y-56061143D01*
X201893095Y-56082117D01*
X197040617Y-60934595D01*
X196978305Y-60968621D01*
X196951522Y-60971500D01*
X194997474Y-60971500D01*
X194971563Y-60963892D01*
X194970559Y-60968507D01*
X194945000Y-60962947D01*
X194945000Y-50673500D01*
X201804000Y-50673500D01*
X201872121Y-50693502D01*
G37*
G04 #@! TD.AperFunction*
G04 #@! TA.AperFunction,Conductor*
G36*
X187043621Y-50693502D02*
G01*
X187090114Y-50747158D01*
X187101500Y-50799500D01*
X187101500Y-56433134D01*
X187108255Y-56495316D01*
X187159385Y-56631705D01*
X187246739Y-56748261D01*
X187363295Y-56835615D01*
X187499684Y-56886745D01*
X187561866Y-56893500D01*
X189638134Y-56893500D01*
X189700316Y-56886745D01*
X189836705Y-56835615D01*
X189953261Y-56748261D01*
X190040615Y-56631705D01*
X190091745Y-56495316D01*
X190098500Y-56433134D01*
X190098500Y-50799500D01*
X190118502Y-50731379D01*
X190172158Y-50684886D01*
X190224500Y-50673500D01*
X190935500Y-50673500D01*
X191003621Y-50693502D01*
X191050114Y-50747158D01*
X191061500Y-50799500D01*
X191061500Y-56433134D01*
X191068255Y-56495316D01*
X191119385Y-56631705D01*
X191206739Y-56748261D01*
X191323295Y-56835615D01*
X191459684Y-56886745D01*
X191521866Y-56893500D01*
X193598134Y-56893500D01*
X193660316Y-56886745D01*
X193796705Y-56835615D01*
X193913261Y-56748261D01*
X194000615Y-56631705D01*
X194051745Y-56495316D01*
X194058500Y-56433134D01*
X194058500Y-50799500D01*
X194078502Y-50731379D01*
X194132158Y-50684886D01*
X194184500Y-50673500D01*
X194945000Y-50673500D01*
X194945000Y-60960000D01*
X184202190Y-60960000D01*
X184134069Y-60939998D01*
X184113095Y-60923095D01*
X179106905Y-55916905D01*
X179072879Y-55854593D01*
X179070000Y-55827810D01*
X179070000Y-50799500D01*
X179090002Y-50731379D01*
X179143658Y-50684886D01*
X179196000Y-50673500D01*
X186975500Y-50673500D01*
X187043621Y-50693502D01*
G37*
G04 #@! TD.AperFunction*
G04 #@! TA.AperFunction,Conductor*
G36*
X171514108Y-78246489D02*
G01*
X171548134Y-78308801D01*
X171543069Y-78379616D01*
X171500578Y-78436410D01*
X171418455Y-78497958D01*
X171406739Y-78506739D01*
X171319385Y-78623295D01*
X171275634Y-78740000D01*
X170284366Y-78740000D01*
X170243767Y-78631703D01*
X170240615Y-78623295D01*
X170180000Y-78542417D01*
X170180000Y-76912381D01*
X171514108Y-78246489D01*
G37*
G04 #@! TD.AperFunction*
G04 #@! TA.AperFunction,Conductor*
G36*
X178435000Y-56515000D02*
G01*
X184150000Y-62230000D01*
X203200000Y-62230000D01*
X203200000Y-78740000D01*
X202443500Y-78740000D01*
X202443500Y-63678977D01*
X202443173Y-63660651D01*
X202442852Y-63651662D01*
X202441871Y-63633353D01*
X202410802Y-63490536D01*
X202409228Y-63486317D01*
X202409226Y-63486309D01*
X202398536Y-63457651D01*
X202385991Y-63424016D01*
X202315946Y-63295739D01*
X202212598Y-63192390D01*
X202155762Y-63149843D01*
X202027483Y-63079798D01*
X202018681Y-63077883D01*
X202018678Y-63077882D01*
X201889066Y-63049686D01*
X201889063Y-63049686D01*
X201884666Y-63048729D01*
X201813851Y-63043664D01*
X201809364Y-63043985D01*
X201677046Y-63053450D01*
X201668058Y-63054093D01*
X201659616Y-63057242D01*
X201659615Y-63057242D01*
X201535331Y-63103599D01*
X201535329Y-63103600D01*
X201531117Y-63105171D01*
X201468805Y-63139197D01*
X201465205Y-63141892D01*
X201355408Y-63224086D01*
X201355404Y-63224090D01*
X201351806Y-63226783D01*
X199293353Y-65285236D01*
X199290639Y-65287970D01*
X199289250Y-65289380D01*
X199286305Y-65292393D01*
X199286152Y-65292551D01*
X199286072Y-65292633D01*
X199242499Y-65337597D01*
X199221192Y-65355223D01*
X199193619Y-65373336D01*
X199188310Y-65376823D01*
X199179406Y-65382806D01*
X199175055Y-65385796D01*
X199169902Y-65389418D01*
X199166600Y-65391738D01*
X199166551Y-65391773D01*
X199166232Y-65391997D01*
X199165955Y-65392196D01*
X199165910Y-65392228D01*
X199136178Y-65413593D01*
X199124494Y-65421050D01*
X199120452Y-65423327D01*
X199108043Y-65429446D01*
X199074190Y-65443885D01*
X199074148Y-65443903D01*
X199074010Y-65443962D01*
X199073908Y-65444007D01*
X199073838Y-65444037D01*
X199065703Y-65447608D01*
X199064191Y-65448272D01*
X199063939Y-65448386D01*
X199063898Y-65448404D01*
X199059760Y-65450272D01*
X199059709Y-65450296D01*
X199059382Y-65450443D01*
X199049601Y-65454983D01*
X199016175Y-65470926D01*
X199003378Y-65476187D01*
X198998995Y-65477714D01*
X198998985Y-65477717D01*
X198985687Y-65481542D01*
X198965625Y-65486137D01*
X198949610Y-65489805D01*
X198939114Y-65492325D01*
X198933996Y-65493611D01*
X198923634Y-65496330D01*
X198887934Y-65506097D01*
X198874388Y-65509012D01*
X198869808Y-65509737D01*
X198856046Y-65511147D01*
X198845229Y-65511657D01*
X198819056Y-65512892D01*
X198818890Y-65512902D01*
X198818842Y-65512904D01*
X198808638Y-65513493D01*
X198808619Y-65513494D01*
X198808276Y-65513514D01*
X198807830Y-65513544D01*
X198807837Y-65513544D01*
X198803410Y-65513846D01*
X198803377Y-65513848D01*
X198803017Y-65513873D01*
X198792763Y-65514681D01*
X198784369Y-65515060D01*
X198782533Y-65515081D01*
X198777779Y-65515137D01*
X198777694Y-65515139D01*
X198777314Y-65515143D01*
X198776912Y-65515152D01*
X198776883Y-65515153D01*
X198771702Y-65515275D01*
X198771639Y-65515277D01*
X198771379Y-65515283D01*
X198771109Y-65515293D01*
X198771026Y-65515295D01*
X198759778Y-65515693D01*
X198759766Y-65515693D01*
X198759299Y-65515710D01*
X198758871Y-65515730D01*
X198758851Y-65515731D01*
X198749650Y-65516165D01*
X198726812Y-65517242D01*
X198712645Y-65517112D01*
X198697189Y-65516099D01*
X198696217Y-65516067D01*
X198696193Y-65516066D01*
X198664594Y-65515032D01*
X198664570Y-65515032D01*
X198663604Y-65515000D01*
X195071000Y-65515000D01*
X195067654Y-65515360D01*
X195067649Y-65515360D01*
X194965215Y-65526372D01*
X194965208Y-65526373D01*
X194961851Y-65526734D01*
X194958551Y-65527452D01*
X194958550Y-65527452D01*
X194912790Y-65537406D01*
X194912785Y-65537407D01*
X194909509Y-65538120D01*
X194805343Y-65572790D01*
X194682388Y-65651808D01*
X194628732Y-65698301D01*
X194625792Y-65701694D01*
X194538919Y-65801950D01*
X194538917Y-65801953D01*
X194533018Y-65808761D01*
X194472302Y-65941710D01*
X194452300Y-66009831D01*
X194431500Y-66154500D01*
X194431500Y-78740000D01*
X194044366Y-78740000D01*
X194003767Y-78631703D01*
X194000615Y-78623295D01*
X193913261Y-78506739D01*
X193796705Y-78419385D01*
X193660316Y-78368255D01*
X193598134Y-78361500D01*
X193199425Y-78361500D01*
X193128305Y-78339211D01*
X193126146Y-78337406D01*
X193121281Y-78334631D01*
X193121278Y-78334629D01*
X192935874Y-78228877D01*
X192935873Y-78228877D01*
X192931007Y-78226101D01*
X192925730Y-78224232D01*
X192925725Y-78224230D01*
X192724531Y-78152984D01*
X192724528Y-78152983D01*
X192719241Y-78151111D01*
X192497543Y-78114806D01*
X192491930Y-78114894D01*
X192491927Y-78114894D01*
X192373124Y-78116761D01*
X192272919Y-78118335D01*
X192267414Y-78119415D01*
X192057979Y-78160504D01*
X192057975Y-78160505D01*
X192052471Y-78161585D01*
X192047245Y-78163623D01*
X192047240Y-78163624D01*
X191905263Y-78218979D01*
X191843165Y-78243190D01*
X191733126Y-78310622D01*
X191680399Y-78342933D01*
X191614564Y-78361500D01*
X191521866Y-78361500D01*
X191459684Y-78368255D01*
X191323295Y-78419385D01*
X191206739Y-78506739D01*
X191119385Y-78623295D01*
X191075634Y-78740000D01*
X190084366Y-78740000D01*
X190043767Y-78631703D01*
X190040615Y-78623295D01*
X189953261Y-78506739D01*
X189836705Y-78419385D01*
X189700316Y-78368255D01*
X189638134Y-78361500D01*
X187561866Y-78361500D01*
X187499684Y-78368255D01*
X187363295Y-78419385D01*
X187356110Y-78424770D01*
X187356108Y-78424771D01*
X187288399Y-78475516D01*
X187221892Y-78500364D01*
X187152510Y-78485311D01*
X187117382Y-78456939D01*
X187106031Y-78443766D01*
X187094927Y-78428761D01*
X187081224Y-78407042D01*
X187074499Y-78401103D01*
X187074496Y-78401099D01*
X187059062Y-78387468D01*
X187047018Y-78375276D01*
X187033573Y-78359673D01*
X187033570Y-78359671D01*
X187027713Y-78352873D01*
X187014009Y-78343990D01*
X187006165Y-78338906D01*
X186991291Y-78327615D01*
X186978783Y-78316569D01*
X186978782Y-78316568D01*
X186972049Y-78310622D01*
X186945287Y-78298057D01*
X186930309Y-78289737D01*
X186913017Y-78278529D01*
X186913012Y-78278527D01*
X186905485Y-78273648D01*
X186896892Y-78271078D01*
X186896887Y-78271076D01*
X186880880Y-78266289D01*
X186863436Y-78259628D01*
X186848324Y-78252533D01*
X186848322Y-78252532D01*
X186840200Y-78248719D01*
X186831333Y-78247338D01*
X186831332Y-78247338D01*
X186820478Y-78245648D01*
X186810983Y-78244170D01*
X186794268Y-78240387D01*
X186774534Y-78234485D01*
X186774528Y-78234484D01*
X186765934Y-78231914D01*
X186756963Y-78231859D01*
X186756962Y-78231859D01*
X186746903Y-78231798D01*
X186731494Y-78231704D01*
X186730711Y-78231671D01*
X186729614Y-78231500D01*
X186698623Y-78231500D01*
X186697853Y-78231498D01*
X186624215Y-78231048D01*
X186624214Y-78231048D01*
X186620279Y-78231024D01*
X186618935Y-78231408D01*
X186617590Y-78231500D01*
X182888623Y-78231500D01*
X182887853Y-78231498D01*
X182887037Y-78231493D01*
X182810279Y-78231024D01*
X182788856Y-78237147D01*
X182781847Y-78239150D01*
X182765085Y-78242728D01*
X182735813Y-78246920D01*
X182712931Y-78257324D01*
X182712438Y-78257548D01*
X182694914Y-78263996D01*
X182670229Y-78271051D01*
X182662635Y-78275843D01*
X182662632Y-78275844D01*
X182645220Y-78286830D01*
X182630137Y-78294969D01*
X182603218Y-78307208D01*
X182596416Y-78313069D01*
X182583765Y-78323970D01*
X182568761Y-78335073D01*
X182547042Y-78348776D01*
X182541103Y-78355501D01*
X182541099Y-78355504D01*
X182527468Y-78370938D01*
X182515276Y-78382982D01*
X182499673Y-78396427D01*
X182499671Y-78396430D01*
X182492873Y-78402287D01*
X182487993Y-78409816D01*
X182487992Y-78409817D01*
X182478906Y-78423835D01*
X182467615Y-78438709D01*
X182456569Y-78451217D01*
X182450622Y-78457951D01*
X182442375Y-78475516D01*
X182438058Y-78484711D01*
X182429737Y-78499691D01*
X182418529Y-78516983D01*
X182418527Y-78516988D01*
X182413648Y-78524515D01*
X182411078Y-78533108D01*
X182411076Y-78533113D01*
X182406289Y-78549120D01*
X182399628Y-78566564D01*
X182388719Y-78589800D01*
X182387338Y-78598667D01*
X182387338Y-78598668D01*
X182384170Y-78619015D01*
X182380387Y-78635731D01*
X182374457Y-78655560D01*
X182335776Y-78715094D01*
X182280511Y-78740000D01*
X182242406Y-78740000D01*
X182200826Y-78733810D01*
X182147403Y-78687050D01*
X182135758Y-78663688D01*
X182123768Y-78631705D01*
X182123767Y-78631703D01*
X182120615Y-78623295D01*
X182033261Y-78506739D01*
X181916705Y-78419385D01*
X181780316Y-78368255D01*
X181718134Y-78361500D01*
X179641866Y-78361500D01*
X179579684Y-78368255D01*
X179443295Y-78419385D01*
X179326739Y-78506739D01*
X179239385Y-78623295D01*
X179195634Y-78740000D01*
X178204366Y-78740000D01*
X178163767Y-78631703D01*
X178160615Y-78623295D01*
X178073261Y-78506739D01*
X177956705Y-78419385D01*
X177820316Y-78368255D01*
X177758134Y-78361500D01*
X175681866Y-78361500D01*
X175619684Y-78368255D01*
X175483295Y-78419385D01*
X175366739Y-78506739D01*
X175279385Y-78623295D01*
X175235634Y-78740000D01*
X174244366Y-78740000D01*
X174203767Y-78631703D01*
X174200615Y-78623295D01*
X174113261Y-78506739D01*
X173996705Y-78419385D01*
X173860316Y-78368255D01*
X173798134Y-78361500D01*
X173629580Y-78361500D01*
X173561459Y-78341498D01*
X173514966Y-78287842D01*
X173509205Y-78270028D01*
X173508883Y-78270132D01*
X173508598Y-78269254D01*
X173507860Y-78265869D01*
X173506021Y-78260183D01*
X173505412Y-78257133D01*
X173504029Y-78251281D01*
X173503182Y-78244019D01*
X173478265Y-78175373D01*
X173476848Y-78171245D01*
X173456607Y-78108764D01*
X173456606Y-78108762D01*
X173454351Y-78101801D01*
X173450555Y-78095546D01*
X173448049Y-78090072D01*
X173445330Y-78084642D01*
X173442833Y-78077763D01*
X173402814Y-78016724D01*
X173400467Y-78013005D01*
X173362595Y-77950593D01*
X173355197Y-77942216D01*
X173355224Y-77942192D01*
X173352571Y-77939200D01*
X173349868Y-77935967D01*
X173345856Y-77929848D01*
X173289617Y-77876572D01*
X173287175Y-77874194D01*
X170180000Y-74767019D01*
X170180000Y-56712583D01*
X170235229Y-56638891D01*
X170240615Y-56631705D01*
X170291745Y-56495316D01*
X170298500Y-56433134D01*
X170298500Y-50799500D01*
X170318502Y-50731379D01*
X170372158Y-50684886D01*
X170424500Y-50673500D01*
X178435000Y-50673500D01*
X178435000Y-56515000D01*
G37*
G04 #@! TD.AperFunction*
G04 #@! TA.AperFunction,Conductor*
G36*
X99923621Y-50693502D02*
G01*
X99970114Y-50747158D01*
X99981500Y-50799500D01*
X99981500Y-56433134D01*
X99988255Y-56495316D01*
X100039385Y-56631705D01*
X100126739Y-56748261D01*
X100243295Y-56835615D01*
X100379684Y-56886745D01*
X100441866Y-56893500D01*
X100781880Y-56893500D01*
X100850001Y-56913502D01*
X100896494Y-56967158D01*
X100897575Y-56969935D01*
X100899785Y-56974632D01*
X100902236Y-56982175D01*
X100906486Y-56988871D01*
X100906486Y-56988872D01*
X100906650Y-56989131D01*
X100917415Y-57010258D01*
X100917529Y-57010546D01*
X100917532Y-57010551D01*
X100920448Y-57017917D01*
X100925104Y-57024325D01*
X100925107Y-57024331D01*
X100953458Y-57063352D01*
X100957901Y-57069889D01*
X100988000Y-57117318D01*
X100993778Y-57122744D01*
X100993779Y-57122745D01*
X100994007Y-57122959D01*
X101009688Y-57140746D01*
X101014528Y-57147407D01*
X101020637Y-57152461D01*
X101020638Y-57152462D01*
X101057796Y-57183203D01*
X101063730Y-57188434D01*
X101098898Y-57221458D01*
X101098901Y-57221460D01*
X101104679Y-57226886D01*
X101111903Y-57230858D01*
X101131506Y-57244181D01*
X101131746Y-57244380D01*
X101131753Y-57244384D01*
X101137856Y-57249433D01*
X101170781Y-57264926D01*
X101188676Y-57273347D01*
X101195708Y-57276929D01*
X101244940Y-57303995D01*
X101252615Y-57305965D01*
X101252621Y-57305968D01*
X101252919Y-57306044D01*
X101275228Y-57314076D01*
X101275503Y-57314206D01*
X101275511Y-57314209D01*
X101282682Y-57317583D01*
X101337849Y-57328106D01*
X101345558Y-57329829D01*
X101375531Y-57337525D01*
X101392293Y-57341829D01*
X101392294Y-57341829D01*
X101399970Y-57343800D01*
X101408207Y-57343800D01*
X101431816Y-57346032D01*
X101432119Y-57346090D01*
X101432123Y-57346090D01*
X101439906Y-57347575D01*
X101495951Y-57344049D01*
X101503862Y-57343800D01*
X102543033Y-57343800D01*
X102554216Y-57344327D01*
X102561709Y-57346002D01*
X102569635Y-57345753D01*
X102569636Y-57345753D01*
X102629786Y-57343862D01*
X102633745Y-57343800D01*
X102661656Y-57343800D01*
X102665591Y-57343303D01*
X102665656Y-57343295D01*
X102677493Y-57342362D01*
X102711288Y-57341300D01*
X102713770Y-57341222D01*
X102721689Y-57340973D01*
X102741143Y-57335321D01*
X102760500Y-57331313D01*
X102772730Y-57329768D01*
X102772731Y-57329768D01*
X102780597Y-57328774D01*
X102787968Y-57325855D01*
X102787970Y-57325855D01*
X102821712Y-57312496D01*
X102832942Y-57308651D01*
X102867783Y-57298529D01*
X102867784Y-57298529D01*
X102875393Y-57296318D01*
X102882212Y-57292285D01*
X102882217Y-57292283D01*
X102892828Y-57286007D01*
X102910576Y-57277312D01*
X102929417Y-57269852D01*
X102965187Y-57243864D01*
X102975107Y-57237348D01*
X103006335Y-57218880D01*
X103006338Y-57218878D01*
X103013162Y-57214842D01*
X103027483Y-57200521D01*
X103042517Y-57187680D01*
X103048149Y-57183588D01*
X103058907Y-57175772D01*
X103087098Y-57141695D01*
X103095088Y-57132916D01*
X103343721Y-56884283D01*
X103376202Y-56860813D01*
X103412275Y-56842671D01*
X103412278Y-56842669D01*
X103419058Y-56839259D01*
X103424829Y-56834330D01*
X103424832Y-56834328D01*
X103543678Y-56732823D01*
X103549455Y-56727889D01*
X103649524Y-56588630D01*
X103704887Y-56450909D01*
X103748854Y-56395164D01*
X103815979Y-56372039D01*
X103884950Y-56388876D01*
X103933870Y-56440328D01*
X103947058Y-56484298D01*
X103947401Y-56487460D01*
X103947402Y-56487464D01*
X103948255Y-56495316D01*
X103999385Y-56631705D01*
X104086739Y-56748261D01*
X104203295Y-56835615D01*
X104339684Y-56886745D01*
X104401866Y-56893500D01*
X104741880Y-56893500D01*
X104810001Y-56913502D01*
X104856494Y-56967158D01*
X104857575Y-56969935D01*
X104859785Y-56974632D01*
X104862236Y-56982175D01*
X104866486Y-56988871D01*
X104866486Y-56988872D01*
X104866650Y-56989131D01*
X104877415Y-57010258D01*
X104877529Y-57010546D01*
X104877532Y-57010551D01*
X104880448Y-57017917D01*
X104885104Y-57024325D01*
X104885107Y-57024331D01*
X104913458Y-57063352D01*
X104917901Y-57069889D01*
X104948000Y-57117318D01*
X104953778Y-57122744D01*
X104953779Y-57122745D01*
X104954007Y-57122959D01*
X104969688Y-57140746D01*
X104974528Y-57147407D01*
X104980637Y-57152461D01*
X104980638Y-57152462D01*
X105017796Y-57183203D01*
X105023730Y-57188434D01*
X105058898Y-57221458D01*
X105058901Y-57221460D01*
X105064679Y-57226886D01*
X105071903Y-57230858D01*
X105091506Y-57244181D01*
X105091746Y-57244380D01*
X105091753Y-57244384D01*
X105097856Y-57249433D01*
X105130781Y-57264926D01*
X105148676Y-57273347D01*
X105155708Y-57276929D01*
X105204940Y-57303995D01*
X105212615Y-57305965D01*
X105212621Y-57305968D01*
X105212919Y-57306044D01*
X105235228Y-57314076D01*
X105235503Y-57314206D01*
X105235511Y-57314209D01*
X105242682Y-57317583D01*
X105297849Y-57328106D01*
X105305558Y-57329829D01*
X105335531Y-57337525D01*
X105352293Y-57341829D01*
X105352294Y-57341829D01*
X105359970Y-57343800D01*
X105368207Y-57343800D01*
X105391816Y-57346032D01*
X105392119Y-57346090D01*
X105392123Y-57346090D01*
X105399906Y-57347575D01*
X105455951Y-57344049D01*
X105463862Y-57343800D01*
X107829889Y-57343800D01*
X107898010Y-57363802D01*
X107925272Y-57387471D01*
X107927494Y-57390045D01*
X107931730Y-57396349D01*
X108058565Y-57511760D01*
X108209268Y-57593585D01*
X108375139Y-57637101D01*
X108462586Y-57638474D01*
X108539003Y-57639675D01*
X108539006Y-57639675D01*
X108546602Y-57639794D01*
X108554006Y-57638098D01*
X108554008Y-57638098D01*
X108653116Y-57615399D01*
X108713759Y-57601510D01*
X108866958Y-57524459D01*
X108872729Y-57519530D01*
X108872732Y-57519528D01*
X108991578Y-57418023D01*
X108997355Y-57413089D01*
X109072427Y-57308616D01*
X109092992Y-57279998D01*
X109092993Y-57279997D01*
X109097424Y-57273830D01*
X109161385Y-57114720D01*
X109177463Y-57001746D01*
X109206864Y-56937124D01*
X109266535Y-56898655D01*
X109302206Y-56893500D01*
X110438134Y-56893500D01*
X110500316Y-56886745D01*
X110636705Y-56835615D01*
X110753261Y-56748261D01*
X110840615Y-56631705D01*
X110891745Y-56495316D01*
X110898500Y-56433134D01*
X110898500Y-50799500D01*
X110918502Y-50731379D01*
X110972158Y-50684886D01*
X111024500Y-50673500D01*
X111735500Y-50673500D01*
X111803621Y-50693502D01*
X111850114Y-50747158D01*
X111861500Y-50799500D01*
X111861500Y-56433134D01*
X111868255Y-56495316D01*
X111919385Y-56631705D01*
X112006739Y-56748261D01*
X112123295Y-56835615D01*
X112259684Y-56886745D01*
X112321866Y-56893500D01*
X114398134Y-56893500D01*
X114460316Y-56886745D01*
X114596705Y-56835615D01*
X114713261Y-56748261D01*
X114800615Y-56631705D01*
X114851745Y-56495316D01*
X114858500Y-56433134D01*
X114858500Y-50799500D01*
X114878502Y-50731379D01*
X114932158Y-50684886D01*
X114984500Y-50673500D01*
X119655500Y-50673500D01*
X119723621Y-50693502D01*
X119770114Y-50747158D01*
X119781500Y-50799500D01*
X119781500Y-56433134D01*
X119788255Y-56495316D01*
X119839385Y-56631705D01*
X119926739Y-56748261D01*
X120043295Y-56835615D01*
X120179684Y-56886745D01*
X120241866Y-56893500D01*
X120581837Y-56893500D01*
X120649958Y-56913502D01*
X120693158Y-56964379D01*
X120693981Y-56963892D01*
X120696820Y-56968692D01*
X120699075Y-56972504D01*
X120704293Y-56981328D01*
X120712988Y-56999076D01*
X120720448Y-57017917D01*
X120725108Y-57024331D01*
X120725110Y-57024334D01*
X120746436Y-57053687D01*
X120752952Y-57063607D01*
X120770964Y-57094063D01*
X120775458Y-57101662D01*
X120789779Y-57115983D01*
X120802619Y-57131016D01*
X120814528Y-57147407D01*
X120842253Y-57170343D01*
X120848605Y-57175598D01*
X120857384Y-57183588D01*
X125042895Y-61369100D01*
X125076921Y-61431412D01*
X125079800Y-61458195D01*
X125079800Y-65995837D01*
X125059798Y-66063958D01*
X125006142Y-66110451D01*
X124935868Y-66120555D01*
X124923105Y-66118041D01*
X124842822Y-66097875D01*
X124842818Y-66097875D01*
X124835451Y-66096024D01*
X124827852Y-66095984D01*
X124827850Y-66095984D01*
X124756394Y-66095610D01*
X124663969Y-66095126D01*
X124656589Y-66096898D01*
X124656587Y-66096898D01*
X124497223Y-66135158D01*
X124496827Y-66133509D01*
X124435197Y-66137856D01*
X124372918Y-66103770D01*
X124338953Y-66041425D01*
X124336100Y-66014762D01*
X124336100Y-62606163D01*
X124336627Y-62594979D01*
X124338301Y-62587491D01*
X124336162Y-62519432D01*
X124336100Y-62515475D01*
X124336100Y-62487544D01*
X124335594Y-62483538D01*
X124334661Y-62471692D01*
X124334015Y-62451111D01*
X124333273Y-62427510D01*
X124327622Y-62408058D01*
X124323614Y-62388706D01*
X124322068Y-62376468D01*
X124322067Y-62376466D01*
X124321074Y-62368603D01*
X124304794Y-62327486D01*
X124300959Y-62316285D01*
X124288618Y-62273806D01*
X124284585Y-62266987D01*
X124284583Y-62266982D01*
X124278307Y-62256371D01*
X124269610Y-62238621D01*
X124262152Y-62219783D01*
X124236171Y-62184023D01*
X124229653Y-62174101D01*
X124211178Y-62142860D01*
X124211174Y-62142855D01*
X124207142Y-62136037D01*
X124192818Y-62121713D01*
X124179976Y-62106678D01*
X124168072Y-62090293D01*
X124134006Y-62062111D01*
X124125227Y-62054122D01*
X120750152Y-58679047D01*
X120742612Y-58670761D01*
X120738500Y-58664282D01*
X120688848Y-58617656D01*
X120686007Y-58614902D01*
X120666270Y-58595165D01*
X120663073Y-58592685D01*
X120654051Y-58584980D01*
X120651161Y-58582266D01*
X120621821Y-58554714D01*
X120614875Y-58550895D01*
X120614872Y-58550893D01*
X120604066Y-58544952D01*
X120587547Y-58534101D01*
X120587083Y-58533741D01*
X120571541Y-58521686D01*
X120564272Y-58518541D01*
X120564268Y-58518538D01*
X120530963Y-58504126D01*
X120520313Y-58498909D01*
X120481560Y-58477605D01*
X120461937Y-58472567D01*
X120443234Y-58466163D01*
X120431920Y-58461267D01*
X120431919Y-58461267D01*
X120424645Y-58458119D01*
X120416822Y-58456880D01*
X120416812Y-58456877D01*
X120380976Y-58451201D01*
X120369356Y-58448795D01*
X120334211Y-58439772D01*
X120334210Y-58439772D01*
X120326530Y-58437800D01*
X120306276Y-58437800D01*
X120286565Y-58436249D01*
X120274386Y-58434320D01*
X120266557Y-58433080D01*
X120258665Y-58433826D01*
X120222539Y-58437241D01*
X120210681Y-58437800D01*
X116471715Y-58437800D01*
X116412759Y-58423156D01*
X116378469Y-58405000D01*
X116335588Y-58394229D01*
X116219522Y-58365075D01*
X116219518Y-58365075D01*
X116212151Y-58363224D01*
X116204552Y-58363184D01*
X116204550Y-58363184D01*
X116133094Y-58362810D01*
X116040669Y-58362326D01*
X116033289Y-58364098D01*
X116033287Y-58364098D01*
X115881302Y-58400586D01*
X115881298Y-58400587D01*
X115873923Y-58402358D01*
X115721539Y-58481009D01*
X115592315Y-58593739D01*
X115493710Y-58734039D01*
X115490950Y-58741119D01*
X115453224Y-58837881D01*
X115431418Y-58893809D01*
X115430426Y-58901342D01*
X115430426Y-58901343D01*
X115411644Y-59044010D01*
X115409035Y-59063826D01*
X115411830Y-59089142D01*
X115426562Y-59222578D01*
X115427853Y-59234275D01*
X115486785Y-59395315D01*
X115491022Y-59401621D01*
X115491024Y-59401624D01*
X115535321Y-59467544D01*
X115582430Y-59537649D01*
X115709265Y-59653060D01*
X115859968Y-59734885D01*
X116025839Y-59778401D01*
X116113286Y-59779774D01*
X116189703Y-59780975D01*
X116189706Y-59780975D01*
X116197302Y-59781094D01*
X116204706Y-59779398D01*
X116204708Y-59779398D01*
X116267546Y-59765006D01*
X116364459Y-59742810D01*
X116413322Y-59718235D01*
X116469935Y-59704800D01*
X119931906Y-59704800D01*
X120000027Y-59724802D01*
X120021001Y-59741705D01*
X121682343Y-61403047D01*
X121716369Y-61465359D01*
X121711304Y-61536174D01*
X121676079Y-61587089D01*
X121650343Y-61609541D01*
X121650338Y-61609546D01*
X121644615Y-61614539D01*
X121546010Y-61754839D01*
X121543250Y-61761919D01*
X121488346Y-61902740D01*
X121483718Y-61914609D01*
X121482726Y-61922142D01*
X121482726Y-61922143D01*
X121465351Y-62054122D01*
X121461335Y-62084626D01*
X121467399Y-62139554D01*
X121478313Y-62238405D01*
X121480153Y-62255075D01*
X121482762Y-62262206D01*
X121482763Y-62262208D01*
X121533826Y-62401744D01*
X121541500Y-62445045D01*
X121541500Y-62695733D01*
X121540973Y-62706916D01*
X121539298Y-62714409D01*
X121539547Y-62722335D01*
X121539547Y-62722336D01*
X121541438Y-62782486D01*
X121541500Y-62786445D01*
X121541500Y-62814356D01*
X121541997Y-62818290D01*
X121541997Y-62818291D01*
X121542005Y-62818356D01*
X121542938Y-62830193D01*
X121544327Y-62874389D01*
X121549978Y-62893839D01*
X121553987Y-62913200D01*
X121556526Y-62933297D01*
X121559445Y-62940668D01*
X121559445Y-62940670D01*
X121572804Y-62974412D01*
X121576649Y-62985642D01*
X121588982Y-63028093D01*
X121593015Y-63034912D01*
X121593017Y-63034917D01*
X121599293Y-63045528D01*
X121607988Y-63063276D01*
X121615448Y-63082117D01*
X121620110Y-63088533D01*
X121620110Y-63088534D01*
X121641436Y-63117887D01*
X121647952Y-63127807D01*
X121662582Y-63152544D01*
X121670458Y-63165862D01*
X121684779Y-63180183D01*
X121697619Y-63195216D01*
X121709528Y-63211607D01*
X121724613Y-63224086D01*
X121743593Y-63239788D01*
X121752374Y-63247778D01*
X122112396Y-63607801D01*
X122146421Y-63670113D01*
X122149300Y-63696896D01*
X122149300Y-64287147D01*
X122129298Y-64355268D01*
X122075642Y-64401761D01*
X122005368Y-64411865D01*
X121997766Y-64410532D01*
X121837233Y-64377287D01*
X121832622Y-64377021D01*
X121832621Y-64377021D01*
X121782048Y-64374105D01*
X121782044Y-64374105D01*
X121780225Y-64374000D01*
X119953590Y-64374000D01*
X119885469Y-64353998D01*
X119864482Y-64337083D01*
X118512566Y-62984796D01*
X118501711Y-62972417D01*
X118488123Y-62954708D01*
X118483966Y-62950925D01*
X118427911Y-62899918D01*
X118423604Y-62895809D01*
X118416786Y-62888990D01*
X118407717Y-62879918D01*
X118405582Y-62878132D01*
X118405574Y-62878125D01*
X118387624Y-62863112D01*
X118383663Y-62859656D01*
X118326112Y-62807289D01*
X118326110Y-62807287D01*
X118321964Y-62803515D01*
X118317216Y-62800536D01*
X118317210Y-62800532D01*
X118306851Y-62794034D01*
X118292981Y-62783956D01*
X118279289Y-62772505D01*
X118274418Y-62769726D01*
X118274414Y-62769723D01*
X118206824Y-62731160D01*
X118202339Y-62728476D01*
X118131656Y-62684136D01*
X118115103Y-62677482D01*
X118099661Y-62670016D01*
X118092696Y-62666042D01*
X118089035Y-62663953D01*
X118089033Y-62663952D01*
X118084164Y-62661174D01*
X118078882Y-62659303D01*
X118078876Y-62659300D01*
X118005538Y-62633319D01*
X118000617Y-62631459D01*
X117986873Y-62625934D01*
X117923217Y-62600344D01*
X117905746Y-62596726D01*
X117889229Y-62592112D01*
X117877709Y-62588031D01*
X117877702Y-62588029D01*
X117872409Y-62586154D01*
X117832226Y-62579568D01*
X117790085Y-62572661D01*
X117784914Y-62571702D01*
X117707758Y-62555724D01*
X117707757Y-62555724D01*
X117703233Y-62554787D01*
X117675580Y-62553193D01*
X117662450Y-62551742D01*
X117656253Y-62550726D01*
X117656245Y-62550725D01*
X117650715Y-62549819D01*
X117645113Y-62549906D01*
X117645110Y-62549906D01*
X117543733Y-62551485D01*
X117541771Y-62551500D01*
X109665764Y-62551500D01*
X109604870Y-62535808D01*
X109517528Y-62487592D01*
X109494922Y-62475113D01*
X109360495Y-62427510D01*
X109273720Y-62396781D01*
X109273716Y-62396780D01*
X109268845Y-62395055D01*
X109263752Y-62394148D01*
X109263749Y-62394147D01*
X109037816Y-62353902D01*
X109037810Y-62353901D01*
X109032727Y-62352996D01*
X108945460Y-62351930D01*
X108798081Y-62350129D01*
X108798079Y-62350129D01*
X108792911Y-62350066D01*
X108555837Y-62386343D01*
X108327871Y-62460854D01*
X108303797Y-62473386D01*
X108147428Y-62554787D01*
X108115136Y-62571597D01*
X108111003Y-62574700D01*
X108111000Y-62574702D01*
X107927480Y-62712493D01*
X107923345Y-62715598D01*
X107865525Y-62776103D01*
X107779169Y-62866470D01*
X107757648Y-62888990D01*
X107754734Y-62893262D01*
X107754733Y-62893263D01*
X107667950Y-63020483D01*
X107622495Y-63087117D01*
X107521516Y-63304656D01*
X107457424Y-63535768D01*
X107431938Y-63774244D01*
X107445744Y-64013680D01*
X107498470Y-64247646D01*
X107588702Y-64469859D01*
X107714014Y-64674351D01*
X107871043Y-64855630D01*
X108000807Y-64963362D01*
X108040442Y-65022264D01*
X108041940Y-65093245D01*
X108004825Y-65153768D01*
X107995975Y-65161066D01*
X107949614Y-65195875D01*
X107923345Y-65215598D01*
X107919773Y-65219336D01*
X107763558Y-65382806D01*
X107757648Y-65388990D01*
X107754734Y-65393262D01*
X107754733Y-65393263D01*
X107715844Y-65450272D01*
X107622495Y-65587117D01*
X107521516Y-65804656D01*
X107457424Y-66035768D01*
X107431938Y-66274244D01*
X107445744Y-66513680D01*
X107446879Y-66518717D01*
X107446880Y-66518723D01*
X107476119Y-66648466D01*
X107498470Y-66747646D01*
X107588702Y-66969859D01*
X107714014Y-67174351D01*
X107717395Y-67178254D01*
X107757579Y-67224644D01*
X107787061Y-67289229D01*
X107776946Y-67359502D01*
X107760580Y-67385921D01*
X107757648Y-67388990D01*
X107622495Y-67587117D01*
X107521516Y-67804656D01*
X107486640Y-67930417D01*
X107465190Y-68007766D01*
X107457424Y-68035768D01*
X107431938Y-68274244D01*
X107445744Y-68513680D01*
X107446879Y-68518717D01*
X107446880Y-68518723D01*
X107463085Y-68590630D01*
X107498470Y-68747646D01*
X107522274Y-68806267D01*
X107583316Y-68956594D01*
X107588702Y-68969859D01*
X107714014Y-69174351D01*
X107871043Y-69355630D01*
X108055571Y-69508828D01*
X108262643Y-69629831D01*
X108267468Y-69631673D01*
X108267469Y-69631674D01*
X108283635Y-69637847D01*
X108486697Y-69715389D01*
X108491763Y-69716420D01*
X108491764Y-69716420D01*
X108501693Y-69718440D01*
X108721716Y-69763204D01*
X108857264Y-69768174D01*
X108956225Y-69771803D01*
X108956229Y-69771803D01*
X108961389Y-69771992D01*
X108966509Y-69771336D01*
X108966511Y-69771336D01*
X109039072Y-69762041D01*
X109199279Y-69741518D01*
X109204233Y-69740032D01*
X109204241Y-69740030D01*
X109305141Y-69709758D01*
X109376136Y-69709340D01*
X109430444Y-69741348D01*
X112147643Y-72458547D01*
X112155187Y-72466837D01*
X112159300Y-72473318D01*
X112165077Y-72478743D01*
X112208967Y-72519958D01*
X112211809Y-72522713D01*
X112231530Y-72542434D01*
X112234725Y-72544912D01*
X112243747Y-72552618D01*
X112275979Y-72582886D01*
X112282928Y-72586706D01*
X112293732Y-72592646D01*
X112310256Y-72603499D01*
X112326259Y-72615913D01*
X112366843Y-72633476D01*
X112377473Y-72638683D01*
X112416240Y-72659995D01*
X112423917Y-72661966D01*
X112423922Y-72661968D01*
X112435858Y-72665032D01*
X112454566Y-72671437D01*
X112473155Y-72679481D01*
X112480980Y-72680720D01*
X112480982Y-72680721D01*
X112516819Y-72686397D01*
X112528440Y-72688804D01*
X112563589Y-72697828D01*
X112571270Y-72699800D01*
X112591531Y-72699800D01*
X112611240Y-72701351D01*
X112631243Y-72704519D01*
X112639135Y-72703773D01*
X112644362Y-72703279D01*
X112675254Y-72700359D01*
X112687111Y-72699800D01*
X113784547Y-72699800D01*
X113852668Y-72719802D01*
X113899161Y-72773458D01*
X113909265Y-72843732D01*
X113887634Y-72898251D01*
X113854610Y-72945239D01*
X113829049Y-73010800D01*
X113812389Y-73053531D01*
X113792318Y-73105009D01*
X113791326Y-73112542D01*
X113791326Y-73112543D01*
X113772606Y-73254739D01*
X113769935Y-73275026D01*
X113779344Y-73360251D01*
X113785022Y-73411677D01*
X113788753Y-73445475D01*
X113791362Y-73452606D01*
X113791363Y-73452608D01*
X113802554Y-73483188D01*
X113847685Y-73606515D01*
X113851922Y-73612821D01*
X113851924Y-73612824D01*
X113880128Y-73654795D01*
X113943330Y-73748849D01*
X113948946Y-73753959D01*
X114057871Y-73853073D01*
X114070165Y-73864260D01*
X114157242Y-73911539D01*
X114220868Y-73946085D01*
X114220183Y-73947346D01*
X114269618Y-73985915D01*
X114293096Y-74052917D01*
X114276623Y-74121976D01*
X114250094Y-74154344D01*
X114246539Y-74157445D01*
X114246536Y-74157448D01*
X114240815Y-74162439D01*
X114142210Y-74302739D01*
X114135987Y-74318700D01*
X114106088Y-74395388D01*
X114079918Y-74462509D01*
X114078926Y-74470042D01*
X114078926Y-74470043D01*
X114058827Y-74622715D01*
X114057535Y-74632526D01*
X114064631Y-74696802D01*
X114073444Y-74776624D01*
X114076353Y-74802975D01*
X114078962Y-74810106D01*
X114078963Y-74810108D01*
X114092116Y-74846049D01*
X114135285Y-74964015D01*
X114139522Y-74970321D01*
X114139524Y-74970324D01*
X114174476Y-75022337D01*
X114230930Y-75106349D01*
X114236546Y-75111459D01*
X114342683Y-75208036D01*
X114357765Y-75221760D01*
X114508468Y-75303585D01*
X114674339Y-75347101D01*
X114761786Y-75348474D01*
X114838203Y-75349675D01*
X114838206Y-75349675D01*
X114845802Y-75349794D01*
X114853206Y-75348098D01*
X114853208Y-75348098D01*
X114941117Y-75327964D01*
X115011983Y-75332253D01*
X115069282Y-75374175D01*
X115073806Y-75380477D01*
X115121430Y-75451349D01*
X115174135Y-75499307D01*
X115240611Y-75559795D01*
X115248265Y-75566760D01*
X115398968Y-75648585D01*
X115564839Y-75692101D01*
X115652286Y-75693474D01*
X115728703Y-75694675D01*
X115728706Y-75694675D01*
X115736302Y-75694794D01*
X115743706Y-75693098D01*
X115743708Y-75693098D01*
X115818090Y-75676062D01*
X115903459Y-75656510D01*
X116056658Y-75579459D01*
X116062437Y-75574523D01*
X116068759Y-75570323D01*
X116070268Y-75572595D01*
X116123347Y-75548825D01*
X116193545Y-75559445D01*
X116225160Y-75580477D01*
X116238644Y-75592746D01*
X116238648Y-75592749D01*
X116244265Y-75597860D01*
X116394968Y-75679685D01*
X116560839Y-75723201D01*
X116648286Y-75724574D01*
X116724703Y-75725775D01*
X116724706Y-75725775D01*
X116732302Y-75725894D01*
X116739706Y-75724198D01*
X116739708Y-75724198D01*
X116802546Y-75709806D01*
X116899459Y-75687610D01*
X116948322Y-75663035D01*
X117004935Y-75649600D01*
X122479833Y-75649600D01*
X122491016Y-75650127D01*
X122498509Y-75651802D01*
X122506435Y-75651553D01*
X122506436Y-75651553D01*
X122566586Y-75649662D01*
X122570545Y-75649600D01*
X122598456Y-75649600D01*
X122602391Y-75649103D01*
X122602456Y-75649095D01*
X122614293Y-75648162D01*
X122646551Y-75647148D01*
X122650570Y-75647022D01*
X122658489Y-75646773D01*
X122677943Y-75641121D01*
X122697300Y-75637113D01*
X122709530Y-75635568D01*
X122709531Y-75635568D01*
X122717397Y-75634574D01*
X122724768Y-75631655D01*
X122724770Y-75631655D01*
X122758512Y-75618296D01*
X122769742Y-75614451D01*
X122804583Y-75604329D01*
X122804584Y-75604329D01*
X122812193Y-75602118D01*
X122819012Y-75598085D01*
X122819017Y-75598083D01*
X122829628Y-75591807D01*
X122847376Y-75583112D01*
X122866217Y-75575652D01*
X122885490Y-75561650D01*
X122901987Y-75549664D01*
X122911907Y-75543148D01*
X122943135Y-75524680D01*
X122943138Y-75524678D01*
X122949962Y-75520642D01*
X122964283Y-75506321D01*
X122979317Y-75493480D01*
X122983449Y-75490478D01*
X122995707Y-75481572D01*
X123000757Y-75475468D01*
X123000762Y-75475463D01*
X123023893Y-75447502D01*
X123031883Y-75438721D01*
X123659284Y-74811321D01*
X123721596Y-74777296D01*
X123792412Y-74782361D01*
X123849204Y-74824851D01*
X123870559Y-74853344D01*
X123881739Y-74868261D01*
X123998295Y-74955615D01*
X124134684Y-75006745D01*
X124196866Y-75013500D01*
X125993134Y-75013500D01*
X126055316Y-75006745D01*
X126191705Y-74955615D01*
X126308261Y-74868261D01*
X126395615Y-74751705D01*
X126446745Y-74615316D01*
X126453500Y-74553134D01*
X126453500Y-72756866D01*
X126446745Y-72694684D01*
X126395615Y-72558295D01*
X126308261Y-72441739D01*
X126191705Y-72354385D01*
X126055316Y-72303255D01*
X125993134Y-72296500D01*
X125243194Y-72296500D01*
X125175073Y-72276498D01*
X125128580Y-72222842D01*
X125118476Y-72152568D01*
X125147970Y-72087988D01*
X125154099Y-72081405D01*
X125938799Y-71296705D01*
X126001111Y-71262679D01*
X126027894Y-71259800D01*
X127800306Y-71259800D01*
X127868427Y-71279802D01*
X127889401Y-71296705D01*
X128674101Y-72081405D01*
X128708127Y-72143717D01*
X128703062Y-72214532D01*
X128660515Y-72271368D01*
X128593995Y-72296179D01*
X128585006Y-72296500D01*
X128006866Y-72296500D01*
X127944684Y-72303255D01*
X127808295Y-72354385D01*
X127691739Y-72441739D01*
X127604385Y-72558295D01*
X127553255Y-72694684D01*
X127546500Y-72756866D01*
X127546500Y-74553134D01*
X127553255Y-74615316D01*
X127604385Y-74751705D01*
X127691739Y-74868261D01*
X127808295Y-74955615D01*
X127944684Y-75006745D01*
X128006866Y-75013500D01*
X129803134Y-75013500D01*
X129865316Y-75006745D01*
X130001705Y-74955615D01*
X130118261Y-74868261D01*
X130205615Y-74751705D01*
X130256745Y-74615316D01*
X130263500Y-74553134D01*
X130263500Y-73974994D01*
X130283502Y-73906873D01*
X130337158Y-73860380D01*
X130407432Y-73850276D01*
X130472012Y-73879770D01*
X130478595Y-73885899D01*
X131781060Y-75188364D01*
X131810291Y-75234158D01*
X131835073Y-75301879D01*
X131835075Y-75301883D01*
X131837685Y-75309015D01*
X131841922Y-75315321D01*
X131841924Y-75315324D01*
X131866285Y-75351576D01*
X131933330Y-75451349D01*
X131986035Y-75499307D01*
X132052511Y-75559795D01*
X132060165Y-75566760D01*
X132210868Y-75648585D01*
X132376739Y-75692101D01*
X132464186Y-75693474D01*
X132540603Y-75694675D01*
X132540606Y-75694675D01*
X132548202Y-75694794D01*
X132555606Y-75693098D01*
X132555608Y-75693098D01*
X132629990Y-75676062D01*
X132715359Y-75656510D01*
X132868558Y-75579459D01*
X132874329Y-75574530D01*
X132874332Y-75574528D01*
X132993178Y-75473023D01*
X132998955Y-75468089D01*
X133082679Y-75351576D01*
X133094592Y-75334998D01*
X133094593Y-75334997D01*
X133099024Y-75328830D01*
X133162985Y-75169720D01*
X133172672Y-75101658D01*
X133186566Y-75004031D01*
X133186566Y-75004027D01*
X133187147Y-74999947D01*
X133187221Y-74992857D01*
X133187261Y-74989133D01*
X133187261Y-74989127D01*
X133187304Y-74985000D01*
X133175981Y-74891436D01*
X133167615Y-74822299D01*
X133167614Y-74822296D01*
X133166702Y-74814758D01*
X133154461Y-74782361D01*
X133108771Y-74661447D01*
X133106087Y-74654344D01*
X133037178Y-74554081D01*
X133013259Y-74519278D01*
X133013258Y-74519276D01*
X133008957Y-74513019D01*
X133002359Y-74507140D01*
X132886593Y-74403996D01*
X132886590Y-74403994D01*
X132880921Y-74398943D01*
X132729369Y-74318700D01*
X132722003Y-74316850D01*
X132714908Y-74314126D01*
X132715932Y-74311460D01*
X132669801Y-74285297D01*
X128618552Y-70234047D01*
X128611012Y-70225761D01*
X128606900Y-70219282D01*
X128557248Y-70172656D01*
X128554407Y-70169902D01*
X128534670Y-70150165D01*
X128531473Y-70147685D01*
X128522451Y-70139980D01*
X128496000Y-70115141D01*
X128490221Y-70109714D01*
X128483275Y-70105895D01*
X128483272Y-70105893D01*
X128472466Y-70099952D01*
X128455947Y-70089101D01*
X128455483Y-70088741D01*
X128439941Y-70076686D01*
X128432672Y-70073541D01*
X128432668Y-70073538D01*
X128399363Y-70059126D01*
X128388713Y-70053909D01*
X128349960Y-70032605D01*
X128330337Y-70027567D01*
X128311634Y-70021163D01*
X128300320Y-70016267D01*
X128300319Y-70016267D01*
X128293045Y-70013119D01*
X128285222Y-70011880D01*
X128285212Y-70011877D01*
X128249376Y-70006201D01*
X128237756Y-70003795D01*
X128202611Y-69994772D01*
X128202610Y-69994772D01*
X128194930Y-69992800D01*
X128174676Y-69992800D01*
X128154965Y-69991249D01*
X128142786Y-69989320D01*
X128134957Y-69988080D01*
X128127065Y-69988826D01*
X128090939Y-69992241D01*
X128079081Y-69992800D01*
X126472800Y-69992800D01*
X126404679Y-69972798D01*
X126358186Y-69919142D01*
X126346800Y-69866800D01*
X126346800Y-61222367D01*
X126347327Y-61211184D01*
X126349002Y-61203691D01*
X126346862Y-61135614D01*
X126346800Y-61131655D01*
X126346800Y-61103744D01*
X126346295Y-61099744D01*
X126345362Y-61087901D01*
X126344222Y-61051630D01*
X126343973Y-61043711D01*
X126338321Y-61024257D01*
X126334313Y-61004900D01*
X126332768Y-60992670D01*
X126332768Y-60992669D01*
X126331774Y-60984803D01*
X126328855Y-60977430D01*
X126315496Y-60943688D01*
X126311651Y-60932458D01*
X126301529Y-60897617D01*
X126301529Y-60897616D01*
X126299318Y-60890007D01*
X126295285Y-60883188D01*
X126295283Y-60883183D01*
X126289007Y-60872572D01*
X126280312Y-60854824D01*
X126272852Y-60835983D01*
X126246864Y-60800213D01*
X126240348Y-60790293D01*
X126221880Y-60759065D01*
X126221878Y-60759062D01*
X126217842Y-60752238D01*
X126203521Y-60737917D01*
X126190680Y-60722883D01*
X126186656Y-60717344D01*
X126178772Y-60706493D01*
X126144695Y-60678302D01*
X126135916Y-60670312D01*
X122495399Y-57029794D01*
X122461373Y-56967482D01*
X122466438Y-56896666D01*
X122508985Y-56839831D01*
X122513905Y-56836665D01*
X122516705Y-56835615D01*
X122633261Y-56748261D01*
X122720615Y-56631705D01*
X122771745Y-56495316D01*
X122778500Y-56433134D01*
X122778500Y-50799500D01*
X122798502Y-50731379D01*
X122852158Y-50684886D01*
X122904500Y-50673500D01*
X123615500Y-50673500D01*
X123683621Y-50693502D01*
X123730114Y-50747158D01*
X123741500Y-50799500D01*
X123741500Y-56433134D01*
X123748255Y-56495316D01*
X123799385Y-56631705D01*
X123886739Y-56748261D01*
X124003295Y-56835615D01*
X124139684Y-56886745D01*
X124201866Y-56893500D01*
X125869692Y-56893500D01*
X125937813Y-56913502D01*
X125984306Y-56967158D01*
X125988018Y-56976200D01*
X126006672Y-57027177D01*
X126006675Y-57027183D01*
X126009285Y-57034315D01*
X126013522Y-57040621D01*
X126013524Y-57040624D01*
X126038910Y-57078401D01*
X126104930Y-57176649D01*
X126140737Y-57209231D01*
X126222523Y-57283650D01*
X126231765Y-57292060D01*
X126281618Y-57319128D01*
X126375791Y-57370260D01*
X126375793Y-57370261D01*
X126382468Y-57373885D01*
X126389817Y-57375813D01*
X126390694Y-57376043D01*
X126391353Y-57376421D01*
X126396879Y-57378609D01*
X126396562Y-57379410D01*
X126447821Y-57408825D01*
X144021743Y-74982747D01*
X144029287Y-74991037D01*
X144033400Y-74997518D01*
X144039177Y-75002943D01*
X144083067Y-75044158D01*
X144085909Y-75046913D01*
X144105630Y-75066634D01*
X144108825Y-75069112D01*
X144117847Y-75076818D01*
X144150079Y-75107086D01*
X144157028Y-75110906D01*
X144167832Y-75116846D01*
X144184356Y-75127699D01*
X144200359Y-75140113D01*
X144240943Y-75157676D01*
X144251573Y-75162883D01*
X144290340Y-75184195D01*
X144298017Y-75186166D01*
X144298022Y-75186168D01*
X144309958Y-75189232D01*
X144328666Y-75195637D01*
X144347255Y-75203681D01*
X144355080Y-75204920D01*
X144355082Y-75204921D01*
X144390919Y-75210597D01*
X144402540Y-75213004D01*
X144437689Y-75222028D01*
X144445370Y-75224000D01*
X144465631Y-75224000D01*
X144485340Y-75225551D01*
X144505343Y-75228719D01*
X144513235Y-75227973D01*
X144518462Y-75227479D01*
X144549354Y-75224559D01*
X144561211Y-75224000D01*
X144951858Y-75224000D01*
X145011979Y-75239269D01*
X145032592Y-75250461D01*
X145032597Y-75250463D01*
X145039268Y-75254085D01*
X145205139Y-75297601D01*
X145292586Y-75298974D01*
X145369003Y-75300175D01*
X145369006Y-75300175D01*
X145376602Y-75300294D01*
X145384006Y-75298598D01*
X145384008Y-75298598D01*
X145446846Y-75284206D01*
X145543759Y-75262010D01*
X145696958Y-75184959D01*
X145702729Y-75180030D01*
X145702732Y-75180028D01*
X145821578Y-75078523D01*
X145827355Y-75073589D01*
X145927424Y-74934330D01*
X145991385Y-74775220D01*
X145997069Y-74735281D01*
X146014966Y-74609531D01*
X146014966Y-74609527D01*
X146015547Y-74605447D01*
X146015704Y-74590500D01*
X146005616Y-74507140D01*
X145996015Y-74427799D01*
X145996014Y-74427796D01*
X145995102Y-74420258D01*
X145990619Y-74408392D01*
X145973353Y-74362700D01*
X145955336Y-74315019D01*
X145949968Y-74244228D01*
X145964246Y-74207202D01*
X146041726Y-74073810D01*
X146049026Y-74049709D01*
X146090873Y-73911539D01*
X146092995Y-73904533D01*
X146103947Y-73728002D01*
X146097215Y-73688821D01*
X146083268Y-73607657D01*
X146091445Y-73537133D01*
X146136452Y-73482225D01*
X146204000Y-73460366D01*
X146272642Y-73478497D01*
X146296543Y-73497224D01*
X147316495Y-74517176D01*
X147350521Y-74579488D01*
X147353400Y-74606271D01*
X147353400Y-74852493D01*
X147358863Y-74899351D01*
X147365423Y-74955615D01*
X147368718Y-74983881D01*
X147371213Y-74990756D01*
X147371214Y-74990758D01*
X147415027Y-75111459D01*
X147429067Y-75150137D01*
X147433078Y-75156254D01*
X147433079Y-75156257D01*
X147511898Y-75276476D01*
X147526044Y-75298052D01*
X147654447Y-75419690D01*
X147807390Y-75508526D01*
X147814394Y-75510647D01*
X147814398Y-75510649D01*
X147921703Y-75543148D01*
X147976667Y-75559795D01*
X148153198Y-75570747D01*
X148160414Y-75569507D01*
X148160416Y-75569507D01*
X148320298Y-75542034D01*
X148320299Y-75542034D01*
X148327514Y-75540794D01*
X148490264Y-75471543D01*
X148496152Y-75467210D01*
X148496157Y-75467207D01*
X148613966Y-75380508D01*
X148632718Y-75366708D01*
X148637457Y-75361130D01*
X148637460Y-75361127D01*
X148742494Y-75237494D01*
X148742497Y-75237490D01*
X148747233Y-75231915D01*
X148800449Y-75127699D01*
X148824342Y-75080908D01*
X148824343Y-75080906D01*
X148827669Y-75074392D01*
X148829568Y-75066634D01*
X148849532Y-74985044D01*
X148885152Y-74923630D01*
X148948320Y-74891222D01*
X149018982Y-74898111D01*
X149061016Y-74925897D01*
X149575480Y-75440361D01*
X149679216Y-75522435D01*
X149685845Y-75525533D01*
X149685848Y-75525535D01*
X149827650Y-75591807D01*
X149839450Y-75597322D01*
X149846615Y-75598812D01*
X149846617Y-75598813D01*
X149969958Y-75624468D01*
X150012615Y-75633341D01*
X150131736Y-75630118D01*
X150182105Y-75628755D01*
X150189421Y-75628557D01*
X150360384Y-75583227D01*
X150366834Y-75579776D01*
X150366836Y-75579775D01*
X150509879Y-75503236D01*
X150509880Y-75503236D01*
X150516334Y-75499782D01*
X150648905Y-75382700D01*
X150672245Y-75349675D01*
X150746760Y-75244239D01*
X150746762Y-75244236D01*
X150750985Y-75238260D01*
X150817098Y-75074211D01*
X150829677Y-74991526D01*
X150842599Y-74906585D01*
X150842599Y-74906581D01*
X150843699Y-74899351D01*
X150843056Y-74891436D01*
X150833771Y-74777296D01*
X150829360Y-74723064D01*
X150827104Y-74716099D01*
X150777110Y-74561770D01*
X150777109Y-74561767D01*
X150774852Y-74554801D01*
X150771054Y-74548542D01*
X150771052Y-74548538D01*
X150686007Y-74408392D01*
X150683095Y-74403593D01*
X150679385Y-74399391D01*
X150679382Y-74399388D01*
X150676991Y-74396681D01*
X150676989Y-74396679D01*
X150675698Y-74395217D01*
X149754470Y-73473989D01*
X149720444Y-73411677D01*
X149725509Y-73340862D01*
X149740668Y-73312174D01*
X149781259Y-73254739D01*
X149781261Y-73254736D01*
X149785484Y-73248760D01*
X149851598Y-73084710D01*
X149862237Y-73014773D01*
X149892256Y-72950436D01*
X149952294Y-72912541D01*
X150018777Y-72911847D01*
X150087488Y-72929873D01*
X150087492Y-72929874D01*
X150094839Y-72931801D01*
X150182286Y-72933174D01*
X150258703Y-72934375D01*
X150258706Y-72934375D01*
X150266302Y-72934494D01*
X150273706Y-72932798D01*
X150273708Y-72932798D01*
X150373899Y-72909851D01*
X150433459Y-72896210D01*
X150586658Y-72819159D01*
X150592429Y-72814230D01*
X150592432Y-72814228D01*
X150711278Y-72712723D01*
X150717055Y-72707789D01*
X150817124Y-72568530D01*
X150844309Y-72500905D01*
X150856828Y-72469762D01*
X150884641Y-72427663D01*
X163934947Y-59377357D01*
X163943237Y-59369813D01*
X163949718Y-59365700D01*
X163996359Y-59316032D01*
X163999113Y-59313191D01*
X164018834Y-59293470D01*
X164021312Y-59290275D01*
X164029018Y-59281253D01*
X164053858Y-59254801D01*
X164059286Y-59249021D01*
X164069046Y-59231268D01*
X164079899Y-59214745D01*
X164087453Y-59205006D01*
X164092313Y-59198741D01*
X164109876Y-59158157D01*
X164115083Y-59147527D01*
X164136395Y-59108760D01*
X164138366Y-59101083D01*
X164138368Y-59101078D01*
X164141432Y-59089142D01*
X164147838Y-59070430D01*
X164152733Y-59059119D01*
X164155881Y-59051845D01*
X164157121Y-59044017D01*
X164157123Y-59044010D01*
X164162799Y-59008176D01*
X164165205Y-58996556D01*
X164174228Y-58961411D01*
X164174228Y-58961410D01*
X164176200Y-58953730D01*
X164176200Y-58933476D01*
X164177751Y-58913765D01*
X164179680Y-58901586D01*
X164180920Y-58893757D01*
X164176759Y-58849738D01*
X164176200Y-58837881D01*
X164176200Y-57058419D01*
X164185292Y-57011423D01*
X164200937Y-56972504D01*
X164244904Y-56916760D01*
X164317845Y-56893500D01*
X165878134Y-56893500D01*
X165940316Y-56886745D01*
X166076705Y-56835615D01*
X166193261Y-56748261D01*
X166280615Y-56631705D01*
X166331745Y-56495316D01*
X166338500Y-56433134D01*
X166338500Y-50799500D01*
X166358502Y-50731379D01*
X166412158Y-50684886D01*
X166464500Y-50673500D01*
X167175500Y-50673500D01*
X167243621Y-50693502D01*
X167290114Y-50747158D01*
X167301500Y-50799500D01*
X167301500Y-56433134D01*
X167308255Y-56495316D01*
X167359385Y-56631705D01*
X167446739Y-56748261D01*
X167563295Y-56835615D01*
X167699684Y-56886745D01*
X167761866Y-56893500D01*
X169838134Y-56893500D01*
X169900316Y-56886745D01*
X170036705Y-56835615D01*
X170153261Y-56748261D01*
X170180000Y-56712583D01*
X170180000Y-74767019D01*
X164929321Y-69516340D01*
X164825584Y-69434266D01*
X164818953Y-69431167D01*
X164818950Y-69431165D01*
X164671982Y-69362477D01*
X164671978Y-69362476D01*
X164665350Y-69359378D01*
X164658188Y-69357888D01*
X164658187Y-69357888D01*
X164514228Y-69327945D01*
X164492185Y-69323360D01*
X164315379Y-69328143D01*
X164308297Y-69330021D01*
X164308296Y-69330021D01*
X164151498Y-69371596D01*
X164151496Y-69371597D01*
X164144416Y-69373474D01*
X164137957Y-69376930D01*
X163994926Y-69453461D01*
X163994923Y-69453463D01*
X163988466Y-69456918D01*
X163982978Y-69461765D01*
X163982975Y-69461767D01*
X163950642Y-69490323D01*
X163855896Y-69574000D01*
X163753816Y-69718440D01*
X163751081Y-69725226D01*
X163751079Y-69725230D01*
X163735775Y-69763204D01*
X163687702Y-69882489D01*
X163686601Y-69889726D01*
X163664285Y-70036421D01*
X163661101Y-70057349D01*
X163661694Y-70064641D01*
X163661694Y-70064644D01*
X163668879Y-70152969D01*
X163675440Y-70233637D01*
X163677694Y-70240596D01*
X163677695Y-70240599D01*
X163727692Y-70394933D01*
X163729949Y-70401899D01*
X163733745Y-70408154D01*
X163733746Y-70408157D01*
X163818796Y-70548314D01*
X163818799Y-70548318D01*
X163821705Y-70553107D01*
X163825414Y-70557306D01*
X163825417Y-70557311D01*
X163827809Y-70560019D01*
X163829103Y-70561484D01*
X170180000Y-76912381D01*
X170180000Y-78542417D01*
X170153261Y-78506739D01*
X170036705Y-78419385D01*
X169900316Y-78368255D01*
X169838134Y-78361500D01*
X167761866Y-78361500D01*
X167699684Y-78368255D01*
X167563295Y-78419385D01*
X167446739Y-78506739D01*
X167359385Y-78623295D01*
X167308255Y-78759684D01*
X167301500Y-78821866D01*
X167301500Y-88265500D01*
X167281498Y-88333621D01*
X167227842Y-88380114D01*
X167175500Y-88391500D01*
X166464500Y-88391500D01*
X166396379Y-88371498D01*
X166349886Y-88317842D01*
X166338500Y-88265500D01*
X166338500Y-78821866D01*
X166331745Y-78759684D01*
X166280615Y-78623295D01*
X166193261Y-78506739D01*
X166076705Y-78419385D01*
X165940316Y-78368255D01*
X165878134Y-78361500D01*
X165709580Y-78361500D01*
X165641459Y-78341498D01*
X165594966Y-78287842D01*
X165589205Y-78270028D01*
X165588883Y-78270132D01*
X165588598Y-78269254D01*
X165587860Y-78265869D01*
X165586021Y-78260183D01*
X165585412Y-78257133D01*
X165584029Y-78251281D01*
X165583182Y-78244019D01*
X165558265Y-78175373D01*
X165556848Y-78171245D01*
X165536607Y-78108764D01*
X165536606Y-78108762D01*
X165534351Y-78101801D01*
X165530555Y-78095546D01*
X165528049Y-78090072D01*
X165525328Y-78084638D01*
X165522833Y-78077763D01*
X165513420Y-78063405D01*
X165504737Y-78050162D01*
X165482809Y-78016716D01*
X165480472Y-78013012D01*
X165479142Y-78010819D01*
X165466125Y-77989368D01*
X165445509Y-77955393D01*
X165445505Y-77955388D01*
X165442595Y-77950592D01*
X165435197Y-77942216D01*
X165435223Y-77942193D01*
X165432574Y-77939203D01*
X165429866Y-77935964D01*
X165425856Y-77929848D01*
X165420549Y-77924821D01*
X165420546Y-77924817D01*
X165369617Y-77876572D01*
X165367175Y-77874194D01*
X164038605Y-76545624D01*
X164004579Y-76483312D01*
X164001700Y-76456529D01*
X164001700Y-72188807D01*
X163989946Y-72087988D01*
X163987230Y-72064689D01*
X163987229Y-72064685D01*
X163986382Y-72057419D01*
X163951359Y-71960932D01*
X163928529Y-71898039D01*
X163928529Y-71898038D01*
X163926033Y-71891163D01*
X163894580Y-71843188D01*
X163833068Y-71749367D01*
X163833067Y-71749366D01*
X163829056Y-71743248D01*
X163700653Y-71621610D01*
X163547710Y-71532774D01*
X163540706Y-71530653D01*
X163540702Y-71530651D01*
X163385439Y-71483627D01*
X163385440Y-71483627D01*
X163378433Y-71481505D01*
X163201902Y-71470553D01*
X163194686Y-71471793D01*
X163194684Y-71471793D01*
X163034802Y-71499266D01*
X163027586Y-71500506D01*
X162864836Y-71569757D01*
X162858948Y-71574090D01*
X162858943Y-71574093D01*
X162773366Y-71637072D01*
X162722382Y-71674592D01*
X162717643Y-71680170D01*
X162717640Y-71680173D01*
X162612606Y-71803806D01*
X162612603Y-71803810D01*
X162607867Y-71809385D01*
X162604539Y-71815903D01*
X162533782Y-71954471D01*
X162527431Y-71966908D01*
X162485392Y-72138710D01*
X162484700Y-72149864D01*
X162484700Y-76755830D01*
X162483267Y-76774780D01*
X162480001Y-76796249D01*
X162480594Y-76803541D01*
X162480594Y-76803544D01*
X162484285Y-76848918D01*
X162484700Y-76859133D01*
X162484700Y-76867193D01*
X162485125Y-76870837D01*
X162487989Y-76895407D01*
X162488422Y-76899782D01*
X162493274Y-76959429D01*
X162494340Y-76972537D01*
X162496596Y-76979501D01*
X162497787Y-76985460D01*
X162499171Y-76991315D01*
X162500018Y-76998581D01*
X162524935Y-77067227D01*
X162526352Y-77071355D01*
X162548849Y-77140799D01*
X162552645Y-77147054D01*
X162555151Y-77152528D01*
X162557870Y-77157958D01*
X162560367Y-77164837D01*
X162564380Y-77170957D01*
X162564380Y-77170958D01*
X162600386Y-77225876D01*
X162602723Y-77229580D01*
X162640605Y-77292007D01*
X162644321Y-77296215D01*
X162644322Y-77296216D01*
X162648003Y-77300384D01*
X162647976Y-77300408D01*
X162650629Y-77303400D01*
X162653332Y-77306633D01*
X162657344Y-77312752D01*
X162662656Y-77317784D01*
X162713583Y-77366028D01*
X162716025Y-77368406D01*
X163594108Y-78246489D01*
X163628134Y-78308801D01*
X163623069Y-78379616D01*
X163580578Y-78436410D01*
X163498455Y-78497958D01*
X163486739Y-78506739D01*
X163399385Y-78623295D01*
X163348255Y-78759684D01*
X163341500Y-78821866D01*
X163341500Y-88265500D01*
X163321498Y-88333621D01*
X163267842Y-88380114D01*
X163215500Y-88391500D01*
X162504500Y-88391500D01*
X162436379Y-88371498D01*
X162389886Y-88317842D01*
X162378500Y-88265500D01*
X162378500Y-78821866D01*
X162371745Y-78759684D01*
X162320615Y-78623295D01*
X162233261Y-78506739D01*
X162116705Y-78419385D01*
X161980316Y-78368255D01*
X161918134Y-78361500D01*
X161749042Y-78361500D01*
X161680921Y-78341498D01*
X161634428Y-78287842D01*
X161626183Y-78258303D01*
X161625714Y-78258414D01*
X161624030Y-78251289D01*
X161623182Y-78244019D01*
X161619942Y-78235093D01*
X161614201Y-78213442D01*
X161612594Y-78204086D01*
X161587327Y-78144704D01*
X161584848Y-78138411D01*
X161562833Y-78077763D01*
X161558374Y-78070961D01*
X161557627Y-78069822D01*
X161547067Y-78050085D01*
X161546213Y-78048077D01*
X161546206Y-78048065D01*
X161543343Y-78041336D01*
X161539007Y-78035444D01*
X161539004Y-78035439D01*
X161505100Y-77989368D01*
X161501210Y-77983772D01*
X161490115Y-77966850D01*
X161465856Y-77929848D01*
X161458961Y-77923316D01*
X161444139Y-77906534D01*
X161438508Y-77898882D01*
X161432935Y-77894147D01*
X161432928Y-77894140D01*
X161389351Y-77857119D01*
X161384277Y-77852567D01*
X161342766Y-77813243D01*
X161342765Y-77813242D01*
X161337453Y-77808210D01*
X161331126Y-77804535D01*
X161331117Y-77804528D01*
X161329232Y-77803433D01*
X161310953Y-77790515D01*
X161309294Y-77789106D01*
X161309291Y-77789104D01*
X161303715Y-77784367D01*
X161297201Y-77781041D01*
X161297197Y-77781038D01*
X161246264Y-77755030D01*
X161240281Y-77751768D01*
X161190841Y-77723051D01*
X161190839Y-77723050D01*
X161184510Y-77719374D01*
X161177506Y-77717253D01*
X161177502Y-77717251D01*
X161175425Y-77716622D01*
X161154649Y-77708249D01*
X161146192Y-77703931D01*
X161083505Y-77688592D01*
X161076988Y-77686809D01*
X161015233Y-77668105D01*
X161005983Y-77667531D01*
X161005754Y-77667517D01*
X160983617Y-77664149D01*
X160979846Y-77663226D01*
X160979834Y-77663224D01*
X160974390Y-77661892D01*
X160966539Y-77661405D01*
X160965175Y-77661320D01*
X160965165Y-77661320D01*
X160963236Y-77661200D01*
X160907835Y-77661200D01*
X160900033Y-77660958D01*
X160838702Y-77657153D01*
X160825740Y-77659380D01*
X160804404Y-77661200D01*
X160440471Y-77661200D01*
X160372350Y-77641198D01*
X160351376Y-77624295D01*
X157032121Y-74305040D01*
X156928384Y-74222966D01*
X156921753Y-74219867D01*
X156921750Y-74219865D01*
X156774782Y-74151177D01*
X156774778Y-74151176D01*
X156768150Y-74148078D01*
X156760988Y-74146588D01*
X156760987Y-74146588D01*
X156681568Y-74130069D01*
X156594985Y-74112060D01*
X156418179Y-74116843D01*
X156411097Y-74118721D01*
X156411096Y-74118721D01*
X156254298Y-74160296D01*
X156254296Y-74160297D01*
X156247216Y-74162174D01*
X156240757Y-74165630D01*
X156097726Y-74242161D01*
X156097723Y-74242163D01*
X156091266Y-74245618D01*
X156085778Y-74250465D01*
X156085775Y-74250467D01*
X156075158Y-74259844D01*
X155958696Y-74362700D01*
X155856616Y-74507140D01*
X155853881Y-74513926D01*
X155853879Y-74513930D01*
X155852571Y-74517176D01*
X155790502Y-74671189D01*
X155789401Y-74678426D01*
X155767126Y-74824851D01*
X155763901Y-74846049D01*
X155764494Y-74853341D01*
X155764494Y-74853344D01*
X155768500Y-74902590D01*
X155778240Y-75022337D01*
X155780494Y-75029296D01*
X155780495Y-75029299D01*
X155825985Y-75169720D01*
X155832749Y-75190599D01*
X155836545Y-75196854D01*
X155836546Y-75196857D01*
X155921596Y-75337014D01*
X155921599Y-75337018D01*
X155924505Y-75341807D01*
X155928214Y-75346006D01*
X155928217Y-75346011D01*
X155930609Y-75348719D01*
X155931903Y-75350184D01*
X159344595Y-78762876D01*
X159378621Y-78825188D01*
X159381500Y-78851971D01*
X159381500Y-88265500D01*
X159361498Y-88333621D01*
X159307842Y-88380114D01*
X159255500Y-88391500D01*
X154584500Y-88391500D01*
X154516379Y-88371498D01*
X154469886Y-88317842D01*
X154458500Y-88265500D01*
X154458500Y-78821866D01*
X154451745Y-78759684D01*
X154400615Y-78623295D01*
X154313261Y-78506739D01*
X154196705Y-78419385D01*
X154060316Y-78368255D01*
X153998134Y-78361500D01*
X153658120Y-78361500D01*
X153589999Y-78341498D01*
X153543506Y-78287842D01*
X153542425Y-78285065D01*
X153540215Y-78280368D01*
X153537764Y-78272825D01*
X153533514Y-78266128D01*
X153533350Y-78265869D01*
X153522585Y-78244742D01*
X153522471Y-78244454D01*
X153522468Y-78244449D01*
X153519552Y-78237083D01*
X153514896Y-78230675D01*
X153514893Y-78230669D01*
X153486542Y-78191648D01*
X153482092Y-78185101D01*
X153480764Y-78183008D01*
X153452000Y-78137682D01*
X153445993Y-78132041D01*
X153430312Y-78114254D01*
X153430134Y-78114009D01*
X153430132Y-78114007D01*
X153425472Y-78107593D01*
X153415071Y-78098988D01*
X153382204Y-78071797D01*
X153376270Y-78066566D01*
X153341102Y-78033542D01*
X153341099Y-78033540D01*
X153335321Y-78028114D01*
X153328097Y-78024142D01*
X153308494Y-78010819D01*
X153308254Y-78010620D01*
X153308247Y-78010616D01*
X153302144Y-78005567D01*
X153251324Y-77981653D01*
X153244292Y-77978071D01*
X153195060Y-77951005D01*
X153187385Y-77949035D01*
X153187379Y-77949032D01*
X153187081Y-77948956D01*
X153164772Y-77940924D01*
X153164497Y-77940794D01*
X153164489Y-77940791D01*
X153157318Y-77937417D01*
X153102151Y-77926894D01*
X153094442Y-77925171D01*
X153057112Y-77915586D01*
X153047707Y-77913171D01*
X153047706Y-77913171D01*
X153040030Y-77911200D01*
X153031793Y-77911200D01*
X153008184Y-77908968D01*
X153007881Y-77908910D01*
X153007877Y-77908910D01*
X153000094Y-77907425D01*
X152984220Y-77908424D01*
X152973831Y-77909077D01*
X152904589Y-77893392D01*
X152876826Y-77872421D01*
X152670408Y-77666003D01*
X152641637Y-77621446D01*
X152613071Y-77545847D01*
X152610387Y-77538744D01*
X152525905Y-77415822D01*
X152517559Y-77403678D01*
X152517558Y-77403676D01*
X152513257Y-77397419D01*
X152507586Y-77392366D01*
X152390893Y-77288396D01*
X152390890Y-77288394D01*
X152385221Y-77283343D01*
X152377225Y-77279109D01*
X152251817Y-77212709D01*
X152233669Y-77203100D01*
X152223151Y-77200458D01*
X152074722Y-77163175D01*
X152074718Y-77163175D01*
X152067351Y-77161324D01*
X152059752Y-77161284D01*
X152059750Y-77161284D01*
X151988294Y-77160910D01*
X151895869Y-77160426D01*
X151888489Y-77162198D01*
X151888487Y-77162198D01*
X151736502Y-77198686D01*
X151736498Y-77198687D01*
X151729123Y-77200458D01*
X151576739Y-77279109D01*
X151447515Y-77391839D01*
X151348910Y-77532139D01*
X151326460Y-77589720D01*
X151298405Y-77661678D01*
X151286618Y-77691909D01*
X151285626Y-77699442D01*
X151285626Y-77699443D01*
X151267402Y-77837872D01*
X151264235Y-77861926D01*
X151269675Y-77911200D01*
X151280915Y-78013005D01*
X151283053Y-78032375D01*
X151285662Y-78039506D01*
X151285663Y-78039508D01*
X151299824Y-78078205D01*
X151341985Y-78193415D01*
X151346222Y-78199721D01*
X151346224Y-78199724D01*
X151386851Y-78260183D01*
X151437630Y-78335749D01*
X151443245Y-78340858D01*
X151443250Y-78340864D01*
X151529639Y-78419472D01*
X151566561Y-78480112D01*
X151564838Y-78551088D01*
X151545665Y-78588229D01*
X151519385Y-78623295D01*
X151468255Y-78759684D01*
X151461500Y-78821866D01*
X151461500Y-88265500D01*
X151441498Y-88333621D01*
X151387842Y-88380114D01*
X151335500Y-88391500D01*
X150624500Y-88391500D01*
X150556379Y-88371498D01*
X150509886Y-88317842D01*
X150498500Y-88265500D01*
X150498500Y-78821866D01*
X150491745Y-78759684D01*
X150440615Y-78623295D01*
X150353261Y-78506739D01*
X150236705Y-78419385D01*
X150100316Y-78368255D01*
X150038134Y-78361500D01*
X149698120Y-78361500D01*
X149629999Y-78341498D01*
X149583506Y-78287842D01*
X149582425Y-78285065D01*
X149580215Y-78280368D01*
X149577764Y-78272825D01*
X149573514Y-78266128D01*
X149573350Y-78265869D01*
X149562585Y-78244742D01*
X149562471Y-78244454D01*
X149562468Y-78244449D01*
X149559552Y-78237083D01*
X149554896Y-78230675D01*
X149554893Y-78230669D01*
X149526542Y-78191648D01*
X149522092Y-78185101D01*
X149520764Y-78183008D01*
X149492000Y-78137682D01*
X149485993Y-78132041D01*
X149470312Y-78114254D01*
X149470134Y-78114009D01*
X149470132Y-78114007D01*
X149465472Y-78107593D01*
X149455071Y-78098988D01*
X149422204Y-78071797D01*
X149416270Y-78066566D01*
X149381102Y-78033542D01*
X149381099Y-78033540D01*
X149375321Y-78028114D01*
X149368097Y-78024142D01*
X149348494Y-78010819D01*
X149348254Y-78010620D01*
X149348247Y-78010616D01*
X149342144Y-78005567D01*
X149291324Y-77981653D01*
X149284292Y-77978071D01*
X149235060Y-77951005D01*
X149227385Y-77949035D01*
X149227379Y-77949032D01*
X149227081Y-77948956D01*
X149204772Y-77940924D01*
X149204497Y-77940794D01*
X149204489Y-77940791D01*
X149197318Y-77937417D01*
X149142151Y-77926894D01*
X149134442Y-77925171D01*
X149097112Y-77915586D01*
X149087707Y-77913171D01*
X149087706Y-77913171D01*
X149080030Y-77911200D01*
X149071793Y-77911200D01*
X149048184Y-77908968D01*
X149047881Y-77908910D01*
X149047877Y-77908910D01*
X149040094Y-77907425D01*
X148984049Y-77910951D01*
X148976138Y-77911200D01*
X148929195Y-77911200D01*
X148861074Y-77891198D01*
X148840099Y-77874295D01*
X148763597Y-77797792D01*
X148675607Y-77709802D01*
X148646837Y-77665245D01*
X148637751Y-77641198D01*
X148615587Y-77582544D01*
X148585484Y-77538744D01*
X148522759Y-77447478D01*
X148522758Y-77447476D01*
X148518457Y-77441219D01*
X148512786Y-77436166D01*
X148396093Y-77332196D01*
X148396090Y-77332194D01*
X148390421Y-77327143D01*
X148382425Y-77322909D01*
X148309123Y-77284098D01*
X148238869Y-77246900D01*
X148217060Y-77241422D01*
X148079922Y-77206975D01*
X148079918Y-77206975D01*
X148072551Y-77205124D01*
X148064952Y-77205084D01*
X148064950Y-77205084D01*
X147993494Y-77204710D01*
X147901069Y-77204226D01*
X147893689Y-77205998D01*
X147893687Y-77205998D01*
X147741702Y-77242486D01*
X147741698Y-77242487D01*
X147734323Y-77244258D01*
X147581939Y-77322909D01*
X147452715Y-77435639D01*
X147354110Y-77575939D01*
X147326475Y-77646820D01*
X147298187Y-77719374D01*
X147291818Y-77735709D01*
X147290826Y-77743242D01*
X147290826Y-77743243D01*
X147271059Y-77893392D01*
X147269435Y-77905726D01*
X147278134Y-77984522D01*
X147285994Y-78055711D01*
X147288253Y-78076175D01*
X147290862Y-78083306D01*
X147290863Y-78083308D01*
X147305714Y-78123889D01*
X147347185Y-78237215D01*
X147351422Y-78243521D01*
X147351424Y-78243524D01*
X147383605Y-78291413D01*
X147442830Y-78379549D01*
X147528993Y-78457951D01*
X147537334Y-78465541D01*
X147574256Y-78526182D01*
X147572533Y-78597157D01*
X147563902Y-78617268D01*
X147559385Y-78623295D01*
X147508255Y-78759684D01*
X147501500Y-78821866D01*
X147501500Y-88265500D01*
X147481498Y-88333621D01*
X147427842Y-88380114D01*
X147375500Y-88391500D01*
X146664500Y-88391500D01*
X146596379Y-88371498D01*
X146549886Y-88317842D01*
X146538500Y-88265500D01*
X146538500Y-78821866D01*
X146531745Y-78759684D01*
X146480615Y-78623295D01*
X146393261Y-78506739D01*
X146276705Y-78419385D01*
X146140316Y-78368255D01*
X146078134Y-78361500D01*
X144001866Y-78361500D01*
X143939684Y-78368255D01*
X143803295Y-78419385D01*
X143686739Y-78506739D01*
X143599385Y-78623295D01*
X143548255Y-78759684D01*
X143541500Y-78821866D01*
X143541500Y-88265500D01*
X143521498Y-88333621D01*
X143467842Y-88380114D01*
X143415500Y-88391500D01*
X142704500Y-88391500D01*
X142636379Y-88371498D01*
X142589886Y-88317842D01*
X142578500Y-88265500D01*
X142578500Y-78821866D01*
X142571745Y-78759684D01*
X142520615Y-78623295D01*
X142433261Y-78506739D01*
X142316705Y-78419385D01*
X142180316Y-78368255D01*
X142118134Y-78361500D01*
X140041866Y-78361500D01*
X139979684Y-78368255D01*
X139843295Y-78419385D01*
X139726739Y-78506739D01*
X139639385Y-78623295D01*
X139588255Y-78759684D01*
X139581500Y-78821866D01*
X139581500Y-88265500D01*
X139561498Y-88333621D01*
X139507842Y-88380114D01*
X139455500Y-88391500D01*
X138744500Y-88391500D01*
X138676379Y-88371498D01*
X138629886Y-88317842D01*
X138618500Y-88265500D01*
X138618500Y-78821866D01*
X138611745Y-78759684D01*
X138560615Y-78623295D01*
X138473261Y-78506739D01*
X138356705Y-78419385D01*
X138220316Y-78368255D01*
X138158134Y-78361500D01*
X136537061Y-78361500D01*
X136468940Y-78341498D01*
X136422447Y-78287842D01*
X136421501Y-78281266D01*
X136390532Y-78330171D01*
X136326150Y-78360095D01*
X136307385Y-78361500D01*
X136081866Y-78361500D01*
X136019684Y-78368255D01*
X135883295Y-78419385D01*
X135766739Y-78506739D01*
X135679385Y-78623295D01*
X135628255Y-78759684D01*
X135621500Y-78821866D01*
X135621500Y-88265500D01*
X135601498Y-88333621D01*
X135547842Y-88380114D01*
X135495500Y-88391500D01*
X134784500Y-88391500D01*
X134716379Y-88371498D01*
X134669886Y-88317842D01*
X134658500Y-88265500D01*
X134658500Y-78821866D01*
X134651745Y-78759684D01*
X134600615Y-78623295D01*
X134513261Y-78506739D01*
X134396705Y-78419385D01*
X134260316Y-78368255D01*
X134198134Y-78361500D01*
X132121866Y-78361500D01*
X132059684Y-78368255D01*
X131923295Y-78419385D01*
X131806739Y-78506739D01*
X131719385Y-78623295D01*
X131668255Y-78759684D01*
X131661500Y-78821866D01*
X131661500Y-88265500D01*
X131641498Y-88333621D01*
X131587842Y-88380114D01*
X131535500Y-88391500D01*
X130824500Y-88391500D01*
X130756379Y-88371498D01*
X130709886Y-88317842D01*
X130698500Y-88265500D01*
X130698500Y-78821866D01*
X130691745Y-78759684D01*
X130640615Y-78623295D01*
X130553261Y-78506739D01*
X130436705Y-78419385D01*
X130300316Y-78368255D01*
X130238134Y-78361500D01*
X128161866Y-78361500D01*
X128099684Y-78368255D01*
X127963295Y-78419385D01*
X127846739Y-78506739D01*
X127759385Y-78623295D01*
X127708255Y-78759684D01*
X127701500Y-78821866D01*
X127701500Y-88265500D01*
X127681498Y-88333621D01*
X127627842Y-88380114D01*
X127575500Y-88391500D01*
X126864500Y-88391500D01*
X126796379Y-88371498D01*
X126749886Y-88317842D01*
X126738500Y-88265500D01*
X126738500Y-78821866D01*
X126731745Y-78759684D01*
X126680615Y-78623295D01*
X126593261Y-78506739D01*
X126476705Y-78419385D01*
X126340316Y-78368255D01*
X126278134Y-78361500D01*
X124201866Y-78361500D01*
X124139684Y-78368255D01*
X124003295Y-78419385D01*
X123886739Y-78506739D01*
X123799385Y-78623295D01*
X123748255Y-78759684D01*
X123741500Y-78821866D01*
X123741500Y-88265500D01*
X123721498Y-88333621D01*
X123667842Y-88380114D01*
X123615500Y-88391500D01*
X122904500Y-88391500D01*
X122836379Y-88371498D01*
X122789886Y-88317842D01*
X122778500Y-88265500D01*
X122778500Y-78821866D01*
X122771745Y-78759684D01*
X122720615Y-78623295D01*
X122633261Y-78506739D01*
X122516705Y-78419385D01*
X122380316Y-78368255D01*
X122318134Y-78361500D01*
X120241866Y-78361500D01*
X120179684Y-78368255D01*
X120043295Y-78419385D01*
X119926739Y-78506739D01*
X119839385Y-78623295D01*
X119788255Y-78759684D01*
X119781500Y-78821866D01*
X119781500Y-88265500D01*
X119761498Y-88333621D01*
X119707842Y-88380114D01*
X119655500Y-88391500D01*
X118944500Y-88391500D01*
X118876379Y-88371498D01*
X118829886Y-88317842D01*
X118818500Y-88265500D01*
X118818500Y-78821866D01*
X118811745Y-78759684D01*
X118760615Y-78623295D01*
X118673261Y-78506739D01*
X118556705Y-78419385D01*
X118420316Y-78368255D01*
X118358134Y-78361500D01*
X116281866Y-78361500D01*
X116219684Y-78368255D01*
X116083295Y-78419385D01*
X115966739Y-78506739D01*
X115879385Y-78623295D01*
X115828255Y-78759684D01*
X115821500Y-78821866D01*
X115821500Y-88265500D01*
X115801498Y-88333621D01*
X115747842Y-88380114D01*
X115695500Y-88391500D01*
X114984500Y-88391500D01*
X114916379Y-88371498D01*
X114869886Y-88317842D01*
X114858500Y-88265500D01*
X114858500Y-78821866D01*
X114851745Y-78759684D01*
X114800615Y-78623295D01*
X114713261Y-78506739D01*
X114596705Y-78419385D01*
X114460316Y-78368255D01*
X114398134Y-78361500D01*
X112321866Y-78361500D01*
X112259684Y-78368255D01*
X112123295Y-78419385D01*
X112006739Y-78506739D01*
X111919385Y-78623295D01*
X111868255Y-78759684D01*
X111861500Y-78821866D01*
X111861500Y-88265500D01*
X111841498Y-88333621D01*
X111787842Y-88380114D01*
X111735500Y-88391500D01*
X111024500Y-88391500D01*
X110956379Y-88371498D01*
X110909886Y-88317842D01*
X110898500Y-88265500D01*
X110898500Y-78821866D01*
X110891745Y-78759684D01*
X110840615Y-78623295D01*
X110753261Y-78506739D01*
X110636705Y-78419385D01*
X110500316Y-78368255D01*
X110438134Y-78361500D01*
X108361866Y-78361500D01*
X108299684Y-78368255D01*
X108163295Y-78419385D01*
X108046739Y-78506739D01*
X107959385Y-78623295D01*
X107908255Y-78759684D01*
X107901500Y-78821866D01*
X107901500Y-88265500D01*
X107881498Y-88333621D01*
X107827842Y-88380114D01*
X107775500Y-88391500D01*
X107064500Y-88391500D01*
X106996379Y-88371498D01*
X106949886Y-88317842D01*
X106938500Y-88265500D01*
X106938500Y-78821866D01*
X106931745Y-78759684D01*
X106880615Y-78623295D01*
X106793261Y-78506739D01*
X106676705Y-78419385D01*
X106540316Y-78368255D01*
X106478134Y-78361500D01*
X104401866Y-78361500D01*
X104339684Y-78368255D01*
X104203295Y-78419385D01*
X104086739Y-78506739D01*
X103999385Y-78623295D01*
X103948255Y-78759684D01*
X103941500Y-78821866D01*
X103941500Y-88265500D01*
X103921498Y-88333621D01*
X103867842Y-88380114D01*
X103815500Y-88391500D01*
X99059500Y-88391500D01*
X98991379Y-88371498D01*
X98944886Y-88317842D01*
X98933500Y-88265500D01*
X98933500Y-78805424D01*
X98935707Y-78783960D01*
X98935896Y-78780939D01*
X98937722Y-78772153D01*
X98933899Y-78724237D01*
X98933500Y-78714218D01*
X98933500Y-78703487D01*
X98931219Y-78687561D01*
X98930348Y-78679741D01*
X98929068Y-78663688D01*
X98926137Y-78626956D01*
X98922939Y-78618564D01*
X98921360Y-78611565D01*
X98919353Y-78604703D01*
X98918080Y-78595813D01*
X98896161Y-78547605D01*
X98893125Y-78540330D01*
X98877466Y-78499243D01*
X98877464Y-78499239D01*
X98874266Y-78490848D01*
X98868843Y-78483694D01*
X98865356Y-78477405D01*
X98861505Y-78471385D01*
X98857792Y-78463218D01*
X98834693Y-78436410D01*
X98823221Y-78423096D01*
X98818262Y-78416962D01*
X98791701Y-78381921D01*
X98791700Y-78381920D01*
X98786279Y-78374768D01*
X98779069Y-78369426D01*
X98773979Y-78364390D01*
X98768572Y-78359673D01*
X98762713Y-78352873D01*
X98718258Y-78324059D01*
X98711777Y-78319563D01*
X98699711Y-78310622D01*
X98669250Y-78288050D01*
X98660824Y-78284944D01*
X98654510Y-78281531D01*
X98648021Y-78278532D01*
X98640485Y-78273648D01*
X98589753Y-78258476D01*
X98582266Y-78255980D01*
X98541007Y-78240768D01*
X98541006Y-78240768D01*
X98532585Y-78237663D01*
X98523627Y-78237046D01*
X98516618Y-78235545D01*
X98509537Y-78234487D01*
X98500934Y-78231914D01*
X98491960Y-78231859D01*
X98491959Y-78231859D01*
X98447969Y-78231590D01*
X98440086Y-78231294D01*
X98421358Y-78230005D01*
X98387270Y-78227658D01*
X98378498Y-78229581D01*
X98371348Y-78230107D01*
X98364255Y-78231079D01*
X98355279Y-78231024D01*
X98347274Y-78233312D01*
X98334343Y-78234325D01*
X98213205Y-78236789D01*
X98137039Y-78238337D01*
X98120589Y-78237595D01*
X97960734Y-78219866D01*
X97885807Y-78211555D01*
X97869599Y-78208676D01*
X97640214Y-78152237D01*
X97624514Y-78147266D01*
X97404453Y-78061396D01*
X97389536Y-78054420D01*
X97277076Y-77992569D01*
X97182552Y-77940583D01*
X97168674Y-77931722D01*
X96978307Y-77791866D01*
X96965704Y-77781272D01*
X96948205Y-77764492D01*
X96845492Y-77666003D01*
X96795198Y-77617777D01*
X96784082Y-77605627D01*
X96742046Y-77553175D01*
X96636353Y-77421290D01*
X96626928Y-77407811D01*
X96611727Y-77382726D01*
X113410235Y-77382726D01*
X113414494Y-77421299D01*
X113427460Y-77538744D01*
X113429053Y-77553175D01*
X113431662Y-77560306D01*
X113431663Y-77560308D01*
X113445004Y-77596764D01*
X113487985Y-77714215D01*
X113492222Y-77720521D01*
X113492224Y-77720524D01*
X113521770Y-77764492D01*
X113583630Y-77856549D01*
X113637675Y-77905726D01*
X113677752Y-77942193D01*
X113710465Y-77971960D01*
X113861168Y-78053785D01*
X114027039Y-78097301D01*
X114114486Y-78098674D01*
X114190903Y-78099875D01*
X114190906Y-78099875D01*
X114198502Y-78099994D01*
X114205906Y-78098298D01*
X114205908Y-78098298D01*
X114293638Y-78078205D01*
X114365659Y-78061710D01*
X114380154Y-78054420D01*
X114385093Y-78051936D01*
X114441708Y-78038500D01*
X136074958Y-78038500D01*
X136135079Y-78053769D01*
X136155692Y-78064961D01*
X136155697Y-78064963D01*
X136162368Y-78068585D01*
X136326898Y-78111749D01*
X136326900Y-78111750D01*
X136328239Y-78112101D01*
X136328180Y-78112324D01*
X136389259Y-78139726D01*
X136423744Y-78192605D01*
X136441837Y-78152988D01*
X136501563Y-78114604D01*
X136508932Y-78112680D01*
X136666859Y-78076510D01*
X136820058Y-77999459D01*
X136825829Y-77994530D01*
X136825832Y-77994528D01*
X136944678Y-77893023D01*
X136950455Y-77888089D01*
X137050524Y-77748830D01*
X137114485Y-77589720D01*
X137130977Y-77473843D01*
X137138066Y-77424031D01*
X137138066Y-77424027D01*
X137138647Y-77419947D01*
X137138804Y-77405000D01*
X137129994Y-77332196D01*
X137119115Y-77242299D01*
X137119114Y-77242296D01*
X137118202Y-77234758D01*
X137112718Y-77220243D01*
X137060271Y-77081447D01*
X137057587Y-77074344D01*
X136960457Y-76933019D01*
X136954786Y-76927966D01*
X136838093Y-76823996D01*
X136838090Y-76823994D01*
X136832421Y-76818943D01*
X136803338Y-76803544D01*
X136731221Y-76765360D01*
X136680869Y-76738700D01*
X136663296Y-76734286D01*
X136521922Y-76698775D01*
X136521918Y-76698775D01*
X136514551Y-76696924D01*
X136506952Y-76696884D01*
X136506950Y-76696884D01*
X136435494Y-76696510D01*
X136343069Y-76696026D01*
X136335689Y-76697798D01*
X136335687Y-76697798D01*
X136183702Y-76734286D01*
X136183698Y-76734287D01*
X136176323Y-76736058D01*
X136136032Y-76756854D01*
X136134846Y-76757466D01*
X136077056Y-76771500D01*
X114500868Y-76771500D01*
X114441909Y-76756854D01*
X114386387Y-76727457D01*
X114379669Y-76723900D01*
X114362096Y-76719486D01*
X114220722Y-76683975D01*
X114220718Y-76683975D01*
X114213351Y-76682124D01*
X114205752Y-76682084D01*
X114205750Y-76682084D01*
X114134294Y-76681710D01*
X114041869Y-76681226D01*
X114034489Y-76682998D01*
X114034487Y-76682998D01*
X113882502Y-76719486D01*
X113882498Y-76719487D01*
X113875123Y-76721258D01*
X113722739Y-76799909D01*
X113593515Y-76912639D01*
X113494910Y-77052939D01*
X113488546Y-77069262D01*
X113435591Y-77205084D01*
X113432618Y-77212709D01*
X113431626Y-77220242D01*
X113431626Y-77220243D01*
X113412282Y-77367179D01*
X113410235Y-77382726D01*
X96611727Y-77382726D01*
X96504494Y-77205769D01*
X96496901Y-77191163D01*
X96484174Y-77162198D01*
X96401873Y-76974904D01*
X96396248Y-76959429D01*
X96388562Y-76933019D01*
X96330234Y-76732616D01*
X96326676Y-76716542D01*
X96323947Y-76698775D01*
X96290805Y-76483050D01*
X96289374Y-76466649D01*
X96284986Y-76264005D01*
X96287000Y-76241255D01*
X96287208Y-76237535D01*
X96288976Y-76228734D01*
X96285020Y-76182998D01*
X96284551Y-76172140D01*
X96284551Y-73857344D01*
X104021575Y-73857344D01*
X104038516Y-74151164D01*
X104039341Y-74155371D01*
X104039342Y-74155376D01*
X104058285Y-74251925D01*
X104095177Y-74439966D01*
X104096564Y-74444016D01*
X104096565Y-74444021D01*
X104176820Y-74678426D01*
X104190509Y-74718407D01*
X104223709Y-74784418D01*
X104320372Y-74976611D01*
X104322747Y-74981334D01*
X104325173Y-74984863D01*
X104325176Y-74984869D01*
X104404333Y-75100043D01*
X104489445Y-75223881D01*
X104492332Y-75227054D01*
X104492333Y-75227055D01*
X104558867Y-75300175D01*
X104687518Y-75441560D01*
X104690807Y-75444310D01*
X104910009Y-75627592D01*
X104910014Y-75627596D01*
X104913301Y-75630344D01*
X105016043Y-75694794D01*
X105158976Y-75784456D01*
X105158980Y-75784458D01*
X105162616Y-75786739D01*
X105235293Y-75819554D01*
X105426937Y-75906085D01*
X105426941Y-75906087D01*
X105430849Y-75907851D01*
X105434968Y-75909071D01*
X105708924Y-75990221D01*
X105708929Y-75990222D01*
X105713037Y-75991439D01*
X105717271Y-75992087D01*
X105717276Y-75992088D01*
X105999717Y-76035307D01*
X105999719Y-76035307D01*
X106003959Y-76035956D01*
X106153772Y-76038310D01*
X106293940Y-76040512D01*
X106293946Y-76040512D01*
X106298231Y-76040579D01*
X106590408Y-76005222D01*
X106875082Y-75930539D01*
X107146988Y-75817912D01*
X107401092Y-75669425D01*
X107632694Y-75487827D01*
X107638756Y-75481572D01*
X107814540Y-75300175D01*
X107837506Y-75276476D01*
X108011741Y-75039285D01*
X108025741Y-75013500D01*
X108150122Y-74784418D01*
X108150123Y-74784416D01*
X108152172Y-74780642D01*
X108224021Y-74590500D01*
X108254685Y-74509351D01*
X108254686Y-74509347D01*
X108256203Y-74505333D01*
X108298133Y-74322255D01*
X108320949Y-74222637D01*
X108320950Y-74222633D01*
X108321907Y-74218453D01*
X108326352Y-74168653D01*
X108347849Y-73927776D01*
X108347849Y-73927774D01*
X108348069Y-73925310D01*
X108348544Y-73880000D01*
X108347291Y-73861624D01*
X108328819Y-73590650D01*
X108328818Y-73590644D01*
X108328527Y-73586373D01*
X108268845Y-73298180D01*
X108170603Y-73020753D01*
X108066552Y-72819159D01*
X108037583Y-72763033D01*
X108037583Y-72763032D01*
X108035618Y-72759226D01*
X108019589Y-72736418D01*
X107868856Y-72521948D01*
X107868855Y-72521947D01*
X107866389Y-72518438D01*
X107666048Y-72302844D01*
X107643936Y-72284745D01*
X107441618Y-72119151D01*
X107438300Y-72116435D01*
X107187361Y-71962660D01*
X107183425Y-71960932D01*
X106921802Y-71846087D01*
X106921798Y-71846086D01*
X106917874Y-71844363D01*
X106634826Y-71763735D01*
X106630584Y-71763131D01*
X106630578Y-71763130D01*
X106347705Y-71722871D01*
X106343454Y-71722266D01*
X106188306Y-71721454D01*
X106053436Y-71720747D01*
X106053430Y-71720747D01*
X106049150Y-71720725D01*
X106044906Y-71721284D01*
X106044902Y-71721284D01*
X105916341Y-71738210D01*
X105757360Y-71759140D01*
X105753220Y-71760273D01*
X105753218Y-71760273D01*
X105477628Y-71835666D01*
X105473483Y-71836800D01*
X105469533Y-71838485D01*
X105206714Y-71950586D01*
X105206707Y-71950590D01*
X105202772Y-71952268D01*
X105050386Y-72043469D01*
X104953918Y-72101204D01*
X104953914Y-72101207D01*
X104950236Y-72103408D01*
X104720549Y-72287422D01*
X104717605Y-72290524D01*
X104717601Y-72290528D01*
X104544140Y-72473318D01*
X104517961Y-72500905D01*
X104346220Y-72739908D01*
X104208504Y-73000007D01*
X104107362Y-73276390D01*
X104044666Y-73563943D01*
X104044330Y-73568213D01*
X104029712Y-73753959D01*
X104021575Y-73857344D01*
X96284551Y-73857344D01*
X96284551Y-60717344D01*
X104021575Y-60717344D01*
X104038516Y-61011164D01*
X104039341Y-61015371D01*
X104039342Y-61015376D01*
X104062545Y-61133642D01*
X104095177Y-61299966D01*
X104096564Y-61304016D01*
X104096565Y-61304021D01*
X104176049Y-61536174D01*
X104190509Y-61578407D01*
X104211807Y-61620753D01*
X104282806Y-61761919D01*
X104322747Y-61841334D01*
X104325173Y-61844863D01*
X104325176Y-61844869D01*
X104380680Y-61925627D01*
X104489445Y-62083881D01*
X104492332Y-62087054D01*
X104492333Y-62087055D01*
X104531802Y-62130431D01*
X104687518Y-62301560D01*
X104703214Y-62314683D01*
X104910009Y-62487592D01*
X104910014Y-62487596D01*
X104913301Y-62490344D01*
X104979051Y-62531589D01*
X105158976Y-62644456D01*
X105158980Y-62644458D01*
X105162616Y-62646739D01*
X105271126Y-62695733D01*
X105426937Y-62766085D01*
X105426941Y-62766087D01*
X105430849Y-62767851D01*
X105434968Y-62769071D01*
X105708924Y-62850221D01*
X105708929Y-62850222D01*
X105713037Y-62851439D01*
X105717271Y-62852087D01*
X105717276Y-62852088D01*
X105999717Y-62895307D01*
X105999719Y-62895307D01*
X106003959Y-62895956D01*
X106153772Y-62898310D01*
X106293940Y-62900512D01*
X106293946Y-62900512D01*
X106298231Y-62900579D01*
X106590408Y-62865222D01*
X106733620Y-62827651D01*
X106870939Y-62791626D01*
X106870940Y-62791626D01*
X106875082Y-62790539D01*
X107146988Y-62677912D01*
X107290062Y-62594306D01*
X107397389Y-62531589D01*
X107397390Y-62531588D01*
X107401092Y-62529425D01*
X107632694Y-62347827D01*
X107678353Y-62300711D01*
X107783548Y-62192157D01*
X107837506Y-62136476D01*
X108011741Y-61899285D01*
X108086324Y-61761919D01*
X108150122Y-61644418D01*
X108150123Y-61644416D01*
X108152172Y-61640642D01*
X108221113Y-61458195D01*
X108254685Y-61369351D01*
X108254686Y-61369347D01*
X108256203Y-61365333D01*
X108295039Y-61195764D01*
X108320949Y-61082637D01*
X108320950Y-61082633D01*
X108321907Y-61078453D01*
X108326744Y-61024261D01*
X108347849Y-60787776D01*
X108347849Y-60787774D01*
X108348069Y-60785310D01*
X108348544Y-60740000D01*
X108347000Y-60717344D01*
X108328819Y-60450650D01*
X108328818Y-60450644D01*
X108328527Y-60446373D01*
X108268845Y-60158180D01*
X108170603Y-59880753D01*
X108035618Y-59619226D01*
X108019589Y-59596418D01*
X107868856Y-59381948D01*
X107868855Y-59381947D01*
X107866389Y-59378438D01*
X107666048Y-59162844D01*
X107643936Y-59144745D01*
X107441618Y-58979151D01*
X107438300Y-58976435D01*
X107187361Y-58822660D01*
X107168706Y-58814471D01*
X106921802Y-58706087D01*
X106921798Y-58706086D01*
X106917874Y-58704363D01*
X106634826Y-58623735D01*
X106630584Y-58623131D01*
X106630578Y-58623130D01*
X106347705Y-58582871D01*
X106343454Y-58582266D01*
X106188306Y-58581454D01*
X106053436Y-58580747D01*
X106053430Y-58580747D01*
X106049150Y-58580725D01*
X106044906Y-58581284D01*
X106044902Y-58581284D01*
X105918169Y-58597969D01*
X105757360Y-58619140D01*
X105753220Y-58620273D01*
X105753218Y-58620273D01*
X105561205Y-58672802D01*
X105473483Y-58696800D01*
X105469533Y-58698485D01*
X105206714Y-58810586D01*
X105206707Y-58810590D01*
X105202772Y-58812268D01*
X105140163Y-58849739D01*
X104953918Y-58961204D01*
X104953914Y-58961207D01*
X104950236Y-58963408D01*
X104720549Y-59147422D01*
X104717605Y-59150524D01*
X104717601Y-59150528D01*
X104584918Y-59290347D01*
X104517961Y-59360905D01*
X104346220Y-59599908D01*
X104208504Y-59860007D01*
X104107362Y-60136390D01*
X104044666Y-60423943D01*
X104044330Y-60428213D01*
X104022827Y-60701442D01*
X104021575Y-60717344D01*
X96284551Y-60717344D01*
X96284551Y-53280410D01*
X96286051Y-53261026D01*
X96288361Y-53246192D01*
X96288361Y-53246189D01*
X96289742Y-53237319D01*
X96287468Y-53219932D01*
X96286626Y-53196117D01*
X96302347Y-52931610D01*
X96304119Y-52916761D01*
X96355938Y-52628929D01*
X96359456Y-52614394D01*
X96445016Y-52334717D01*
X96450232Y-52320701D01*
X96538134Y-52121537D01*
X96568325Y-52053131D01*
X96575163Y-52039836D01*
X96724125Y-51788146D01*
X96732489Y-51775755D01*
X96834464Y-51642491D01*
X96910222Y-51543486D01*
X96919997Y-51532172D01*
X97124001Y-51322594D01*
X97135043Y-51312521D01*
X97362447Y-51128584D01*
X97374605Y-51119892D01*
X97622182Y-50964206D01*
X97635291Y-50957010D01*
X97899582Y-50831746D01*
X97913450Y-50826155D01*
X97992863Y-50799500D01*
X98190717Y-50733090D01*
X98205152Y-50729181D01*
X98358484Y-50697287D01*
X98457400Y-50676713D01*
X98484160Y-50674078D01*
X98487168Y-50674105D01*
X98487987Y-50674112D01*
X98487989Y-50674112D01*
X98493370Y-50674159D01*
X98495254Y-50673626D01*
X98497137Y-50673500D01*
X99855500Y-50673500D01*
X99923621Y-50693502D01*
G37*
G04 #@! TD.AperFunction*
G04 #@! TA.AperFunction,Conductor*
G36*
X203200000Y-88391500D02*
G01*
X202569500Y-88391500D01*
X202501379Y-88371498D01*
X202454886Y-88317842D01*
X202443500Y-88265500D01*
X202443500Y-78740000D01*
X203200000Y-78740000D01*
X203200000Y-88391500D01*
G37*
G04 #@! TD.AperFunction*
G04 #@! TA.AperFunction,Conductor*
G36*
X194431500Y-88265500D02*
G01*
X194411498Y-88333621D01*
X194357842Y-88380114D01*
X194305500Y-88391500D01*
X194184500Y-88391500D01*
X194116379Y-88371498D01*
X194069886Y-88317842D01*
X194058500Y-88265500D01*
X194058500Y-78821866D01*
X194051745Y-78759684D01*
X194044366Y-78740000D01*
X194431500Y-78740000D01*
X194431500Y-88265500D01*
G37*
G04 #@! TD.AperFunction*
G04 #@! TA.AperFunction,Conductor*
G36*
X191068255Y-78759684D02*
G01*
X191061500Y-78821866D01*
X191061500Y-88265500D01*
X191041498Y-88333621D01*
X190987842Y-88380114D01*
X190935500Y-88391500D01*
X190224500Y-88391500D01*
X190156379Y-88371498D01*
X190109886Y-88317842D01*
X190098500Y-88265500D01*
X190098500Y-78821866D01*
X190091745Y-78759684D01*
X190084366Y-78740000D01*
X191075634Y-78740000D01*
X191068255Y-78759684D01*
G37*
G04 #@! TD.AperFunction*
G04 #@! TA.AperFunction,Conductor*
G36*
X179188255Y-78759684D02*
G01*
X179181500Y-78821866D01*
X179181500Y-88265500D01*
X179161498Y-88333621D01*
X179107842Y-88380114D01*
X179055500Y-88391500D01*
X178344500Y-88391500D01*
X178276379Y-88371498D01*
X178229886Y-88317842D01*
X178218500Y-88265500D01*
X178218500Y-78821866D01*
X178211745Y-78759684D01*
X178204366Y-78740000D01*
X179195634Y-78740000D01*
X179188255Y-78759684D01*
G37*
G04 #@! TD.AperFunction*
G04 #@! TA.AperFunction,Conductor*
G36*
X175228255Y-78759684D02*
G01*
X175221500Y-78821866D01*
X175221500Y-88265500D01*
X175201498Y-88333621D01*
X175147842Y-88380114D01*
X175095500Y-88391500D01*
X174384500Y-88391500D01*
X174316379Y-88371498D01*
X174269886Y-88317842D01*
X174258500Y-88265500D01*
X174258500Y-78821866D01*
X174251745Y-78759684D01*
X174244366Y-78740000D01*
X175235634Y-78740000D01*
X175228255Y-78759684D01*
G37*
G04 #@! TD.AperFunction*
G04 #@! TA.AperFunction,Conductor*
G36*
X171268255Y-78759684D02*
G01*
X171261500Y-78821866D01*
X171261500Y-88265500D01*
X171241498Y-88333621D01*
X171187842Y-88380114D01*
X171135500Y-88391500D01*
X170424500Y-88391500D01*
X170356379Y-88371498D01*
X170309886Y-88317842D01*
X170298500Y-88265500D01*
X170298500Y-78821866D01*
X170291745Y-78759684D01*
X170284366Y-78740000D01*
X171275634Y-78740000D01*
X171268255Y-78759684D01*
G37*
G04 #@! TD.AperFunction*
G04 #@! TA.AperFunction,Conductor*
G36*
X203200000Y-62230000D02*
G01*
X184150000Y-62230000D01*
X178435000Y-56515000D01*
X178435000Y-50674821D01*
X178498621Y-50693502D01*
X178545114Y-50747158D01*
X178556500Y-50799500D01*
X178556500Y-55827810D01*
X178559441Y-55882692D01*
X178562320Y-55909475D01*
X178562588Y-55911132D01*
X178562590Y-55911143D01*
X178570125Y-55957640D01*
X178570126Y-55957645D01*
X178571116Y-55963752D01*
X178573278Y-55969549D01*
X178573279Y-55969552D01*
X178613282Y-56076800D01*
X178622194Y-56100693D01*
X178624347Y-56104636D01*
X178624348Y-56104638D01*
X178635466Y-56124998D01*
X178656220Y-56163005D01*
X178658915Y-56166605D01*
X178741109Y-56276402D01*
X178741113Y-56276406D01*
X178743806Y-56280004D01*
X183749996Y-61286194D01*
X183790877Y-61322917D01*
X183811851Y-61339820D01*
X183813224Y-61340810D01*
X183851430Y-61368362D01*
X183851435Y-61368365D01*
X183856451Y-61371982D01*
X183989400Y-61432698D01*
X184013154Y-61439673D01*
X184053198Y-61451431D01*
X184053202Y-61451432D01*
X184057521Y-61452700D01*
X184061970Y-61453340D01*
X184061976Y-61453341D01*
X184197743Y-61472861D01*
X184197748Y-61472861D01*
X184202190Y-61473500D01*
X194874848Y-61473500D01*
X194892780Y-61474783D01*
X194933919Y-61480698D01*
X194942869Y-61480058D01*
X194969784Y-61481019D01*
X194974085Y-61481637D01*
X194993026Y-61484361D01*
X194993033Y-61484361D01*
X194997474Y-61485000D01*
X196951522Y-61485000D01*
X196978097Y-61483576D01*
X197004711Y-61482150D01*
X197004721Y-61482149D01*
X197006404Y-61482059D01*
X197033187Y-61479180D01*
X197034844Y-61478912D01*
X197034855Y-61478910D01*
X197081352Y-61471375D01*
X197081357Y-61471374D01*
X197087464Y-61470384D01*
X197093261Y-61468222D01*
X197093264Y-61468221D01*
X197220191Y-61420878D01*
X197220193Y-61420877D01*
X197224405Y-61419306D01*
X197248764Y-61406005D01*
X197282769Y-61387436D01*
X197282771Y-61387435D01*
X197286717Y-61385280D01*
X197346121Y-61340810D01*
X197400114Y-61300391D01*
X197400118Y-61300387D01*
X197403716Y-61297694D01*
X202256194Y-56445216D01*
X202292917Y-56404335D01*
X202309820Y-56383361D01*
X202317014Y-56373385D01*
X202338362Y-56343782D01*
X202338365Y-56343777D01*
X202341982Y-56338761D01*
X202402698Y-56205812D01*
X202415267Y-56163005D01*
X202421431Y-56142014D01*
X202421432Y-56142010D01*
X202422700Y-56137691D01*
X202425243Y-56120009D01*
X202442861Y-55997469D01*
X202442861Y-55997464D01*
X202443500Y-55993022D01*
X202443500Y-50799500D01*
X202463502Y-50731379D01*
X202517158Y-50684886D01*
X202569500Y-50673500D01*
X203200000Y-50673500D01*
X203200000Y-62230000D01*
G37*
G04 #@! TD.AperFunction*
M02*
