G04 #@! TF.GenerationSoftware,KiCad,Pcbnew,(6.0.6-0)*
G04 #@! TF.CreationDate,2022-11-15T04:41:17+09:00*
G04 #@! TF.ProjectId,MahJamma,4d61684a-616d-46d6-912e-6b696361645f,rev?*
G04 #@! TF.SameCoordinates,Original*
G04 #@! TF.FileFunction,Soldermask,Bot*
G04 #@! TF.FilePolarity,Negative*
%FSLAX46Y46*%
G04 Gerber Fmt 4.6, Leading zero omitted, Abs format (unit mm)*
G04 Created by KiCad (PCBNEW (6.0.6-0)) date 2022-11-15 04:41:17*
%MOMM*%
%LPD*%
G01*
G04 APERTURE LIST*
%ADD10R,1.980000X9.900000*%
%ADD11R,1.700000X1.700000*%
%ADD12O,1.700000X1.700000*%
%ADD13C,1.900000*%
%ADD14C,3.300000*%
G04 APERTURE END LIST*
D10*
X101480000Y-51435000D03*
X105440000Y-51435000D03*
X109400000Y-51435000D03*
X113360000Y-51435000D03*
X117320000Y-51435000D03*
X121280000Y-51435000D03*
X125240000Y-51435000D03*
X129200000Y-51435000D03*
X133160000Y-51435000D03*
X137120000Y-51435000D03*
X141080000Y-51435000D03*
X145040000Y-51435000D03*
X149000000Y-51435000D03*
X152960000Y-51435000D03*
X156920000Y-51435000D03*
X160880000Y-51435000D03*
X164840000Y-51435000D03*
X168800000Y-51435000D03*
X172760000Y-51435000D03*
X176720000Y-51435000D03*
X180680000Y-51435000D03*
X184640000Y-51435000D03*
X188600000Y-51435000D03*
X192560000Y-51435000D03*
X196520000Y-51435000D03*
X200480000Y-51435000D03*
X204440000Y-51435000D03*
X208400000Y-51435000D03*
D11*
X185415000Y-73655000D03*
D12*
X185415000Y-76195000D03*
X182875000Y-73655000D03*
X182875000Y-76195000D03*
X180335000Y-73655000D03*
X180335000Y-76195000D03*
X177795000Y-73655000D03*
X177795000Y-76195000D03*
X175255000Y-73655000D03*
X175255000Y-76195000D03*
D11*
X105410000Y-77470000D03*
D12*
X105410000Y-80010000D03*
D11*
X109220000Y-77470000D03*
D12*
X109220000Y-80010000D03*
D13*
X108120000Y-63810000D03*
X108120000Y-66310000D03*
X108120000Y-68310000D03*
X108120000Y-70810000D03*
D14*
X105410000Y-60740000D03*
X105410000Y-73880000D03*
D10*
X208400000Y-86360000D03*
X204440000Y-86360000D03*
X200480000Y-86360000D03*
X196520000Y-86360000D03*
X192560000Y-86360000D03*
X188600000Y-86360000D03*
X184640000Y-86360000D03*
X180680000Y-86360000D03*
X176720000Y-86360000D03*
X172760000Y-86360000D03*
X168800000Y-86360000D03*
X164840000Y-86360000D03*
X160880000Y-86360000D03*
X156920000Y-86360000D03*
X152960000Y-86360000D03*
X149000000Y-86360000D03*
X145040000Y-86360000D03*
X141080000Y-86360000D03*
X137120000Y-86360000D03*
X133160000Y-86360000D03*
X129200000Y-86360000D03*
X125240000Y-86360000D03*
X121280000Y-86360000D03*
X117320000Y-86360000D03*
X113360000Y-86360000D03*
X109400000Y-86360000D03*
X105440000Y-86360000D03*
X101480000Y-86360000D03*
M02*
