G04 #@! TF.GenerationSoftware,KiCad,Pcbnew,(6.0.6-0)*
G04 #@! TF.CreationDate,2022-08-27T20:22:06+09:00*
G04 #@! TF.ProjectId,MahJamma,4d61684a-616d-46d6-912e-6b696361645f,rev?*
G04 #@! TF.SameCoordinates,Original*
G04 #@! TF.FileFunction,Legend,Top*
G04 #@! TF.FilePolarity,Positive*
%FSLAX46Y46*%
G04 Gerber Fmt 4.6, Leading zero omitted, Abs format (unit mm)*
G04 Created by KiCad (PCBNEW (6.0.6-0)) date 2022-08-27 20:22:06*
%MOMM*%
%LPD*%
G01*
G04 APERTURE LIST*
%ADD10C,0.300000*%
%ADD11C,0.500000*%
%ADD12C,0.150000*%
%ADD13C,0.120000*%
%ADD14C,0.100000*%
G04 APERTURE END LIST*
D10*
X142201428Y-59098571D02*
X142201428Y-57598571D01*
X142701428Y-58670000D01*
X143201428Y-57598571D01*
X143201428Y-59098571D01*
X143844285Y-58670000D02*
X144558571Y-58670000D01*
X143701428Y-59098571D02*
X144201428Y-57598571D01*
X144701428Y-59098571D01*
X145201428Y-59098571D02*
X145201428Y-57598571D01*
X145201428Y-58312857D02*
X146058571Y-58312857D01*
X146058571Y-59098571D02*
X146058571Y-57598571D01*
X147201428Y-57598571D02*
X147201428Y-58670000D01*
X147130000Y-58884285D01*
X146987142Y-59027142D01*
X146772857Y-59098571D01*
X146630000Y-59098571D01*
X148201428Y-57598571D02*
X148487142Y-57598571D01*
X148630000Y-57670000D01*
X148772857Y-57812857D01*
X148844285Y-58098571D01*
X148844285Y-58598571D01*
X148772857Y-58884285D01*
X148630000Y-59027142D01*
X148487142Y-59098571D01*
X148201428Y-59098571D01*
X148058571Y-59027142D01*
X147915714Y-58884285D01*
X147844285Y-58598571D01*
X147844285Y-58098571D01*
X147915714Y-57812857D01*
X148058571Y-57670000D01*
X148201428Y-57598571D01*
X149487142Y-59098571D02*
X149487142Y-57598571D01*
X150344285Y-59098571D01*
X150344285Y-57598571D01*
X151844285Y-57670000D02*
X151701428Y-57598571D01*
X151487142Y-57598571D01*
X151272857Y-57670000D01*
X151130000Y-57812857D01*
X151058571Y-57955714D01*
X150987142Y-58241428D01*
X150987142Y-58455714D01*
X151058571Y-58741428D01*
X151130000Y-58884285D01*
X151272857Y-59027142D01*
X151487142Y-59098571D01*
X151630000Y-59098571D01*
X151844285Y-59027142D01*
X151915714Y-58955714D01*
X151915714Y-58455714D01*
X151630000Y-58455714D01*
X154201428Y-58312857D02*
X153701428Y-58312857D01*
X153701428Y-59098571D02*
X153701428Y-57598571D01*
X154415714Y-57598571D01*
X155844285Y-59098571D02*
X155344285Y-58384285D01*
X154987142Y-59098571D02*
X154987142Y-57598571D01*
X155558571Y-57598571D01*
X155701428Y-57670000D01*
X155772857Y-57741428D01*
X155844285Y-57884285D01*
X155844285Y-58098571D01*
X155772857Y-58241428D01*
X155701428Y-58312857D01*
X155558571Y-58384285D01*
X154987142Y-58384285D01*
X156772857Y-57598571D02*
X157058571Y-57598571D01*
X157201428Y-57670000D01*
X157344285Y-57812857D01*
X157415714Y-58098571D01*
X157415714Y-58598571D01*
X157344285Y-58884285D01*
X157201428Y-59027142D01*
X157058571Y-59098571D01*
X156772857Y-59098571D01*
X156630000Y-59027142D01*
X156487142Y-58884285D01*
X156415714Y-58598571D01*
X156415714Y-58098571D01*
X156487142Y-57812857D01*
X156630000Y-57670000D01*
X156772857Y-57598571D01*
X158058571Y-59098571D02*
X158058571Y-57598571D01*
X158915714Y-59098571D01*
X158915714Y-57598571D01*
X159415714Y-57598571D02*
X160272857Y-57598571D01*
X159844285Y-59098571D02*
X159844285Y-57598571D01*
X144880000Y-76013571D02*
X144880000Y-77085000D01*
X144808571Y-77299285D01*
X144665714Y-77442142D01*
X144451428Y-77513571D01*
X144308571Y-77513571D01*
X145522857Y-77085000D02*
X146237142Y-77085000D01*
X145380000Y-77513571D02*
X145880000Y-76013571D01*
X146380000Y-77513571D01*
X146880000Y-77513571D02*
X146880000Y-76013571D01*
X147380000Y-77085000D01*
X147880000Y-76013571D01*
X147880000Y-77513571D01*
X148594285Y-77513571D02*
X148594285Y-76013571D01*
X149094285Y-77085000D01*
X149594285Y-76013571D01*
X149594285Y-77513571D01*
X150237142Y-77085000D02*
X150951428Y-77085000D01*
X150094285Y-77513571D02*
X150594285Y-76013571D01*
X151094285Y-77513571D01*
X153237142Y-76727857D02*
X153451428Y-76799285D01*
X153522857Y-76870714D01*
X153594285Y-77013571D01*
X153594285Y-77227857D01*
X153522857Y-77370714D01*
X153451428Y-77442142D01*
X153308571Y-77513571D01*
X152737142Y-77513571D01*
X152737142Y-76013571D01*
X153237142Y-76013571D01*
X153380000Y-76085000D01*
X153451428Y-76156428D01*
X153522857Y-76299285D01*
X153522857Y-76442142D01*
X153451428Y-76585000D01*
X153380000Y-76656428D01*
X153237142Y-76727857D01*
X152737142Y-76727857D01*
X154165714Y-77085000D02*
X154880000Y-77085000D01*
X154022857Y-77513571D02*
X154522857Y-76013571D01*
X155022857Y-77513571D01*
X156380000Y-77370714D02*
X156308571Y-77442142D01*
X156094285Y-77513571D01*
X155951428Y-77513571D01*
X155737142Y-77442142D01*
X155594285Y-77299285D01*
X155522857Y-77156428D01*
X155451428Y-76870714D01*
X155451428Y-76656428D01*
X155522857Y-76370714D01*
X155594285Y-76227857D01*
X155737142Y-76085000D01*
X155951428Y-76013571D01*
X156094285Y-76013571D01*
X156308571Y-76085000D01*
X156380000Y-76156428D01*
X157022857Y-77513571D02*
X157022857Y-76013571D01*
X157880000Y-77513571D02*
X157237142Y-76656428D01*
X157880000Y-76013571D02*
X157022857Y-76870714D01*
D11*
X171634999Y-61047142D02*
X171634999Y-58047142D01*
X172634999Y-60190000D01*
X173634999Y-58047142D01*
X173634999Y-61047142D01*
X175063571Y-61047142D02*
X175063571Y-58047142D01*
X176206428Y-58047142D01*
X176492142Y-58190000D01*
X176634999Y-58332857D01*
X176777857Y-58618571D01*
X176777857Y-59047142D01*
X176634999Y-59332857D01*
X176492142Y-59475714D01*
X176206428Y-59618571D01*
X175063571Y-59618571D01*
X179634999Y-61047142D02*
X177920714Y-61047142D01*
X178777857Y-61047142D02*
X178777857Y-58047142D01*
X178492142Y-58475714D01*
X178206428Y-58761428D01*
X177920714Y-58904285D01*
X182492142Y-61047142D02*
X180777857Y-61047142D01*
X181634999Y-61047142D02*
X181634999Y-58047142D01*
X181349285Y-58475714D01*
X181063571Y-58761428D01*
X180777857Y-58904285D01*
X183777857Y-59904285D02*
X186063571Y-59904285D01*
X187492142Y-61047142D02*
X187492142Y-58047142D01*
X188492142Y-60190000D01*
X189492142Y-58047142D01*
X189492142Y-61047142D01*
X192206428Y-61047142D02*
X192206428Y-59475714D01*
X192063571Y-59190000D01*
X191777857Y-59047142D01*
X191206428Y-59047142D01*
X190920714Y-59190000D01*
X192206428Y-60904285D02*
X191920714Y-61047142D01*
X191206428Y-61047142D01*
X190920714Y-60904285D01*
X190777857Y-60618571D01*
X190777857Y-60332857D01*
X190920714Y-60047142D01*
X191206428Y-59904285D01*
X191920714Y-59904285D01*
X192206428Y-59761428D01*
X193634999Y-61047142D02*
X193634999Y-58047142D01*
X194920714Y-61047142D02*
X194920714Y-59475714D01*
X194777857Y-59190000D01*
X194492142Y-59047142D01*
X194063571Y-59047142D01*
X193777857Y-59190000D01*
X193634999Y-59332857D01*
X197206428Y-58047142D02*
X197206428Y-60190000D01*
X197063571Y-60618571D01*
X196777857Y-60904285D01*
X196349285Y-61047142D01*
X196063571Y-61047142D01*
X199920714Y-61047142D02*
X199920714Y-59475714D01*
X199777857Y-59190000D01*
X199492142Y-59047142D01*
X198920714Y-59047142D01*
X198634999Y-59190000D01*
X199920714Y-60904285D02*
X199634999Y-61047142D01*
X198920714Y-61047142D01*
X198634999Y-60904285D01*
X198492142Y-60618571D01*
X198492142Y-60332857D01*
X198634999Y-60047142D01*
X198920714Y-59904285D01*
X199634999Y-59904285D01*
X199920714Y-59761428D01*
X201349285Y-61047142D02*
X201349285Y-59047142D01*
X201349285Y-59332857D02*
X201492142Y-59190000D01*
X201777857Y-59047142D01*
X202206428Y-59047142D01*
X202492142Y-59190000D01*
X202634999Y-59475714D01*
X202634999Y-61047142D01*
X202634999Y-59475714D02*
X202777857Y-59190000D01*
X203063571Y-59047142D01*
X203492142Y-59047142D01*
X203777857Y-59190000D01*
X203920714Y-59475714D01*
X203920714Y-61047142D01*
X205349285Y-61047142D02*
X205349285Y-59047142D01*
X205349285Y-59332857D02*
X205492142Y-59190000D01*
X205777857Y-59047142D01*
X206206428Y-59047142D01*
X206492142Y-59190000D01*
X206634999Y-59475714D01*
X206634999Y-61047142D01*
X206634999Y-59475714D02*
X206777857Y-59190000D01*
X207063571Y-59047142D01*
X207492142Y-59047142D01*
X207777857Y-59190000D01*
X207920714Y-59475714D01*
X207920714Y-61047142D01*
X210634999Y-61047142D02*
X210634999Y-59475714D01*
X210492142Y-59190000D01*
X210206428Y-59047142D01*
X209634999Y-59047142D01*
X209349285Y-59190000D01*
X210634999Y-60904285D02*
X210349285Y-61047142D01*
X209634999Y-61047142D01*
X209349285Y-60904285D01*
X209206428Y-60618571D01*
X209206428Y-60332857D01*
X209349285Y-60047142D01*
X209634999Y-59904285D01*
X210349285Y-59904285D01*
X210634999Y-59761428D01*
D10*
X187760000Y-71631071D02*
X188260000Y-73131071D01*
X188760000Y-71631071D01*
X189831428Y-73059642D02*
X189688571Y-73131071D01*
X189402857Y-73131071D01*
X189260000Y-73059642D01*
X189188571Y-72916785D01*
X189188571Y-72345357D01*
X189260000Y-72202500D01*
X189402857Y-72131071D01*
X189688571Y-72131071D01*
X189831428Y-72202500D01*
X189902857Y-72345357D01*
X189902857Y-72488214D01*
X189188571Y-72631071D01*
X190545714Y-73131071D02*
X190545714Y-72131071D01*
X190545714Y-72416785D02*
X190617142Y-72273928D01*
X190688571Y-72202500D01*
X190831428Y-72131071D01*
X190974285Y-72131071D01*
X193402857Y-73131071D02*
X192545714Y-73131071D01*
X192974285Y-73131071D02*
X192974285Y-71631071D01*
X192831428Y-71845357D01*
X192688571Y-71988214D01*
X192545714Y-72059642D01*
X194045714Y-72988214D02*
X194117142Y-73059642D01*
X194045714Y-73131071D01*
X193974285Y-73059642D01*
X194045714Y-72988214D01*
X194045714Y-73131071D01*
X195045714Y-71631071D02*
X195188571Y-71631071D01*
X195331428Y-71702500D01*
X195402857Y-71773928D01*
X195474285Y-71916785D01*
X195545714Y-72202500D01*
X195545714Y-72559642D01*
X195474285Y-72845357D01*
X195402857Y-72988214D01*
X195331428Y-73059642D01*
X195188571Y-73131071D01*
X195045714Y-73131071D01*
X194902857Y-73059642D01*
X194831428Y-72988214D01*
X194760000Y-72845357D01*
X194688571Y-72559642D01*
X194688571Y-72202500D01*
X194760000Y-71916785D01*
X194831428Y-71773928D01*
X194902857Y-71702500D01*
X195045714Y-71631071D01*
X196474285Y-71631071D02*
X196617142Y-71631071D01*
X196760000Y-71702500D01*
X196831428Y-71773928D01*
X196902857Y-71916785D01*
X196974285Y-72202500D01*
X196974285Y-72559642D01*
X196902857Y-72845357D01*
X196831428Y-72988214D01*
X196760000Y-73059642D01*
X196617142Y-73131071D01*
X196474285Y-73131071D01*
X196331428Y-73059642D01*
X196260000Y-72988214D01*
X196188571Y-72845357D01*
X196117142Y-72559642D01*
X196117142Y-72202500D01*
X196188571Y-71916785D01*
X196260000Y-71773928D01*
X196331428Y-71702500D01*
X196474285Y-71631071D01*
X198688571Y-71773928D02*
X198760000Y-71702500D01*
X198902857Y-71631071D01*
X199260000Y-71631071D01*
X199402857Y-71702500D01*
X199474285Y-71773928D01*
X199545714Y-71916785D01*
X199545714Y-72059642D01*
X199474285Y-72273928D01*
X198617142Y-73131071D01*
X199545714Y-73131071D01*
X200474285Y-71631071D02*
X200617142Y-71631071D01*
X200760000Y-71702500D01*
X200831428Y-71773928D01*
X200902857Y-71916785D01*
X200974285Y-72202500D01*
X200974285Y-72559642D01*
X200902857Y-72845357D01*
X200831428Y-72988214D01*
X200760000Y-73059642D01*
X200617142Y-73131071D01*
X200474285Y-73131071D01*
X200331428Y-73059642D01*
X200260000Y-72988214D01*
X200188571Y-72845357D01*
X200117142Y-72559642D01*
X200117142Y-72202500D01*
X200188571Y-71916785D01*
X200260000Y-71773928D01*
X200331428Y-71702500D01*
X200474285Y-71631071D01*
X201545714Y-71773928D02*
X201617142Y-71702500D01*
X201760000Y-71631071D01*
X202117142Y-71631071D01*
X202260000Y-71702500D01*
X202331428Y-71773928D01*
X202402857Y-71916785D01*
X202402857Y-72059642D01*
X202331428Y-72273928D01*
X201474285Y-73131071D01*
X202402857Y-73131071D01*
X202974285Y-71773928D02*
X203045714Y-71702500D01*
X203188571Y-71631071D01*
X203545714Y-71631071D01*
X203688571Y-71702500D01*
X203760000Y-71773928D01*
X203831428Y-71916785D01*
X203831428Y-72059642D01*
X203760000Y-72273928D01*
X202902857Y-73131071D01*
X203831428Y-73131071D01*
X204474285Y-72988214D02*
X204545714Y-73059642D01*
X204474285Y-73131071D01*
X204402857Y-73059642D01*
X204474285Y-72988214D01*
X204474285Y-73131071D01*
X205474285Y-71631071D02*
X205617142Y-71631071D01*
X205760000Y-71702500D01*
X205831428Y-71773928D01*
X205902857Y-71916785D01*
X205974285Y-72202500D01*
X205974285Y-72559642D01*
X205902857Y-72845357D01*
X205831428Y-72988214D01*
X205760000Y-73059642D01*
X205617142Y-73131071D01*
X205474285Y-73131071D01*
X205331428Y-73059642D01*
X205260000Y-72988214D01*
X205188571Y-72845357D01*
X205117142Y-72559642D01*
X205117142Y-72202500D01*
X205188571Y-71916785D01*
X205260000Y-71773928D01*
X205331428Y-71702500D01*
X205474285Y-71631071D01*
X206831428Y-72273928D02*
X206688571Y-72202500D01*
X206617142Y-72131071D01*
X206545714Y-71988214D01*
X206545714Y-71916785D01*
X206617142Y-71773928D01*
X206688571Y-71702500D01*
X206831428Y-71631071D01*
X207117142Y-71631071D01*
X207260000Y-71702500D01*
X207331428Y-71773928D01*
X207402857Y-71916785D01*
X207402857Y-71988214D01*
X207331428Y-72131071D01*
X207260000Y-72202500D01*
X207117142Y-72273928D01*
X206831428Y-72273928D01*
X206688571Y-72345357D01*
X206617142Y-72416785D01*
X206545714Y-72559642D01*
X206545714Y-72845357D01*
X206617142Y-72988214D01*
X206688571Y-73059642D01*
X206831428Y-73131071D01*
X207117142Y-73131071D01*
X207260000Y-73059642D01*
X207331428Y-72988214D01*
X207402857Y-72845357D01*
X207402857Y-72559642D01*
X207331428Y-72416785D01*
X207260000Y-72345357D01*
X207117142Y-72273928D01*
X208045714Y-72988214D02*
X208117142Y-73059642D01*
X208045714Y-73131071D01*
X207974285Y-73059642D01*
X208045714Y-72988214D01*
X208045714Y-73131071D01*
X208688571Y-71773928D02*
X208760000Y-71702500D01*
X208902857Y-71631071D01*
X209260000Y-71631071D01*
X209402857Y-71702500D01*
X209474285Y-71773928D01*
X209545714Y-71916785D01*
X209545714Y-72059642D01*
X209474285Y-72273928D01*
X208617142Y-73131071D01*
X209545714Y-73131071D01*
X210045714Y-71631071D02*
X211045714Y-71631071D01*
X210402857Y-73131071D01*
X183617142Y-75546071D02*
X183617142Y-74046071D01*
X183974285Y-74046071D01*
X184188571Y-74117500D01*
X184331428Y-74260357D01*
X184402857Y-74403214D01*
X184474285Y-74688928D01*
X184474285Y-74903214D01*
X184402857Y-75188928D01*
X184331428Y-75331785D01*
X184188571Y-75474642D01*
X183974285Y-75546071D01*
X183617142Y-75546071D01*
X185688571Y-75474642D02*
X185545714Y-75546071D01*
X185260000Y-75546071D01*
X185117142Y-75474642D01*
X185045714Y-75331785D01*
X185045714Y-74760357D01*
X185117142Y-74617500D01*
X185260000Y-74546071D01*
X185545714Y-74546071D01*
X185688571Y-74617500D01*
X185760000Y-74760357D01*
X185760000Y-74903214D01*
X185045714Y-75046071D01*
X186331428Y-75474642D02*
X186474285Y-75546071D01*
X186760000Y-75546071D01*
X186902857Y-75474642D01*
X186974285Y-75331785D01*
X186974285Y-75260357D01*
X186902857Y-75117500D01*
X186760000Y-75046071D01*
X186545714Y-75046071D01*
X186402857Y-74974642D01*
X186331428Y-74831785D01*
X186331428Y-74760357D01*
X186402857Y-74617500D01*
X186545714Y-74546071D01*
X186760000Y-74546071D01*
X186902857Y-74617500D01*
X187617142Y-75546071D02*
X187617142Y-74546071D01*
X187617142Y-74046071D02*
X187545714Y-74117500D01*
X187617142Y-74188928D01*
X187688571Y-74117500D01*
X187617142Y-74046071D01*
X187617142Y-74188928D01*
X188974285Y-74546071D02*
X188974285Y-75760357D01*
X188902857Y-75903214D01*
X188831428Y-75974642D01*
X188688571Y-76046071D01*
X188474285Y-76046071D01*
X188331428Y-75974642D01*
X188974285Y-75474642D02*
X188831428Y-75546071D01*
X188545714Y-75546071D01*
X188402857Y-75474642D01*
X188331428Y-75403214D01*
X188260000Y-75260357D01*
X188260000Y-74831785D01*
X188331428Y-74688928D01*
X188402857Y-74617500D01*
X188545714Y-74546071D01*
X188831428Y-74546071D01*
X188974285Y-74617500D01*
X189688571Y-74546071D02*
X189688571Y-75546071D01*
X189688571Y-74688928D02*
X189760000Y-74617500D01*
X189902857Y-74546071D01*
X190117142Y-74546071D01*
X190260000Y-74617500D01*
X190331428Y-74760357D01*
X190331428Y-75546071D01*
X191617142Y-75474642D02*
X191474285Y-75546071D01*
X191188571Y-75546071D01*
X191045714Y-75474642D01*
X190974285Y-75331785D01*
X190974285Y-74760357D01*
X191045714Y-74617500D01*
X191188571Y-74546071D01*
X191474285Y-74546071D01*
X191617142Y-74617500D01*
X191688571Y-74760357D01*
X191688571Y-74903214D01*
X190974285Y-75046071D01*
X192974285Y-75546071D02*
X192974285Y-74046071D01*
X192974285Y-75474642D02*
X192831428Y-75546071D01*
X192545714Y-75546071D01*
X192402857Y-75474642D01*
X192331428Y-75403214D01*
X192260000Y-75260357D01*
X192260000Y-74831785D01*
X192331428Y-74688928D01*
X192402857Y-74617500D01*
X192545714Y-74546071D01*
X192831428Y-74546071D01*
X192974285Y-74617500D01*
X194831428Y-75546071D02*
X194831428Y-74046071D01*
X194831428Y-74617500D02*
X194974285Y-74546071D01*
X195260000Y-74546071D01*
X195402857Y-74617500D01*
X195474285Y-74688928D01*
X195545714Y-74831785D01*
X195545714Y-75260357D01*
X195474285Y-75403214D01*
X195402857Y-75474642D01*
X195260000Y-75546071D01*
X194974285Y-75546071D01*
X194831428Y-75474642D01*
X196045714Y-74546071D02*
X196402857Y-75546071D01*
X196760000Y-74546071D02*
X196402857Y-75546071D01*
X196260000Y-75903214D01*
X196188571Y-75974642D01*
X196045714Y-76046071D01*
X198474285Y-75546071D02*
X198474285Y-74046071D01*
X198974285Y-75117500D01*
X199474285Y-74046071D01*
X199474285Y-75546071D01*
X200760000Y-75474642D02*
X200617142Y-75546071D01*
X200331428Y-75546071D01*
X200188571Y-75474642D01*
X200117142Y-75331785D01*
X200117142Y-74760357D01*
X200188571Y-74617500D01*
X200331428Y-74546071D01*
X200617142Y-74546071D01*
X200760000Y-74617500D01*
X200831428Y-74760357D01*
X200831428Y-74903214D01*
X200117142Y-75046071D01*
X201688571Y-75546071D02*
X201545714Y-75474642D01*
X201474285Y-75331785D01*
X201474285Y-74046071D01*
X202474285Y-75546071D02*
X202331428Y-75474642D01*
X202260000Y-75331785D01*
X202260000Y-74046071D01*
X203260000Y-75546071D02*
X203117142Y-75474642D01*
X203045714Y-75403214D01*
X202974285Y-75260357D01*
X202974285Y-74831785D01*
X203045714Y-74688928D01*
X203117142Y-74617500D01*
X203260000Y-74546071D01*
X203474285Y-74546071D01*
X203617142Y-74617500D01*
X203688571Y-74688928D01*
X203760000Y-74831785D01*
X203760000Y-75260357D01*
X203688571Y-75403214D01*
X203617142Y-75474642D01*
X203474285Y-75546071D01*
X203260000Y-75546071D01*
X204260000Y-74546071D02*
X204545714Y-75546071D01*
X204831428Y-74831785D01*
X205117142Y-75546071D01*
X205402857Y-74546071D01*
X207117142Y-75546071D02*
X207117142Y-74046071D01*
X207688571Y-74046071D01*
X207831428Y-74117500D01*
X207902857Y-74188928D01*
X207974285Y-74331785D01*
X207974285Y-74546071D01*
X207902857Y-74688928D01*
X207831428Y-74760357D01*
X207688571Y-74831785D01*
X207117142Y-74831785D01*
X209474285Y-75403214D02*
X209402857Y-75474642D01*
X209188571Y-75546071D01*
X209045714Y-75546071D01*
X208831428Y-75474642D01*
X208688571Y-75331785D01*
X208617142Y-75188928D01*
X208545714Y-74903214D01*
X208545714Y-74688928D01*
X208617142Y-74403214D01*
X208688571Y-74260357D01*
X208831428Y-74117500D01*
X209045714Y-74046071D01*
X209188571Y-74046071D01*
X209402857Y-74117500D01*
X209474285Y-74188928D01*
X210617142Y-74760357D02*
X210831428Y-74831785D01*
X210902857Y-74903214D01*
X210974285Y-75046071D01*
X210974285Y-75260357D01*
X210902857Y-75403214D01*
X210831428Y-75474642D01*
X210688571Y-75546071D01*
X210117142Y-75546071D01*
X210117142Y-74046071D01*
X210617142Y-74046071D01*
X210760000Y-74117500D01*
X210831428Y-74188928D01*
X210902857Y-74331785D01*
X210902857Y-74474642D01*
X210831428Y-74617500D01*
X210760000Y-74688928D01*
X210617142Y-74760357D01*
X210117142Y-74760357D01*
D12*
X116673333Y-62587142D02*
X116625714Y-62634761D01*
X116482857Y-62682380D01*
X116387619Y-62682380D01*
X116244761Y-62634761D01*
X116149523Y-62539523D01*
X116101904Y-62444285D01*
X116054285Y-62253809D01*
X116054285Y-62110952D01*
X116101904Y-61920476D01*
X116149523Y-61825238D01*
X116244761Y-61730000D01*
X116387619Y-61682380D01*
X116482857Y-61682380D01*
X116625714Y-61730000D01*
X116673333Y-61777619D01*
X117054285Y-61777619D02*
X117101904Y-61730000D01*
X117197142Y-61682380D01*
X117435238Y-61682380D01*
X117530476Y-61730000D01*
X117578095Y-61777619D01*
X117625714Y-61872857D01*
X117625714Y-61968095D01*
X117578095Y-62110952D01*
X117006666Y-62682380D01*
X117625714Y-62682380D01*
X114808095Y-69937380D02*
X114808095Y-70746904D01*
X114855714Y-70842142D01*
X114903333Y-70889761D01*
X114998571Y-70937380D01*
X115189047Y-70937380D01*
X115284285Y-70889761D01*
X115331904Y-70842142D01*
X115379523Y-70746904D01*
X115379523Y-69937380D01*
X116379523Y-70937380D02*
X115808095Y-70937380D01*
X116093809Y-70937380D02*
X116093809Y-69937380D01*
X115998571Y-70080238D01*
X115903333Y-70175476D01*
X115808095Y-70223095D01*
X119213333Y-62587142D02*
X119165714Y-62634761D01*
X119022857Y-62682380D01*
X118927619Y-62682380D01*
X118784761Y-62634761D01*
X118689523Y-62539523D01*
X118641904Y-62444285D01*
X118594285Y-62253809D01*
X118594285Y-62110952D01*
X118641904Y-61920476D01*
X118689523Y-61825238D01*
X118784761Y-61730000D01*
X118927619Y-61682380D01*
X119022857Y-61682380D01*
X119165714Y-61730000D01*
X119213333Y-61777619D01*
X120165714Y-62682380D02*
X119594285Y-62682380D01*
X119880000Y-62682380D02*
X119880000Y-61682380D01*
X119784761Y-61825238D01*
X119689523Y-61920476D01*
X119594285Y-61968095D01*
D13*
X116330000Y-64916267D02*
X116330000Y-64623733D01*
X117350000Y-64916267D02*
X117350000Y-64623733D01*
X120635000Y-68780000D02*
X121085000Y-68780000D01*
X113865000Y-76000000D02*
X113865000Y-75550000D01*
X113865000Y-68780000D02*
X113865000Y-69230000D01*
X120635000Y-76000000D02*
X121085000Y-76000000D01*
X121085000Y-76000000D02*
X121085000Y-75550000D01*
X114315000Y-68780000D02*
X113865000Y-68780000D01*
X114315000Y-76000000D02*
X113865000Y-76000000D01*
X113865000Y-69230000D02*
X112575000Y-69230000D01*
X121085000Y-68780000D02*
X121085000Y-69230000D01*
X118870000Y-64916267D02*
X118870000Y-64623733D01*
X119890000Y-64916267D02*
X119890000Y-64623733D01*
X123765000Y-73655000D02*
X123765000Y-72325000D01*
X123765000Y-77525000D02*
X126425000Y-77525000D01*
X123765000Y-74925000D02*
X123765000Y-77525000D01*
X123765000Y-74925000D02*
X126425000Y-74925000D01*
X123765000Y-72325000D02*
X125095000Y-72325000D01*
X126425000Y-74925000D02*
X126425000Y-77525000D01*
X127575000Y-73655000D02*
X127575000Y-72325000D01*
X127575000Y-77525000D02*
X130235000Y-77525000D01*
X127575000Y-74925000D02*
X127575000Y-77525000D01*
X127575000Y-74925000D02*
X130235000Y-74925000D01*
X127575000Y-72325000D02*
X128905000Y-72325000D01*
X130235000Y-74925000D02*
X130235000Y-77525000D01*
D14*
X109120000Y-73985000D02*
X108395000Y-73985000D01*
X109120000Y-73035000D02*
X109120000Y-73985000D01*
X95790000Y-61610000D02*
X95790000Y-60635000D01*
X109120000Y-60635000D02*
X108320000Y-60635000D01*
X96440000Y-73985000D02*
X95790000Y-73985000D01*
X95790000Y-60635000D02*
X96465000Y-60635000D01*
X109120000Y-61660000D02*
X109120000Y-60635000D01*
X95790000Y-73985000D02*
X95790000Y-73285000D01*
M02*
